%TF.GenerationSoftware,KiCad,Pcbnew,8.0.6*%
%TF.CreationDate,2024-11-23T19:07:32+01:00*%
%TF.ProjectId,function_generator,66756e63-7469-46f6-9e5f-67656e657261,rev?*%
%TF.SameCoordinates,Original*%
%TF.FileFunction,Copper,L2,Bot*%
%TF.FilePolarity,Positive*%
%FSLAX46Y46*%
G04 Gerber Fmt 4.6, Leading zero omitted, Abs format (unit mm)*
G04 Created by KiCad (PCBNEW 8.0.6) date 2024-11-23 19:07:32*
%MOMM*%
%LPD*%
G01*
G04 APERTURE LIST*
%TA.AperFunction,ComponentPad*%
%ADD10C,1.600000*%
%TD*%
%TA.AperFunction,ComponentPad*%
%ADD11R,1.700000X1.700000*%
%TD*%
%TA.AperFunction,ComponentPad*%
%ADD12O,1.700000X1.700000*%
%TD*%
%TA.AperFunction,ComponentPad*%
%ADD13O,1.600000X1.600000*%
%TD*%
%TA.AperFunction,ComponentPad*%
%ADD14R,2.000000X1.905000*%
%TD*%
%TA.AperFunction,ComponentPad*%
%ADD15O,2.000000X1.905000*%
%TD*%
%TA.AperFunction,ComponentPad*%
%ADD16R,1.600000X1.600000*%
%TD*%
%TA.AperFunction,ComponentPad*%
%ADD17R,2.000000X2.000000*%
%TD*%
%TA.AperFunction,ComponentPad*%
%ADD18C,2.000000*%
%TD*%
%TA.AperFunction,ComponentPad*%
%ADD19O,1.600000X2.500000*%
%TD*%
%TA.AperFunction,ComponentPad*%
%ADD20O,3.500000X7.000000*%
%TD*%
%TA.AperFunction,ViaPad*%
%ADD21C,0.600000*%
%TD*%
%TA.AperFunction,Conductor*%
%ADD22C,0.250000*%
%TD*%
G04 APERTURE END LIST*
D10*
X131640000Y-134030000D03*
X131640000Y-129030000D03*
D11*
X165840000Y-73150000D03*
D12*
X165840000Y-75690000D03*
X165840000Y-78230000D03*
X165840000Y-80770000D03*
X165840000Y-83310000D03*
X165840000Y-85850000D03*
D10*
X142980000Y-79430000D03*
D13*
X150600000Y-79430000D03*
D10*
X142870000Y-124580000D03*
D13*
X150490000Y-124580000D03*
D14*
X113290000Y-120930000D03*
D15*
X113290000Y-118390000D03*
X113290000Y-115850000D03*
D16*
X120360000Y-96030000D03*
D13*
X122900000Y-96030000D03*
X125440000Y-96030000D03*
X127980000Y-96030000D03*
X127980000Y-88410000D03*
X125440000Y-88410000D03*
X122900000Y-88410000D03*
X120360000Y-88410000D03*
D14*
X113290000Y-108580000D03*
D15*
X113290000Y-106040000D03*
X113290000Y-103500000D03*
D14*
X113290000Y-134030000D03*
D15*
X113290000Y-131490000D03*
X113290000Y-128950000D03*
D11*
X112290000Y-74480000D03*
D12*
X112290000Y-77020000D03*
X112290000Y-79560000D03*
D11*
X139150000Y-78080000D03*
X154390000Y-78080000D03*
D12*
X139150000Y-80620000D03*
X154390000Y-80620000D03*
X139150000Y-83160000D03*
X154390000Y-83160000D03*
X139150000Y-85700000D03*
X154390000Y-85700000D03*
X139150000Y-88240000D03*
X154390000Y-88240000D03*
X139150000Y-90780000D03*
X154390000Y-90780000D03*
X139150000Y-93320000D03*
X154390000Y-93320000D03*
X139150000Y-95860000D03*
X154390000Y-95860000D03*
X139150000Y-98400000D03*
X154390000Y-98400000D03*
X139150000Y-100940000D03*
X154390000Y-100940000D03*
X139150000Y-103480000D03*
X154390000Y-103480000D03*
X139150000Y-106020000D03*
X154390000Y-106020000D03*
X139150000Y-108560000D03*
X154390000Y-108560000D03*
X139150000Y-111100000D03*
X154390000Y-111100000D03*
X139150000Y-113640000D03*
X154390000Y-113640000D03*
X139150000Y-116180000D03*
X154390000Y-116180000D03*
X139150000Y-118720000D03*
X154390000Y-118720000D03*
X139150000Y-121260000D03*
X154390000Y-121260000D03*
X139150000Y-123800000D03*
X154390000Y-123800000D03*
X139150000Y-126340000D03*
X154390000Y-126340000D03*
D10*
X143020000Y-111830000D03*
D13*
X150640000Y-111830000D03*
D11*
X165690000Y-93360000D03*
D12*
X165690000Y-95900000D03*
X165690000Y-98440000D03*
D10*
X143020000Y-105230000D03*
D13*
X150640000Y-105230000D03*
D11*
X165640000Y-116820000D03*
D12*
X165640000Y-119360000D03*
X165640000Y-121900000D03*
D11*
X112290000Y-62500000D03*
D12*
X112290000Y-65040000D03*
X112290000Y-67580000D03*
D16*
X120590000Y-83780000D03*
D13*
X123130000Y-83780000D03*
X125670000Y-83780000D03*
X128210000Y-83780000D03*
X128210000Y-76160000D03*
X125670000Y-76160000D03*
X123130000Y-76160000D03*
X120590000Y-76160000D03*
D11*
X112290000Y-86130000D03*
D12*
X112290000Y-88670000D03*
X112290000Y-91210000D03*
X112290000Y-93750000D03*
X112290000Y-96290000D03*
D10*
X142980000Y-85780000D03*
D13*
X150600000Y-85780000D03*
D10*
X142980000Y-98780000D03*
D13*
X150600000Y-98780000D03*
D17*
X123740000Y-121047677D03*
D18*
X123740000Y-116047677D03*
D10*
X119390000Y-133980000D03*
X119390000Y-128980000D03*
D11*
X165640000Y-104830000D03*
D12*
X165640000Y-107370000D03*
X165640000Y-109910000D03*
D11*
X165540000Y-128300000D03*
D12*
X165540000Y-130840000D03*
X165540000Y-133380000D03*
X165540000Y-135920000D03*
D17*
X123740000Y-108530000D03*
D18*
X123740000Y-103530000D03*
D19*
X141010000Y-67960000D03*
D20*
X135930000Y-62880000D03*
D19*
X138470000Y-67960000D03*
D20*
X146090000Y-62880000D03*
D10*
X142980000Y-92180000D03*
D13*
X150600000Y-92180000D03*
D16*
X120550000Y-71530000D03*
D13*
X123090000Y-71530000D03*
X125630000Y-71530000D03*
X128170000Y-71530000D03*
X128170000Y-63910000D03*
X125630000Y-63910000D03*
X123090000Y-63910000D03*
X120550000Y-63910000D03*
D11*
X165840000Y-61050000D03*
D12*
X165840000Y-63590000D03*
X165840000Y-66130000D03*
D10*
X125290000Y-133980000D03*
X125290000Y-128980000D03*
X142870000Y-118230000D03*
D13*
X150490000Y-118230000D03*
D21*
X116450000Y-129350000D03*
X133050000Y-94650000D03*
X135200000Y-85650000D03*
X144750000Y-97000000D03*
X133647702Y-87747702D03*
X144850000Y-88800000D03*
X156521614Y-115671614D03*
X159000000Y-113450000D03*
X146900000Y-106400000D03*
X147400000Y-119250000D03*
X144750000Y-119050000D03*
X131750000Y-74850000D03*
X158950000Y-71450000D03*
X160550000Y-78800000D03*
X161800000Y-82100000D03*
X145975000Y-85400000D03*
X133400000Y-81300000D03*
X151500000Y-114050000D03*
X160250000Y-135245000D03*
X135050000Y-131950000D03*
D22*
X115620000Y-134030000D02*
X113290000Y-134030000D01*
X123130000Y-76160000D02*
X123130000Y-75520000D01*
X124400000Y-64450000D02*
X123860000Y-63910000D01*
X113290000Y-106040000D02*
X113290000Y-105310000D01*
X124400000Y-74700000D02*
X124400000Y-64450000D01*
X123130000Y-79070000D02*
X123130000Y-76160000D01*
X122510000Y-76160000D02*
X123130000Y-76160000D01*
X123500000Y-75150000D02*
X123950000Y-75150000D01*
X121955000Y-80245000D02*
X123130000Y-79070000D01*
X123130000Y-75520000D02*
X123500000Y-75150000D01*
X116450000Y-133350000D02*
X115800000Y-134000000D01*
X115650000Y-134000000D02*
X115620000Y-134030000D01*
X118850000Y-89000000D02*
X119440000Y-88410000D01*
X123950000Y-75150000D02*
X124400000Y-74700000D01*
X113290000Y-105310000D02*
X113500000Y-105100000D01*
X119440000Y-88410000D02*
X120360000Y-88410000D01*
X116450000Y-129350000D02*
X116450000Y-133350000D01*
X121955000Y-86815000D02*
X121955000Y-80245000D01*
X113500000Y-105100000D02*
X115000000Y-105100000D01*
X123860000Y-63910000D02*
X123090000Y-63910000D01*
X115800000Y-134000000D02*
X115650000Y-134000000D01*
X120360000Y-88410000D02*
X121955000Y-86815000D01*
X115000000Y-105100000D02*
X118850000Y-101250000D01*
X118850000Y-101250000D02*
X118850000Y-89000000D01*
X126820000Y-94650000D02*
X133050000Y-94650000D01*
X125440000Y-96030000D02*
X126820000Y-94650000D01*
X127980000Y-96030000D02*
X132624595Y-96030000D01*
X135200000Y-85650000D02*
X133500000Y-85650000D01*
X121400000Y-118387677D02*
X121400000Y-135100000D01*
X144750000Y-92300000D02*
X144750000Y-91900000D01*
X131630000Y-83780000D02*
X128210000Y-83780000D01*
X123740000Y-116047677D02*
X121400000Y-118387677D01*
X124495000Y-75673299D02*
X128170000Y-71998299D01*
X132624595Y-96030000D02*
X133725000Y-94929595D01*
X111300000Y-136000000D02*
X110200000Y-134900000D01*
X128170000Y-71998299D02*
X128170000Y-71530000D01*
X133550000Y-87845404D02*
X133647702Y-87747702D01*
X111510000Y-118390000D02*
X113290000Y-118390000D01*
X124845000Y-84955000D02*
X124495000Y-84605000D01*
X133550000Y-94195405D02*
X133550000Y-87845404D01*
X133725000Y-94370405D02*
X133550000Y-94195405D01*
X110200000Y-119700000D02*
X111510000Y-118390000D01*
X120500000Y-136000000D02*
X111300000Y-136000000D01*
X144750000Y-97000000D02*
X144750000Y-92300000D01*
X133725000Y-94929595D02*
X133725000Y-94370405D01*
X128210000Y-83780000D02*
X127035000Y-84955000D01*
X110200000Y-134900000D02*
X110200000Y-119700000D01*
X124495000Y-84605000D02*
X124495000Y-75673299D01*
X121400000Y-135100000D02*
X120500000Y-136000000D01*
X144750000Y-91900000D02*
X144750000Y-88900000D01*
X133500000Y-85650000D02*
X131630000Y-83780000D01*
X127035000Y-84955000D02*
X124845000Y-84955000D01*
X144750000Y-88900000D02*
X144850000Y-88800000D01*
X111250000Y-115850000D02*
X109850000Y-114450000D01*
X110900000Y-103500000D02*
X113290000Y-103500000D01*
X157200000Y-113500000D02*
X157250000Y-113450000D01*
X126900000Y-91000000D02*
X127980000Y-89920000D01*
X146900000Y-106400000D02*
X146900000Y-118750000D01*
X150600000Y-98780000D02*
X147430000Y-98780000D01*
X146650000Y-98000000D02*
X146650000Y-82450000D01*
X127980000Y-89920000D02*
X127980000Y-88410000D01*
X122900000Y-92150000D02*
X124050000Y-91000000D01*
X156521614Y-114178386D02*
X157200000Y-113500000D01*
X113290000Y-115850000D02*
X111250000Y-115850000D01*
X124050000Y-91000000D02*
X126900000Y-91000000D01*
X109850000Y-104550000D02*
X110900000Y-103500000D01*
X122900000Y-96030000D02*
X122900000Y-92150000D01*
X150490000Y-124580000D02*
X150490000Y-118230000D01*
X147430000Y-98780000D02*
X146650000Y-98000000D01*
X146650000Y-82450000D02*
X148480000Y-80620000D01*
X109850000Y-114450000D02*
X109850000Y-104550000D01*
X157250000Y-113450000D02*
X159000000Y-113450000D01*
X146900000Y-118750000D02*
X147400000Y-119250000D01*
X148480000Y-80620000D02*
X154390000Y-80620000D01*
X156521614Y-115671614D02*
X156521614Y-114178386D01*
X138642588Y-117495000D02*
X142135000Y-117495000D01*
X142135000Y-117495000D02*
X142870000Y-118230000D01*
X123130000Y-86580000D02*
X123600000Y-87050000D01*
X137300000Y-88150000D02*
X137300000Y-116152412D01*
X136200000Y-87050000D02*
X137300000Y-88150000D01*
X123600000Y-87050000D02*
X136200000Y-87050000D01*
X137300000Y-116152412D02*
X138642588Y-117495000D01*
X123130000Y-83780000D02*
X123130000Y-86580000D01*
X142600000Y-115600000D02*
X144050000Y-115600000D01*
X131750000Y-81950000D02*
X133850000Y-84050000D01*
X131750000Y-74850000D02*
X131750000Y-81950000D01*
X140950000Y-84700000D02*
X141450000Y-85200000D01*
X141450000Y-85200000D02*
X141450000Y-114450000D01*
X141450000Y-114450000D02*
X142600000Y-115600000D01*
X140635000Y-84385000D02*
X140950000Y-84700000D01*
X133850000Y-84050000D02*
X134185000Y-84385000D01*
X144750000Y-116300000D02*
X144750000Y-119050000D01*
X134185000Y-84385000D02*
X140635000Y-84385000D01*
X144050000Y-115600000D02*
X144750000Y-116300000D01*
X118950000Y-120100000D02*
X118120000Y-120930000D01*
X114550000Y-112000000D02*
X117450000Y-112000000D01*
X113290000Y-110740000D02*
X114550000Y-112000000D01*
X120360000Y-101510000D02*
X120360000Y-96030000D01*
X117450000Y-112000000D02*
X118950000Y-113500000D01*
X118120000Y-120930000D02*
X113290000Y-120930000D01*
X113290000Y-108580000D02*
X120360000Y-101510000D01*
X118950000Y-113500000D02*
X118950000Y-120100000D01*
X113290000Y-108580000D02*
X113290000Y-110740000D01*
X138550000Y-122650000D02*
X139150000Y-122050000D01*
X165540000Y-133380000D02*
X138230000Y-133380000D01*
X134550000Y-129950000D02*
X134550000Y-122050000D01*
X139150000Y-122050000D02*
X139150000Y-121260000D01*
X125290000Y-131960000D02*
X126000000Y-131250000D01*
X138990000Y-121100000D02*
X139150000Y-121260000D01*
X136700000Y-122650000D02*
X138550000Y-122650000D01*
X126000000Y-131250000D02*
X133250000Y-131250000D01*
X133250000Y-131250000D02*
X134550000Y-129950000D01*
X135500000Y-121100000D02*
X138990000Y-121100000D01*
X125290000Y-133980000D02*
X125290000Y-131960000D01*
X134550000Y-122050000D02*
X135500000Y-121100000D01*
X138230000Y-133380000D02*
X136150000Y-131300000D01*
X136150000Y-131300000D02*
X136150000Y-123200000D01*
X136150000Y-123200000D02*
X136700000Y-122650000D01*
X163650000Y-95150000D02*
X163650000Y-103900000D01*
X168150000Y-69450000D02*
X168150000Y-93850000D01*
X163650000Y-103900000D02*
X164580000Y-104830000D01*
X164580000Y-104830000D02*
X165640000Y-104830000D01*
X167325000Y-94675000D02*
X164125000Y-94675000D01*
X141010000Y-67960000D02*
X166660000Y-67960000D01*
X164125000Y-94675000D02*
X163650000Y-95150000D01*
X166660000Y-67960000D02*
X168150000Y-69450000D01*
X168150000Y-93850000D02*
X167325000Y-94675000D01*
X160550000Y-80850000D02*
X161800000Y-82100000D01*
X127035000Y-82415000D02*
X127035000Y-74715000D01*
X125670000Y-83780000D02*
X127035000Y-82415000D01*
X127035000Y-74715000D02*
X128700000Y-73050000D01*
X130300000Y-71450000D02*
X158950000Y-71450000D01*
X128700000Y-73050000D02*
X130300000Y-71450000D01*
X160550000Y-78800000D02*
X160550000Y-80850000D01*
X167200000Y-58950000D02*
X169600000Y-61350000D01*
X129950000Y-58950000D02*
X167200000Y-58950000D01*
X126995000Y-61905000D02*
X129950000Y-58950000D01*
X126995000Y-70165000D02*
X126995000Y-61905000D01*
X169600000Y-61350000D02*
X169600000Y-93750000D01*
X125630000Y-71530000D02*
X126995000Y-70165000D01*
X169600000Y-93750000D02*
X167450000Y-95900000D01*
X167450000Y-95900000D02*
X165690000Y-95900000D01*
X152350000Y-83850000D02*
X153040000Y-83160000D01*
X140900000Y-124590000D02*
X140900000Y-122600000D01*
X152350000Y-107650000D02*
X152350000Y-83850000D01*
X140900000Y-122600000D02*
X142050000Y-121450000D01*
X157900000Y-73150000D02*
X165840000Y-73150000D01*
X145975000Y-85400000D02*
X145350000Y-85400000D01*
X149315000Y-110685000D02*
X152350000Y-107650000D01*
X153040000Y-83160000D02*
X154390000Y-83160000D01*
X146700000Y-121450000D02*
X149315000Y-118835000D01*
X156300000Y-81250000D02*
X156300000Y-74750000D01*
X142050000Y-121450000D02*
X146700000Y-121450000D01*
X154390000Y-83160000D02*
X156300000Y-81250000D01*
X136815000Y-81935000D02*
X136180000Y-81300000D01*
X139150000Y-126340000D02*
X140900000Y-124590000D01*
X141885000Y-81935000D02*
X136815000Y-81935000D01*
X145350000Y-85400000D02*
X141885000Y-81935000D01*
X156300000Y-74750000D02*
X157900000Y-73150000D01*
X149315000Y-118835000D02*
X149315000Y-110685000D01*
X136180000Y-81300000D02*
X133400000Y-81300000D01*
X166615000Y-84535000D02*
X167650000Y-83500000D01*
X156600000Y-97500000D02*
X156600000Y-85950000D01*
X154390000Y-98400000D02*
X155700000Y-98400000D01*
X167650000Y-78450000D02*
X167430000Y-78230000D01*
X167430000Y-78230000D02*
X165840000Y-78230000D01*
X156600000Y-85950000D02*
X158015000Y-84535000D01*
X155700000Y-98400000D02*
X156600000Y-97500000D01*
X158015000Y-84535000D02*
X166615000Y-84535000D01*
X167650000Y-83500000D02*
X167650000Y-78450000D01*
X154390000Y-95860000D02*
X155950000Y-94300000D01*
X155950000Y-85200000D02*
X157840000Y-83310000D01*
X157840000Y-83310000D02*
X165840000Y-83310000D01*
X155950000Y-94300000D02*
X155950000Y-85200000D01*
X167600000Y-113150000D02*
X167600000Y-128780000D01*
X152750000Y-113650000D02*
X152750000Y-112900000D01*
X153235000Y-112415000D02*
X166865000Y-112415000D01*
X152750000Y-112900000D02*
X153235000Y-112415000D01*
X166865000Y-112415000D02*
X167600000Y-113150000D01*
X167600000Y-128780000D02*
X165540000Y-130840000D01*
X151500000Y-114050000D02*
X152350000Y-114050000D01*
X152350000Y-114050000D02*
X152750000Y-113650000D01*
X160245000Y-135250000D02*
X160250000Y-135245000D01*
X160000000Y-135250000D02*
X160245000Y-135250000D01*
X135050000Y-131950000D02*
X138350000Y-135250000D01*
X138350000Y-135250000D02*
X160000000Y-135250000D01*
%TA.AperFunction,Conductor*%
G36*
X153180703Y-106647765D02*
G01*
X153211880Y-106689070D01*
X153215965Y-106697830D01*
X153344936Y-106882020D01*
X153351501Y-106891395D01*
X153351506Y-106891402D01*
X153518597Y-107058493D01*
X153518603Y-107058498D01*
X153704158Y-107188425D01*
X153747783Y-107243002D01*
X153754977Y-107312500D01*
X153723454Y-107374855D01*
X153704158Y-107391575D01*
X153518597Y-107521505D01*
X153351505Y-107688597D01*
X153215965Y-107882169D01*
X153215964Y-107882171D01*
X153116098Y-108096335D01*
X153116094Y-108096344D01*
X153054938Y-108324586D01*
X153054936Y-108324596D01*
X153034341Y-108559999D01*
X153034341Y-108560000D01*
X153054936Y-108795403D01*
X153054938Y-108795413D01*
X153116094Y-109023655D01*
X153116096Y-109023659D01*
X153116097Y-109023663D01*
X153123061Y-109038597D01*
X153215965Y-109237830D01*
X153215967Y-109237834D01*
X153351501Y-109431395D01*
X153351506Y-109431402D01*
X153518597Y-109598493D01*
X153518603Y-109598498D01*
X153704158Y-109728425D01*
X153747783Y-109783002D01*
X153754977Y-109852500D01*
X153723454Y-109914855D01*
X153704158Y-109931575D01*
X153518597Y-110061505D01*
X153351505Y-110228597D01*
X153215965Y-110422169D01*
X153215964Y-110422171D01*
X153116098Y-110636335D01*
X153116094Y-110636344D01*
X153054938Y-110864586D01*
X153054936Y-110864596D01*
X153034341Y-111099999D01*
X153034341Y-111100000D01*
X153054936Y-111335403D01*
X153054938Y-111335413D01*
X153116094Y-111563655D01*
X153116099Y-111563669D01*
X153150556Y-111637562D01*
X153161048Y-111706639D01*
X153132528Y-111770423D01*
X153074051Y-111808662D01*
X153062372Y-111811582D01*
X153052548Y-111813536D01*
X153012803Y-111830000D01*
X153012802Y-111830000D01*
X152938721Y-111860684D01*
X152938708Y-111860691D01*
X152836267Y-111929141D01*
X152836263Y-111929144D01*
X152442407Y-112323002D01*
X152351269Y-112414140D01*
X152351267Y-112414142D01*
X152310554Y-112454855D01*
X152264142Y-112501266D01*
X152251569Y-112520083D01*
X152232557Y-112548537D01*
X152195688Y-112603714D01*
X152195686Y-112603716D01*
X152195686Y-112603718D01*
X152195685Y-112603719D01*
X152168589Y-112669138D01*
X152168589Y-112669139D01*
X152148537Y-112717546D01*
X152143490Y-112742922D01*
X152126161Y-112830047D01*
X152124500Y-112838396D01*
X152124500Y-113272629D01*
X152104815Y-113339668D01*
X152052011Y-113385423D01*
X151982853Y-113395367D01*
X151934528Y-113377623D01*
X151849523Y-113324211D01*
X151679254Y-113264631D01*
X151679249Y-113264630D01*
X151500004Y-113244435D01*
X151499996Y-113244435D01*
X151320750Y-113264630D01*
X151320745Y-113264631D01*
X151150476Y-113324211D01*
X150997737Y-113420184D01*
X150870184Y-113547737D01*
X150774211Y-113700476D01*
X150714631Y-113870745D01*
X150714630Y-113870750D01*
X150694435Y-114049996D01*
X150694435Y-114050003D01*
X150714630Y-114229249D01*
X150714631Y-114229254D01*
X150774211Y-114399523D01*
X150844509Y-114511401D01*
X150870184Y-114552262D01*
X150997738Y-114679816D01*
X151021117Y-114694506D01*
X151150471Y-114775785D01*
X151150478Y-114775789D01*
X151259779Y-114814035D01*
X151320745Y-114835368D01*
X151320750Y-114835369D01*
X151499996Y-114855565D01*
X151500000Y-114855565D01*
X151500004Y-114855565D01*
X151679249Y-114835369D01*
X151679252Y-114835368D01*
X151679255Y-114835368D01*
X151849522Y-114775789D01*
X151978883Y-114694505D01*
X152044855Y-114675500D01*
X152411608Y-114675500D01*
X152411608Y-114675499D01*
X152475978Y-114662696D01*
X152475979Y-114662696D01*
X152495150Y-114658882D01*
X152532452Y-114651463D01*
X152565792Y-114637652D01*
X152646286Y-114604312D01*
X152697509Y-114570084D01*
X152748733Y-114535858D01*
X152835858Y-114448733D01*
X152835859Y-114448730D01*
X153011495Y-114273094D01*
X153072815Y-114239612D01*
X153142507Y-114244596D01*
X153198440Y-114286468D01*
X153211554Y-114308371D01*
X153215964Y-114317828D01*
X153215967Y-114317834D01*
X153351501Y-114511395D01*
X153351506Y-114511402D01*
X153518597Y-114678493D01*
X153518603Y-114678498D01*
X153704158Y-114808425D01*
X153747783Y-114863002D01*
X153754977Y-114932500D01*
X153723454Y-114994855D01*
X153704158Y-115011575D01*
X153518597Y-115141505D01*
X153351505Y-115308597D01*
X153215965Y-115502169D01*
X153215964Y-115502171D01*
X153116098Y-115716335D01*
X153116094Y-115716344D01*
X153054938Y-115944586D01*
X153054936Y-115944596D01*
X153034341Y-116179998D01*
X153054936Y-116415403D01*
X153054938Y-116415413D01*
X153116094Y-116643655D01*
X153116096Y-116643659D01*
X153116097Y-116643663D01*
X153139148Y-116693095D01*
X153215965Y-116857830D01*
X153215967Y-116857834D01*
X153351501Y-117051395D01*
X153351506Y-117051402D01*
X153518597Y-117218493D01*
X153518603Y-117218498D01*
X153704158Y-117348425D01*
X153747783Y-117403002D01*
X153754977Y-117472500D01*
X153723454Y-117534855D01*
X153704158Y-117551575D01*
X153518597Y-117681505D01*
X153351505Y-117848597D01*
X153215965Y-118042169D01*
X153215964Y-118042171D01*
X153116098Y-118256335D01*
X153116094Y-118256344D01*
X153054938Y-118484586D01*
X153054936Y-118484596D01*
X153034341Y-118719999D01*
X153034341Y-118720000D01*
X153054936Y-118955403D01*
X153054938Y-118955413D01*
X153116094Y-119183655D01*
X153116096Y-119183659D01*
X153116097Y-119183663D01*
X153187396Y-119336563D01*
X153215965Y-119397830D01*
X153215967Y-119397834D01*
X153351501Y-119591395D01*
X153351506Y-119591402D01*
X153518597Y-119758493D01*
X153518603Y-119758498D01*
X153704158Y-119888425D01*
X153747783Y-119943002D01*
X153754977Y-120012500D01*
X153723454Y-120074855D01*
X153704158Y-120091575D01*
X153518597Y-120221505D01*
X153351505Y-120388597D01*
X153215965Y-120582169D01*
X153215964Y-120582171D01*
X153116098Y-120796335D01*
X153116094Y-120796344D01*
X153054938Y-121024586D01*
X153054936Y-121024596D01*
X153034341Y-121259999D01*
X153034341Y-121260000D01*
X153054936Y-121495403D01*
X153054938Y-121495413D01*
X153116094Y-121723655D01*
X153116096Y-121723659D01*
X153116097Y-121723663D01*
X153183196Y-121867556D01*
X153215965Y-121937830D01*
X153215967Y-121937834D01*
X153293483Y-122048537D01*
X153346907Y-122124835D01*
X153351501Y-122131395D01*
X153351506Y-122131402D01*
X153518597Y-122298493D01*
X153518603Y-122298498D01*
X153704158Y-122428425D01*
X153747783Y-122483002D01*
X153754977Y-122552500D01*
X153723454Y-122614855D01*
X153704158Y-122631575D01*
X153518597Y-122761505D01*
X153351505Y-122928597D01*
X153215965Y-123122169D01*
X153215964Y-123122171D01*
X153116098Y-123336335D01*
X153116094Y-123336344D01*
X153054938Y-123564586D01*
X153054936Y-123564596D01*
X153034341Y-123799999D01*
X153034341Y-123800000D01*
X153054936Y-124035403D01*
X153054938Y-124035413D01*
X153116094Y-124263655D01*
X153116096Y-124263659D01*
X153116097Y-124263663D01*
X153215965Y-124477830D01*
X153215967Y-124477834D01*
X153351501Y-124671395D01*
X153351506Y-124671402D01*
X153518597Y-124838493D01*
X153518603Y-124838498D01*
X153704158Y-124968425D01*
X153747783Y-125023002D01*
X153754977Y-125092500D01*
X153723454Y-125154855D01*
X153704158Y-125171575D01*
X153518597Y-125301505D01*
X153351505Y-125468597D01*
X153215965Y-125662169D01*
X153215964Y-125662171D01*
X153116098Y-125876335D01*
X153116094Y-125876344D01*
X153054938Y-126104586D01*
X153054936Y-126104596D01*
X153034341Y-126339999D01*
X153034341Y-126340000D01*
X153054936Y-126575403D01*
X153054938Y-126575413D01*
X153116094Y-126803655D01*
X153116096Y-126803659D01*
X153116097Y-126803663D01*
X153184102Y-126949500D01*
X153215965Y-127017830D01*
X153215967Y-127017834D01*
X153324281Y-127172521D01*
X153351505Y-127211401D01*
X153518599Y-127378495D01*
X153615384Y-127446265D01*
X153712165Y-127514032D01*
X153712167Y-127514033D01*
X153712170Y-127514035D01*
X153926337Y-127613903D01*
X154154592Y-127675063D01*
X154342918Y-127691539D01*
X154389999Y-127695659D01*
X154390000Y-127695659D01*
X154390001Y-127695659D01*
X154429234Y-127692226D01*
X154625408Y-127675063D01*
X154853663Y-127613903D01*
X155067830Y-127514035D01*
X155261401Y-127378495D01*
X155428495Y-127211401D01*
X155564035Y-127017830D01*
X155663903Y-126803663D01*
X155725063Y-126575408D01*
X155745659Y-126340000D01*
X155725063Y-126104592D01*
X155663903Y-125876337D01*
X155564035Y-125662171D01*
X155506532Y-125580047D01*
X155428494Y-125468597D01*
X155261402Y-125301506D01*
X155261396Y-125301501D01*
X155075842Y-125171575D01*
X155032217Y-125116998D01*
X155025023Y-125047500D01*
X155056546Y-124985145D01*
X155075842Y-124968425D01*
X155193148Y-124886286D01*
X155261401Y-124838495D01*
X155428495Y-124671401D01*
X155564035Y-124477830D01*
X155663903Y-124263663D01*
X155725063Y-124035408D01*
X155745659Y-123800000D01*
X155725063Y-123564592D01*
X155663903Y-123336337D01*
X155564035Y-123122171D01*
X155530330Y-123074034D01*
X155428494Y-122928597D01*
X155261402Y-122761506D01*
X155261396Y-122761501D01*
X155075842Y-122631575D01*
X155032217Y-122576998D01*
X155025023Y-122507500D01*
X155056546Y-122445145D01*
X155075842Y-122428425D01*
X155149868Y-122376591D01*
X155261401Y-122298495D01*
X155428495Y-122131401D01*
X155564035Y-121937830D01*
X155663903Y-121723663D01*
X155725063Y-121495408D01*
X155745659Y-121260000D01*
X155725063Y-121024592D01*
X155663903Y-120796337D01*
X155564035Y-120582171D01*
X155543293Y-120552547D01*
X155428494Y-120388597D01*
X155261402Y-120221506D01*
X155261396Y-120221501D01*
X155075842Y-120091575D01*
X155032217Y-120036998D01*
X155025023Y-119967500D01*
X155056546Y-119905145D01*
X155075842Y-119888425D01*
X155143700Y-119840910D01*
X155261401Y-119758495D01*
X155428495Y-119591401D01*
X155564035Y-119397830D01*
X155663903Y-119183663D01*
X155725063Y-118955408D01*
X155745659Y-118720000D01*
X155725063Y-118484592D01*
X155663903Y-118256337D01*
X155564035Y-118042171D01*
X155553794Y-118027544D01*
X155428494Y-117848597D01*
X155261402Y-117681506D01*
X155261396Y-117681501D01*
X155075842Y-117551575D01*
X155032217Y-117496998D01*
X155025023Y-117427500D01*
X155056546Y-117365145D01*
X155075842Y-117348425D01*
X155098026Y-117332891D01*
X155261401Y-117218495D01*
X155428495Y-117051401D01*
X155564035Y-116857830D01*
X155663903Y-116643663D01*
X155725063Y-116415408D01*
X155745659Y-116180000D01*
X155725063Y-115944592D01*
X155663903Y-115716337D01*
X155564035Y-115502171D01*
X155545647Y-115475909D01*
X155428494Y-115308597D01*
X155261402Y-115141506D01*
X155261396Y-115141501D01*
X155075842Y-115011575D01*
X155032217Y-114956998D01*
X155025023Y-114887500D01*
X155056546Y-114825145D01*
X155075842Y-114808425D01*
X155122457Y-114775785D01*
X155261401Y-114678495D01*
X155428495Y-114511401D01*
X155564035Y-114317830D01*
X155663903Y-114103663D01*
X155725063Y-113875408D01*
X155745659Y-113640000D01*
X155725063Y-113404592D01*
X155682150Y-113244435D01*
X155669331Y-113196593D01*
X155670994Y-113126743D01*
X155710157Y-113068881D01*
X155774386Y-113041377D01*
X155789106Y-113040500D01*
X166554548Y-113040500D01*
X166621587Y-113060185D01*
X166642229Y-113076819D01*
X166938181Y-113372771D01*
X166971666Y-113434094D01*
X166974500Y-113460452D01*
X166974500Y-115459769D01*
X166954815Y-115526808D01*
X166902011Y-115572563D01*
X166832853Y-115582507D01*
X166776189Y-115559036D01*
X166732331Y-115526204D01*
X166732328Y-115526202D01*
X166597482Y-115475908D01*
X166597483Y-115475908D01*
X166537883Y-115469501D01*
X166537881Y-115469500D01*
X166537873Y-115469500D01*
X166537864Y-115469500D01*
X164742129Y-115469500D01*
X164742123Y-115469501D01*
X164682516Y-115475908D01*
X164547671Y-115526202D01*
X164547664Y-115526206D01*
X164432455Y-115612452D01*
X164432452Y-115612455D01*
X164346206Y-115727664D01*
X164346202Y-115727671D01*
X164295908Y-115862517D01*
X164289501Y-115922116D01*
X164289500Y-115922135D01*
X164289500Y-117717870D01*
X164289501Y-117717876D01*
X164295908Y-117777483D01*
X164346202Y-117912328D01*
X164346206Y-117912335D01*
X164432452Y-118027544D01*
X164432454Y-118027546D01*
X164547664Y-118113793D01*
X164547671Y-118113797D01*
X164679081Y-118162810D01*
X164735015Y-118204681D01*
X164759432Y-118270145D01*
X164744580Y-118338418D01*
X164723430Y-118366673D01*
X164601503Y-118488600D01*
X164465965Y-118682169D01*
X164465964Y-118682171D01*
X164366098Y-118896335D01*
X164366094Y-118896344D01*
X164304938Y-119124586D01*
X164304936Y-119124596D01*
X164284341Y-119359999D01*
X164284341Y-119360000D01*
X164304936Y-119595403D01*
X164304938Y-119595413D01*
X164366094Y-119823655D01*
X164366096Y-119823659D01*
X164366097Y-119823663D01*
X164453198Y-120010452D01*
X164465965Y-120037830D01*
X164465967Y-120037834D01*
X164565864Y-120180500D01*
X164601501Y-120231396D01*
X164601506Y-120231402D01*
X164768597Y-120398493D01*
X164768603Y-120398498D01*
X164954158Y-120528425D01*
X164997783Y-120583002D01*
X165004977Y-120652500D01*
X164973454Y-120714855D01*
X164954158Y-120731575D01*
X164768597Y-120861505D01*
X164601505Y-121028597D01*
X164465965Y-121222169D01*
X164465964Y-121222171D01*
X164366098Y-121436335D01*
X164366094Y-121436344D01*
X164304938Y-121664586D01*
X164304936Y-121664596D01*
X164284341Y-121899999D01*
X164284341Y-121900000D01*
X164304936Y-122135403D01*
X164304938Y-122135413D01*
X164366094Y-122363655D01*
X164366097Y-122363663D01*
X164465965Y-122577830D01*
X164465967Y-122577834D01*
X164561410Y-122714140D01*
X164601505Y-122771401D01*
X164768599Y-122938495D01*
X164833884Y-122984208D01*
X164962165Y-123074032D01*
X164962167Y-123074033D01*
X164962170Y-123074035D01*
X165176337Y-123173903D01*
X165404592Y-123235063D01*
X165592006Y-123251460D01*
X165639999Y-123255659D01*
X165640000Y-123255659D01*
X165640001Y-123255659D01*
X165687959Y-123251463D01*
X165875408Y-123235063D01*
X166103663Y-123173903D01*
X166317830Y-123074035D01*
X166511401Y-122938495D01*
X166678495Y-122771401D01*
X166748925Y-122670817D01*
X166803502Y-122627192D01*
X166873000Y-122619998D01*
X166935355Y-122651521D01*
X166970769Y-122711751D01*
X166974500Y-122741940D01*
X166974500Y-127023069D01*
X166954815Y-127090108D01*
X166902011Y-127135863D01*
X166832853Y-127145807D01*
X166769297Y-127116782D01*
X166751234Y-127097380D01*
X166747547Y-127092455D01*
X166747544Y-127092452D01*
X166632335Y-127006206D01*
X166632328Y-127006202D01*
X166497482Y-126955908D01*
X166497483Y-126955908D01*
X166437883Y-126949501D01*
X166437881Y-126949500D01*
X166437873Y-126949500D01*
X166437864Y-126949500D01*
X164642129Y-126949500D01*
X164642123Y-126949501D01*
X164582516Y-126955908D01*
X164447671Y-127006202D01*
X164447664Y-127006206D01*
X164332455Y-127092452D01*
X164332452Y-127092455D01*
X164246206Y-127207664D01*
X164246202Y-127207671D01*
X164195908Y-127342517D01*
X164189501Y-127402116D01*
X164189500Y-127402135D01*
X164189500Y-129197870D01*
X164189501Y-129197876D01*
X164195908Y-129257483D01*
X164246202Y-129392328D01*
X164246206Y-129392335D01*
X164332452Y-129507544D01*
X164332455Y-129507547D01*
X164447664Y-129593793D01*
X164447671Y-129593797D01*
X164579081Y-129642810D01*
X164635015Y-129684681D01*
X164659432Y-129750145D01*
X164644580Y-129818418D01*
X164623430Y-129846673D01*
X164501503Y-129968600D01*
X164365965Y-130162169D01*
X164365964Y-130162171D01*
X164266098Y-130376335D01*
X164266094Y-130376344D01*
X164204938Y-130604586D01*
X164204936Y-130604596D01*
X164184341Y-130839999D01*
X164184341Y-130840000D01*
X164204936Y-131075403D01*
X164204938Y-131075413D01*
X164266094Y-131303655D01*
X164266096Y-131303659D01*
X164266097Y-131303663D01*
X164345592Y-131474140D01*
X164365965Y-131517830D01*
X164365967Y-131517834D01*
X164501501Y-131711395D01*
X164501505Y-131711401D01*
X164668597Y-131878493D01*
X164668603Y-131878498D01*
X164854158Y-132008425D01*
X164897783Y-132063002D01*
X164904977Y-132132500D01*
X164873454Y-132194855D01*
X164854158Y-132211575D01*
X164668597Y-132341505D01*
X164501505Y-132508597D01*
X164366348Y-132701623D01*
X164311771Y-132745248D01*
X164264773Y-132754500D01*
X138540452Y-132754500D01*
X138473413Y-132734815D01*
X138452771Y-132718181D01*
X136811819Y-131077229D01*
X136778334Y-131015906D01*
X136775500Y-130989548D01*
X136775500Y-123510452D01*
X136795185Y-123443413D01*
X136811814Y-123422776D01*
X136922773Y-123311817D01*
X136984095Y-123278334D01*
X137010453Y-123275500D01*
X138611608Y-123275500D01*
X138611608Y-123275499D01*
X138681453Y-123261607D01*
X138681454Y-123261607D01*
X138707305Y-123256464D01*
X138732452Y-123251463D01*
X138772045Y-123235063D01*
X138846286Y-123204312D01*
X138897509Y-123170084D01*
X138948733Y-123135858D01*
X139035858Y-123048733D01*
X139035859Y-123048731D01*
X139042925Y-123041665D01*
X139042928Y-123041661D01*
X139504143Y-122580445D01*
X139559728Y-122548354D01*
X139613663Y-122533903D01*
X139827830Y-122434035D01*
X140021401Y-122298495D01*
X140137884Y-122182011D01*
X140199203Y-122148529D01*
X140268895Y-122153513D01*
X140324829Y-122195384D01*
X140349246Y-122260848D01*
X140340123Y-122317147D01*
X140320857Y-122363663D01*
X140298537Y-122417548D01*
X140298536Y-122417551D01*
X140298536Y-122417552D01*
X140298535Y-122417553D01*
X140286517Y-122477968D01*
X140286518Y-122477969D01*
X140275009Y-122535837D01*
X140275005Y-122535855D01*
X140274500Y-122538388D01*
X140274500Y-124279547D01*
X140254815Y-124346586D01*
X140238181Y-124367228D01*
X139605646Y-124999762D01*
X139544323Y-125033247D01*
X139485872Y-125031856D01*
X139385413Y-125004938D01*
X139385403Y-125004936D01*
X139150001Y-124984341D01*
X139149999Y-124984341D01*
X138914596Y-125004936D01*
X138914586Y-125004938D01*
X138686344Y-125066094D01*
X138686335Y-125066098D01*
X138472171Y-125165964D01*
X138472169Y-125165965D01*
X138278597Y-125301505D01*
X138111505Y-125468597D01*
X137975965Y-125662169D01*
X137975964Y-125662171D01*
X137876098Y-125876335D01*
X137876094Y-125876344D01*
X137814938Y-126104586D01*
X137814936Y-126104596D01*
X137794341Y-126339999D01*
X137794341Y-126340000D01*
X137814936Y-126575403D01*
X137814938Y-126575413D01*
X137876094Y-126803655D01*
X137876096Y-126803659D01*
X137876097Y-126803663D01*
X137944102Y-126949500D01*
X137975965Y-127017830D01*
X137975967Y-127017834D01*
X138084281Y-127172521D01*
X138111505Y-127211401D01*
X138278599Y-127378495D01*
X138375384Y-127446265D01*
X138472165Y-127514032D01*
X138472167Y-127514033D01*
X138472170Y-127514035D01*
X138686337Y-127613903D01*
X138914592Y-127675063D01*
X139102918Y-127691539D01*
X139149999Y-127695659D01*
X139150000Y-127695659D01*
X139150001Y-127695659D01*
X139189234Y-127692226D01*
X139385408Y-127675063D01*
X139613663Y-127613903D01*
X139827830Y-127514035D01*
X140021401Y-127378495D01*
X140188495Y-127211401D01*
X140324035Y-127017830D01*
X140423903Y-126803663D01*
X140485063Y-126575408D01*
X140505659Y-126340000D01*
X140485063Y-126104592D01*
X140458143Y-126004125D01*
X140459806Y-125934276D01*
X140490235Y-125884353D01*
X141298729Y-125075860D01*
X141298733Y-125075858D01*
X141385858Y-124988733D01*
X141410317Y-124952127D01*
X141463925Y-124907324D01*
X141533250Y-124898614D01*
X141596278Y-124928767D01*
X141632999Y-124988209D01*
X141633192Y-124988923D01*
X141643256Y-125026482D01*
X141643261Y-125026497D01*
X141739431Y-125232732D01*
X141739432Y-125232734D01*
X141869954Y-125419141D01*
X142030858Y-125580045D01*
X142030861Y-125580047D01*
X142217266Y-125710568D01*
X142423504Y-125806739D01*
X142643308Y-125865635D01*
X142805230Y-125879801D01*
X142869998Y-125885468D01*
X142870000Y-125885468D01*
X142870002Y-125885468D01*
X142926673Y-125880509D01*
X143096692Y-125865635D01*
X143316496Y-125806739D01*
X143522734Y-125710568D01*
X143709139Y-125580047D01*
X143870047Y-125419139D01*
X144000568Y-125232734D01*
X144096739Y-125026496D01*
X144155635Y-124806692D01*
X144175468Y-124580000D01*
X144155635Y-124353308D01*
X144096739Y-124133504D01*
X144000568Y-123927266D01*
X143870047Y-123740861D01*
X143870045Y-123740858D01*
X143709141Y-123579954D01*
X143522734Y-123449432D01*
X143522732Y-123449431D01*
X143316497Y-123353261D01*
X143316488Y-123353258D01*
X143096697Y-123294366D01*
X143096693Y-123294365D01*
X143096692Y-123294365D01*
X143096691Y-123294364D01*
X143096686Y-123294364D01*
X142870002Y-123274532D01*
X142869998Y-123274532D01*
X142643313Y-123294364D01*
X142643302Y-123294366D01*
X142423511Y-123353258D01*
X142423502Y-123353261D01*
X142217267Y-123449431D01*
X142217265Y-123449432D01*
X142030858Y-123579954D01*
X141869954Y-123740858D01*
X141751075Y-123910638D01*
X141696499Y-123954263D01*
X141627000Y-123961457D01*
X141564645Y-123929935D01*
X141529231Y-123869705D01*
X141525500Y-123839515D01*
X141525500Y-122910452D01*
X141545185Y-122843413D01*
X141561819Y-122822771D01*
X142272772Y-122111819D01*
X142334095Y-122078334D01*
X142360453Y-122075500D01*
X146761607Y-122075500D01*
X146822029Y-122063481D01*
X146882452Y-122051463D01*
X146917033Y-122037139D01*
X146996286Y-122004312D01*
X147047509Y-121970084D01*
X147051006Y-121967748D01*
X147068411Y-121956118D01*
X147098733Y-121935858D01*
X147185858Y-121848733D01*
X147185858Y-121848731D01*
X147196066Y-121838524D01*
X147196067Y-121838521D01*
X149800857Y-119233734D01*
X149869311Y-119131286D01*
X149916463Y-119017452D01*
X149940500Y-118896607D01*
X149940500Y-118773394D01*
X149940500Y-110995451D01*
X149960185Y-110928412D01*
X149976814Y-110907775D01*
X152748729Y-108135860D01*
X152748733Y-108135858D01*
X152835858Y-108048733D01*
X152904311Y-107946286D01*
X152951463Y-107832452D01*
X152975500Y-107711606D01*
X152975500Y-106741478D01*
X152995185Y-106674439D01*
X153047989Y-106628684D01*
X153117147Y-106618740D01*
X153180703Y-106647765D01*
G37*
%TD.AperFunction*%
%TA.AperFunction,Conductor*%
G36*
X164683541Y-59595185D02*
G01*
X164729296Y-59647989D01*
X164739240Y-59717147D01*
X164710215Y-59780703D01*
X164690816Y-59798764D01*
X164632454Y-59842454D01*
X164632453Y-59842455D01*
X164632452Y-59842456D01*
X164546206Y-59957664D01*
X164546202Y-59957671D01*
X164495908Y-60092517D01*
X164489501Y-60152116D01*
X164489500Y-60152135D01*
X164489500Y-61947870D01*
X164489501Y-61947876D01*
X164495908Y-62007483D01*
X164546202Y-62142328D01*
X164546206Y-62142335D01*
X164632452Y-62257544D01*
X164632455Y-62257547D01*
X164747664Y-62343793D01*
X164747671Y-62343797D01*
X164882517Y-62394091D01*
X164882516Y-62394091D01*
X164889444Y-62394835D01*
X164942127Y-62400500D01*
X166737872Y-62400499D01*
X166797483Y-62394091D01*
X166932331Y-62343796D01*
X167047546Y-62257546D01*
X167133796Y-62142331D01*
X167184091Y-62007483D01*
X167190500Y-61947873D01*
X167190499Y-60152128D01*
X167190497Y-60152109D01*
X167188677Y-60135173D01*
X167201082Y-60066414D01*
X167248692Y-60015276D01*
X167316392Y-59997997D01*
X167382686Y-60020062D01*
X167399647Y-60034237D01*
X168938181Y-61572771D01*
X168971666Y-61634094D01*
X168974500Y-61660452D01*
X168974500Y-69182617D01*
X168954815Y-69249656D01*
X168902011Y-69295411D01*
X168832853Y-69305355D01*
X168769297Y-69276330D01*
X168735939Y-69230070D01*
X168704312Y-69153717D01*
X168704311Y-69153714D01*
X168704309Y-69153711D01*
X168704307Y-69153707D01*
X168635858Y-69051267D01*
X168635855Y-69051263D01*
X168545637Y-68961045D01*
X168545606Y-68961016D01*
X167150198Y-67565608D01*
X167150178Y-67565586D01*
X167058733Y-67474141D01*
X167007509Y-67439915D01*
X166956287Y-67405689D01*
X166956286Y-67405688D01*
X166956283Y-67405686D01*
X166956280Y-67405685D01*
X166875792Y-67372347D01*
X166842452Y-67358537D01*
X166842453Y-67358537D01*
X166828508Y-67355763D01*
X166772344Y-67344592D01*
X166746975Y-67339546D01*
X166721608Y-67334500D01*
X166721607Y-67334500D01*
X166721606Y-67334500D01*
X142404820Y-67334500D01*
X142337781Y-67314815D01*
X142292026Y-67262011D01*
X142282347Y-67229899D01*
X142281508Y-67224609D01*
X142278477Y-67205466D01*
X142215220Y-67010781D01*
X142215218Y-67010778D01*
X142215218Y-67010776D01*
X142159879Y-66902169D01*
X142122287Y-66828390D01*
X142114556Y-66817749D01*
X142001971Y-66662786D01*
X141857213Y-66518028D01*
X141691613Y-66397715D01*
X141691612Y-66397714D01*
X141691610Y-66397713D01*
X141634653Y-66368691D01*
X141509223Y-66304781D01*
X141314534Y-66241522D01*
X141139995Y-66213878D01*
X141112352Y-66209500D01*
X140907648Y-66209500D01*
X140883329Y-66213351D01*
X140705465Y-66241522D01*
X140510776Y-66304781D01*
X140328386Y-66397715D01*
X140162786Y-66518028D01*
X140018028Y-66662786D01*
X139897715Y-66828386D01*
X139804781Y-67010776D01*
X139741522Y-67205465D01*
X139709500Y-67407648D01*
X139709500Y-68512351D01*
X139741522Y-68714534D01*
X139804781Y-68909223D01*
X139897715Y-69091613D01*
X140018028Y-69257213D01*
X140162786Y-69401971D01*
X140317749Y-69514556D01*
X140328390Y-69522287D01*
X140444607Y-69581503D01*
X140510776Y-69615218D01*
X140510778Y-69615218D01*
X140510781Y-69615220D01*
X140615137Y-69649127D01*
X140705465Y-69678477D01*
X140806557Y-69694488D01*
X140907648Y-69710500D01*
X140907649Y-69710500D01*
X141112351Y-69710500D01*
X141112352Y-69710500D01*
X141314534Y-69678477D01*
X141509219Y-69615220D01*
X141691610Y-69522287D01*
X141784590Y-69454732D01*
X141857213Y-69401971D01*
X141857215Y-69401968D01*
X141857219Y-69401966D01*
X142001966Y-69257219D01*
X142001968Y-69257215D01*
X142001971Y-69257213D01*
X142077171Y-69153707D01*
X142122287Y-69091610D01*
X142215220Y-68909219D01*
X142278477Y-68714534D01*
X142282347Y-68690101D01*
X142312277Y-68626967D01*
X142371588Y-68590036D01*
X142404820Y-68585500D01*
X166349548Y-68585500D01*
X166416587Y-68605185D01*
X166437229Y-68621819D01*
X167488181Y-69672771D01*
X167521666Y-69734094D01*
X167524500Y-69760452D01*
X167524500Y-77480500D01*
X167504815Y-77547539D01*
X167452011Y-77593294D01*
X167400500Y-77604500D01*
X167115227Y-77604500D01*
X167048188Y-77584815D01*
X167013652Y-77551623D01*
X166878494Y-77358597D01*
X166711402Y-77191506D01*
X166711395Y-77191501D01*
X166517834Y-77055967D01*
X166517830Y-77055965D01*
X166440703Y-77020000D01*
X166303663Y-76956097D01*
X166303659Y-76956096D01*
X166303655Y-76956094D01*
X166075413Y-76894938D01*
X166075403Y-76894936D01*
X165840001Y-76874341D01*
X165839999Y-76874341D01*
X165604596Y-76894936D01*
X165604586Y-76894938D01*
X165376344Y-76956094D01*
X165376335Y-76956098D01*
X165162171Y-77055964D01*
X165162169Y-77055965D01*
X164968597Y-77191505D01*
X164801505Y-77358597D01*
X164665965Y-77552169D01*
X164665964Y-77552171D01*
X164566098Y-77766335D01*
X164566094Y-77766344D01*
X164504938Y-77994586D01*
X164504936Y-77994596D01*
X164484341Y-78229999D01*
X164484341Y-78230000D01*
X164504936Y-78465403D01*
X164504938Y-78465413D01*
X164566094Y-78693655D01*
X164566096Y-78693659D01*
X164566097Y-78693663D01*
X164628080Y-78826586D01*
X164665965Y-78907830D01*
X164665967Y-78907834D01*
X164801501Y-79101395D01*
X164801506Y-79101402D01*
X164968597Y-79268493D01*
X164968603Y-79268498D01*
X165154158Y-79398425D01*
X165197783Y-79453002D01*
X165204977Y-79522500D01*
X165173454Y-79584855D01*
X165154158Y-79601575D01*
X164968597Y-79731505D01*
X164801505Y-79898597D01*
X164665965Y-80092169D01*
X164665964Y-80092171D01*
X164566098Y-80306335D01*
X164566094Y-80306344D01*
X164504938Y-80534586D01*
X164504936Y-80534596D01*
X164484341Y-80769999D01*
X164484341Y-80770000D01*
X164504936Y-81005403D01*
X164504938Y-81005413D01*
X164566094Y-81233655D01*
X164566096Y-81233659D01*
X164566097Y-81233663D01*
X164655500Y-81425387D01*
X164665965Y-81447830D01*
X164665967Y-81447834D01*
X164801501Y-81641395D01*
X164801506Y-81641402D01*
X164968597Y-81808493D01*
X164968603Y-81808498D01*
X165154158Y-81938425D01*
X165197783Y-81993002D01*
X165204977Y-82062500D01*
X165173454Y-82124855D01*
X165154158Y-82141575D01*
X164968597Y-82271505D01*
X164801505Y-82438597D01*
X164666348Y-82631623D01*
X164611771Y-82675248D01*
X164564773Y-82684500D01*
X162602504Y-82684500D01*
X162535465Y-82664815D01*
X162489710Y-82612011D01*
X162479766Y-82542853D01*
X162497510Y-82494528D01*
X162525788Y-82449523D01*
X162525789Y-82449522D01*
X162585368Y-82279255D01*
X162585369Y-82279249D01*
X162605565Y-82100003D01*
X162605565Y-82099996D01*
X162585369Y-81920750D01*
X162585368Y-81920745D01*
X162551843Y-81824936D01*
X162525789Y-81750478D01*
X162429816Y-81597738D01*
X162302262Y-81470184D01*
X162268780Y-81449146D01*
X162149521Y-81374210D01*
X161979249Y-81314630D01*
X161932173Y-81309326D01*
X161867759Y-81282259D01*
X161858377Y-81273787D01*
X161211819Y-80627229D01*
X161178334Y-80565906D01*
X161175500Y-80539548D01*
X161175500Y-79344854D01*
X161194507Y-79278881D01*
X161275788Y-79149524D01*
X161281363Y-79133592D01*
X161335368Y-78979255D01*
X161335523Y-78977883D01*
X161355565Y-78800003D01*
X161355565Y-78799996D01*
X161335369Y-78620750D01*
X161335368Y-78620745D01*
X161275788Y-78450476D01*
X161204485Y-78336998D01*
X161179816Y-78297738D01*
X161052262Y-78170184D01*
X161011173Y-78144366D01*
X160899523Y-78074211D01*
X160729254Y-78014631D01*
X160729249Y-78014630D01*
X160550004Y-77994435D01*
X160549996Y-77994435D01*
X160370750Y-78014630D01*
X160370745Y-78014631D01*
X160200476Y-78074211D01*
X160047737Y-78170184D01*
X159920184Y-78297737D01*
X159824211Y-78450476D01*
X159764631Y-78620745D01*
X159764630Y-78620750D01*
X159744435Y-78799996D01*
X159744435Y-78800003D01*
X159764630Y-78979249D01*
X159764631Y-78979254D01*
X159824211Y-79149524D01*
X159905493Y-79278881D01*
X159924500Y-79344854D01*
X159924500Y-80911606D01*
X159936517Y-80972025D01*
X159941182Y-80995475D01*
X159941182Y-80995478D01*
X159948534Y-81032443D01*
X159948535Y-81032445D01*
X159948536Y-81032448D01*
X159948537Y-81032451D01*
X159995688Y-81146286D01*
X160023823Y-81188391D01*
X160023824Y-81188394D01*
X160064138Y-81248728D01*
X160064144Y-81248736D01*
X160155586Y-81340178D01*
X160155608Y-81340198D01*
X160973787Y-82158377D01*
X161007272Y-82219700D01*
X161009326Y-82232173D01*
X161014630Y-82279249D01*
X161074210Y-82449521D01*
X161102490Y-82494528D01*
X161121490Y-82561765D01*
X161101122Y-82628600D01*
X161047855Y-82673814D01*
X160997496Y-82684500D01*
X157907741Y-82684500D01*
X157907721Y-82684499D01*
X157901607Y-82684499D01*
X157778394Y-82684499D01*
X157677597Y-82704548D01*
X157677592Y-82704548D01*
X157657549Y-82708536D01*
X157616596Y-82725500D01*
X157616595Y-82725500D01*
X157543721Y-82755684D01*
X157543708Y-82755691D01*
X157441267Y-82824141D01*
X157441263Y-82824144D01*
X155969038Y-84296371D01*
X155551269Y-84714140D01*
X155551267Y-84714142D01*
X155530268Y-84735141D01*
X155520332Y-84745077D01*
X155459008Y-84778561D01*
X155389317Y-84773575D01*
X155344971Y-84745075D01*
X155261402Y-84661506D01*
X155261396Y-84661501D01*
X155075842Y-84531575D01*
X155032217Y-84476998D01*
X155025023Y-84407500D01*
X155056546Y-84345145D01*
X155075842Y-84328425D01*
X155239053Y-84214143D01*
X155261401Y-84198495D01*
X155428495Y-84031401D01*
X155564035Y-83837830D01*
X155663903Y-83623663D01*
X155725063Y-83395408D01*
X155745659Y-83160000D01*
X155744463Y-83146335D01*
X155725063Y-82924596D01*
X155725063Y-82924592D01*
X155698148Y-82824144D01*
X155698143Y-82824125D01*
X155699806Y-82754276D01*
X155730235Y-82704353D01*
X156698729Y-81735860D01*
X156698733Y-81735858D01*
X156785858Y-81648733D01*
X156819932Y-81597737D01*
X156837254Y-81571813D01*
X156837256Y-81571810D01*
X156854310Y-81546288D01*
X156854314Y-81546280D01*
X156858462Y-81536267D01*
X156863426Y-81524280D01*
X156894548Y-81449146D01*
X156894549Y-81449142D01*
X156901463Y-81432452D01*
X156913481Y-81372029D01*
X156925500Y-81311607D01*
X156925500Y-81188393D01*
X156925500Y-75060452D01*
X156945185Y-74993413D01*
X156961819Y-74972771D01*
X158122772Y-73811819D01*
X158184095Y-73778334D01*
X158210453Y-73775500D01*
X164365501Y-73775500D01*
X164432540Y-73795185D01*
X164478295Y-73847989D01*
X164489501Y-73899500D01*
X164489501Y-74047876D01*
X164495908Y-74107483D01*
X164546202Y-74242328D01*
X164546206Y-74242335D01*
X164632452Y-74357544D01*
X164632455Y-74357547D01*
X164747664Y-74443793D01*
X164747671Y-74443797D01*
X164882517Y-74494091D01*
X164882516Y-74494091D01*
X164889444Y-74494835D01*
X164942127Y-74500500D01*
X166737872Y-74500499D01*
X166797483Y-74494091D01*
X166932331Y-74443796D01*
X167047546Y-74357546D01*
X167133796Y-74242331D01*
X167184091Y-74107483D01*
X167190500Y-74047873D01*
X167190499Y-72252128D01*
X167184091Y-72192517D01*
X167180442Y-72182734D01*
X167133797Y-72057671D01*
X167133793Y-72057664D01*
X167047547Y-71942455D01*
X167047544Y-71942452D01*
X166932335Y-71856206D01*
X166932328Y-71856202D01*
X166797482Y-71805908D01*
X166797483Y-71805908D01*
X166737883Y-71799501D01*
X166737881Y-71799500D01*
X166737873Y-71799500D01*
X166737864Y-71799500D01*
X164942129Y-71799500D01*
X164942123Y-71799501D01*
X164882516Y-71805908D01*
X164747671Y-71856202D01*
X164747664Y-71856206D01*
X164632455Y-71942452D01*
X164632452Y-71942455D01*
X164546206Y-72057664D01*
X164546202Y-72057671D01*
X164495908Y-72192517D01*
X164489501Y-72252116D01*
X164489501Y-72252123D01*
X164489500Y-72252135D01*
X164489500Y-72400500D01*
X164469815Y-72467539D01*
X164417011Y-72513294D01*
X164365500Y-72524500D01*
X157967741Y-72524500D01*
X157967721Y-72524499D01*
X157961607Y-72524499D01*
X157838394Y-72524499D01*
X157737597Y-72544548D01*
X157737592Y-72544548D01*
X157717553Y-72548535D01*
X157717545Y-72548537D01*
X157679873Y-72564141D01*
X157679874Y-72564142D01*
X157603711Y-72595689D01*
X157501267Y-72664141D01*
X157501263Y-72664144D01*
X155901269Y-74264140D01*
X155814144Y-74351264D01*
X155814138Y-74351272D01*
X155745691Y-74453706D01*
X155745688Y-74453714D01*
X155726309Y-74500500D01*
X155698538Y-74567544D01*
X155698535Y-74567554D01*
X155692939Y-74595687D01*
X155692940Y-74595688D01*
X155684446Y-74638393D01*
X155684445Y-74638394D01*
X155674500Y-74688389D01*
X155674500Y-80939547D01*
X155654815Y-81006586D01*
X155638181Y-81027228D01*
X154845646Y-81819762D01*
X154784323Y-81853247D01*
X154725872Y-81851856D01*
X154625413Y-81824938D01*
X154625403Y-81824936D01*
X154390001Y-81804341D01*
X154389999Y-81804341D01*
X154154596Y-81824936D01*
X154154586Y-81824938D01*
X153926344Y-81886094D01*
X153926335Y-81886098D01*
X153712171Y-81985964D01*
X153712169Y-81985965D01*
X153518597Y-82121505D01*
X153351505Y-82288597D01*
X153216348Y-82481623D01*
X153161771Y-82525248D01*
X153114773Y-82534500D01*
X152978389Y-82534500D01*
X152917971Y-82546518D01*
X152874743Y-82555116D01*
X152857546Y-82558537D01*
X152743716Y-82605687D01*
X152644153Y-82672212D01*
X152644154Y-82672213D01*
X152641266Y-82674142D01*
X152641260Y-82674147D01*
X152123062Y-83192347D01*
X151951269Y-83364140D01*
X151951267Y-83364142D01*
X151920006Y-83395403D01*
X151864142Y-83451266D01*
X151842461Y-83483715D01*
X151842460Y-83483716D01*
X151795690Y-83553708D01*
X151795686Y-83553716D01*
X151766714Y-83623664D01*
X151757522Y-83645856D01*
X151757522Y-83645857D01*
X151748538Y-83667545D01*
X151748535Y-83667555D01*
X151725078Y-83785486D01*
X151725078Y-83785489D01*
X151724500Y-83788390D01*
X151724500Y-84765951D01*
X151704815Y-84832990D01*
X151652011Y-84878745D01*
X151582853Y-84888689D01*
X151519297Y-84859664D01*
X151512819Y-84853632D01*
X151439141Y-84779954D01*
X151252734Y-84649432D01*
X151252732Y-84649431D01*
X151046497Y-84553261D01*
X151046488Y-84553258D01*
X150826697Y-84494366D01*
X150826693Y-84494365D01*
X150826692Y-84494365D01*
X150826691Y-84494364D01*
X150826686Y-84494364D01*
X150600002Y-84474532D01*
X150599998Y-84474532D01*
X150373313Y-84494364D01*
X150373302Y-84494366D01*
X150153511Y-84553258D01*
X150153502Y-84553261D01*
X149947267Y-84649431D01*
X149947265Y-84649432D01*
X149760858Y-84779954D01*
X149599954Y-84940858D01*
X149469432Y-85127265D01*
X149469431Y-85127267D01*
X149373261Y-85333502D01*
X149373258Y-85333511D01*
X149314366Y-85553302D01*
X149314364Y-85553313D01*
X149294532Y-85779998D01*
X149294532Y-85780001D01*
X149314364Y-86006686D01*
X149314366Y-86006697D01*
X149373258Y-86226488D01*
X149373261Y-86226497D01*
X149469431Y-86432732D01*
X149469432Y-86432734D01*
X149599954Y-86619141D01*
X149760858Y-86780045D01*
X149780858Y-86794049D01*
X149947266Y-86910568D01*
X150153504Y-87006739D01*
X150373308Y-87065635D01*
X150535230Y-87079801D01*
X150599998Y-87085468D01*
X150600000Y-87085468D01*
X150600002Y-87085468D01*
X150656673Y-87080509D01*
X150826692Y-87065635D01*
X151046496Y-87006739D01*
X151252734Y-86910568D01*
X151439139Y-86780047D01*
X151439141Y-86780045D01*
X151512819Y-86706368D01*
X151574142Y-86672883D01*
X151643834Y-86677867D01*
X151699767Y-86719739D01*
X151724184Y-86785203D01*
X151724500Y-86794049D01*
X151724500Y-91165951D01*
X151704815Y-91232990D01*
X151652011Y-91278745D01*
X151582853Y-91288689D01*
X151519297Y-91259664D01*
X151512819Y-91253632D01*
X151439141Y-91179954D01*
X151252734Y-91049432D01*
X151252732Y-91049431D01*
X151046497Y-90953261D01*
X151046488Y-90953258D01*
X150826697Y-90894366D01*
X150826693Y-90894365D01*
X150826692Y-90894365D01*
X150826691Y-90894364D01*
X150826686Y-90894364D01*
X150600002Y-90874532D01*
X150599998Y-90874532D01*
X150373313Y-90894364D01*
X150373302Y-90894366D01*
X150153511Y-90953258D01*
X150153502Y-90953261D01*
X149947267Y-91049431D01*
X149947265Y-91049432D01*
X149760858Y-91179954D01*
X149599954Y-91340858D01*
X149469432Y-91527265D01*
X149469431Y-91527267D01*
X149373261Y-91733502D01*
X149373258Y-91733511D01*
X149314366Y-91953302D01*
X149314364Y-91953313D01*
X149294532Y-92179998D01*
X149294532Y-92180001D01*
X149314364Y-92406686D01*
X149314366Y-92406697D01*
X149373258Y-92626488D01*
X149373261Y-92626497D01*
X149469431Y-92832732D01*
X149469432Y-92832734D01*
X149599954Y-93019141D01*
X149760858Y-93180045D01*
X149780858Y-93194049D01*
X149947266Y-93310568D01*
X150153504Y-93406739D01*
X150373308Y-93465635D01*
X150535230Y-93479801D01*
X150599998Y-93485468D01*
X150600000Y-93485468D01*
X150600002Y-93485468D01*
X150656673Y-93480509D01*
X150826692Y-93465635D01*
X151046496Y-93406739D01*
X151252734Y-93310568D01*
X151439139Y-93180047D01*
X151453983Y-93165203D01*
X151512819Y-93106368D01*
X151574142Y-93072883D01*
X151643834Y-93077867D01*
X151699767Y-93119739D01*
X151724184Y-93185203D01*
X151724500Y-93194049D01*
X151724500Y-104175951D01*
X151704815Y-104242990D01*
X151652011Y-104288745D01*
X151582853Y-104298689D01*
X151519297Y-104269664D01*
X151512819Y-104263632D01*
X151479141Y-104229954D01*
X151292734Y-104099432D01*
X151292732Y-104099431D01*
X151086497Y-104003261D01*
X151086488Y-104003258D01*
X150866697Y-103944366D01*
X150866693Y-103944365D01*
X150866692Y-103944365D01*
X150866691Y-103944364D01*
X150866686Y-103944364D01*
X150640002Y-103924532D01*
X150639998Y-103924532D01*
X150413313Y-103944364D01*
X150413302Y-103944366D01*
X150193511Y-104003258D01*
X150193502Y-104003261D01*
X149987267Y-104099431D01*
X149987265Y-104099432D01*
X149800858Y-104229954D01*
X149639954Y-104390858D01*
X149509432Y-104577265D01*
X149509431Y-104577267D01*
X149413261Y-104783502D01*
X149413258Y-104783511D01*
X149354366Y-105003302D01*
X149354364Y-105003313D01*
X149334532Y-105229998D01*
X149334532Y-105230001D01*
X149354364Y-105456686D01*
X149354366Y-105456697D01*
X149413258Y-105676488D01*
X149413261Y-105676497D01*
X149509431Y-105882732D01*
X149509432Y-105882734D01*
X149639954Y-106069141D01*
X149800858Y-106230045D01*
X149800861Y-106230047D01*
X149987266Y-106360568D01*
X150193504Y-106456739D01*
X150413308Y-106515635D01*
X150575230Y-106529801D01*
X150639998Y-106535468D01*
X150640000Y-106535468D01*
X150640002Y-106535468D01*
X150696673Y-106530509D01*
X150866692Y-106515635D01*
X151086496Y-106456739D01*
X151292734Y-106360568D01*
X151479139Y-106230047D01*
X151494505Y-106214681D01*
X151512819Y-106196368D01*
X151574142Y-106162883D01*
X151643834Y-106167867D01*
X151699767Y-106209739D01*
X151724184Y-106275203D01*
X151724500Y-106284049D01*
X151724500Y-107339547D01*
X151704815Y-107406586D01*
X151688181Y-107427228D01*
X150320006Y-108795403D01*
X148916270Y-110199139D01*
X148916267Y-110199142D01*
X148886812Y-110228597D01*
X148829142Y-110286266D01*
X148804690Y-110322862D01*
X148804689Y-110322863D01*
X148760690Y-110388709D01*
X148760685Y-110388718D01*
X148713540Y-110502538D01*
X148713537Y-110502546D01*
X148705219Y-110544366D01*
X148696574Y-110587834D01*
X148693506Y-110603258D01*
X148693505Y-110603263D01*
X148689500Y-110623394D01*
X148689500Y-118524547D01*
X148669815Y-118591586D01*
X148653181Y-118612228D01*
X146477229Y-120788181D01*
X146415906Y-120821666D01*
X146389548Y-120824500D01*
X142117741Y-120824500D01*
X142117721Y-120824499D01*
X142111607Y-120824499D01*
X141988394Y-120824499D01*
X141887597Y-120844548D01*
X141887592Y-120844548D01*
X141867548Y-120848536D01*
X141867545Y-120848537D01*
X141836243Y-120861504D01*
X141836240Y-120861505D01*
X141753721Y-120895684D01*
X141753708Y-120895691D01*
X141651267Y-120964141D01*
X141651263Y-120964144D01*
X140501269Y-122114140D01*
X140501211Y-122114198D01*
X140500427Y-122114981D01*
X140439083Y-122148427D01*
X140369394Y-122143398D01*
X140313487Y-122101491D01*
X140289112Y-122036011D01*
X140304008Y-121967748D01*
X140311224Y-121956125D01*
X140324035Y-121937830D01*
X140423903Y-121723663D01*
X140485063Y-121495408D01*
X140505659Y-121260000D01*
X140485063Y-121024592D01*
X140423903Y-120796337D01*
X140324035Y-120582171D01*
X140303293Y-120552547D01*
X140188494Y-120388597D01*
X140021402Y-120221506D01*
X140021396Y-120221501D01*
X139835842Y-120091575D01*
X139792217Y-120036998D01*
X139785023Y-119967500D01*
X139816546Y-119905145D01*
X139835842Y-119888425D01*
X139903700Y-119840910D01*
X140021401Y-119758495D01*
X140188495Y-119591401D01*
X140324035Y-119397830D01*
X140423903Y-119183663D01*
X140485063Y-118955408D01*
X140505659Y-118720000D01*
X140485063Y-118484592D01*
X140429331Y-118276593D01*
X140430994Y-118206743D01*
X140470157Y-118148881D01*
X140534386Y-118121377D01*
X140549106Y-118120500D01*
X141441327Y-118120500D01*
X141508366Y-118140185D01*
X141554121Y-118192989D01*
X141564855Y-118233693D01*
X141584364Y-118456686D01*
X141584366Y-118456697D01*
X141643258Y-118676488D01*
X141643261Y-118676497D01*
X141739431Y-118882732D01*
X141739432Y-118882734D01*
X141869954Y-119069141D01*
X142030858Y-119230045D01*
X142030861Y-119230047D01*
X142217266Y-119360568D01*
X142423504Y-119456739D01*
X142423509Y-119456740D01*
X142423511Y-119456741D01*
X142437540Y-119460500D01*
X142643308Y-119515635D01*
X142805230Y-119529801D01*
X142869998Y-119535468D01*
X142870000Y-119535468D01*
X142870002Y-119535468D01*
X142926673Y-119530509D01*
X143096692Y-119515635D01*
X143316496Y-119456739D01*
X143522734Y-119360568D01*
X143709139Y-119230047D01*
X143759065Y-119180121D01*
X143820388Y-119146635D01*
X143890079Y-119151619D01*
X143946013Y-119193490D01*
X143963789Y-119226846D01*
X143964632Y-119229254D01*
X143964632Y-119229255D01*
X144024211Y-119399522D01*
X144120184Y-119552262D01*
X144247738Y-119679816D01*
X144335824Y-119735164D01*
X144372959Y-119758498D01*
X144400478Y-119775789D01*
X144537271Y-119823655D01*
X144570745Y-119835368D01*
X144570750Y-119835369D01*
X144749996Y-119855565D01*
X144750000Y-119855565D01*
X144750004Y-119855565D01*
X144929249Y-119835369D01*
X144929252Y-119835368D01*
X144929255Y-119835368D01*
X145099522Y-119775789D01*
X145252262Y-119679816D01*
X145379816Y-119552262D01*
X145475789Y-119399522D01*
X145535368Y-119229255D01*
X145535369Y-119229249D01*
X145555565Y-119050003D01*
X145555565Y-119049996D01*
X145535369Y-118870750D01*
X145535368Y-118870745D01*
X145482620Y-118720000D01*
X145475789Y-118700478D01*
X145474312Y-118698128D01*
X145394506Y-118571117D01*
X145375500Y-118505145D01*
X145375500Y-116238393D01*
X145370651Y-116214019D01*
X145370650Y-116214015D01*
X145368947Y-116205451D01*
X145351463Y-116117548D01*
X145304311Y-116003714D01*
X145281390Y-115969411D01*
X145235857Y-115901265D01*
X145235854Y-115901262D01*
X144542928Y-115208338D01*
X144542925Y-115208334D01*
X144542925Y-115208335D01*
X144535858Y-115201268D01*
X144535858Y-115201267D01*
X144448733Y-115114142D01*
X144390901Y-115075500D01*
X144390902Y-115075500D01*
X144390900Y-115075498D01*
X144346290Y-115045690D01*
X144346286Y-115045688D01*
X144265792Y-115012347D01*
X144250385Y-115005965D01*
X144232453Y-114998537D01*
X144222427Y-114996543D01*
X144172029Y-114986518D01*
X144111610Y-114974500D01*
X144111607Y-114974500D01*
X144111606Y-114974500D01*
X142910453Y-114974500D01*
X142843414Y-114954815D01*
X142822772Y-114938181D01*
X142111819Y-114227228D01*
X142078334Y-114165905D01*
X142075500Y-114139547D01*
X142075500Y-112994473D01*
X142095185Y-112927434D01*
X142147989Y-112881679D01*
X142217147Y-112871735D01*
X142270621Y-112892897D01*
X142367266Y-112960568D01*
X142573504Y-113056739D01*
X142573509Y-113056740D01*
X142573511Y-113056741D01*
X142618819Y-113068881D01*
X142793308Y-113115635D01*
X142955230Y-113129801D01*
X143019998Y-113135468D01*
X143020000Y-113135468D01*
X143020002Y-113135468D01*
X143076673Y-113130509D01*
X143246692Y-113115635D01*
X143466496Y-113056739D01*
X143672734Y-112960568D01*
X143859139Y-112830047D01*
X144020047Y-112669139D01*
X144150568Y-112482734D01*
X144246739Y-112276496D01*
X144305635Y-112056692D01*
X144325468Y-111830000D01*
X144320202Y-111769815D01*
X144309532Y-111647853D01*
X144305635Y-111603308D01*
X144246739Y-111383504D01*
X144150568Y-111177266D01*
X144020047Y-110990861D01*
X144020045Y-110990858D01*
X143859141Y-110829954D01*
X143672734Y-110699432D01*
X143672732Y-110699431D01*
X143466497Y-110603261D01*
X143466488Y-110603258D01*
X143246697Y-110544366D01*
X143246693Y-110544365D01*
X143246692Y-110544365D01*
X143246691Y-110544364D01*
X143246686Y-110544364D01*
X143020002Y-110524532D01*
X143019998Y-110524532D01*
X142793313Y-110544364D01*
X142793302Y-110544366D01*
X142573511Y-110603258D01*
X142573502Y-110603261D01*
X142367267Y-110699431D01*
X142270622Y-110767102D01*
X142204416Y-110789429D01*
X142136649Y-110772417D01*
X142088837Y-110721469D01*
X142075500Y-110665526D01*
X142075500Y-106394473D01*
X142095185Y-106327434D01*
X142147989Y-106281679D01*
X142217147Y-106271735D01*
X142270621Y-106292897D01*
X142367266Y-106360568D01*
X142573504Y-106456739D01*
X142793308Y-106515635D01*
X142955230Y-106529801D01*
X143019998Y-106535468D01*
X143020000Y-106535468D01*
X143020002Y-106535468D01*
X143076673Y-106530509D01*
X143246692Y-106515635D01*
X143466496Y-106456739D01*
X143672734Y-106360568D01*
X143859139Y-106230047D01*
X144020047Y-106069139D01*
X144150568Y-105882734D01*
X144246739Y-105676496D01*
X144305635Y-105456692D01*
X144325468Y-105230000D01*
X144305635Y-105003308D01*
X144246739Y-104783504D01*
X144150568Y-104577266D01*
X144020047Y-104390861D01*
X144020045Y-104390858D01*
X143859141Y-104229954D01*
X143672734Y-104099432D01*
X143672732Y-104099431D01*
X143466497Y-104003261D01*
X143466488Y-104003258D01*
X143246697Y-103944366D01*
X143246693Y-103944365D01*
X143246692Y-103944365D01*
X143246691Y-103944364D01*
X143246686Y-103944364D01*
X143020002Y-103924532D01*
X143019998Y-103924532D01*
X142793313Y-103944364D01*
X142793302Y-103944366D01*
X142573511Y-104003258D01*
X142573502Y-104003261D01*
X142367267Y-104099431D01*
X142270622Y-104167102D01*
X142204416Y-104189429D01*
X142136649Y-104172417D01*
X142088837Y-104121469D01*
X142075500Y-104065526D01*
X142075500Y-99972481D01*
X142095185Y-99905442D01*
X142147989Y-99859687D01*
X142217147Y-99849743D01*
X142270621Y-99870905D01*
X142327266Y-99910568D01*
X142533504Y-100006739D01*
X142753308Y-100065635D01*
X142915230Y-100079801D01*
X142979998Y-100085468D01*
X142980000Y-100085468D01*
X142980002Y-100085468D01*
X143036673Y-100080509D01*
X143206692Y-100065635D01*
X143426496Y-100006739D01*
X143632734Y-99910568D01*
X143819139Y-99780047D01*
X143980047Y-99619139D01*
X144110568Y-99432734D01*
X144206739Y-99226496D01*
X144265635Y-99006692D01*
X144285468Y-98780000D01*
X144265635Y-98553308D01*
X144206739Y-98333504D01*
X144110568Y-98127266D01*
X143980047Y-97940861D01*
X143980045Y-97940858D01*
X143819141Y-97779954D01*
X143632734Y-97649432D01*
X143632732Y-97649431D01*
X143426497Y-97553261D01*
X143426488Y-97553258D01*
X143206697Y-97494366D01*
X143206693Y-97494365D01*
X143206692Y-97494365D01*
X143206691Y-97494364D01*
X143206686Y-97494364D01*
X142980002Y-97474532D01*
X142979998Y-97474532D01*
X142753313Y-97494364D01*
X142753302Y-97494366D01*
X142533511Y-97553258D01*
X142533502Y-97553261D01*
X142327267Y-97649431D01*
X142270622Y-97689094D01*
X142204416Y-97711421D01*
X142136649Y-97694409D01*
X142088836Y-97643460D01*
X142075500Y-97587518D01*
X142075500Y-93372481D01*
X142095185Y-93305442D01*
X142147989Y-93259687D01*
X142217147Y-93249743D01*
X142270621Y-93270905D01*
X142327266Y-93310568D01*
X142533504Y-93406739D01*
X142753308Y-93465635D01*
X142915230Y-93479801D01*
X142979998Y-93485468D01*
X142980000Y-93485468D01*
X142980002Y-93485468D01*
X143036673Y-93480509D01*
X143206692Y-93465635D01*
X143426496Y-93406739D01*
X143632734Y-93310568D01*
X143819139Y-93180047D01*
X143833983Y-93165203D01*
X143912819Y-93086368D01*
X143974142Y-93052883D01*
X144043834Y-93057867D01*
X144099767Y-93099739D01*
X144124184Y-93165203D01*
X144124500Y-93174049D01*
X144124500Y-96455145D01*
X144105494Y-96521117D01*
X144024211Y-96650476D01*
X143964631Y-96820745D01*
X143964630Y-96820750D01*
X143944435Y-96999996D01*
X143944435Y-97000003D01*
X143964630Y-97179249D01*
X143964631Y-97179254D01*
X144024211Y-97349523D01*
X144057806Y-97402988D01*
X144120184Y-97502262D01*
X144247738Y-97629816D01*
X144328450Y-97680531D01*
X144394721Y-97722172D01*
X144400478Y-97725789D01*
X144504446Y-97762169D01*
X144570745Y-97785368D01*
X144570750Y-97785369D01*
X144749996Y-97805565D01*
X144750000Y-97805565D01*
X144750004Y-97805565D01*
X144929249Y-97785369D01*
X144929252Y-97785368D01*
X144929255Y-97785368D01*
X145099522Y-97725789D01*
X145252262Y-97629816D01*
X145379816Y-97502262D01*
X145475789Y-97349522D01*
X145535368Y-97179255D01*
X145535369Y-97179249D01*
X145555565Y-97000003D01*
X145555565Y-96999996D01*
X145535369Y-96820750D01*
X145535368Y-96820745D01*
X145475789Y-96650478D01*
X145471392Y-96643481D01*
X145394506Y-96521117D01*
X145375500Y-96455145D01*
X145375500Y-89457940D01*
X145395185Y-89390901D01*
X145411819Y-89370259D01*
X145434248Y-89347830D01*
X145479816Y-89302262D01*
X145575789Y-89149522D01*
X145635368Y-88979255D01*
X145639972Y-88938394D01*
X145655565Y-88800003D01*
X145655565Y-88799996D01*
X145635369Y-88620750D01*
X145635368Y-88620745D01*
X145584512Y-88475408D01*
X145575789Y-88450478D01*
X145565803Y-88434586D01*
X145479815Y-88297737D01*
X145352262Y-88170184D01*
X145199523Y-88074211D01*
X145029254Y-88014631D01*
X145029249Y-88014630D01*
X144850004Y-87994435D01*
X144849996Y-87994435D01*
X144670750Y-88014630D01*
X144670745Y-88014631D01*
X144500476Y-88074211D01*
X144347737Y-88170184D01*
X144220184Y-88297737D01*
X144124211Y-88450476D01*
X144064631Y-88620745D01*
X144064630Y-88620750D01*
X144044435Y-88799996D01*
X144044435Y-88800003D01*
X144064630Y-88979249D01*
X144064633Y-88979262D01*
X144117541Y-89130461D01*
X144124500Y-89171416D01*
X144124500Y-91185951D01*
X144104815Y-91252990D01*
X144052011Y-91298745D01*
X143982853Y-91308689D01*
X143919297Y-91279664D01*
X143912819Y-91273632D01*
X143819141Y-91179954D01*
X143632734Y-91049432D01*
X143632732Y-91049431D01*
X143426497Y-90953261D01*
X143426488Y-90953258D01*
X143206697Y-90894366D01*
X143206693Y-90894365D01*
X143206692Y-90894365D01*
X143206691Y-90894364D01*
X143206686Y-90894364D01*
X142980002Y-90874532D01*
X142979998Y-90874532D01*
X142753313Y-90894364D01*
X142753302Y-90894366D01*
X142533511Y-90953258D01*
X142533502Y-90953261D01*
X142327267Y-91049431D01*
X142270622Y-91089094D01*
X142204416Y-91111421D01*
X142136649Y-91094409D01*
X142088836Y-91043460D01*
X142075500Y-90987518D01*
X142075500Y-86972481D01*
X142095185Y-86905442D01*
X142147989Y-86859687D01*
X142217147Y-86849743D01*
X142270621Y-86870905D01*
X142327266Y-86910568D01*
X142533504Y-87006739D01*
X142753308Y-87065635D01*
X142915230Y-87079801D01*
X142979998Y-87085468D01*
X142980000Y-87085468D01*
X142980002Y-87085468D01*
X143036673Y-87080509D01*
X143206692Y-87065635D01*
X143426496Y-87006739D01*
X143632734Y-86910568D01*
X143819139Y-86780047D01*
X143980047Y-86619139D01*
X144110568Y-86432734D01*
X144206739Y-86226496D01*
X144265635Y-86006692D01*
X144285468Y-85780000D01*
X144265635Y-85553308D01*
X144256172Y-85517991D01*
X144257835Y-85448143D01*
X144296997Y-85390280D01*
X144361226Y-85362776D01*
X144430128Y-85374362D01*
X144463628Y-85398218D01*
X144861016Y-85795606D01*
X144861045Y-85795637D01*
X144951264Y-85885856D01*
X144951267Y-85885858D01*
X145002490Y-85920084D01*
X145053714Y-85954312D01*
X145076778Y-85963865D01*
X145112193Y-85978535D01*
X145112198Y-85978536D01*
X145112200Y-85978537D01*
X145167548Y-86001463D01*
X145193837Y-86006692D01*
X145288391Y-86025499D01*
X145288392Y-86025500D01*
X145288393Y-86025500D01*
X145288394Y-86025500D01*
X145430145Y-86025500D01*
X145496116Y-86044505D01*
X145625478Y-86125789D01*
X145733693Y-86163655D01*
X145795745Y-86185368D01*
X145795750Y-86185369D01*
X145974996Y-86205565D01*
X145975000Y-86205565D01*
X145975004Y-86205565D01*
X146154249Y-86185369D01*
X146154252Y-86185368D01*
X146154255Y-86185368D01*
X146324522Y-86125789D01*
X146477262Y-86029816D01*
X146604816Y-85902262D01*
X146700789Y-85749522D01*
X146760368Y-85579255D01*
X146762936Y-85556463D01*
X146780565Y-85400003D01*
X146780565Y-85399996D01*
X146760369Y-85220750D01*
X146760368Y-85220745D01*
X146736658Y-85152987D01*
X146700789Y-85050478D01*
X146698803Y-85047318D01*
X146630939Y-84939312D01*
X146604816Y-84897738D01*
X146477262Y-84770184D01*
X146470525Y-84765951D01*
X146324523Y-84674211D01*
X146154254Y-84614631D01*
X146154249Y-84614630D01*
X145975004Y-84594435D01*
X145974996Y-84594435D01*
X145795750Y-84614630D01*
X145795737Y-84614633D01*
X145618906Y-84676510D01*
X145618450Y-84675206D01*
X145557038Y-84685311D01*
X145492907Y-84657581D01*
X145484512Y-84649922D01*
X142375198Y-81540608D01*
X142375178Y-81540586D01*
X142283733Y-81449141D01*
X142232509Y-81414915D01*
X142181286Y-81380688D01*
X142181283Y-81380686D01*
X142181282Y-81380686D01*
X142181281Y-81380685D01*
X142073058Y-81335859D01*
X142073053Y-81335855D01*
X142073053Y-81335857D01*
X142067453Y-81333537D01*
X142067454Y-81333537D01*
X142047403Y-81329549D01*
X142007029Y-81321518D01*
X141946610Y-81309500D01*
X141946607Y-81309500D01*
X141946606Y-81309500D01*
X140513234Y-81309500D01*
X140446195Y-81289815D01*
X140400440Y-81237011D01*
X140390496Y-81167853D01*
X140400852Y-81133095D01*
X140406611Y-81120745D01*
X140423903Y-81083663D01*
X140485063Y-80855408D01*
X140505659Y-80620000D01*
X140485063Y-80384592D01*
X140431153Y-80183394D01*
X140423905Y-80156344D01*
X140423904Y-80156343D01*
X140423903Y-80156337D01*
X140324035Y-79942171D01*
X140293524Y-79898597D01*
X140188496Y-79748600D01*
X140171397Y-79731501D01*
X140066567Y-79626671D01*
X140033084Y-79565351D01*
X140038068Y-79495659D01*
X140079939Y-79439725D01*
X140097752Y-79429998D01*
X141674532Y-79429998D01*
X141674532Y-79430001D01*
X141694364Y-79656686D01*
X141694366Y-79656697D01*
X141753258Y-79876488D01*
X141753261Y-79876497D01*
X141849431Y-80082732D01*
X141849432Y-80082734D01*
X141979954Y-80269141D01*
X142140858Y-80430045D01*
X142140861Y-80430047D01*
X142327266Y-80560568D01*
X142533504Y-80656739D01*
X142753308Y-80715635D01*
X142915230Y-80729801D01*
X142979998Y-80735468D01*
X142980000Y-80735468D01*
X142980002Y-80735468D01*
X143036673Y-80730509D01*
X143206692Y-80715635D01*
X143426496Y-80656739D01*
X143632734Y-80560568D01*
X143819139Y-80430047D01*
X143980047Y-80269139D01*
X144110568Y-80082734D01*
X144206739Y-79876496D01*
X144265635Y-79656692D01*
X144285468Y-79430000D01*
X144285468Y-79429998D01*
X149294532Y-79429998D01*
X149294532Y-79430001D01*
X149314364Y-79656686D01*
X149314366Y-79656697D01*
X149373258Y-79876488D01*
X149373261Y-79876497D01*
X149469431Y-80082732D01*
X149469432Y-80082734D01*
X149599954Y-80269141D01*
X149760858Y-80430045D01*
X149760861Y-80430047D01*
X149947266Y-80560568D01*
X150153504Y-80656739D01*
X150373308Y-80715635D01*
X150535230Y-80729801D01*
X150599998Y-80735468D01*
X150600000Y-80735468D01*
X150600002Y-80735468D01*
X150656673Y-80730509D01*
X150826692Y-80715635D01*
X151046496Y-80656739D01*
X151252734Y-80560568D01*
X151439139Y-80430047D01*
X151600047Y-80269139D01*
X151730568Y-80082734D01*
X151826739Y-79876496D01*
X151885635Y-79656692D01*
X151905468Y-79430000D01*
X151885635Y-79203308D01*
X151826739Y-78983504D01*
X151730568Y-78777266D01*
X151600047Y-78590861D01*
X151600045Y-78590858D01*
X151439141Y-78429954D01*
X151252734Y-78299432D01*
X151252732Y-78299431D01*
X151046497Y-78203261D01*
X151046488Y-78203258D01*
X150826697Y-78144366D01*
X150826693Y-78144365D01*
X150826692Y-78144365D01*
X150826691Y-78144364D01*
X150826686Y-78144364D01*
X150600002Y-78124532D01*
X150599998Y-78124532D01*
X150373313Y-78144364D01*
X150373302Y-78144366D01*
X150153511Y-78203258D01*
X150153502Y-78203261D01*
X149947267Y-78299431D01*
X149947265Y-78299432D01*
X149760858Y-78429954D01*
X149599954Y-78590858D01*
X149469432Y-78777265D01*
X149469431Y-78777267D01*
X149373261Y-78983502D01*
X149373258Y-78983511D01*
X149314366Y-79203302D01*
X149314364Y-79203313D01*
X149294532Y-79429998D01*
X144285468Y-79429998D01*
X144265635Y-79203308D01*
X144206739Y-78983504D01*
X144110568Y-78777266D01*
X143980047Y-78590861D01*
X143980045Y-78590858D01*
X143819141Y-78429954D01*
X143632734Y-78299432D01*
X143632732Y-78299431D01*
X143426497Y-78203261D01*
X143426488Y-78203258D01*
X143206697Y-78144366D01*
X143206693Y-78144365D01*
X143206692Y-78144365D01*
X143206691Y-78144364D01*
X143206686Y-78144364D01*
X142980002Y-78124532D01*
X142979998Y-78124532D01*
X142753313Y-78144364D01*
X142753302Y-78144366D01*
X142533511Y-78203258D01*
X142533502Y-78203261D01*
X142327267Y-78299431D01*
X142327265Y-78299432D01*
X142140858Y-78429954D01*
X141979954Y-78590858D01*
X141849432Y-78777265D01*
X141849431Y-78777267D01*
X141753261Y-78983502D01*
X141753258Y-78983511D01*
X141694366Y-79203302D01*
X141694364Y-79203313D01*
X141674532Y-79429998D01*
X140097752Y-79429998D01*
X140110915Y-79422810D01*
X140242331Y-79373796D01*
X140357546Y-79287546D01*
X140443796Y-79172331D01*
X140494091Y-79037483D01*
X140500500Y-78977873D01*
X140500499Y-77182128D01*
X140494091Y-77122517D01*
X140469269Y-77055967D01*
X140443797Y-76987671D01*
X140443793Y-76987664D01*
X140357547Y-76872455D01*
X140357544Y-76872452D01*
X140242335Y-76786206D01*
X140242328Y-76786202D01*
X140107482Y-76735908D01*
X140107483Y-76735908D01*
X140047883Y-76729501D01*
X140047881Y-76729500D01*
X140047873Y-76729500D01*
X140047864Y-76729500D01*
X138252129Y-76729500D01*
X138252123Y-76729501D01*
X138192516Y-76735908D01*
X138057671Y-76786202D01*
X138057664Y-76786206D01*
X137942455Y-76872452D01*
X137942452Y-76872455D01*
X137856206Y-76987664D01*
X137856202Y-76987671D01*
X137805908Y-77122517D01*
X137799501Y-77182116D01*
X137799501Y-77182123D01*
X137799500Y-77182135D01*
X137799500Y-78977870D01*
X137799501Y-78977876D01*
X137805908Y-79037483D01*
X137856202Y-79172328D01*
X137856206Y-79172335D01*
X137942452Y-79287544D01*
X137942455Y-79287547D01*
X138057664Y-79373793D01*
X138057671Y-79373797D01*
X138189081Y-79422810D01*
X138245015Y-79464681D01*
X138269432Y-79530145D01*
X138254580Y-79598418D01*
X138233430Y-79626673D01*
X138111503Y-79748600D01*
X137975965Y-79942169D01*
X137975964Y-79942171D01*
X137876098Y-80156335D01*
X137876094Y-80156344D01*
X137814938Y-80384586D01*
X137814936Y-80384596D01*
X137794341Y-80619999D01*
X137794341Y-80620000D01*
X137814936Y-80855403D01*
X137814938Y-80855413D01*
X137876094Y-81083655D01*
X137876097Y-81083664D01*
X137899148Y-81133095D01*
X137909640Y-81202172D01*
X137881121Y-81265956D01*
X137822644Y-81304196D01*
X137786766Y-81309500D01*
X137125453Y-81309500D01*
X137058414Y-81289815D01*
X137037772Y-81273181D01*
X136672928Y-80908338D01*
X136672925Y-80908334D01*
X136672925Y-80908335D01*
X136665858Y-80901268D01*
X136665858Y-80901267D01*
X136578733Y-80814142D01*
X136512670Y-80770000D01*
X136512671Y-80770000D01*
X136512669Y-80769998D01*
X136476290Y-80745690D01*
X136476286Y-80745688D01*
X136451612Y-80735468D01*
X136395792Y-80712347D01*
X136362453Y-80698537D01*
X136352427Y-80696543D01*
X136302029Y-80686518D01*
X136241610Y-80674500D01*
X136241607Y-80674500D01*
X136241606Y-80674500D01*
X133944855Y-80674500D01*
X133878883Y-80655494D01*
X133749523Y-80574211D01*
X133579254Y-80514631D01*
X133579249Y-80514630D01*
X133400004Y-80494435D01*
X133399996Y-80494435D01*
X133220750Y-80514630D01*
X133220745Y-80514631D01*
X133050476Y-80574211D01*
X132897737Y-80670184D01*
X132770184Y-80797737D01*
X132674209Y-80950480D01*
X132616541Y-81115286D01*
X132575820Y-81172062D01*
X132510867Y-81197809D01*
X132442305Y-81184353D01*
X132391903Y-81135965D01*
X132375500Y-81074331D01*
X132375500Y-75394854D01*
X132394507Y-75328881D01*
X132399547Y-75320861D01*
X132475789Y-75199522D01*
X132535368Y-75029255D01*
X132537640Y-75009090D01*
X132555565Y-74850003D01*
X132555565Y-74849996D01*
X132535369Y-74670750D01*
X132535368Y-74670745D01*
X132533058Y-74664144D01*
X132475789Y-74500478D01*
X132448210Y-74456587D01*
X132385979Y-74357547D01*
X132379816Y-74347738D01*
X132252262Y-74220184D01*
X132099523Y-74124211D01*
X131929254Y-74064631D01*
X131929249Y-74064630D01*
X131750004Y-74044435D01*
X131749996Y-74044435D01*
X131570750Y-74064630D01*
X131570745Y-74064631D01*
X131400476Y-74124211D01*
X131247737Y-74220184D01*
X131120184Y-74347737D01*
X131024211Y-74500476D01*
X130964631Y-74670745D01*
X130964630Y-74670750D01*
X130944435Y-74849996D01*
X130944435Y-74850003D01*
X130964630Y-75029249D01*
X130964631Y-75029254D01*
X131024211Y-75199524D01*
X131091079Y-75305942D01*
X131100453Y-75320861D01*
X131105493Y-75328881D01*
X131124500Y-75394854D01*
X131124500Y-82011606D01*
X131143189Y-82105565D01*
X131148538Y-82132455D01*
X131159739Y-82159497D01*
X131159740Y-82159499D01*
X131159741Y-82159500D01*
X131173297Y-82192227D01*
X131195688Y-82246287D01*
X131212537Y-82271501D01*
X131223962Y-82288599D01*
X131264142Y-82348733D01*
X131351267Y-82435858D01*
X131351268Y-82435858D01*
X131358335Y-82442925D01*
X131358334Y-82442925D01*
X131358338Y-82442928D01*
X131874797Y-82959387D01*
X131908282Y-83020710D01*
X131903298Y-83090402D01*
X131861426Y-83146335D01*
X131795962Y-83170752D01*
X131762929Y-83168686D01*
X131758043Y-83167714D01*
X131752029Y-83166518D01*
X131691610Y-83154500D01*
X131691607Y-83154500D01*
X131691606Y-83154500D01*
X129424188Y-83154500D01*
X129357149Y-83134815D01*
X129322613Y-83101623D01*
X129210045Y-82940858D01*
X129049141Y-82779954D01*
X128862734Y-82649432D01*
X128862732Y-82649431D01*
X128656497Y-82553261D01*
X128656488Y-82553258D01*
X128436697Y-82494366D01*
X128436693Y-82494365D01*
X128436692Y-82494365D01*
X128436691Y-82494364D01*
X128436686Y-82494364D01*
X128210002Y-82474532D01*
X128209998Y-82474532D01*
X127983313Y-82494364D01*
X127983302Y-82494366D01*
X127816594Y-82539035D01*
X127746744Y-82537372D01*
X127688882Y-82498209D01*
X127661378Y-82433981D01*
X127660501Y-82419260D01*
X127660501Y-82348283D01*
X127660500Y-82348257D01*
X127660500Y-77520739D01*
X127680185Y-77453700D01*
X127732989Y-77407945D01*
X127802147Y-77398001D01*
X127816591Y-77400963D01*
X127983308Y-77445635D01*
X128145230Y-77459801D01*
X128209998Y-77465468D01*
X128210000Y-77465468D01*
X128210002Y-77465468D01*
X128266673Y-77460509D01*
X128436692Y-77445635D01*
X128656496Y-77386739D01*
X128862734Y-77290568D01*
X129049139Y-77160047D01*
X129210047Y-76999139D01*
X129340568Y-76812734D01*
X129436739Y-76606496D01*
X129495635Y-76386692D01*
X129515468Y-76160000D01*
X129495635Y-75933308D01*
X129436739Y-75713504D01*
X129340568Y-75507266D01*
X129210047Y-75320861D01*
X129210045Y-75320858D01*
X129049141Y-75159954D01*
X128862734Y-75029432D01*
X128862732Y-75029431D01*
X128656497Y-74933261D01*
X128656488Y-74933258D01*
X128436697Y-74874366D01*
X128436693Y-74874365D01*
X128436692Y-74874365D01*
X128436691Y-74874364D01*
X128436686Y-74874364D01*
X128210002Y-74854532D01*
X128209998Y-74854532D01*
X128078226Y-74866060D01*
X128009726Y-74852293D01*
X127959543Y-74803678D01*
X127943610Y-74735649D01*
X127966986Y-74669805D01*
X127979730Y-74654859D01*
X129185858Y-73448733D01*
X129185858Y-73448731D01*
X129196062Y-73438528D01*
X129196065Y-73438523D01*
X130522772Y-72111819D01*
X130584095Y-72078334D01*
X130610453Y-72075500D01*
X158405145Y-72075500D01*
X158471116Y-72094505D01*
X158600478Y-72175789D01*
X158648284Y-72192517D01*
X158770745Y-72235368D01*
X158770750Y-72235369D01*
X158949996Y-72255565D01*
X158950000Y-72255565D01*
X158950004Y-72255565D01*
X159129249Y-72235369D01*
X159129252Y-72235368D01*
X159129255Y-72235368D01*
X159299522Y-72175789D01*
X159452262Y-72079816D01*
X159579816Y-71952262D01*
X159675789Y-71799522D01*
X159735368Y-71629255D01*
X159755565Y-71450000D01*
X159735368Y-71270745D01*
X159675789Y-71100478D01*
X159579816Y-70947738D01*
X159452262Y-70820184D01*
X159428883Y-70805494D01*
X159299523Y-70724211D01*
X159129254Y-70664631D01*
X159129249Y-70664630D01*
X158950004Y-70644435D01*
X158949996Y-70644435D01*
X158770750Y-70664630D01*
X158770745Y-70664631D01*
X158600476Y-70724211D01*
X158471117Y-70805494D01*
X158405145Y-70824500D01*
X130367741Y-70824500D01*
X130367721Y-70824499D01*
X130361607Y-70824499D01*
X130238394Y-70824499D01*
X130137597Y-70844548D01*
X130137592Y-70844548D01*
X130117549Y-70848536D01*
X130117547Y-70848536D01*
X130070397Y-70868067D01*
X130003719Y-70895685D01*
X130003717Y-70895686D01*
X129901266Y-70964141D01*
X129901263Y-70964144D01*
X129630002Y-71235406D01*
X129568679Y-71268891D01*
X129498987Y-71263907D01*
X129443054Y-71222035D01*
X129422546Y-71179818D01*
X129396741Y-71083511D01*
X129396738Y-71083502D01*
X129341079Y-70964142D01*
X129300568Y-70877266D01*
X129170047Y-70690861D01*
X129170045Y-70690858D01*
X129009141Y-70529954D01*
X128822734Y-70399432D01*
X128822732Y-70399431D01*
X128616497Y-70303261D01*
X128616488Y-70303258D01*
X128396697Y-70244366D01*
X128396693Y-70244365D01*
X128396692Y-70244365D01*
X128396691Y-70244364D01*
X128396686Y-70244364D01*
X128170002Y-70224532D01*
X128169998Y-70224532D01*
X127943313Y-70244364D01*
X127943302Y-70244366D01*
X127776594Y-70289035D01*
X127706744Y-70287372D01*
X127648882Y-70248209D01*
X127621378Y-70183981D01*
X127620501Y-70169260D01*
X127620501Y-70098283D01*
X127620500Y-70098257D01*
X127620500Y-65270739D01*
X127640185Y-65203700D01*
X127692989Y-65157945D01*
X127762147Y-65148001D01*
X127776591Y-65150963D01*
X127943308Y-65195635D01*
X128105230Y-65209801D01*
X128169998Y-65215468D01*
X128170000Y-65215468D01*
X128170002Y-65215468D01*
X128226673Y-65210509D01*
X128396692Y-65195635D01*
X128616496Y-65136739D01*
X128822734Y-65040568D01*
X129009139Y-64910047D01*
X129170047Y-64749139D01*
X129300568Y-64562734D01*
X129396739Y-64356496D01*
X129455635Y-64136692D01*
X129475468Y-63910000D01*
X129455635Y-63683308D01*
X129396739Y-63463504D01*
X129300568Y-63257266D01*
X129170047Y-63070861D01*
X129170045Y-63070858D01*
X129009141Y-62909954D01*
X128822734Y-62779432D01*
X128822732Y-62779431D01*
X128616497Y-62683261D01*
X128616488Y-62683258D01*
X128396697Y-62624366D01*
X128396693Y-62624365D01*
X128396692Y-62624365D01*
X128396691Y-62624364D01*
X128396686Y-62624364D01*
X128170002Y-62604532D01*
X128169998Y-62604532D01*
X127943313Y-62624364D01*
X127943302Y-62624366D01*
X127776593Y-62669035D01*
X127706743Y-62667372D01*
X127648881Y-62628209D01*
X127621377Y-62563980D01*
X127620500Y-62549260D01*
X127620500Y-62215452D01*
X127640185Y-62148413D01*
X127656819Y-62127771D01*
X130172771Y-59611819D01*
X130234094Y-59578334D01*
X130260452Y-59575500D01*
X164616502Y-59575500D01*
X164683541Y-59595185D01*
G37*
%TD.AperFunction*%
%TA.AperFunction,Conductor*%
G36*
X171182539Y-55550185D02*
G01*
X171228294Y-55602989D01*
X171239500Y-55654500D01*
X171239500Y-139405500D01*
X171219815Y-139472539D01*
X171167011Y-139518294D01*
X171115500Y-139529500D01*
X107364500Y-139529500D01*
X107297461Y-139509815D01*
X107251706Y-139457011D01*
X107240500Y-139405500D01*
X107240500Y-119638389D01*
X109574500Y-119638389D01*
X109574500Y-134961610D01*
X109588180Y-135030383D01*
X109598537Y-135082452D01*
X109610183Y-135110568D01*
X109610184Y-135110570D01*
X109610183Y-135110570D01*
X109645684Y-135196278D01*
X109645687Y-135196285D01*
X109645688Y-135196286D01*
X109652673Y-135206739D01*
X109652674Y-135206741D01*
X109652675Y-135206742D01*
X109714141Y-135298732D01*
X109714144Y-135298736D01*
X109805586Y-135390178D01*
X109805608Y-135390198D01*
X110811016Y-136395606D01*
X110811045Y-136395637D01*
X110901264Y-136485856D01*
X110901267Y-136485858D01*
X110978190Y-136537256D01*
X111003710Y-136554309D01*
X111003712Y-136554310D01*
X111003715Y-136554312D01*
X111070396Y-136581931D01*
X111070398Y-136581933D01*
X111110640Y-136598601D01*
X111117548Y-136601463D01*
X111177971Y-136613481D01*
X111238393Y-136625500D01*
X120561607Y-136625500D01*
X120622029Y-136613481D01*
X120682452Y-136601463D01*
X120682455Y-136601461D01*
X120682458Y-136601461D01*
X120715787Y-136587654D01*
X120715786Y-136587654D01*
X120715792Y-136587652D01*
X120796286Y-136554312D01*
X120847509Y-136520084D01*
X120898733Y-136485858D01*
X120985858Y-136398733D01*
X120985859Y-136398731D01*
X120992925Y-136391665D01*
X120992928Y-136391661D01*
X121798729Y-135585860D01*
X121798733Y-135585858D01*
X121885858Y-135498733D01*
X121954311Y-135396286D01*
X122001463Y-135282452D01*
X122020172Y-135188393D01*
X122025500Y-135161607D01*
X122025500Y-135038393D01*
X122025500Y-129029998D01*
X130334532Y-129029998D01*
X130334532Y-129030001D01*
X130354364Y-129256686D01*
X130354366Y-129256697D01*
X130413258Y-129476488D01*
X130413261Y-129476497D01*
X130509431Y-129682732D01*
X130509432Y-129682734D01*
X130639954Y-129869141D01*
X130800858Y-130030045D01*
X130800861Y-130030047D01*
X130987266Y-130160568D01*
X131193504Y-130256739D01*
X131413308Y-130315635D01*
X131575230Y-130329801D01*
X131639998Y-130335468D01*
X131640000Y-130335468D01*
X131640002Y-130335468D01*
X131696673Y-130330509D01*
X131866692Y-130315635D01*
X132086496Y-130256739D01*
X132292734Y-130160568D01*
X132479139Y-130030047D01*
X132640047Y-129869139D01*
X132770568Y-129682734D01*
X132866739Y-129476496D01*
X132925635Y-129256692D01*
X132945468Y-129030000D01*
X132925635Y-128803308D01*
X132866739Y-128583504D01*
X132770568Y-128377266D01*
X132640047Y-128190861D01*
X132640045Y-128190858D01*
X132479141Y-128029954D01*
X132292734Y-127899432D01*
X132292732Y-127899431D01*
X132086497Y-127803261D01*
X132086488Y-127803258D01*
X131866697Y-127744366D01*
X131866693Y-127744365D01*
X131866692Y-127744365D01*
X131866691Y-127744364D01*
X131866686Y-127744364D01*
X131640002Y-127724532D01*
X131639998Y-127724532D01*
X131413313Y-127744364D01*
X131413302Y-127744366D01*
X131193511Y-127803258D01*
X131193502Y-127803261D01*
X130987267Y-127899431D01*
X130987265Y-127899432D01*
X130800858Y-128029954D01*
X130639954Y-128190858D01*
X130509432Y-128377265D01*
X130509431Y-128377267D01*
X130413261Y-128583502D01*
X130413258Y-128583511D01*
X130354366Y-128803302D01*
X130354364Y-128803313D01*
X130334532Y-129029998D01*
X122025500Y-129029998D01*
X122025500Y-118698128D01*
X122045185Y-118631089D01*
X122061814Y-118610451D01*
X123162771Y-117509494D01*
X123224092Y-117476011D01*
X123290712Y-117479895D01*
X123336493Y-117495612D01*
X123370385Y-117507248D01*
X123615665Y-117548177D01*
X123864335Y-117548177D01*
X124109614Y-117507248D01*
X124344810Y-117426505D01*
X124563509Y-117308151D01*
X124759744Y-117155415D01*
X124928164Y-116972462D01*
X125064173Y-116764284D01*
X125164063Y-116536558D01*
X125225108Y-116295498D01*
X125230908Y-116225500D01*
X125245643Y-116047682D01*
X125245643Y-116047671D01*
X125225109Y-115799864D01*
X125225107Y-115799852D01*
X125164063Y-115558795D01*
X125064173Y-115331070D01*
X124928166Y-115122894D01*
X124884538Y-115075502D01*
X124759744Y-114939939D01*
X124563509Y-114787203D01*
X124563507Y-114787202D01*
X124563506Y-114787201D01*
X124344811Y-114668849D01*
X124344802Y-114668846D01*
X124109616Y-114588106D01*
X123864335Y-114547177D01*
X123615665Y-114547177D01*
X123370383Y-114588106D01*
X123135197Y-114668846D01*
X123135188Y-114668849D01*
X122916493Y-114787201D01*
X122720257Y-114939938D01*
X122551833Y-115122894D01*
X122415826Y-115331070D01*
X122315936Y-115558795D01*
X122254892Y-115799852D01*
X122254890Y-115799864D01*
X122234357Y-116047671D01*
X122234357Y-116047682D01*
X122254890Y-116295489D01*
X122254892Y-116295501D01*
X122308863Y-116508626D01*
X122306238Y-116578446D01*
X122276338Y-116626747D01*
X121621372Y-117281714D01*
X121001270Y-117901816D01*
X121001267Y-117901819D01*
X120969311Y-117933775D01*
X120914142Y-117988943D01*
X120901202Y-118008309D01*
X120888349Y-118027546D01*
X120845690Y-118091387D01*
X120845685Y-118091396D01*
X120825012Y-118141308D01*
X120825012Y-118141309D01*
X120798538Y-118205222D01*
X120798535Y-118205232D01*
X120774500Y-118326066D01*
X120774500Y-133312497D01*
X120754815Y-133379536D01*
X120702011Y-133425291D01*
X120632853Y-133435235D01*
X120569297Y-133406210D01*
X120538118Y-133364902D01*
X120535688Y-133359691D01*
X120520568Y-133327266D01*
X120392662Y-133144596D01*
X120390045Y-133140858D01*
X120229141Y-132979954D01*
X120042734Y-132849432D01*
X120042732Y-132849431D01*
X119836497Y-132753261D01*
X119836488Y-132753258D01*
X119616697Y-132694366D01*
X119616693Y-132694365D01*
X119616692Y-132694365D01*
X119616691Y-132694364D01*
X119616686Y-132694364D01*
X119390002Y-132674532D01*
X119389998Y-132674532D01*
X119163313Y-132694364D01*
X119163302Y-132694366D01*
X118943511Y-132753258D01*
X118943502Y-132753261D01*
X118737267Y-132849431D01*
X118737265Y-132849432D01*
X118550858Y-132979954D01*
X118389954Y-133140858D01*
X118259432Y-133327265D01*
X118259431Y-133327267D01*
X118163261Y-133533502D01*
X118163258Y-133533511D01*
X118104366Y-133753302D01*
X118104364Y-133753313D01*
X118084532Y-133979998D01*
X118084532Y-133980001D01*
X118104364Y-134206686D01*
X118104366Y-134206697D01*
X118163258Y-134426488D01*
X118163261Y-134426497D01*
X118259431Y-134632732D01*
X118259432Y-134632734D01*
X118389954Y-134819141D01*
X118550858Y-134980045D01*
X118550861Y-134980047D01*
X118737266Y-135110568D01*
X118796347Y-135138118D01*
X118848786Y-135184291D01*
X118867938Y-135251484D01*
X118847722Y-135318365D01*
X118794556Y-135363700D01*
X118743942Y-135374500D01*
X114856567Y-135374500D01*
X114789528Y-135354815D01*
X114743773Y-135302011D01*
X114733829Y-135232853D01*
X114740385Y-135207167D01*
X114769713Y-135128532D01*
X114784091Y-135089983D01*
X114790500Y-135030373D01*
X114790500Y-134779500D01*
X114810185Y-134712461D01*
X114862989Y-134666706D01*
X114914500Y-134655500D01*
X115681607Y-134655500D01*
X115742029Y-134643481D01*
X115802452Y-134631463D01*
X115802461Y-134631458D01*
X115804505Y-134630840D01*
X115840502Y-134625500D01*
X115861607Y-134625500D01*
X115922029Y-134613481D01*
X115982452Y-134601463D01*
X116030736Y-134581463D01*
X116096286Y-134554312D01*
X116153836Y-134515857D01*
X116198733Y-134485858D01*
X116285858Y-134398733D01*
X116285859Y-134398731D01*
X116292925Y-134391665D01*
X116292928Y-134391661D01*
X116848729Y-133835860D01*
X116848733Y-133835858D01*
X116935858Y-133748733D01*
X117004311Y-133646286D01*
X117004312Y-133646285D01*
X117042764Y-133553453D01*
X117051463Y-133532452D01*
X117075500Y-133411606D01*
X117075500Y-129894854D01*
X117094507Y-129828881D01*
X117101082Y-129818418D01*
X117168239Y-129711538D01*
X117175788Y-129699524D01*
X117187531Y-129665965D01*
X117235368Y-129529255D01*
X117237790Y-129507758D01*
X117255565Y-129350003D01*
X117255565Y-129349996D01*
X117235369Y-129170750D01*
X117235368Y-129170745D01*
X117198140Y-129064353D01*
X117175789Y-129000478D01*
X117079816Y-128847738D01*
X116952262Y-128720184D01*
X116949412Y-128718393D01*
X116799523Y-128624211D01*
X116629254Y-128564631D01*
X116629249Y-128564630D01*
X116450004Y-128544435D01*
X116449996Y-128544435D01*
X116270750Y-128564630D01*
X116270745Y-128564631D01*
X116100476Y-128624211D01*
X115947737Y-128720184D01*
X115820184Y-128847737D01*
X115724211Y-129000476D01*
X115664631Y-129170745D01*
X115664630Y-129170750D01*
X115644435Y-129349996D01*
X115644435Y-129350003D01*
X115664630Y-129529249D01*
X115664631Y-129529254D01*
X115724211Y-129699524D01*
X115788291Y-129801505D01*
X115798918Y-129818418D01*
X115805493Y-129828881D01*
X115824500Y-129894854D01*
X115824500Y-133039547D01*
X115804815Y-133106586D01*
X115788181Y-133127228D01*
X115555717Y-133359691D01*
X115494394Y-133393176D01*
X115492229Y-133393627D01*
X115467551Y-133398535D01*
X115465498Y-133399159D01*
X115429497Y-133404500D01*
X114914499Y-133404500D01*
X114847460Y-133384815D01*
X114801705Y-133332011D01*
X114790499Y-133280500D01*
X114790499Y-133029629D01*
X114790498Y-133029623D01*
X114790497Y-133029616D01*
X114784091Y-132970017D01*
X114764072Y-132916344D01*
X114733797Y-132835171D01*
X114733793Y-132835164D01*
X114647547Y-132719955D01*
X114647544Y-132719952D01*
X114532335Y-132633706D01*
X114532328Y-132633702D01*
X114397482Y-132583408D01*
X114397483Y-132583408D01*
X114337883Y-132577001D01*
X114337881Y-132577000D01*
X114337873Y-132577000D01*
X114337864Y-132577000D01*
X112242129Y-132577000D01*
X112242123Y-132577001D01*
X112182516Y-132583408D01*
X112047671Y-132633702D01*
X112047664Y-132633706D01*
X111932455Y-132719952D01*
X111932452Y-132719955D01*
X111846206Y-132835164D01*
X111846202Y-132835171D01*
X111795908Y-132970017D01*
X111789501Y-133029616D01*
X111789501Y-133029623D01*
X111789500Y-133029635D01*
X111789500Y-135030370D01*
X111789501Y-135030376D01*
X111795908Y-135089983D01*
X111839615Y-135207167D01*
X111844599Y-135276859D01*
X111811114Y-135338182D01*
X111749790Y-135371666D01*
X111723433Y-135374500D01*
X111610452Y-135374500D01*
X111543413Y-135354815D01*
X111522771Y-135338181D01*
X110861819Y-134677229D01*
X110828334Y-134615906D01*
X110825500Y-134589548D01*
X110825500Y-128835646D01*
X111789500Y-128835646D01*
X111789500Y-129064353D01*
X111825278Y-129290246D01*
X111825278Y-129290249D01*
X111895950Y-129507755D01*
X111976562Y-129665965D01*
X111999783Y-129711538D01*
X112134214Y-129896566D01*
X112295934Y-130058286D01*
X112480962Y-130192717D01*
X112684742Y-130296548D01*
X112684744Y-130296549D01*
X112902251Y-130367221D01*
X112902252Y-130367221D01*
X112902255Y-130367222D01*
X113128146Y-130403000D01*
X113128147Y-130403000D01*
X113451853Y-130403000D01*
X113451854Y-130403000D01*
X113677745Y-130367222D01*
X113677748Y-130367221D01*
X113677749Y-130367221D01*
X113895255Y-130296549D01*
X113895255Y-130296548D01*
X113895258Y-130296548D01*
X114099038Y-130192717D01*
X114284066Y-130058286D01*
X114445786Y-129896566D01*
X114580217Y-129711538D01*
X114684048Y-129507758D01*
X114721551Y-129392335D01*
X114754721Y-129290249D01*
X114754721Y-129290248D01*
X114754722Y-129290245D01*
X114790500Y-129064354D01*
X114790500Y-128835646D01*
X114754722Y-128609755D01*
X114754721Y-128609751D01*
X114754721Y-128609750D01*
X114684049Y-128392244D01*
X114581439Y-128190861D01*
X114580217Y-128188462D01*
X114445786Y-128003434D01*
X114284066Y-127841714D01*
X114099038Y-127707283D01*
X114035799Y-127675061D01*
X113895255Y-127603450D01*
X113677748Y-127532778D01*
X113508326Y-127505944D01*
X113451854Y-127497000D01*
X113128146Y-127497000D01*
X113052849Y-127508926D01*
X112902253Y-127532778D01*
X112902250Y-127532778D01*
X112684744Y-127603450D01*
X112480961Y-127707283D01*
X112375396Y-127783980D01*
X112295934Y-127841714D01*
X112295932Y-127841716D01*
X112295931Y-127841716D01*
X112134216Y-128003431D01*
X112134216Y-128003432D01*
X112134214Y-128003434D01*
X112114947Y-128029953D01*
X111999783Y-128188461D01*
X111895950Y-128392244D01*
X111825278Y-128609750D01*
X111825278Y-128609753D01*
X111789500Y-128835646D01*
X110825500Y-128835646D01*
X110825500Y-120010452D01*
X110845185Y-119943413D01*
X110861819Y-119922771D01*
X111732771Y-119051819D01*
X111794094Y-119018334D01*
X111820452Y-119015500D01*
X111854481Y-119015500D01*
X111921520Y-119035185D01*
X111964964Y-119083203D01*
X111999783Y-119151538D01*
X112132525Y-119334242D01*
X112156005Y-119400046D01*
X112140180Y-119468100D01*
X112090074Y-119516795D01*
X112075541Y-119523308D01*
X112047670Y-119533703D01*
X112047664Y-119533706D01*
X111932455Y-119619952D01*
X111932452Y-119619955D01*
X111846206Y-119735164D01*
X111846202Y-119735171D01*
X111795908Y-119870017D01*
X111792132Y-119905145D01*
X111789501Y-119929623D01*
X111789500Y-119929635D01*
X111789500Y-121930370D01*
X111789501Y-121930376D01*
X111795908Y-121989983D01*
X111846202Y-122124828D01*
X111846206Y-122124835D01*
X111932452Y-122240044D01*
X111932455Y-122240047D01*
X112047664Y-122326293D01*
X112047671Y-122326297D01*
X112182517Y-122376591D01*
X112182516Y-122376591D01*
X112189444Y-122377335D01*
X112242127Y-122383000D01*
X114337872Y-122382999D01*
X114397483Y-122376591D01*
X114532331Y-122326296D01*
X114647546Y-122240046D01*
X114733796Y-122124831D01*
X114784091Y-121989983D01*
X114790500Y-121930373D01*
X114790500Y-121679500D01*
X114810185Y-121612461D01*
X114862989Y-121566706D01*
X114914500Y-121555500D01*
X118181607Y-121555500D01*
X118242029Y-121543481D01*
X118302452Y-121531463D01*
X118302455Y-121531461D01*
X118302458Y-121531461D01*
X118335787Y-121517654D01*
X118335786Y-121517654D01*
X118335792Y-121517652D01*
X118416286Y-121484312D01*
X118416289Y-121484309D01*
X118416291Y-121484309D01*
X118440721Y-121467984D01*
X118469825Y-121448537D01*
X118518733Y-121415858D01*
X118605858Y-121328733D01*
X118605859Y-121328731D01*
X118612925Y-121321665D01*
X118612928Y-121321661D01*
X119348729Y-120585860D01*
X119348733Y-120585858D01*
X119435858Y-120498733D01*
X119504311Y-120396286D01*
X119551463Y-120282452D01*
X119575500Y-120161606D01*
X119575500Y-113438394D01*
X119575500Y-113438389D01*
X119572737Y-113424502D01*
X119572736Y-113424497D01*
X119559902Y-113359976D01*
X119551463Y-113317549D01*
X119543669Y-113298733D01*
X119543668Y-113298730D01*
X119543668Y-113298729D01*
X119504312Y-113203717D01*
X119504311Y-113203714D01*
X119504309Y-113203711D01*
X119504307Y-113203707D01*
X119435859Y-113101268D01*
X119394776Y-113060185D01*
X119348733Y-113014142D01*
X119348732Y-113014141D01*
X117942927Y-111608337D01*
X117942925Y-111608334D01*
X117942925Y-111608335D01*
X117935858Y-111601268D01*
X117935858Y-111601267D01*
X117848733Y-111514142D01*
X117848732Y-111514141D01*
X117848731Y-111514140D01*
X117797509Y-111479915D01*
X117746286Y-111445688D01*
X117746283Y-111445686D01*
X117746282Y-111445686D01*
X117746281Y-111445685D01*
X117644321Y-111403453D01*
X117644320Y-111403452D01*
X117632456Y-111398538D01*
X117632453Y-111398537D01*
X117617420Y-111395547D01*
X117556874Y-111383504D01*
X117534240Y-111379002D01*
X117511608Y-111374500D01*
X117511607Y-111374500D01*
X117511606Y-111374500D01*
X114860452Y-111374500D01*
X114793413Y-111354815D01*
X114772771Y-111338181D01*
X113951819Y-110517229D01*
X113918334Y-110455906D01*
X113915500Y-110429548D01*
X113915500Y-110156999D01*
X113935185Y-110089960D01*
X113987989Y-110044205D01*
X114039500Y-110032999D01*
X114337871Y-110032999D01*
X114337872Y-110032999D01*
X114397483Y-110026591D01*
X114532331Y-109976296D01*
X114647546Y-109890046D01*
X114733796Y-109774831D01*
X114784091Y-109639983D01*
X114790500Y-109580373D01*
X114790499Y-108015450D01*
X114810184Y-107948412D01*
X114826813Y-107927775D01*
X115272453Y-107482135D01*
X122239500Y-107482135D01*
X122239500Y-109577870D01*
X122239501Y-109577876D01*
X122245908Y-109637483D01*
X122296202Y-109772328D01*
X122296206Y-109772335D01*
X122382452Y-109887544D01*
X122382455Y-109887547D01*
X122497664Y-109973793D01*
X122497671Y-109973797D01*
X122632517Y-110024091D01*
X122632516Y-110024091D01*
X122639444Y-110024835D01*
X122692127Y-110030500D01*
X124787872Y-110030499D01*
X124847483Y-110024091D01*
X124982331Y-109973796D01*
X125097546Y-109887546D01*
X125183796Y-109772331D01*
X125234091Y-109637483D01*
X125240500Y-109577873D01*
X125240499Y-107482128D01*
X125234091Y-107422517D01*
X125222550Y-107391575D01*
X125183797Y-107287671D01*
X125183793Y-107287664D01*
X125097547Y-107172455D01*
X125097544Y-107172452D01*
X124982335Y-107086206D01*
X124982328Y-107086202D01*
X124847482Y-107035908D01*
X124847483Y-107035908D01*
X124787883Y-107029501D01*
X124787881Y-107029500D01*
X124787873Y-107029500D01*
X124787864Y-107029500D01*
X122692129Y-107029500D01*
X122692123Y-107029501D01*
X122632516Y-107035908D01*
X122497671Y-107086202D01*
X122497664Y-107086206D01*
X122382455Y-107172452D01*
X122382452Y-107172455D01*
X122296206Y-107287664D01*
X122296202Y-107287671D01*
X122245908Y-107422517D01*
X122245402Y-107427228D01*
X122239501Y-107482123D01*
X122239500Y-107482135D01*
X115272453Y-107482135D01*
X120758729Y-101995860D01*
X120758733Y-101995858D01*
X120845858Y-101908733D01*
X120893737Y-101837077D01*
X120900715Y-101826634D01*
X120900716Y-101826633D01*
X120914309Y-101806289D01*
X120914312Y-101806285D01*
X120961463Y-101692451D01*
X120985500Y-101571607D01*
X120985500Y-101448393D01*
X120985500Y-97454499D01*
X121005185Y-97387460D01*
X121057989Y-97341705D01*
X121109500Y-97330499D01*
X121207871Y-97330499D01*
X121207872Y-97330499D01*
X121267483Y-97324091D01*
X121402331Y-97273796D01*
X121517546Y-97187546D01*
X121603796Y-97072331D01*
X121654091Y-96937483D01*
X121660500Y-96877873D01*
X121660499Y-95182128D01*
X121654091Y-95122517D01*
X121647803Y-95105659D01*
X121603796Y-94987669D01*
X121603793Y-94987664D01*
X121517547Y-94872455D01*
X121517544Y-94872452D01*
X121402335Y-94786206D01*
X121402328Y-94786202D01*
X121267482Y-94735908D01*
X121267483Y-94735908D01*
X121207883Y-94729501D01*
X121207881Y-94729500D01*
X121207873Y-94729500D01*
X121207865Y-94729500D01*
X119599500Y-94729500D01*
X119532461Y-94709815D01*
X119486706Y-94657011D01*
X119475500Y-94605500D01*
X119475500Y-89616485D01*
X119495185Y-89549446D01*
X119547989Y-89503691D01*
X119617147Y-89493747D01*
X119670621Y-89514909D01*
X119707266Y-89540568D01*
X119913504Y-89636739D01*
X120133308Y-89695635D01*
X120280333Y-89708498D01*
X120359998Y-89715468D01*
X120360000Y-89715468D01*
X120360002Y-89715468D01*
X120439667Y-89708498D01*
X120586692Y-89695635D01*
X120806496Y-89636739D01*
X121012734Y-89540568D01*
X121199139Y-89410047D01*
X121360047Y-89249139D01*
X121490568Y-89062734D01*
X121517618Y-89004724D01*
X121563790Y-88952285D01*
X121630983Y-88933133D01*
X121697865Y-88953348D01*
X121742382Y-89004725D01*
X121769429Y-89062728D01*
X121769432Y-89062734D01*
X121899954Y-89249141D01*
X122060858Y-89410045D01*
X122082423Y-89425145D01*
X122247266Y-89540568D01*
X122453504Y-89636739D01*
X122673308Y-89695635D01*
X122820333Y-89708498D01*
X122899998Y-89715468D01*
X122900000Y-89715468D01*
X122900002Y-89715468D01*
X122979667Y-89708498D01*
X123126692Y-89695635D01*
X123346496Y-89636739D01*
X123552734Y-89540568D01*
X123739139Y-89410047D01*
X123900047Y-89249139D01*
X124030568Y-89062734D01*
X124057618Y-89004724D01*
X124103790Y-88952285D01*
X124170983Y-88933133D01*
X124237865Y-88953348D01*
X124282382Y-89004725D01*
X124309429Y-89062728D01*
X124309432Y-89062734D01*
X124439954Y-89249141D01*
X124600858Y-89410045D01*
X124622423Y-89425145D01*
X124787266Y-89540568D01*
X124993504Y-89636739D01*
X125213308Y-89695635D01*
X125360333Y-89708498D01*
X125439998Y-89715468D01*
X125440000Y-89715468D01*
X125440002Y-89715468D01*
X125519667Y-89708498D01*
X125666692Y-89695635D01*
X125886496Y-89636739D01*
X126092734Y-89540568D01*
X126279139Y-89410047D01*
X126440047Y-89249139D01*
X126570568Y-89062734D01*
X126666739Y-88856496D01*
X126725635Y-88636692D01*
X126745468Y-88410000D01*
X126745388Y-88409090D01*
X126739801Y-88345230D01*
X126725635Y-88183308D01*
X126666739Y-87963504D01*
X126614698Y-87851904D01*
X126604207Y-87782828D01*
X126632727Y-87719044D01*
X126691203Y-87680804D01*
X126727081Y-87675500D01*
X132723188Y-87675500D01*
X132790227Y-87695185D01*
X132835982Y-87747989D01*
X132846408Y-87785616D01*
X132862332Y-87926952D01*
X132862335Y-87926964D01*
X132917541Y-88084729D01*
X132924500Y-88125684D01*
X132924500Y-93757839D01*
X132904815Y-93824878D01*
X132852011Y-93870633D01*
X132841455Y-93874881D01*
X132700476Y-93924211D01*
X132571117Y-94005494D01*
X132505145Y-94024500D01*
X126758389Y-94024500D01*
X126637553Y-94048535D01*
X126637541Y-94048539D01*
X126605262Y-94061909D01*
X126590397Y-94068067D01*
X126523719Y-94095685D01*
X126523717Y-94095686D01*
X126421266Y-94164141D01*
X125854821Y-94730586D01*
X125793498Y-94764071D01*
X125735048Y-94762680D01*
X125666697Y-94744366D01*
X125666693Y-94744365D01*
X125666692Y-94744365D01*
X125541796Y-94733438D01*
X125440001Y-94724532D01*
X125439998Y-94724532D01*
X125213313Y-94744364D01*
X125213302Y-94744366D01*
X124993511Y-94803258D01*
X124993502Y-94803261D01*
X124787267Y-94899431D01*
X124787265Y-94899432D01*
X124600858Y-95029954D01*
X124439954Y-95190858D01*
X124309432Y-95377265D01*
X124309431Y-95377267D01*
X124213261Y-95583502D01*
X124213258Y-95583511D01*
X124154366Y-95803302D01*
X124154364Y-95803313D01*
X124134532Y-96029998D01*
X124134532Y-96030001D01*
X124154364Y-96256686D01*
X124154366Y-96256697D01*
X124213258Y-96476488D01*
X124213261Y-96476497D01*
X124309431Y-96682732D01*
X124309432Y-96682734D01*
X124439954Y-96869141D01*
X124600858Y-97030045D01*
X124622423Y-97045145D01*
X124787266Y-97160568D01*
X124993504Y-97256739D01*
X125213308Y-97315635D01*
X125375230Y-97329801D01*
X125439998Y-97335468D01*
X125440000Y-97335468D01*
X125440002Y-97335468D01*
X125496807Y-97330498D01*
X125666692Y-97315635D01*
X125886496Y-97256739D01*
X126092734Y-97160568D01*
X126279139Y-97030047D01*
X126440047Y-96869139D01*
X126570568Y-96682734D01*
X126597618Y-96624724D01*
X126643790Y-96572285D01*
X126710983Y-96553133D01*
X126777865Y-96573348D01*
X126822382Y-96624725D01*
X126849429Y-96682728D01*
X126849432Y-96682734D01*
X126979954Y-96869141D01*
X127140858Y-97030045D01*
X127162423Y-97045145D01*
X127327266Y-97160568D01*
X127533504Y-97256739D01*
X127753308Y-97315635D01*
X127915230Y-97329801D01*
X127979998Y-97335468D01*
X127980000Y-97335468D01*
X127980002Y-97335468D01*
X128036807Y-97330498D01*
X128206692Y-97315635D01*
X128426496Y-97256739D01*
X128632734Y-97160568D01*
X128819139Y-97030047D01*
X128980047Y-96869139D01*
X129092613Y-96708377D01*
X129147189Y-96664752D01*
X129194188Y-96655500D01*
X132686202Y-96655500D01*
X132746624Y-96643481D01*
X132807047Y-96631463D01*
X132807050Y-96631461D01*
X132807053Y-96631461D01*
X132840382Y-96617654D01*
X132840381Y-96617654D01*
X132840387Y-96617652D01*
X132920881Y-96584312D01*
X132972104Y-96550084D01*
X133023328Y-96515858D01*
X133110453Y-96428733D01*
X133110453Y-96428731D01*
X133120661Y-96418524D01*
X133120662Y-96418521D01*
X134210858Y-95328328D01*
X134279312Y-95225880D01*
X134279315Y-95225873D01*
X134316600Y-95135859D01*
X134316600Y-95135858D01*
X134322126Y-95122517D01*
X134326463Y-95112047D01*
X134339057Y-95048733D01*
X134350501Y-94991203D01*
X134350501Y-94862878D01*
X134350500Y-94862852D01*
X134350500Y-94308798D01*
X134350499Y-94308794D01*
X134335992Y-94235860D01*
X134326463Y-94187953D01*
X134326461Y-94187947D01*
X134279312Y-94074121D01*
X134279307Y-94074112D01*
X134210858Y-93971672D01*
X134206993Y-93966962D01*
X134208187Y-93965981D01*
X134178334Y-93911309D01*
X134175500Y-93884951D01*
X134175500Y-88403344D01*
X134195185Y-88336305D01*
X134211819Y-88315663D01*
X134229745Y-88297737D01*
X134277518Y-88249964D01*
X134373491Y-88097224D01*
X134433070Y-87926957D01*
X134433387Y-87924144D01*
X134448996Y-87785616D01*
X134476063Y-87721202D01*
X134533657Y-87681647D01*
X134572216Y-87675500D01*
X135889548Y-87675500D01*
X135956587Y-87695185D01*
X135977229Y-87711819D01*
X136638181Y-88372771D01*
X136671666Y-88434094D01*
X136674500Y-88460452D01*
X136674500Y-116214022D01*
X136686518Y-116274441D01*
X136698537Y-116334864D01*
X136698538Y-116334866D01*
X136698538Y-116334868D01*
X136709614Y-116361607D01*
X136745685Y-116448693D01*
X136745690Y-116448702D01*
X136768242Y-116482452D01*
X136768243Y-116482453D01*
X136814141Y-116551144D01*
X136814144Y-116551148D01*
X136905586Y-116642590D01*
X136905608Y-116642610D01*
X138037969Y-117774971D01*
X138071454Y-117836294D01*
X138066470Y-117905986D01*
X138051863Y-117933775D01*
X137975965Y-118042169D01*
X137975964Y-118042171D01*
X137876098Y-118256335D01*
X137876094Y-118256344D01*
X137814938Y-118484586D01*
X137814936Y-118484596D01*
X137794341Y-118719999D01*
X137794341Y-118720000D01*
X137814936Y-118955403D01*
X137814938Y-118955413D01*
X137876094Y-119183655D01*
X137876096Y-119183659D01*
X137876097Y-119183663D01*
X137947396Y-119336563D01*
X137975965Y-119397830D01*
X137975967Y-119397834D01*
X138111501Y-119591395D01*
X138111506Y-119591402D01*
X138278597Y-119758493D01*
X138278603Y-119758498D01*
X138464158Y-119888425D01*
X138507783Y-119943002D01*
X138514977Y-120012500D01*
X138483454Y-120074855D01*
X138464158Y-120091575D01*
X138278597Y-120221505D01*
X138111505Y-120388597D01*
X138088381Y-120421623D01*
X138033804Y-120465248D01*
X137986806Y-120474500D01*
X135561607Y-120474500D01*
X135438393Y-120474500D01*
X135396359Y-120482861D01*
X135396358Y-120482860D01*
X135317554Y-120498535D01*
X135317541Y-120498539D01*
X135285262Y-120511909D01*
X135270397Y-120518067D01*
X135248169Y-120527274D01*
X135203713Y-120545688D01*
X135193557Y-120552475D01*
X135193449Y-120552547D01*
X135101268Y-120614140D01*
X135062909Y-120652500D01*
X135014142Y-120701267D01*
X134064143Y-121651265D01*
X134064142Y-121651267D01*
X134056644Y-121662490D01*
X134055242Y-121664588D01*
X134055239Y-121664592D01*
X133995690Y-121753709D01*
X133995685Y-121753718D01*
X133962346Y-121834207D01*
X133962347Y-121834208D01*
X133956332Y-121848730D01*
X133948538Y-121867546D01*
X133948535Y-121867556D01*
X133927264Y-121974497D01*
X133927263Y-121974502D01*
X133924500Y-121988389D01*
X133924500Y-129639547D01*
X133904815Y-129706586D01*
X133888181Y-129727228D01*
X133027229Y-130588181D01*
X132965906Y-130621666D01*
X132939548Y-130624500D01*
X126067741Y-130624500D01*
X126067721Y-130624499D01*
X126061607Y-130624499D01*
X125938394Y-130624499D01*
X125837597Y-130644548D01*
X125837592Y-130644548D01*
X125817549Y-130648536D01*
X125817547Y-130648536D01*
X125770397Y-130668067D01*
X125703719Y-130695685D01*
X125703717Y-130695686D01*
X125601266Y-130764141D01*
X125601263Y-130764144D01*
X125062670Y-131302739D01*
X124891269Y-131474140D01*
X124891267Y-131474142D01*
X124847704Y-131517704D01*
X124804142Y-131561266D01*
X124792403Y-131578834D01*
X124780743Y-131596286D01*
X124752524Y-131638518D01*
X124735686Y-131663717D01*
X124715935Y-131711402D01*
X124688539Y-131777540D01*
X124688535Y-131777555D01*
X124664500Y-131898389D01*
X124664500Y-132765811D01*
X124644815Y-132832850D01*
X124611623Y-132867386D01*
X124450859Y-132979953D01*
X124289954Y-133140858D01*
X124159432Y-133327265D01*
X124159431Y-133327267D01*
X124063261Y-133533502D01*
X124063258Y-133533511D01*
X124004366Y-133753302D01*
X124004364Y-133753313D01*
X123984532Y-133979998D01*
X123984532Y-133980001D01*
X124004364Y-134206686D01*
X124004366Y-134206697D01*
X124063258Y-134426488D01*
X124063261Y-134426497D01*
X124159431Y-134632732D01*
X124159432Y-134632734D01*
X124289954Y-134819141D01*
X124450858Y-134980045D01*
X124450861Y-134980047D01*
X124637266Y-135110568D01*
X124843504Y-135206739D01*
X125063308Y-135265635D01*
X125225230Y-135279801D01*
X125289998Y-135285468D01*
X125290000Y-135285468D01*
X125290002Y-135285468D01*
X125346673Y-135280509D01*
X125516692Y-135265635D01*
X125736496Y-135206739D01*
X125942734Y-135110568D01*
X126129139Y-134980047D01*
X126290047Y-134819139D01*
X126420568Y-134632734D01*
X126516739Y-134426496D01*
X126575635Y-134206692D01*
X126595468Y-133980000D01*
X126575635Y-133753308D01*
X126516739Y-133533504D01*
X126420568Y-133327266D01*
X126292662Y-133144596D01*
X126290045Y-133140858D01*
X126129140Y-132979953D01*
X125968377Y-132867386D01*
X125924752Y-132812809D01*
X125915500Y-132765811D01*
X125915500Y-132270452D01*
X125935185Y-132203413D01*
X125951819Y-132182771D01*
X126222772Y-131911819D01*
X126284095Y-131878334D01*
X126310453Y-131875500D01*
X133311607Y-131875500D01*
X133372029Y-131863481D01*
X133432452Y-131851463D01*
X133432455Y-131851461D01*
X133432458Y-131851461D01*
X133465787Y-131837654D01*
X133465786Y-131837654D01*
X133465792Y-131837652D01*
X133546286Y-131804312D01*
X133601304Y-131767549D01*
X133648733Y-131735858D01*
X133735858Y-131648733D01*
X133735858Y-131648731D01*
X133746066Y-131638524D01*
X133746067Y-131638521D01*
X135035858Y-130348733D01*
X135104312Y-130246285D01*
X135151463Y-130132451D01*
X135175501Y-130011606D01*
X135175501Y-129888393D01*
X135175501Y-129883283D01*
X135175500Y-129883257D01*
X135175500Y-122360452D01*
X135195185Y-122293413D01*
X135211819Y-122272771D01*
X135722771Y-121761819D01*
X135784094Y-121728334D01*
X135810452Y-121725500D01*
X137797957Y-121725500D01*
X137864996Y-121745185D01*
X137910339Y-121797095D01*
X137934121Y-121848095D01*
X137944613Y-121917172D01*
X137916094Y-121980956D01*
X137857617Y-122019196D01*
X137821739Y-122024500D01*
X136638392Y-122024500D01*
X136606622Y-122030819D01*
X136574851Y-122037139D01*
X136528945Y-122046270D01*
X136517547Y-122048537D01*
X136403716Y-122095687D01*
X136344271Y-122135408D01*
X136344270Y-122135409D01*
X136301263Y-122164144D01*
X136301262Y-122164145D01*
X135888411Y-122576998D01*
X135751269Y-122714140D01*
X135751267Y-122714142D01*
X135723469Y-122741940D01*
X135664140Y-122801268D01*
X135643307Y-122832449D01*
X135643305Y-122832452D01*
X135635981Y-122843413D01*
X135595687Y-122903714D01*
X135595685Y-122903718D01*
X135562346Y-122984207D01*
X135556331Y-122998733D01*
X135548537Y-123017549D01*
X135527728Y-123122171D01*
X135525009Y-123135839D01*
X135525005Y-123135855D01*
X135524500Y-123138388D01*
X135524500Y-131093180D01*
X135504815Y-131160219D01*
X135452011Y-131205974D01*
X135382853Y-131215918D01*
X135359546Y-131210222D01*
X135229257Y-131164632D01*
X135229249Y-131164630D01*
X135050004Y-131144435D01*
X135049996Y-131144435D01*
X134870750Y-131164630D01*
X134870745Y-131164631D01*
X134700476Y-131224211D01*
X134547737Y-131320184D01*
X134420184Y-131447737D01*
X134324211Y-131600476D01*
X134264631Y-131770745D01*
X134264630Y-131770750D01*
X134244435Y-131949996D01*
X134244435Y-131950003D01*
X134264630Y-132129249D01*
X134264631Y-132129254D01*
X134324211Y-132299523D01*
X134350591Y-132341506D01*
X134420184Y-132452262D01*
X134547738Y-132579816D01*
X134700478Y-132675789D01*
X134870745Y-132735368D01*
X134917823Y-132740672D01*
X134982236Y-132767737D01*
X134991621Y-132776211D01*
X137861016Y-135645606D01*
X137861045Y-135645637D01*
X137951264Y-135735856D01*
X137951267Y-135735858D01*
X138023740Y-135784283D01*
X138053715Y-135804312D01*
X138120396Y-135831931D01*
X138120398Y-135831933D01*
X138160640Y-135848601D01*
X138167548Y-135851463D01*
X138227971Y-135863481D01*
X138288393Y-135875500D01*
X138288394Y-135875500D01*
X159713103Y-135875500D01*
X159779074Y-135894505D01*
X159900478Y-135970789D01*
X160070745Y-136030368D01*
X160070750Y-136030369D01*
X160249996Y-136050565D01*
X160250000Y-136050565D01*
X160250004Y-136050565D01*
X160429249Y-136030369D01*
X160429252Y-136030368D01*
X160429255Y-136030368D01*
X160599522Y-135970789D01*
X160752262Y-135874816D01*
X160879816Y-135747262D01*
X160975789Y-135594522D01*
X161035368Y-135424255D01*
X161038519Y-135396292D01*
X161055565Y-135245003D01*
X161055565Y-135244996D01*
X161035369Y-135065750D01*
X161035368Y-135065745D01*
X161005380Y-134980045D01*
X160975789Y-134895478D01*
X160964322Y-134877229D01*
X160879815Y-134742737D01*
X160752262Y-134615184D01*
X160599523Y-134519211D01*
X160429254Y-134459631D01*
X160429249Y-134459630D01*
X160250004Y-134439435D01*
X160249996Y-134439435D01*
X160070750Y-134459630D01*
X160070745Y-134459631D01*
X159900477Y-134519211D01*
X159844615Y-134554312D01*
X159764241Y-134604815D01*
X159763160Y-134605494D01*
X159697188Y-134624500D01*
X138660452Y-134624500D01*
X138593413Y-134604815D01*
X138572771Y-134588181D01*
X138201771Y-134217181D01*
X138168286Y-134155858D01*
X138173270Y-134086166D01*
X138215142Y-134030233D01*
X138280606Y-134005816D01*
X138289452Y-134005500D01*
X164264773Y-134005500D01*
X164331812Y-134025185D01*
X164366348Y-134058377D01*
X164501500Y-134251395D01*
X164501505Y-134251401D01*
X164668599Y-134418495D01*
X164727349Y-134459632D01*
X164862165Y-134554032D01*
X164862167Y-134554033D01*
X164862170Y-134554035D01*
X165076337Y-134653903D01*
X165304592Y-134715063D01*
X165492918Y-134731539D01*
X165539999Y-134735659D01*
X165540000Y-134735659D01*
X165540001Y-134735659D01*
X165579234Y-134732226D01*
X165775408Y-134715063D01*
X166003663Y-134653903D01*
X166217830Y-134554035D01*
X166411401Y-134418495D01*
X166578495Y-134251401D01*
X166714035Y-134057830D01*
X166813903Y-133843663D01*
X166875063Y-133615408D01*
X166895659Y-133380000D01*
X166875063Y-133144592D01*
X166813903Y-132916337D01*
X166714035Y-132702171D01*
X166713652Y-132701623D01*
X166578494Y-132508597D01*
X166411402Y-132341506D01*
X166411396Y-132341501D01*
X166225842Y-132211575D01*
X166182217Y-132156998D01*
X166175023Y-132087500D01*
X166206546Y-132025145D01*
X166225842Y-132008425D01*
X166382989Y-131898389D01*
X166411401Y-131878495D01*
X166578495Y-131711401D01*
X166714035Y-131517830D01*
X166813903Y-131303663D01*
X166875063Y-131075408D01*
X166895659Y-130840000D01*
X166875063Y-130604592D01*
X166848143Y-130504125D01*
X166849806Y-130434276D01*
X166880235Y-130384353D01*
X167998729Y-129265860D01*
X167998733Y-129265858D01*
X168085858Y-129178733D01*
X168154311Y-129076286D01*
X168154312Y-129076285D01*
X168154313Y-129076282D01*
X168154315Y-129076279D01*
X168173483Y-129030001D01*
X168201463Y-128962451D01*
X168225500Y-128841607D01*
X168225500Y-128718393D01*
X168225500Y-113088394D01*
X168201463Y-112967548D01*
X168173839Y-112900858D01*
X168154312Y-112853715D01*
X168144074Y-112838394D01*
X168137257Y-112828191D01*
X168137256Y-112828190D01*
X168085858Y-112751267D01*
X168085856Y-112751264D01*
X167995637Y-112661045D01*
X167995606Y-112661016D01*
X167355198Y-112020608D01*
X167355178Y-112020586D01*
X167263733Y-111929141D01*
X167212509Y-111894915D01*
X167161287Y-111860689D01*
X167161286Y-111860688D01*
X167161283Y-111860686D01*
X167161280Y-111860685D01*
X167080792Y-111827347D01*
X167047453Y-111813537D01*
X167037427Y-111811543D01*
X166987029Y-111801518D01*
X166926610Y-111789500D01*
X166926607Y-111789500D01*
X166926606Y-111789500D01*
X155753234Y-111789500D01*
X155686195Y-111769815D01*
X155640440Y-111717011D01*
X155630496Y-111647853D01*
X155640852Y-111613095D01*
X155663903Y-111563663D01*
X155725063Y-111335408D01*
X155745659Y-111100000D01*
X155725063Y-110864592D01*
X155663903Y-110636337D01*
X155564035Y-110422171D01*
X155540609Y-110388714D01*
X155428494Y-110228597D01*
X155261402Y-110061506D01*
X155261396Y-110061501D01*
X155075842Y-109931575D01*
X155032217Y-109876998D01*
X155025023Y-109807500D01*
X155056546Y-109745145D01*
X155075842Y-109728425D01*
X155098026Y-109712891D01*
X155261401Y-109598495D01*
X155428495Y-109431401D01*
X155564035Y-109237830D01*
X155663903Y-109023663D01*
X155725063Y-108795408D01*
X155745659Y-108560000D01*
X155725063Y-108324592D01*
X155674493Y-108135860D01*
X155663905Y-108096344D01*
X155663904Y-108096343D01*
X155663903Y-108096337D01*
X155564035Y-107882171D01*
X155530071Y-107833664D01*
X155428494Y-107688597D01*
X155261402Y-107521506D01*
X155261396Y-107521501D01*
X155075842Y-107391575D01*
X155032217Y-107336998D01*
X155025023Y-107267500D01*
X155056546Y-107205145D01*
X155075842Y-107188425D01*
X155106733Y-107166795D01*
X155261401Y-107058495D01*
X155428495Y-106891401D01*
X155564035Y-106697830D01*
X155663903Y-106483663D01*
X155725063Y-106255408D01*
X155745659Y-106020000D01*
X155725063Y-105784592D01*
X155663903Y-105556337D01*
X155564035Y-105342171D01*
X155545610Y-105315856D01*
X155428494Y-105148597D01*
X155261402Y-104981506D01*
X155261396Y-104981501D01*
X155075842Y-104851575D01*
X155032217Y-104796998D01*
X155025023Y-104727500D01*
X155056546Y-104665145D01*
X155075842Y-104648425D01*
X155177467Y-104577266D01*
X155261401Y-104518495D01*
X155428495Y-104351401D01*
X155564035Y-104157830D01*
X155663903Y-103943663D01*
X155725063Y-103715408D01*
X155745659Y-103480000D01*
X155725063Y-103244592D01*
X155663903Y-103016337D01*
X155564035Y-102802171D01*
X155433963Y-102616407D01*
X155428494Y-102608597D01*
X155261402Y-102441506D01*
X155261396Y-102441501D01*
X155075842Y-102311575D01*
X155032217Y-102256998D01*
X155025023Y-102187500D01*
X155056546Y-102125145D01*
X155075842Y-102108425D01*
X155098026Y-102092891D01*
X155261401Y-101978495D01*
X155428495Y-101811401D01*
X155564035Y-101617830D01*
X155663903Y-101403663D01*
X155725063Y-101175408D01*
X155745659Y-100940000D01*
X155745619Y-100939548D01*
X155725063Y-100704596D01*
X155725063Y-100704592D01*
X155663903Y-100476337D01*
X155564035Y-100262171D01*
X155433963Y-100076407D01*
X155428494Y-100068597D01*
X155261402Y-99901506D01*
X155261396Y-99901501D01*
X155075842Y-99771575D01*
X155032217Y-99716998D01*
X155025023Y-99647500D01*
X155056546Y-99585145D01*
X155075842Y-99568425D01*
X155098026Y-99552891D01*
X155261401Y-99438495D01*
X155428495Y-99271401D01*
X155563652Y-99078377D01*
X155618229Y-99034752D01*
X155665227Y-99025500D01*
X155761608Y-99025500D01*
X155761608Y-99025499D01*
X155856163Y-99006692D01*
X155856164Y-99006692D01*
X155882442Y-99001465D01*
X155882442Y-99001464D01*
X155882452Y-99001463D01*
X155915792Y-98987652D01*
X155996286Y-98954312D01*
X156056744Y-98913914D01*
X156098733Y-98885858D01*
X156185858Y-98798733D01*
X156185859Y-98798731D01*
X156192925Y-98791665D01*
X156192928Y-98791661D01*
X156998729Y-97985860D01*
X156998733Y-97985858D01*
X157085858Y-97898733D01*
X157154311Y-97796286D01*
X157201463Y-97682452D01*
X157225500Y-97561606D01*
X157225500Y-86260452D01*
X157245185Y-86193413D01*
X157261819Y-86172771D01*
X158237771Y-85196819D01*
X158299094Y-85163334D01*
X158325452Y-85160500D01*
X164476766Y-85160500D01*
X164543805Y-85180185D01*
X164589560Y-85232989D01*
X164599504Y-85302147D01*
X164589148Y-85336903D01*
X164583456Y-85349110D01*
X164566097Y-85386335D01*
X164566094Y-85386344D01*
X164504938Y-85614586D01*
X164504936Y-85614596D01*
X164484341Y-85849999D01*
X164484341Y-85850000D01*
X164504936Y-86085403D01*
X164504938Y-86085413D01*
X164566094Y-86313655D01*
X164566096Y-86313659D01*
X164566097Y-86313663D01*
X164665965Y-86527830D01*
X164801505Y-86721401D01*
X164968599Y-86888495D01*
X165017880Y-86923002D01*
X165162165Y-87024032D01*
X165162167Y-87024033D01*
X165162170Y-87024035D01*
X165376337Y-87123903D01*
X165604592Y-87185063D01*
X165792475Y-87201501D01*
X165839999Y-87205659D01*
X165840000Y-87205659D01*
X165840001Y-87205659D01*
X165887525Y-87201501D01*
X166075408Y-87185063D01*
X166303663Y-87123903D01*
X166517830Y-87024035D01*
X166711401Y-86888495D01*
X166878495Y-86721401D01*
X167014035Y-86527830D01*
X167113903Y-86313663D01*
X167175063Y-86085408D01*
X167195659Y-85850000D01*
X167193843Y-85829249D01*
X167178161Y-85650000D01*
X167175063Y-85614592D01*
X167117563Y-85399996D01*
X167113905Y-85386344D01*
X167113902Y-85386335D01*
X167098697Y-85353729D01*
X167014035Y-85172171D01*
X167011275Y-85168230D01*
X166988946Y-85102029D01*
X167005953Y-85034261D01*
X167025167Y-85009424D01*
X167056070Y-84978521D01*
X167100858Y-84933733D01*
X167100858Y-84933731D01*
X167107919Y-84926671D01*
X167107924Y-84926664D01*
X167312820Y-84721769D01*
X167374142Y-84688285D01*
X167443834Y-84693269D01*
X167499767Y-84735141D01*
X167524184Y-84800605D01*
X167524500Y-84809451D01*
X167524500Y-93539548D01*
X167504815Y-93606587D01*
X167488181Y-93627229D01*
X167252180Y-93863229D01*
X167190857Y-93896714D01*
X167121165Y-93891730D01*
X167065232Y-93849858D01*
X167040815Y-93784394D01*
X167040499Y-93775571D01*
X167040499Y-92462128D01*
X167034091Y-92402517D01*
X167031341Y-92395145D01*
X166983797Y-92267671D01*
X166983793Y-92267664D01*
X166897547Y-92152455D01*
X166897544Y-92152452D01*
X166782335Y-92066206D01*
X166782328Y-92066202D01*
X166647482Y-92015908D01*
X166647483Y-92015908D01*
X166587883Y-92009501D01*
X166587881Y-92009500D01*
X166587873Y-92009500D01*
X166587864Y-92009500D01*
X164792129Y-92009500D01*
X164792123Y-92009501D01*
X164732516Y-92015908D01*
X164597671Y-92066202D01*
X164597664Y-92066206D01*
X164482455Y-92152452D01*
X164482452Y-92152455D01*
X164396206Y-92267664D01*
X164396202Y-92267671D01*
X164345908Y-92402517D01*
X164340954Y-92448599D01*
X164339500Y-92462127D01*
X164339500Y-93249743D01*
X164339501Y-93925500D01*
X164319816Y-93992539D01*
X164267013Y-94038294D01*
X164215501Y-94049500D01*
X164063388Y-94049500D01*
X163942555Y-94073535D01*
X163942547Y-94073537D01*
X163828716Y-94120687D01*
X163728053Y-94187947D01*
X163728054Y-94187948D01*
X163726266Y-94189142D01*
X163726260Y-94189147D01*
X163347909Y-94567500D01*
X163251269Y-94664140D01*
X163251267Y-94664142D01*
X163229444Y-94685965D01*
X163164142Y-94751266D01*
X163152547Y-94768619D01*
X163141029Y-94785858D01*
X163095688Y-94853714D01*
X163095686Y-94853717D01*
X163095685Y-94853719D01*
X163066561Y-94924034D01*
X163066561Y-94924035D01*
X163048538Y-94967545D01*
X163048535Y-94967554D01*
X163044534Y-94987668D01*
X163044535Y-94987669D01*
X163025163Y-95085063D01*
X163025161Y-95085071D01*
X163024500Y-95088389D01*
X163024500Y-103961610D01*
X163048535Y-104082444D01*
X163048537Y-104082452D01*
X163055570Y-104099431D01*
X163062347Y-104115792D01*
X163062347Y-104115793D01*
X163095685Y-104196280D01*
X163095687Y-104196283D01*
X163095688Y-104196286D01*
X163126895Y-104242990D01*
X163129914Y-104247507D01*
X163129915Y-104247509D01*
X163164140Y-104298731D01*
X163164141Y-104298732D01*
X163164142Y-104298733D01*
X163251267Y-104385858D01*
X163251268Y-104385858D01*
X163258335Y-104392925D01*
X163258334Y-104392925D01*
X163258338Y-104392928D01*
X164181263Y-105315855D01*
X164181264Y-105315856D01*
X164181267Y-105315858D01*
X164234391Y-105351354D01*
X164279195Y-105404965D01*
X164289500Y-105454456D01*
X164289500Y-105727869D01*
X164289501Y-105727876D01*
X164295908Y-105787483D01*
X164346202Y-105922328D01*
X164346206Y-105922335D01*
X164432452Y-106037544D01*
X164432455Y-106037547D01*
X164547664Y-106123793D01*
X164547671Y-106123797D01*
X164679081Y-106172810D01*
X164735015Y-106214681D01*
X164759432Y-106280145D01*
X164744580Y-106348418D01*
X164723430Y-106376673D01*
X164601503Y-106498600D01*
X164465965Y-106692169D01*
X164465964Y-106692171D01*
X164366098Y-106906335D01*
X164366094Y-106906344D01*
X164304938Y-107134586D01*
X164304936Y-107134596D01*
X164284341Y-107369999D01*
X164284341Y-107370000D01*
X164304936Y-107605403D01*
X164304938Y-107605413D01*
X164366094Y-107833655D01*
X164366096Y-107833659D01*
X164366097Y-107833663D01*
X164426916Y-107964090D01*
X164465965Y-108047830D01*
X164465967Y-108047834D01*
X164601501Y-108241395D01*
X164601506Y-108241402D01*
X164768597Y-108408493D01*
X164768603Y-108408498D01*
X164954158Y-108538425D01*
X164997783Y-108593002D01*
X165004977Y-108662500D01*
X164973454Y-108724855D01*
X164954158Y-108741575D01*
X164768597Y-108871505D01*
X164601505Y-109038597D01*
X164465965Y-109232169D01*
X164465964Y-109232171D01*
X164366098Y-109446335D01*
X164366094Y-109446344D01*
X164304938Y-109674586D01*
X164304936Y-109674596D01*
X164284341Y-109909999D01*
X164284341Y-109910000D01*
X164304936Y-110145403D01*
X164304938Y-110145413D01*
X164366094Y-110373655D01*
X164366096Y-110373659D01*
X164366097Y-110373663D01*
X164445697Y-110544365D01*
X164465965Y-110587830D01*
X164465967Y-110587834D01*
X164559540Y-110721469D01*
X164601505Y-110781401D01*
X164768599Y-110948495D01*
X164779022Y-110955793D01*
X164962165Y-111084032D01*
X164962167Y-111084033D01*
X164962170Y-111084035D01*
X165176337Y-111183903D01*
X165404592Y-111245063D01*
X165592918Y-111261539D01*
X165639999Y-111265659D01*
X165640000Y-111265659D01*
X165640001Y-111265659D01*
X165679234Y-111262226D01*
X165875408Y-111245063D01*
X166103663Y-111183903D01*
X166317830Y-111084035D01*
X166511401Y-110948495D01*
X166678495Y-110781401D01*
X166814035Y-110587830D01*
X166913903Y-110373663D01*
X166975063Y-110145408D01*
X166995659Y-109910000D01*
X166993694Y-109887546D01*
X166983833Y-109774828D01*
X166975063Y-109674592D01*
X166916781Y-109457077D01*
X166913905Y-109446344D01*
X166913904Y-109446343D01*
X166913903Y-109446337D01*
X166814035Y-109232171D01*
X166742220Y-109129607D01*
X166678494Y-109038597D01*
X166511402Y-108871506D01*
X166511396Y-108871501D01*
X166325842Y-108741575D01*
X166282217Y-108686998D01*
X166275023Y-108617500D01*
X166306546Y-108555145D01*
X166325842Y-108538425D01*
X166348026Y-108522891D01*
X166511401Y-108408495D01*
X166678495Y-108241401D01*
X166814035Y-108047830D01*
X166913903Y-107833663D01*
X166975063Y-107605408D01*
X166995659Y-107370000D01*
X166975063Y-107134592D01*
X166916781Y-106917077D01*
X166913905Y-106906344D01*
X166913904Y-106906343D01*
X166913903Y-106906337D01*
X166814035Y-106692171D01*
X166811866Y-106689074D01*
X166678496Y-106498600D01*
X166636634Y-106456738D01*
X166556567Y-106376671D01*
X166523084Y-106315351D01*
X166528068Y-106245659D01*
X166569939Y-106189725D01*
X166600915Y-106172810D01*
X166732331Y-106123796D01*
X166847546Y-106037546D01*
X166933796Y-105922331D01*
X166984091Y-105787483D01*
X166990500Y-105727873D01*
X166990499Y-103932128D01*
X166984091Y-103872517D01*
X166933796Y-103737669D01*
X166933795Y-103737668D01*
X166933793Y-103737664D01*
X166847547Y-103622455D01*
X166847544Y-103622452D01*
X166732335Y-103536206D01*
X166732328Y-103536202D01*
X166597482Y-103485908D01*
X166597483Y-103485908D01*
X166537883Y-103479501D01*
X166537881Y-103479500D01*
X166537873Y-103479500D01*
X166537864Y-103479500D01*
X164742129Y-103479500D01*
X164742123Y-103479501D01*
X164682516Y-103485908D01*
X164547671Y-103536202D01*
X164547669Y-103536204D01*
X164473811Y-103591494D01*
X164408347Y-103615911D01*
X164340074Y-103601059D01*
X164290668Y-103551654D01*
X164275500Y-103492227D01*
X164275500Y-99161478D01*
X164295185Y-99094439D01*
X164347989Y-99048684D01*
X164417147Y-99038740D01*
X164480703Y-99067765D01*
X164511880Y-99109070D01*
X164515965Y-99117830D01*
X164651505Y-99311401D01*
X164818599Y-99478495D01*
X164915384Y-99546265D01*
X165012165Y-99614032D01*
X165012167Y-99614033D01*
X165012170Y-99614035D01*
X165226337Y-99713903D01*
X165226343Y-99713904D01*
X165226344Y-99713905D01*
X165281285Y-99728626D01*
X165454592Y-99775063D01*
X165642918Y-99791539D01*
X165689999Y-99795659D01*
X165690000Y-99795659D01*
X165690001Y-99795659D01*
X165729234Y-99792226D01*
X165925408Y-99775063D01*
X166153663Y-99713903D01*
X166367830Y-99614035D01*
X166561401Y-99478495D01*
X166728495Y-99311401D01*
X166864035Y-99117830D01*
X166963903Y-98903663D01*
X167025063Y-98675408D01*
X167045659Y-98440000D01*
X167025063Y-98204592D01*
X166963903Y-97976337D01*
X166864035Y-97762171D01*
X166840903Y-97729134D01*
X166728494Y-97568597D01*
X166561402Y-97401506D01*
X166561396Y-97401501D01*
X166375842Y-97271575D01*
X166332217Y-97216998D01*
X166325023Y-97147500D01*
X166356546Y-97085145D01*
X166375842Y-97068425D01*
X166432968Y-97028425D01*
X166561401Y-96938495D01*
X166728495Y-96771401D01*
X166863652Y-96578377D01*
X166918229Y-96534752D01*
X166965227Y-96525500D01*
X167511607Y-96525500D01*
X167572029Y-96513481D01*
X167632452Y-96501463D01*
X167670990Y-96485500D01*
X167746286Y-96454312D01*
X167797509Y-96420084D01*
X167848733Y-96385858D01*
X167935858Y-96298733D01*
X167935859Y-96298731D01*
X167942925Y-96291665D01*
X167942928Y-96291661D01*
X169998729Y-94235860D01*
X169998733Y-94235858D01*
X170085858Y-94148733D01*
X170154311Y-94046286D01*
X170201463Y-93932452D01*
X170215232Y-93863229D01*
X170224608Y-93816093D01*
X170224612Y-93816093D01*
X170224612Y-93816068D01*
X170225500Y-93811607D01*
X170225500Y-93688393D01*
X170225500Y-61417741D01*
X170225501Y-61417720D01*
X170225501Y-61288391D01*
X170201464Y-61167553D01*
X170201462Y-61167546D01*
X170193988Y-61149504D01*
X170193987Y-61149501D01*
X170181932Y-61120397D01*
X170154312Y-61053715D01*
X170085858Y-60951267D01*
X170085855Y-60951263D01*
X167692928Y-58558338D01*
X167692925Y-58558334D01*
X167692925Y-58558335D01*
X167685858Y-58551268D01*
X167685858Y-58551267D01*
X167598733Y-58464142D01*
X167598732Y-58464141D01*
X167598731Y-58464140D01*
X167547509Y-58429915D01*
X167496286Y-58395688D01*
X167496283Y-58395686D01*
X167496280Y-58395685D01*
X167415792Y-58362347D01*
X167382453Y-58348537D01*
X167372427Y-58346543D01*
X167322029Y-58336518D01*
X167261610Y-58324500D01*
X167261607Y-58324500D01*
X167261606Y-58324500D01*
X130011607Y-58324500D01*
X129888393Y-58324500D01*
X129888389Y-58324500D01*
X129827971Y-58336518D01*
X129790259Y-58344019D01*
X129767550Y-58348536D01*
X129767548Y-58348537D01*
X129734207Y-58362347D01*
X129653719Y-58395684D01*
X129653705Y-58395692D01*
X129551272Y-58464138D01*
X129551264Y-58464144D01*
X126509144Y-61506264D01*
X126509138Y-61506272D01*
X126440690Y-61608708D01*
X126440688Y-61608713D01*
X126407938Y-61687780D01*
X126407938Y-61687781D01*
X126393538Y-61722544D01*
X126369500Y-61843396D01*
X126369500Y-62625250D01*
X126349815Y-62692289D01*
X126297011Y-62738044D01*
X126227853Y-62747988D01*
X126193095Y-62737632D01*
X126095856Y-62692289D01*
X126076496Y-62683261D01*
X126076492Y-62683260D01*
X126076488Y-62683258D01*
X125856697Y-62624366D01*
X125856693Y-62624365D01*
X125856692Y-62624365D01*
X125856691Y-62624364D01*
X125856686Y-62624364D01*
X125630002Y-62604532D01*
X125629998Y-62604532D01*
X125403313Y-62624364D01*
X125403302Y-62624366D01*
X125183511Y-62683258D01*
X125183502Y-62683261D01*
X124977267Y-62779431D01*
X124977265Y-62779432D01*
X124790858Y-62909954D01*
X124629954Y-63070858D01*
X124499432Y-63257265D01*
X124499431Y-63257267D01*
X124472382Y-63315275D01*
X124426209Y-63367714D01*
X124359016Y-63386866D01*
X124292135Y-63366650D01*
X124247618Y-63315275D01*
X124220568Y-63257267D01*
X124220567Y-63257265D01*
X124090045Y-63070858D01*
X123929141Y-62909954D01*
X123742734Y-62779432D01*
X123742732Y-62779431D01*
X123536497Y-62683261D01*
X123536488Y-62683258D01*
X123316697Y-62624366D01*
X123316693Y-62624365D01*
X123316692Y-62624365D01*
X123316691Y-62624364D01*
X123316686Y-62624364D01*
X123090002Y-62604532D01*
X123089998Y-62604532D01*
X122863313Y-62624364D01*
X122863302Y-62624366D01*
X122643511Y-62683258D01*
X122643502Y-62683261D01*
X122437267Y-62779431D01*
X122437265Y-62779432D01*
X122250858Y-62909954D01*
X122089954Y-63070858D01*
X121959432Y-63257265D01*
X121959431Y-63257267D01*
X121932382Y-63315275D01*
X121886209Y-63367714D01*
X121819016Y-63386866D01*
X121752135Y-63366650D01*
X121707618Y-63315275D01*
X121680568Y-63257267D01*
X121680567Y-63257265D01*
X121550045Y-63070858D01*
X121389141Y-62909954D01*
X121202734Y-62779432D01*
X121202732Y-62779431D01*
X120996497Y-62683261D01*
X120996488Y-62683258D01*
X120776697Y-62624366D01*
X120776693Y-62624365D01*
X120776692Y-62624365D01*
X120776691Y-62624364D01*
X120776686Y-62624364D01*
X120550002Y-62604532D01*
X120549998Y-62604532D01*
X120323313Y-62624364D01*
X120323302Y-62624366D01*
X120103511Y-62683258D01*
X120103502Y-62683261D01*
X119897267Y-62779431D01*
X119897265Y-62779432D01*
X119710858Y-62909954D01*
X119549954Y-63070858D01*
X119419432Y-63257265D01*
X119419431Y-63257267D01*
X119323261Y-63463502D01*
X119323258Y-63463511D01*
X119264366Y-63683302D01*
X119264364Y-63683313D01*
X119244532Y-63909998D01*
X119244532Y-63910001D01*
X119264364Y-64136686D01*
X119264366Y-64136697D01*
X119323258Y-64356488D01*
X119323261Y-64356497D01*
X119419431Y-64562732D01*
X119419432Y-64562734D01*
X119549954Y-64749141D01*
X119710858Y-64910045D01*
X119710861Y-64910047D01*
X119897266Y-65040568D01*
X120103504Y-65136739D01*
X120103509Y-65136740D01*
X120103511Y-65136741D01*
X120156415Y-65150916D01*
X120323308Y-65195635D01*
X120485230Y-65209801D01*
X120549998Y-65215468D01*
X120550000Y-65215468D01*
X120550002Y-65215468D01*
X120606673Y-65210509D01*
X120776692Y-65195635D01*
X120996496Y-65136739D01*
X121202734Y-65040568D01*
X121389139Y-64910047D01*
X121550047Y-64749139D01*
X121680568Y-64562734D01*
X121707618Y-64504724D01*
X121753790Y-64452285D01*
X121820983Y-64433133D01*
X121887865Y-64453348D01*
X121932382Y-64504725D01*
X121959429Y-64562728D01*
X121959432Y-64562734D01*
X122089954Y-64749141D01*
X122250858Y-64910045D01*
X122250861Y-64910047D01*
X122437266Y-65040568D01*
X122643504Y-65136739D01*
X122643509Y-65136740D01*
X122643511Y-65136741D01*
X122696415Y-65150916D01*
X122863308Y-65195635D01*
X123025230Y-65209801D01*
X123089998Y-65215468D01*
X123090000Y-65215468D01*
X123090002Y-65215468D01*
X123146673Y-65210509D01*
X123316692Y-65195635D01*
X123536496Y-65136739D01*
X123598097Y-65108013D01*
X123667172Y-65097522D01*
X123730956Y-65126041D01*
X123769196Y-65184517D01*
X123774500Y-65220396D01*
X123774500Y-70219603D01*
X123754815Y-70286642D01*
X123702011Y-70332397D01*
X123632853Y-70342341D01*
X123598096Y-70331985D01*
X123536502Y-70303263D01*
X123536488Y-70303258D01*
X123316697Y-70244366D01*
X123316693Y-70244365D01*
X123316692Y-70244365D01*
X123316691Y-70244364D01*
X123316686Y-70244364D01*
X123090002Y-70224532D01*
X123089998Y-70224532D01*
X122863313Y-70244364D01*
X122863302Y-70244366D01*
X122643511Y-70303258D01*
X122643502Y-70303261D01*
X122437267Y-70399431D01*
X122437265Y-70399432D01*
X122250858Y-70529954D01*
X122089954Y-70690858D01*
X122072725Y-70715464D01*
X122018147Y-70759088D01*
X121948648Y-70766280D01*
X121886294Y-70734757D01*
X121850882Y-70674526D01*
X121847861Y-70657591D01*
X121844091Y-70622516D01*
X121793797Y-70487671D01*
X121793793Y-70487664D01*
X121707547Y-70372455D01*
X121707544Y-70372452D01*
X121592335Y-70286206D01*
X121592328Y-70286202D01*
X121457482Y-70235908D01*
X121457483Y-70235908D01*
X121397883Y-70229501D01*
X121397881Y-70229500D01*
X121397873Y-70229500D01*
X121397864Y-70229500D01*
X119702129Y-70229500D01*
X119702123Y-70229501D01*
X119642516Y-70235908D01*
X119507671Y-70286202D01*
X119507664Y-70286206D01*
X119392455Y-70372452D01*
X119392452Y-70372455D01*
X119306206Y-70487664D01*
X119306202Y-70487671D01*
X119255908Y-70622517D01*
X119249501Y-70682116D01*
X119249500Y-70682135D01*
X119249500Y-72377870D01*
X119249501Y-72377876D01*
X119255908Y-72437483D01*
X119306202Y-72572328D01*
X119306206Y-72572335D01*
X119392452Y-72687544D01*
X119392455Y-72687547D01*
X119507664Y-72773793D01*
X119507671Y-72773797D01*
X119642517Y-72824091D01*
X119642516Y-72824091D01*
X119649444Y-72824835D01*
X119702127Y-72830500D01*
X121397872Y-72830499D01*
X121457483Y-72824091D01*
X121592331Y-72773796D01*
X121707546Y-72687546D01*
X121793796Y-72572331D01*
X121844091Y-72437483D01*
X121847862Y-72402401D01*
X121874599Y-72337855D01*
X121931990Y-72298006D01*
X122001816Y-72295511D01*
X122061905Y-72331163D01*
X122072726Y-72344536D01*
X122089956Y-72369143D01*
X122250858Y-72530045D01*
X122250861Y-72530047D01*
X122437266Y-72660568D01*
X122643504Y-72756739D01*
X122863308Y-72815635D01*
X123025230Y-72829801D01*
X123089998Y-72835468D01*
X123090000Y-72835468D01*
X123090002Y-72835468D01*
X123146807Y-72830498D01*
X123316692Y-72815635D01*
X123536496Y-72756739D01*
X123598097Y-72728013D01*
X123667172Y-72717522D01*
X123730956Y-72746041D01*
X123769196Y-72804517D01*
X123774500Y-72840396D01*
X123774500Y-74389548D01*
X123754815Y-74456587D01*
X123738181Y-74477229D01*
X123727229Y-74488181D01*
X123665906Y-74521666D01*
X123639548Y-74524500D01*
X123438389Y-74524500D01*
X123377971Y-74536518D01*
X123317548Y-74548537D01*
X123317547Y-74548537D01*
X123317544Y-74548538D01*
X123305049Y-74553714D01*
X123203710Y-74595689D01*
X123203708Y-74595690D01*
X123101272Y-74664138D01*
X123101264Y-74664144D01*
X123029760Y-74735649D01*
X123014142Y-74751267D01*
X123014139Y-74751270D01*
X122961731Y-74803678D01*
X122910050Y-74855359D01*
X122854463Y-74887452D01*
X122683504Y-74933261D01*
X122683500Y-74933262D01*
X122683499Y-74933263D01*
X122477267Y-75029431D01*
X122477265Y-75029432D01*
X122290858Y-75159954D01*
X122129954Y-75320858D01*
X121999432Y-75507265D01*
X121999431Y-75507267D01*
X121972382Y-75565275D01*
X121926209Y-75617714D01*
X121859016Y-75636866D01*
X121792135Y-75616650D01*
X121747618Y-75565275D01*
X121720568Y-75507267D01*
X121720567Y-75507265D01*
X121590045Y-75320858D01*
X121429141Y-75159954D01*
X121242734Y-75029432D01*
X121242732Y-75029431D01*
X121036497Y-74933261D01*
X121036488Y-74933258D01*
X120816697Y-74874366D01*
X120816693Y-74874365D01*
X120816692Y-74874365D01*
X120816691Y-74874364D01*
X120816686Y-74874364D01*
X120590002Y-74854532D01*
X120589998Y-74854532D01*
X120363313Y-74874364D01*
X120363302Y-74874366D01*
X120143511Y-74933258D01*
X120143502Y-74933261D01*
X119937267Y-75029431D01*
X119937265Y-75029432D01*
X119750858Y-75159954D01*
X119589954Y-75320858D01*
X119459432Y-75507265D01*
X119459431Y-75507267D01*
X119363261Y-75713502D01*
X119363258Y-75713511D01*
X119304366Y-75933302D01*
X119304364Y-75933313D01*
X119284532Y-76159998D01*
X119284532Y-76160001D01*
X119304364Y-76386686D01*
X119304366Y-76386697D01*
X119363258Y-76606488D01*
X119363261Y-76606497D01*
X119459431Y-76812732D01*
X119459432Y-76812734D01*
X119589954Y-76999141D01*
X119750858Y-77160045D01*
X119750861Y-77160047D01*
X119937266Y-77290568D01*
X120143504Y-77386739D01*
X120143509Y-77386740D01*
X120143511Y-77386741D01*
X120196415Y-77400916D01*
X120363308Y-77445635D01*
X120525230Y-77459801D01*
X120589998Y-77465468D01*
X120590000Y-77465468D01*
X120590002Y-77465468D01*
X120646673Y-77460509D01*
X120816692Y-77445635D01*
X121036496Y-77386739D01*
X121242734Y-77290568D01*
X121429139Y-77160047D01*
X121590047Y-76999139D01*
X121720568Y-76812734D01*
X121747618Y-76754724D01*
X121793790Y-76702285D01*
X121860983Y-76683133D01*
X121927865Y-76703348D01*
X121972382Y-76754725D01*
X121999429Y-76812728D01*
X121999432Y-76812734D01*
X122129954Y-76999141D01*
X122290858Y-77160045D01*
X122451623Y-77272613D01*
X122495248Y-77327189D01*
X122504500Y-77374188D01*
X122504500Y-78759547D01*
X122484815Y-78826586D01*
X122468181Y-78847228D01*
X122027865Y-79287544D01*
X121556270Y-79759139D01*
X121556267Y-79759142D01*
X121520006Y-79795403D01*
X121469142Y-79846266D01*
X121448943Y-79876497D01*
X121400689Y-79948712D01*
X121400685Y-79948719D01*
X121377774Y-80004034D01*
X121377774Y-80004035D01*
X121353538Y-80062545D01*
X121353535Y-80062555D01*
X121329500Y-80183389D01*
X121329500Y-82355500D01*
X121309815Y-82422539D01*
X121257011Y-82468294D01*
X121205500Y-82479500D01*
X119742129Y-82479500D01*
X119742123Y-82479501D01*
X119682516Y-82485908D01*
X119547671Y-82536202D01*
X119547664Y-82536206D01*
X119432455Y-82622452D01*
X119432452Y-82622455D01*
X119346206Y-82737664D01*
X119346202Y-82737671D01*
X119295908Y-82872517D01*
X119289501Y-82932116D01*
X119289500Y-82932135D01*
X119289500Y-84627870D01*
X119289501Y-84627876D01*
X119295908Y-84687483D01*
X119346202Y-84822328D01*
X119346206Y-84822335D01*
X119432452Y-84937544D01*
X119432455Y-84937547D01*
X119547664Y-85023793D01*
X119547671Y-85023797D01*
X119682517Y-85074091D01*
X119682516Y-85074091D01*
X119689444Y-85074835D01*
X119742127Y-85080500D01*
X121205500Y-85080499D01*
X121272539Y-85100184D01*
X121318294Y-85152987D01*
X121329500Y-85204499D01*
X121329500Y-86504546D01*
X121309815Y-86571585D01*
X121293181Y-86592227D01*
X120774821Y-87110586D01*
X120713498Y-87144071D01*
X120655048Y-87142680D01*
X120586697Y-87124366D01*
X120586693Y-87124365D01*
X120586692Y-87124365D01*
X120437187Y-87111285D01*
X120360001Y-87104532D01*
X120359998Y-87104532D01*
X120133313Y-87124364D01*
X120133302Y-87124366D01*
X119913511Y-87183258D01*
X119913502Y-87183261D01*
X119707267Y-87279431D01*
X119707265Y-87279432D01*
X119520858Y-87409954D01*
X119359954Y-87570858D01*
X119229432Y-87757264D01*
X119229430Y-87757268D01*
X119213447Y-87791543D01*
X119167273Y-87843982D01*
X119148529Y-87853693D01*
X119143715Y-87855687D01*
X119092490Y-87889915D01*
X119041272Y-87924138D01*
X119041264Y-87924144D01*
X118725410Y-88239999D01*
X118451270Y-88514139D01*
X118451267Y-88514142D01*
X118407704Y-88557704D01*
X118364142Y-88601266D01*
X118341029Y-88635858D01*
X118341028Y-88635859D01*
X118295690Y-88703708D01*
X118295686Y-88703716D01*
X118265954Y-88775499D01*
X118265954Y-88775500D01*
X118248538Y-88817545D01*
X118248535Y-88817555D01*
X118224500Y-88938389D01*
X118224500Y-100939548D01*
X118204815Y-101006587D01*
X118188181Y-101027229D01*
X114777229Y-104438181D01*
X114715906Y-104471666D01*
X114689548Y-104474500D01*
X113438388Y-104474500D01*
X113408230Y-104480499D01*
X113317554Y-104498535D01*
X113317541Y-104498539D01*
X113286317Y-104511473D01*
X113270397Y-104518067D01*
X113248169Y-104527274D01*
X113203713Y-104545688D01*
X113193557Y-104552475D01*
X113193449Y-104552547D01*
X113168775Y-104569033D01*
X113119284Y-104588403D01*
X112902253Y-104622778D01*
X112902250Y-104622778D01*
X112684744Y-104693450D01*
X112480961Y-104797283D01*
X112375396Y-104873980D01*
X112295934Y-104931714D01*
X112295932Y-104931716D01*
X112295931Y-104931716D01*
X112134216Y-105093431D01*
X112134216Y-105093432D01*
X112134214Y-105093434D01*
X112088461Y-105156407D01*
X111999783Y-105278461D01*
X111895950Y-105482244D01*
X111825278Y-105699750D01*
X111825278Y-105699753D01*
X111820824Y-105727873D01*
X111789500Y-105925646D01*
X111789500Y-106154354D01*
X111797132Y-106202542D01*
X111825278Y-106380246D01*
X111825278Y-106380249D01*
X111895950Y-106597755D01*
X111935023Y-106674439D01*
X111999783Y-106801538D01*
X112132525Y-106984242D01*
X112156005Y-107050046D01*
X112140180Y-107118100D01*
X112090074Y-107166795D01*
X112075541Y-107173308D01*
X112047670Y-107183703D01*
X112047664Y-107183706D01*
X111932455Y-107269952D01*
X111932452Y-107269955D01*
X111846206Y-107385164D01*
X111846202Y-107385171D01*
X111795908Y-107520017D01*
X111789501Y-107579616D01*
X111789500Y-107579635D01*
X111789500Y-109580370D01*
X111789501Y-109580376D01*
X111795908Y-109639983D01*
X111846202Y-109774828D01*
X111846206Y-109774835D01*
X111932452Y-109890044D01*
X111932455Y-109890047D01*
X112047664Y-109976293D01*
X112047671Y-109976297D01*
X112092618Y-109993061D01*
X112182517Y-110026591D01*
X112242127Y-110033000D01*
X112540500Y-110032999D01*
X112607539Y-110052683D01*
X112653294Y-110105487D01*
X112664500Y-110156999D01*
X112664500Y-110801607D01*
X112670137Y-110829952D01*
X112688535Y-110922444D01*
X112688537Y-110922452D01*
X112702347Y-110955792D01*
X112702347Y-110955793D01*
X112735685Y-111036281D01*
X112735691Y-111036292D01*
X112767390Y-111083730D01*
X112767391Y-111083733D01*
X112767392Y-111083733D01*
X112804141Y-111138733D01*
X112895586Y-111230178D01*
X112895608Y-111230198D01*
X114061016Y-112395606D01*
X114061045Y-112395637D01*
X114151264Y-112485856D01*
X114151267Y-112485858D01*
X114202490Y-112520084D01*
X114253714Y-112554312D01*
X114334207Y-112587652D01*
X114367548Y-112601463D01*
X114427971Y-112613481D01*
X114488393Y-112625500D01*
X114488394Y-112625500D01*
X117139548Y-112625500D01*
X117206587Y-112645185D01*
X117227229Y-112661819D01*
X118288181Y-113722771D01*
X118321666Y-113784094D01*
X118324500Y-113810452D01*
X118324500Y-119789548D01*
X118304815Y-119856587D01*
X118288181Y-119877229D01*
X117897229Y-120268181D01*
X117835906Y-120301666D01*
X117809548Y-120304500D01*
X114914499Y-120304500D01*
X114847460Y-120284815D01*
X114801705Y-120232011D01*
X114790499Y-120180500D01*
X114790499Y-119929629D01*
X114790498Y-119929623D01*
X114790497Y-119929616D01*
X114784091Y-119870017D01*
X114766802Y-119823664D01*
X114733797Y-119735171D01*
X114733793Y-119735164D01*
X114647547Y-119619955D01*
X114647544Y-119619952D01*
X114532335Y-119533706D01*
X114532328Y-119533702D01*
X114504459Y-119523308D01*
X114448525Y-119481437D01*
X114424108Y-119415973D01*
X114438960Y-119347700D01*
X114447460Y-119334260D01*
X114580217Y-119151538D01*
X114684048Y-118947758D01*
X114754722Y-118730245D01*
X114790500Y-118504354D01*
X114790500Y-118275646D01*
X114754722Y-118049755D01*
X114754721Y-118049751D01*
X114754721Y-118049750D01*
X114684049Y-117832244D01*
X114640916Y-117747591D01*
X114580217Y-117628462D01*
X114445786Y-117443434D01*
X114284066Y-117281714D01*
X114099038Y-117147283D01*
X114005125Y-117099432D01*
X113895255Y-117043450D01*
X113677748Y-116972778D01*
X113498367Y-116944367D01*
X113451854Y-116937000D01*
X113128146Y-116937000D01*
X113081633Y-116944367D01*
X112902253Y-116972778D01*
X112902250Y-116972778D01*
X112684744Y-117043450D01*
X112480961Y-117147283D01*
X112382950Y-117218493D01*
X112295934Y-117281714D01*
X112295932Y-117281716D01*
X112295931Y-117281716D01*
X112134216Y-117443431D01*
X112134216Y-117443432D01*
X112134214Y-117443434D01*
X112087851Y-117507247D01*
X111999783Y-117628461D01*
X111964966Y-117696795D01*
X111916992Y-117747591D01*
X111854481Y-117764500D01*
X111448389Y-117764500D01*
X111387971Y-117776518D01*
X111344743Y-117785116D01*
X111327546Y-117788537D01*
X111291538Y-117803453D01*
X111291537Y-117803453D01*
X111213716Y-117835686D01*
X111208601Y-117839105D01*
X111208597Y-117839108D01*
X111111268Y-117904140D01*
X111081634Y-117933775D01*
X111024142Y-117991267D01*
X111024139Y-117991270D01*
X109801270Y-119214139D01*
X109801267Y-119214142D01*
X109757703Y-119257705D01*
X109714140Y-119301268D01*
X109690558Y-119336563D01*
X109690556Y-119336566D01*
X109645690Y-119403710D01*
X109645685Y-119403719D01*
X109622167Y-119460499D01*
X109598538Y-119517544D01*
X109598535Y-119517556D01*
X109574500Y-119638389D01*
X107240500Y-119638389D01*
X107240500Y-88669999D01*
X110934341Y-88669999D01*
X110934341Y-88670000D01*
X110954936Y-88905403D01*
X110954938Y-88905413D01*
X111016094Y-89133655D01*
X111016096Y-89133659D01*
X111016097Y-89133663D01*
X111083635Y-89278498D01*
X111115965Y-89347830D01*
X111115967Y-89347834D01*
X111193065Y-89457940D01*
X111245272Y-89532500D01*
X111251501Y-89541395D01*
X111251506Y-89541402D01*
X111418597Y-89708493D01*
X111418603Y-89708498D01*
X111604158Y-89838425D01*
X111647783Y-89893002D01*
X111654977Y-89962500D01*
X111623454Y-90024855D01*
X111604158Y-90041575D01*
X111418597Y-90171505D01*
X111251505Y-90338597D01*
X111115965Y-90532169D01*
X111115964Y-90532171D01*
X111016098Y-90746335D01*
X111016094Y-90746344D01*
X110954938Y-90974586D01*
X110954936Y-90974596D01*
X110934341Y-91209999D01*
X110934341Y-91210000D01*
X110954936Y-91445403D01*
X110954938Y-91445413D01*
X111016094Y-91673655D01*
X111016096Y-91673659D01*
X111016097Y-91673663D01*
X111083635Y-91818498D01*
X111115965Y-91887830D01*
X111115967Y-91887834D01*
X111196609Y-92003002D01*
X111245272Y-92072500D01*
X111251501Y-92081395D01*
X111251506Y-92081402D01*
X111418597Y-92248493D01*
X111418603Y-92248498D01*
X111604158Y-92378425D01*
X111647783Y-92433002D01*
X111654977Y-92502500D01*
X111623454Y-92564855D01*
X111604158Y-92581575D01*
X111418597Y-92711505D01*
X111251505Y-92878597D01*
X111115965Y-93072169D01*
X111115964Y-93072171D01*
X111016098Y-93286335D01*
X111016094Y-93286344D01*
X110954938Y-93514586D01*
X110954936Y-93514596D01*
X110934341Y-93749999D01*
X110934341Y-93750000D01*
X110954936Y-93985403D01*
X110954938Y-93985413D01*
X111016094Y-94213655D01*
X111016096Y-94213659D01*
X111016097Y-94213663D01*
X111083635Y-94358498D01*
X111115965Y-94427830D01*
X111115967Y-94427834D01*
X111196609Y-94543002D01*
X111251505Y-94621401D01*
X111418599Y-94788495D01*
X111465742Y-94821505D01*
X111612165Y-94924032D01*
X111612167Y-94924033D01*
X111612170Y-94924035D01*
X111826337Y-95023903D01*
X112054592Y-95085063D01*
X112242918Y-95101539D01*
X112289999Y-95105659D01*
X112290000Y-95105659D01*
X112290001Y-95105659D01*
X112329234Y-95102226D01*
X112525408Y-95085063D01*
X112753663Y-95023903D01*
X112967830Y-94924035D01*
X113161401Y-94788495D01*
X113328495Y-94621401D01*
X113464035Y-94427830D01*
X113563903Y-94213663D01*
X113625063Y-93985408D01*
X113645659Y-93750000D01*
X113625063Y-93514592D01*
X113563903Y-93286337D01*
X113464035Y-93072171D01*
X113454020Y-93057867D01*
X113328494Y-92878597D01*
X113161402Y-92711506D01*
X113161396Y-92711501D01*
X112975842Y-92581575D01*
X112932217Y-92526998D01*
X112925023Y-92457500D01*
X112956546Y-92395145D01*
X112975842Y-92378425D01*
X113024143Y-92344604D01*
X113161401Y-92248495D01*
X113328495Y-92081401D01*
X113464035Y-91887830D01*
X113563903Y-91673663D01*
X113625063Y-91445408D01*
X113645659Y-91210000D01*
X113625063Y-90974592D01*
X113563903Y-90746337D01*
X113464035Y-90532171D01*
X113328495Y-90338599D01*
X113328494Y-90338597D01*
X113161402Y-90171506D01*
X113161396Y-90171501D01*
X112975842Y-90041575D01*
X112932217Y-89986998D01*
X112925023Y-89917500D01*
X112956546Y-89855145D01*
X112975842Y-89838425D01*
X113024143Y-89804604D01*
X113161401Y-89708495D01*
X113328495Y-89541401D01*
X113464035Y-89347830D01*
X113563903Y-89133663D01*
X113625063Y-88905408D01*
X113645659Y-88670000D01*
X113625063Y-88434592D01*
X113563903Y-88206337D01*
X113464035Y-87992171D01*
X113461012Y-87987854D01*
X113328496Y-87798600D01*
X113277598Y-87747702D01*
X113206567Y-87676671D01*
X113173084Y-87615351D01*
X113178068Y-87545659D01*
X113219939Y-87489725D01*
X113250915Y-87472810D01*
X113382331Y-87423796D01*
X113497546Y-87337546D01*
X113583796Y-87222331D01*
X113634091Y-87087483D01*
X113640500Y-87027873D01*
X113640499Y-85232128D01*
X113634091Y-85172517D01*
X113626493Y-85152147D01*
X113583797Y-85037671D01*
X113583793Y-85037664D01*
X113497547Y-84922455D01*
X113497544Y-84922452D01*
X113382335Y-84836206D01*
X113382328Y-84836202D01*
X113247482Y-84785908D01*
X113247483Y-84785908D01*
X113187883Y-84779501D01*
X113187881Y-84779500D01*
X113187873Y-84779500D01*
X113187864Y-84779500D01*
X111392129Y-84779500D01*
X111392123Y-84779501D01*
X111332516Y-84785908D01*
X111197671Y-84836202D01*
X111197664Y-84836206D01*
X111082455Y-84922452D01*
X111082452Y-84922455D01*
X110996206Y-85037664D01*
X110996202Y-85037671D01*
X110945908Y-85172517D01*
X110940723Y-85220750D01*
X110939501Y-85232123D01*
X110939500Y-85232135D01*
X110939500Y-87027870D01*
X110939501Y-87027876D01*
X110945908Y-87087483D01*
X110996202Y-87222328D01*
X110996206Y-87222335D01*
X111082452Y-87337544D01*
X111082455Y-87337547D01*
X111197664Y-87423793D01*
X111197671Y-87423797D01*
X111329081Y-87472810D01*
X111385015Y-87514681D01*
X111409432Y-87580145D01*
X111394580Y-87648418D01*
X111373430Y-87676673D01*
X111251503Y-87798600D01*
X111115965Y-87992169D01*
X111115964Y-87992171D01*
X111016098Y-88206335D01*
X111016094Y-88206344D01*
X110954938Y-88434586D01*
X110954936Y-88434596D01*
X110934341Y-88669999D01*
X107240500Y-88669999D01*
X107240500Y-77019999D01*
X110934341Y-77019999D01*
X110934341Y-77020000D01*
X110954936Y-77255403D01*
X110954938Y-77255413D01*
X111016094Y-77483655D01*
X111016096Y-77483659D01*
X111016097Y-77483663D01*
X111073184Y-77606086D01*
X111115965Y-77697830D01*
X111115967Y-77697834D01*
X111251501Y-77891395D01*
X111251506Y-77891402D01*
X111418597Y-78058493D01*
X111418603Y-78058498D01*
X111604158Y-78188425D01*
X111647783Y-78243002D01*
X111654977Y-78312500D01*
X111623454Y-78374855D01*
X111604158Y-78391575D01*
X111418597Y-78521505D01*
X111251505Y-78688597D01*
X111115965Y-78882169D01*
X111115964Y-78882171D01*
X111016098Y-79096335D01*
X111016094Y-79096344D01*
X110954938Y-79324586D01*
X110954936Y-79324596D01*
X110934341Y-79559999D01*
X110934341Y-79560000D01*
X110954936Y-79795403D01*
X110954938Y-79795413D01*
X111016094Y-80023655D01*
X111016096Y-80023659D01*
X111016097Y-80023663D01*
X111090579Y-80183389D01*
X111115965Y-80237830D01*
X111115967Y-80237834D01*
X111163934Y-80306337D01*
X111251505Y-80431401D01*
X111418599Y-80598495D01*
X111500002Y-80655494D01*
X111612165Y-80734032D01*
X111612167Y-80734033D01*
X111612170Y-80734035D01*
X111826337Y-80833903D01*
X112054592Y-80895063D01*
X112242918Y-80911539D01*
X112289999Y-80915659D01*
X112290000Y-80915659D01*
X112290001Y-80915659D01*
X112329234Y-80912226D01*
X112525408Y-80895063D01*
X112753663Y-80833903D01*
X112967830Y-80734035D01*
X113161401Y-80598495D01*
X113328495Y-80431401D01*
X113464035Y-80237830D01*
X113563903Y-80023663D01*
X113625063Y-79795408D01*
X113645659Y-79560000D01*
X113644521Y-79546998D01*
X113633656Y-79422810D01*
X113625063Y-79324592D01*
X113563903Y-79096337D01*
X113464035Y-78882171D01*
X113425115Y-78826586D01*
X113328494Y-78688597D01*
X113161402Y-78521506D01*
X113161396Y-78521501D01*
X112975842Y-78391575D01*
X112932217Y-78336998D01*
X112925023Y-78267500D01*
X112956546Y-78205145D01*
X112975842Y-78188425D01*
X113001893Y-78170184D01*
X113161401Y-78058495D01*
X113328495Y-77891401D01*
X113464035Y-77697830D01*
X113563903Y-77483663D01*
X113625063Y-77255408D01*
X113645659Y-77020000D01*
X113625063Y-76784592D01*
X113563903Y-76556337D01*
X113464035Y-76342171D01*
X113328495Y-76148599D01*
X113206567Y-76026671D01*
X113173084Y-75965351D01*
X113178068Y-75895659D01*
X113219939Y-75839725D01*
X113250915Y-75822810D01*
X113382331Y-75773796D01*
X113497546Y-75687546D01*
X113583796Y-75572331D01*
X113634091Y-75437483D01*
X113640500Y-75377873D01*
X113640499Y-73582128D01*
X113634091Y-73522517D01*
X113606571Y-73448733D01*
X113583797Y-73387671D01*
X113583793Y-73387664D01*
X113497547Y-73272455D01*
X113497544Y-73272452D01*
X113382335Y-73186206D01*
X113382328Y-73186202D01*
X113247482Y-73135908D01*
X113247483Y-73135908D01*
X113187883Y-73129501D01*
X113187881Y-73129500D01*
X113187873Y-73129500D01*
X113187864Y-73129500D01*
X111392129Y-73129500D01*
X111392123Y-73129501D01*
X111332516Y-73135908D01*
X111197671Y-73186202D01*
X111197664Y-73186206D01*
X111082455Y-73272452D01*
X111082452Y-73272455D01*
X110996206Y-73387664D01*
X110996202Y-73387671D01*
X110945908Y-73522517D01*
X110939501Y-73582116D01*
X110939501Y-73582123D01*
X110939500Y-73582135D01*
X110939500Y-75377870D01*
X110939501Y-75377876D01*
X110945908Y-75437483D01*
X110996202Y-75572328D01*
X110996206Y-75572335D01*
X111082452Y-75687544D01*
X111082455Y-75687547D01*
X111197664Y-75773793D01*
X111197671Y-75773797D01*
X111329081Y-75822810D01*
X111385015Y-75864681D01*
X111409432Y-75930145D01*
X111394580Y-75998418D01*
X111373430Y-76026673D01*
X111251503Y-76148600D01*
X111115965Y-76342169D01*
X111115964Y-76342171D01*
X111016098Y-76556335D01*
X111016094Y-76556344D01*
X110954938Y-76784586D01*
X110954936Y-76784596D01*
X110934341Y-77019999D01*
X107240500Y-77019999D01*
X107240500Y-65039999D01*
X110934341Y-65039999D01*
X110934341Y-65040000D01*
X110954936Y-65275403D01*
X110954938Y-65275413D01*
X111016094Y-65503655D01*
X111016096Y-65503659D01*
X111016097Y-65503663D01*
X111115965Y-65717830D01*
X111115967Y-65717834D01*
X111251501Y-65911395D01*
X111251506Y-65911402D01*
X111418597Y-66078493D01*
X111418603Y-66078498D01*
X111604158Y-66208425D01*
X111647783Y-66263002D01*
X111654977Y-66332500D01*
X111623454Y-66394855D01*
X111604158Y-66411575D01*
X111418597Y-66541505D01*
X111251505Y-66708597D01*
X111115965Y-66902169D01*
X111115964Y-66902171D01*
X111016098Y-67116335D01*
X111016094Y-67116344D01*
X110954938Y-67344586D01*
X110954937Y-67344593D01*
X110934341Y-67579999D01*
X110934341Y-67580000D01*
X110954936Y-67815403D01*
X110954938Y-67815413D01*
X111016094Y-68043655D01*
X111016096Y-68043659D01*
X111016097Y-68043663D01*
X111115965Y-68257830D01*
X111115967Y-68257834D01*
X111224281Y-68412521D01*
X111251505Y-68451401D01*
X111418599Y-68618495D01*
X111515384Y-68686265D01*
X111612165Y-68754032D01*
X111612167Y-68754033D01*
X111612170Y-68754035D01*
X111826337Y-68853903D01*
X112054592Y-68915063D01*
X112242918Y-68931539D01*
X112289999Y-68935659D01*
X112290000Y-68935659D01*
X112290001Y-68935659D01*
X112329234Y-68932226D01*
X112525408Y-68915063D01*
X112753663Y-68853903D01*
X112967830Y-68754035D01*
X113161401Y-68618495D01*
X113328495Y-68451401D01*
X113464035Y-68257830D01*
X113563903Y-68043663D01*
X113625063Y-67815408D01*
X113645659Y-67580000D01*
X113625063Y-67344592D01*
X113563903Y-67116337D01*
X113464035Y-66902171D01*
X113412374Y-66828390D01*
X113328494Y-66708597D01*
X113161402Y-66541506D01*
X113161396Y-66541501D01*
X112975842Y-66411575D01*
X112932217Y-66356998D01*
X112925023Y-66287500D01*
X112956546Y-66225145D01*
X112975842Y-66208425D01*
X112998026Y-66192891D01*
X113161401Y-66078495D01*
X113328495Y-65911401D01*
X113464035Y-65717830D01*
X113563903Y-65503663D01*
X113625063Y-65275408D01*
X113645659Y-65040000D01*
X113625063Y-64804592D01*
X113563903Y-64576337D01*
X113464035Y-64362171D01*
X113460061Y-64356496D01*
X113328496Y-64168600D01*
X113296582Y-64136686D01*
X113206567Y-64046671D01*
X113173084Y-63985351D01*
X113178068Y-63915659D01*
X113219939Y-63859725D01*
X113250915Y-63842810D01*
X113382331Y-63793796D01*
X113497546Y-63707546D01*
X113583796Y-63592331D01*
X113634091Y-63457483D01*
X113640500Y-63397873D01*
X113640499Y-61602128D01*
X113634091Y-61542517D01*
X113583796Y-61407669D01*
X113583795Y-61407668D01*
X113583793Y-61407664D01*
X113497547Y-61292455D01*
X113497544Y-61292452D01*
X113382335Y-61206206D01*
X113382328Y-61206202D01*
X113247482Y-61155908D01*
X113247483Y-61155908D01*
X113187883Y-61149501D01*
X113187881Y-61149500D01*
X113187873Y-61149500D01*
X113187864Y-61149500D01*
X111392129Y-61149500D01*
X111392123Y-61149501D01*
X111332516Y-61155908D01*
X111197671Y-61206202D01*
X111197664Y-61206206D01*
X111082455Y-61292452D01*
X111082452Y-61292455D01*
X110996206Y-61407664D01*
X110996202Y-61407671D01*
X110945908Y-61542517D01*
X110942656Y-61572771D01*
X110939501Y-61602123D01*
X110939500Y-61602135D01*
X110939500Y-63397870D01*
X110939501Y-63397876D01*
X110945908Y-63457483D01*
X110996202Y-63592328D01*
X110996206Y-63592335D01*
X111082452Y-63707544D01*
X111082455Y-63707547D01*
X111197664Y-63793793D01*
X111197671Y-63793797D01*
X111329081Y-63842810D01*
X111385015Y-63884681D01*
X111409432Y-63950145D01*
X111394580Y-64018418D01*
X111373430Y-64046673D01*
X111251503Y-64168600D01*
X111115965Y-64362169D01*
X111115964Y-64362171D01*
X111016098Y-64576335D01*
X111016094Y-64576344D01*
X110954938Y-64804586D01*
X110954936Y-64804596D01*
X110934341Y-65039999D01*
X107240500Y-65039999D01*
X107240500Y-55654500D01*
X107260185Y-55587461D01*
X107312989Y-55541706D01*
X107364500Y-55530500D01*
X171115500Y-55530500D01*
X171182539Y-55550185D01*
G37*
%TD.AperFunction*%
M02*
