%TF.GenerationSoftware,KiCad,Pcbnew,8.0.6*%
%TF.CreationDate,2024-11-27T11:44:50+01:00*%
%TF.ProjectId,function_generator,66756e63-7469-46f6-9e5f-67656e657261,rev?*%
%TF.SameCoordinates,Original*%
%TF.FileFunction,Copper,L1,Top*%
%TF.FilePolarity,Positive*%
%FSLAX46Y46*%
G04 Gerber Fmt 4.6, Leading zero omitted, Abs format (unit mm)*
G04 Created by KiCad (PCBNEW 8.0.6) date 2024-11-27 11:44:50*
%MOMM*%
%LPD*%
G01*
G04 APERTURE LIST*
G04 Aperture macros list*
%AMRoundRect*
0 Rectangle with rounded corners*
0 $1 Rounding radius*
0 $2 $3 $4 $5 $6 $7 $8 $9 X,Y pos of 4 corners*
0 Add a 4 corners polygon primitive as box body*
4,1,4,$2,$3,$4,$5,$6,$7,$8,$9,$2,$3,0*
0 Add four circle primitives for the rounded corners*
1,1,$1+$1,$2,$3*
1,1,$1+$1,$4,$5*
1,1,$1+$1,$6,$7*
1,1,$1+$1,$8,$9*
0 Add four rect primitives between the rounded corners*
20,1,$1+$1,$2,$3,$4,$5,0*
20,1,$1+$1,$4,$5,$6,$7,0*
20,1,$1+$1,$6,$7,$8,$9,0*
20,1,$1+$1,$8,$9,$2,$3,0*%
G04 Aperture macros list end*
%TA.AperFunction,ComponentPad*%
%ADD10C,1.600000*%
%TD*%
%TA.AperFunction,ComponentPad*%
%ADD11R,1.700000X1.700000*%
%TD*%
%TA.AperFunction,ComponentPad*%
%ADD12O,1.700000X1.700000*%
%TD*%
%TA.AperFunction,ComponentPad*%
%ADD13O,1.600000X1.600000*%
%TD*%
%TA.AperFunction,ComponentPad*%
%ADD14R,2.000000X1.905000*%
%TD*%
%TA.AperFunction,ComponentPad*%
%ADD15O,2.000000X1.905000*%
%TD*%
%TA.AperFunction,ComponentPad*%
%ADD16R,1.600000X1.600000*%
%TD*%
%TA.AperFunction,ComponentPad*%
%ADD17R,2.000000X2.000000*%
%TD*%
%TA.AperFunction,ComponentPad*%
%ADD18C,2.000000*%
%TD*%
%TA.AperFunction,ComponentPad*%
%ADD19O,1.600000X2.500000*%
%TD*%
%TA.AperFunction,ComponentPad*%
%ADD20O,3.500000X7.000000*%
%TD*%
%TA.AperFunction,SMDPad,CuDef*%
%ADD21RoundRect,0.150000X0.150000X-0.825000X0.150000X0.825000X-0.150000X0.825000X-0.150000X-0.825000X0*%
%TD*%
%TA.AperFunction,ViaPad*%
%ADD22C,0.600000*%
%TD*%
%TA.AperFunction,Conductor*%
%ADD23C,0.500000*%
%TD*%
%TA.AperFunction,Conductor*%
%ADD24C,0.250000*%
%TD*%
%TA.AperFunction,Conductor*%
%ADD25C,0.300000*%
%TD*%
%TA.AperFunction,Conductor*%
%ADD26C,0.200000*%
%TD*%
G04 APERTURE END LIST*
D10*
X131640000Y-134030000D03*
X131640000Y-129030000D03*
D11*
X165840000Y-73150000D03*
D12*
X165840000Y-75690000D03*
X165840000Y-78230000D03*
X165840000Y-80770000D03*
X165840000Y-83310000D03*
X165840000Y-85850000D03*
D10*
X142980000Y-79430000D03*
D13*
X150600000Y-79430000D03*
D10*
X142870000Y-124580000D03*
D13*
X150490000Y-124580000D03*
D14*
X113290000Y-120930000D03*
D15*
X113290000Y-118390000D03*
X113290000Y-115850000D03*
D16*
X120360000Y-96030000D03*
D13*
X122900000Y-96030000D03*
X125440000Y-96030000D03*
X127980000Y-96030000D03*
X127980000Y-88410000D03*
X125440000Y-88410000D03*
X122900000Y-88410000D03*
X120360000Y-88410000D03*
D14*
X113290000Y-108580000D03*
D15*
X113290000Y-106040000D03*
X113290000Y-103500000D03*
D14*
X113290000Y-134030000D03*
D15*
X113290000Y-131490000D03*
X113290000Y-128950000D03*
D11*
X112290000Y-74480000D03*
D12*
X112290000Y-77020000D03*
X112290000Y-79560000D03*
D11*
X139150000Y-78080000D03*
X154390000Y-78080000D03*
D12*
X139150000Y-80620000D03*
X154390000Y-80620000D03*
X139150000Y-83160000D03*
X154390000Y-83160000D03*
X139150000Y-85700000D03*
X154390000Y-85700000D03*
X139150000Y-88240000D03*
X154390000Y-88240000D03*
X139150000Y-90780000D03*
X154390000Y-90780000D03*
X139150000Y-93320000D03*
X154390000Y-93320000D03*
X139150000Y-95860000D03*
X154390000Y-95860000D03*
X139150000Y-98400000D03*
X154390000Y-98400000D03*
X139150000Y-100940000D03*
X154390000Y-100940000D03*
X139150000Y-103480000D03*
X154390000Y-103480000D03*
X139150000Y-106020000D03*
X154390000Y-106020000D03*
X139150000Y-108560000D03*
X154390000Y-108560000D03*
X139150000Y-111100000D03*
X154390000Y-111100000D03*
X139150000Y-113640000D03*
X154390000Y-113640000D03*
X139150000Y-116180000D03*
X154390000Y-116180000D03*
X139150000Y-118720000D03*
X154390000Y-118720000D03*
X139150000Y-121260000D03*
X154390000Y-121260000D03*
X139150000Y-123800000D03*
X154390000Y-123800000D03*
X139150000Y-126340000D03*
X154390000Y-126340000D03*
D10*
X143020000Y-111830000D03*
D13*
X150640000Y-111830000D03*
D11*
X165690000Y-93360000D03*
D12*
X165690000Y-95900000D03*
X165690000Y-98440000D03*
D10*
X143020000Y-105230000D03*
D13*
X150640000Y-105230000D03*
D11*
X165640000Y-116820000D03*
D12*
X165640000Y-119360000D03*
X165640000Y-121900000D03*
D11*
X112290000Y-62500000D03*
D12*
X112290000Y-65040000D03*
X112290000Y-67580000D03*
D11*
X112290000Y-86130000D03*
D12*
X112290000Y-88670000D03*
X112290000Y-91210000D03*
X112290000Y-93750000D03*
X112290000Y-96290000D03*
D10*
X142980000Y-85780000D03*
D13*
X150600000Y-85780000D03*
D10*
X142980000Y-98780000D03*
D13*
X150600000Y-98780000D03*
D17*
X123740000Y-121047677D03*
D18*
X123740000Y-116047677D03*
D10*
X119390000Y-133980000D03*
X119390000Y-128980000D03*
D11*
X165640000Y-104830000D03*
D12*
X165640000Y-107370000D03*
X165640000Y-109910000D03*
D11*
X165540000Y-128300000D03*
D12*
X165540000Y-130840000D03*
X165540000Y-133380000D03*
X165540000Y-135920000D03*
D17*
X123740000Y-108530000D03*
D18*
X123740000Y-103530000D03*
D19*
X141010000Y-67960000D03*
D20*
X135930000Y-62880000D03*
D19*
X138470000Y-67960000D03*
D20*
X146090000Y-62880000D03*
D21*
X121800000Y-82300000D03*
X123070000Y-82300000D03*
X124340000Y-82300000D03*
X125610000Y-82300000D03*
X125610000Y-77350000D03*
X124340000Y-77350000D03*
X123070000Y-77350000D03*
X121800000Y-77350000D03*
D10*
X142980000Y-92180000D03*
D13*
X150600000Y-92180000D03*
D16*
X120550000Y-71530000D03*
D13*
X123090000Y-71530000D03*
X125630000Y-71530000D03*
X128170000Y-71530000D03*
X128170000Y-63910000D03*
X125630000Y-63910000D03*
X123090000Y-63910000D03*
X120550000Y-63910000D03*
D11*
X165840000Y-61050000D03*
D12*
X165840000Y-63590000D03*
X165840000Y-66130000D03*
D10*
X125290000Y-133980000D03*
X125290000Y-128980000D03*
X142870000Y-118230000D03*
D13*
X150490000Y-118230000D03*
D22*
X116450000Y-129350000D03*
X121940000Y-73890000D03*
X132290000Y-94650000D03*
X135200000Y-85650000D03*
X128510000Y-81240000D03*
X133647702Y-87747702D03*
X144850000Y-88800000D03*
X125600000Y-84640000D03*
X156521614Y-115671614D03*
X157230000Y-113490000D03*
X146860000Y-108480000D03*
X147380000Y-118230000D03*
X123140000Y-84680000D03*
X144750000Y-119050000D03*
X131750000Y-74850000D03*
X158950000Y-71450000D03*
X124410000Y-84670000D03*
X160550000Y-78800000D03*
X161800000Y-82100000D03*
X133570000Y-80660000D03*
X145350000Y-85400000D03*
X151500000Y-114050000D03*
X160250000Y-135245000D03*
X135050000Y-131950000D03*
X144750000Y-97000000D03*
D23*
X146830000Y-108450000D02*
X146860000Y-108480000D01*
X146830000Y-105490000D02*
X146830000Y-108450000D01*
X150600000Y-98780000D02*
X150600000Y-101720000D01*
X150600000Y-101720000D02*
X146830000Y-105490000D01*
X142980000Y-79430000D02*
X142980000Y-77320000D01*
X110600000Y-127250000D02*
X115150000Y-127250000D01*
X123600000Y-79560000D02*
X123070000Y-79030000D01*
X123070000Y-78970000D02*
X122550000Y-79490000D01*
X109850000Y-112370000D02*
X109850000Y-126500000D01*
X115150000Y-127250000D02*
X116450000Y-128550000D01*
X112360000Y-79490000D02*
X112290000Y-79560000D01*
X109850000Y-126500000D02*
X110600000Y-127250000D01*
X123740000Y-108530000D02*
X118780000Y-108530000D01*
X113290000Y-134030000D02*
X119340000Y-134030000D01*
X121940000Y-73890000D02*
X123070000Y-75020000D01*
X110270000Y-106040000D02*
X113290000Y-106040000D01*
X123070000Y-77350000D02*
X123070000Y-78970000D01*
X141250000Y-83900000D02*
X142980000Y-82170000D01*
D24*
X142945000Y-79395000D02*
X142980000Y-79430000D01*
D23*
X131110000Y-76500000D02*
X128050000Y-79560000D01*
X142980000Y-82170000D02*
X142980000Y-79430000D01*
X109850000Y-107950000D02*
X109850000Y-106440000D01*
X141250000Y-90450000D02*
X141250000Y-83900000D01*
X119340000Y-134030000D02*
X119390000Y-133980000D01*
X116450000Y-128550000D02*
X116450000Y-129350000D01*
X116290000Y-106040000D02*
X113290000Y-106040000D01*
X118780000Y-108530000D02*
X116290000Y-106040000D01*
X123070000Y-75020000D02*
X123070000Y-77350000D01*
X128050000Y-79560000D02*
X123600000Y-79560000D01*
X109850000Y-112370000D02*
X109850000Y-107950000D01*
X123070000Y-79030000D02*
X123070000Y-77350000D01*
X122550000Y-79490000D02*
X112360000Y-79490000D01*
X142160000Y-76500000D02*
X131110000Y-76500000D01*
X109850000Y-106440000D02*
X110260000Y-106030000D01*
D24*
X110260000Y-106030000D02*
X110270000Y-106040000D01*
D23*
X142980000Y-77320000D02*
X142160000Y-76500000D01*
X142980000Y-92180000D02*
X141250000Y-90450000D01*
D24*
X144175000Y-92725000D02*
X144175000Y-89225000D01*
X144175000Y-89225000D02*
X142980000Y-88030000D01*
X133415000Y-94635000D02*
X142265000Y-94635000D01*
X145870000Y-79430000D02*
X150600000Y-79430000D01*
X142980000Y-88030000D02*
X142980000Y-85780000D01*
X145200000Y-83560000D02*
X145200000Y-80100000D01*
X142980000Y-85780000D02*
X145200000Y-83560000D01*
X142265000Y-94635000D02*
X144175000Y-92725000D01*
X133400000Y-94650000D02*
X133415000Y-94635000D01*
X132290000Y-94650000D02*
X133400000Y-94650000D01*
X145200000Y-80100000D02*
X145870000Y-79430000D01*
D23*
X125620000Y-81220000D02*
X125610000Y-81230000D01*
X127980000Y-95470000D02*
X128450000Y-95000000D01*
X149900000Y-87950000D02*
X150600000Y-87250000D01*
D24*
X125600000Y-82310000D02*
X125610000Y-82300000D01*
D23*
X129400000Y-119000000D02*
X131640000Y-121240000D01*
X141410000Y-105040000D02*
X141600000Y-105230000D01*
X141120000Y-104750000D02*
X141410000Y-105040000D01*
X123740000Y-116047677D02*
X123740000Y-118040000D01*
X127980000Y-113770000D02*
X125702323Y-116047677D01*
X130150000Y-103930000D02*
X130925000Y-104705000D01*
X112290000Y-65040000D02*
X112290000Y-67580000D01*
X145700000Y-87950000D02*
X149900000Y-87950000D01*
X131640000Y-121240000D02*
X131640000Y-129030000D01*
X128300000Y-71400000D02*
X128170000Y-71530000D01*
D24*
X128490000Y-81220000D02*
X128510000Y-81240000D01*
D23*
X127980000Y-96030000D02*
X127980000Y-95470000D01*
X144850000Y-88800000D02*
X145700000Y-87950000D01*
X128010000Y-81220000D02*
X125620000Y-81220000D01*
X127980000Y-96030000D02*
X127980000Y-113770000D01*
X127400000Y-69500000D02*
X128300000Y-70400000D01*
X113850000Y-69500000D02*
X127400000Y-69500000D01*
X125610000Y-81230000D02*
X125610000Y-82300000D01*
X112290000Y-67940000D02*
X113850000Y-69500000D01*
X128300000Y-70400000D02*
X128300000Y-71400000D01*
X128010000Y-81220000D02*
X128490000Y-81220000D01*
X141600000Y-105230000D02*
X143020000Y-105230000D01*
X112290000Y-67580000D02*
X112290000Y-67940000D01*
X124700000Y-119000000D02*
X129400000Y-119000000D01*
X130150000Y-95500000D02*
X130150000Y-103930000D01*
X150600000Y-87250000D02*
X150600000Y-85780000D01*
X125702323Y-116047677D02*
X123740000Y-116047677D01*
X128450000Y-95000000D02*
X129650000Y-95000000D01*
X129650000Y-95000000D02*
X130150000Y-95500000D01*
D25*
X130920000Y-104750000D02*
X141120000Y-104750000D01*
D23*
X123740000Y-118040000D02*
X124700000Y-119000000D01*
D26*
X156950000Y-94600000D02*
X158190000Y-93360000D01*
X153020000Y-94600000D02*
X156950000Y-94600000D01*
X145870000Y-92180000D02*
X150600000Y-92180000D01*
X142980000Y-95070000D02*
X145870000Y-92180000D01*
X150600000Y-92180000D02*
X153020000Y-94600000D01*
X142980000Y-98780000D02*
X142980000Y-95070000D01*
X158190000Y-93360000D02*
X165690000Y-93360000D01*
D23*
X124450000Y-100050000D02*
X123740000Y-100760000D01*
X150470000Y-118210000D02*
X150490000Y-118230000D01*
X160980000Y-80620000D02*
X154390000Y-80620000D01*
X163620000Y-76280000D02*
X164210000Y-75690000D01*
X125290000Y-128980000D02*
X126550000Y-130240000D01*
X165840000Y-75690000D02*
X166250000Y-75690000D01*
X162210000Y-80620000D02*
X163620000Y-79210000D01*
X154390000Y-80620000D02*
X154390000Y-78080000D01*
X138200000Y-123800000D02*
X139150000Y-123800000D01*
X122900000Y-96030000D02*
X124450000Y-97580000D01*
X128980000Y-134030000D02*
X131640000Y-134030000D01*
X164210000Y-75690000D02*
X165840000Y-75690000D01*
X117000000Y-115850000D02*
X122197677Y-121047677D01*
X124450000Y-97580000D02*
X124450000Y-100050000D01*
X149070000Y-124580000D02*
X150490000Y-124580000D01*
X126550000Y-131600000D02*
X128980000Y-134030000D01*
X157930000Y-112790000D02*
X157230000Y-113490000D01*
X150490000Y-118230000D02*
X151315000Y-117405000D01*
X166250000Y-75690000D02*
X168050000Y-73890000D01*
X150180000Y-62880000D02*
X154390000Y-67090000D01*
X150640000Y-111830000D02*
X150640000Y-110710000D01*
X141300000Y-126450000D02*
X141750000Y-126900000D01*
D25*
X151315000Y-117405000D02*
X151370000Y-117460000D01*
X151460000Y-109830000D02*
X157500000Y-109830000D01*
D23*
X157930000Y-110290000D02*
X157930000Y-112790000D01*
X141050000Y-123800000D02*
X141300000Y-124050000D01*
X153840000Y-136370000D02*
X165090000Y-136370000D01*
X141750000Y-126900000D02*
X146750000Y-126900000D01*
X155495000Y-117405000D02*
X156500000Y-116400000D01*
D24*
X155410000Y-117490000D02*
X155495000Y-117405000D01*
D23*
X122197677Y-121047677D02*
X123740000Y-121047677D01*
X160980000Y-80620000D02*
X162210000Y-80620000D01*
X119390000Y-128980000D02*
X125290000Y-128980000D01*
X168050000Y-73890000D02*
X168050000Y-69650000D01*
X156500000Y-116400000D02*
X156500000Y-115900000D01*
X146750000Y-126900000D02*
X149070000Y-124580000D01*
X126550000Y-130240000D02*
X126550000Y-131600000D01*
X141300000Y-124050000D02*
X141300000Y-126450000D01*
X163620000Y-79210000D02*
X163620000Y-76280000D01*
X112290000Y-102500000D02*
X113290000Y-103500000D01*
X139150000Y-123800000D02*
X141050000Y-123800000D01*
D24*
X156500000Y-115693228D02*
X156521614Y-115671614D01*
D23*
X123740000Y-100760000D02*
X123740000Y-103530000D01*
X168050000Y-69650000D02*
X165840000Y-67440000D01*
X150640000Y-110710000D02*
X151475000Y-109875000D01*
D24*
X157515000Y-109875000D02*
X157555000Y-109915000D01*
D23*
X146090000Y-62880000D02*
X150180000Y-62880000D01*
D24*
X123740000Y-103530000D02*
X113320000Y-103530000D01*
D23*
X135420000Y-134030000D02*
X137300000Y-132150000D01*
X150490000Y-133020000D02*
X153840000Y-136370000D01*
X165840000Y-63590000D02*
X165840000Y-66130000D01*
X112290000Y-96290000D02*
X112290000Y-102500000D01*
X113290000Y-115850000D02*
X117000000Y-115850000D01*
X147380000Y-118230000D02*
X147400000Y-118210000D01*
D24*
X113320000Y-103530000D02*
X113290000Y-103500000D01*
D23*
X165840000Y-67440000D02*
X165840000Y-66130000D01*
X165090000Y-136370000D02*
X165540000Y-135920000D01*
X125290000Y-128980000D02*
X125290000Y-122597677D01*
X150490000Y-124580000D02*
X150490000Y-133020000D01*
X137300000Y-132150000D02*
X137300000Y-124700000D01*
X125290000Y-122597677D02*
X123740000Y-121047677D01*
X131640000Y-134030000D02*
X135420000Y-134030000D01*
X147400000Y-118210000D02*
X150470000Y-118210000D01*
X113290000Y-131490000D02*
X116880000Y-131490000D01*
X137300000Y-124700000D02*
X138200000Y-123800000D01*
X157555000Y-109915000D02*
X157930000Y-110290000D01*
D24*
X151315000Y-117405000D02*
X151400000Y-117490000D01*
D25*
X155440000Y-117460000D02*
X155495000Y-117405000D01*
D23*
X154390000Y-67090000D02*
X154390000Y-78080000D01*
D25*
X151370000Y-117460000D02*
X155440000Y-117460000D01*
D23*
X135930000Y-62880000D02*
X146090000Y-62880000D01*
D24*
X156500000Y-115900000D02*
X156500000Y-115693228D01*
D23*
X116880000Y-131490000D02*
X119390000Y-128980000D01*
D26*
X150640000Y-107560000D02*
X146370000Y-111830000D01*
X150640000Y-105230000D02*
X150640000Y-107560000D01*
X146370000Y-111830000D02*
X145900000Y-111830000D01*
X143020000Y-111830000D02*
X145900000Y-111830000D01*
D24*
X165640000Y-113910000D02*
X165640000Y-109910000D01*
X164685000Y-114865000D02*
X165640000Y-113910000D01*
X142870000Y-118230000D02*
X145870000Y-118230000D01*
X149235000Y-114865000D02*
X164685000Y-114865000D01*
X145870000Y-118230000D02*
X149235000Y-114865000D01*
X165640000Y-107370000D02*
X165640000Y-109910000D01*
X165640000Y-119360000D02*
X165640000Y-121900000D01*
X147020000Y-124580000D02*
X151565000Y-120035000D01*
X144750000Y-122300000D02*
X144600000Y-122450000D01*
X156215000Y-120035000D02*
X156650000Y-119600000D01*
X163800000Y-117950000D02*
X163800000Y-118850000D01*
X156650000Y-117800000D02*
X157150000Y-117300000D01*
X144750000Y-119050000D02*
X144750000Y-122300000D01*
X142870000Y-124580000D02*
X147020000Y-124580000D01*
X157150000Y-117300000D02*
X163150000Y-117300000D01*
X163150000Y-117300000D02*
X163800000Y-117950000D01*
X151565000Y-120035000D02*
X156215000Y-120035000D01*
X144600000Y-122450000D02*
X143150000Y-122450000D01*
X143150000Y-122450000D02*
X142870000Y-122730000D01*
X163800000Y-118850000D02*
X164310000Y-119360000D01*
X142870000Y-122730000D02*
X142870000Y-124580000D01*
X156650000Y-119600000D02*
X156650000Y-117800000D01*
X164310000Y-119360000D02*
X165640000Y-119360000D01*
D23*
X111100000Y-137000000D02*
X125000000Y-137000000D01*
X110600000Y-129900000D02*
X110600000Y-136500000D01*
X125290000Y-136710000D02*
X125290000Y-133980000D01*
X113290000Y-128950000D02*
X111550000Y-128950000D01*
X111550000Y-128950000D02*
X110600000Y-129900000D01*
X110600000Y-136500000D02*
X111100000Y-137000000D01*
X125000000Y-137000000D02*
X125290000Y-136710000D01*
D24*
X122900000Y-88410000D02*
X125440000Y-88410000D01*
X140170000Y-75750000D02*
X141010000Y-74910000D01*
X141010000Y-74910000D02*
X141010000Y-67960000D01*
X124340000Y-78550000D02*
X124530000Y-78740000D01*
X124530000Y-78740000D02*
X127810000Y-78740000D01*
X127810000Y-78740000D02*
X130800000Y-75750000D01*
X130800000Y-75750000D02*
X140170000Y-75750000D01*
X124340000Y-77350000D02*
X124340000Y-78550000D01*
X165450000Y-87050000D02*
X165840000Y-86660000D01*
X161800000Y-82100000D02*
X161800000Y-86150000D01*
X158950000Y-71450000D02*
X160550000Y-73050000D01*
X165840000Y-86660000D02*
X165840000Y-85850000D01*
X160550000Y-73050000D02*
X160550000Y-78800000D01*
X161800000Y-86150000D02*
X162700000Y-87050000D01*
X165650000Y-86040000D02*
X165840000Y-85850000D01*
X162700000Y-87050000D02*
X165450000Y-87050000D01*
X166700000Y-116820000D02*
X168890000Y-114630000D01*
X165640000Y-116820000D02*
X166700000Y-116820000D01*
X168890000Y-62390000D02*
X167550000Y-61050000D01*
X168890000Y-114630000D02*
X168890000Y-62390000D01*
X167550000Y-61050000D02*
X165840000Y-61050000D01*
D23*
X145350000Y-85400000D02*
X147700000Y-85400000D01*
X147700000Y-85400000D02*
X149940000Y-83160000D01*
X149940000Y-83160000D02*
X154390000Y-83160000D01*
D24*
X160870000Y-103480000D02*
X154390000Y-103480000D01*
X166020000Y-80950000D02*
X167000000Y-80950000D01*
X166835000Y-97215000D02*
X164235000Y-97215000D01*
X167000000Y-80950000D02*
X167400000Y-81350000D01*
X167400000Y-81350000D02*
X167400000Y-96650000D01*
X163600000Y-97850000D02*
X163600000Y-100750000D01*
X167400000Y-96650000D02*
X166835000Y-97215000D01*
X165840000Y-80770000D02*
X166020000Y-80950000D01*
X163600000Y-100750000D02*
X160870000Y-103480000D01*
X164235000Y-97215000D02*
X163600000Y-97850000D01*
X145550000Y-116900000D02*
X142150000Y-116900000D01*
X140500000Y-114150000D02*
X139990000Y-113640000D01*
X140500000Y-115250000D02*
X140500000Y-114150000D01*
X148400000Y-114050000D02*
X145550000Y-116900000D01*
X151500000Y-114050000D02*
X148400000Y-114050000D01*
X139990000Y-113640000D02*
X139150000Y-113640000D01*
X142150000Y-116900000D02*
X140500000Y-115250000D01*
X139150000Y-111100000D02*
X135400000Y-111100000D01*
X134950000Y-111550000D02*
X134950000Y-131850000D01*
X163100000Y-129050000D02*
X163850000Y-128300000D01*
X134950000Y-131850000D02*
X135050000Y-131950000D01*
X160250000Y-135245000D02*
X163100000Y-132395000D01*
X163100000Y-132395000D02*
X163100000Y-129050000D01*
X135400000Y-111100000D02*
X134950000Y-111550000D01*
X163850000Y-128300000D02*
X165540000Y-128300000D01*
D23*
X110120000Y-77020000D02*
X112290000Y-77020000D01*
X109400000Y-76300000D02*
X110120000Y-77020000D01*
X111050000Y-62500000D02*
X109400000Y-64150000D01*
X109400000Y-64150000D02*
X109400000Y-76300000D01*
X112290000Y-62500000D02*
X111050000Y-62500000D01*
X118055000Y-80365000D02*
X112290000Y-86130000D01*
X133275000Y-80365000D02*
X118055000Y-80365000D01*
X133570000Y-80660000D02*
X133275000Y-80365000D01*
X135200000Y-63610000D02*
X135930000Y-62880000D01*
X135200000Y-66950000D02*
X135200000Y-63610000D01*
X136210000Y-67960000D02*
X135200000Y-66950000D01*
X138470000Y-67960000D02*
X136210000Y-67960000D01*
D24*
X165840000Y-59890000D02*
X165840000Y-61050000D01*
X165800000Y-59850000D02*
X165840000Y-59890000D01*
X165800000Y-59650000D02*
X165800000Y-59850000D01*
X125630000Y-61270000D02*
X128300000Y-58600000D01*
X128300000Y-58600000D02*
X164750000Y-58600000D01*
X164750000Y-58600000D02*
X165800000Y-59650000D01*
X125630000Y-63910000D02*
X125630000Y-61270000D01*
D26*
X165690000Y-100560000D02*
X165690000Y-98440000D01*
X161430000Y-104820000D02*
X165690000Y-100560000D01*
X151050000Y-104820000D02*
X161430000Y-104820000D01*
X150640000Y-105230000D02*
X151050000Y-104820000D01*
D23*
X125600000Y-84640000D02*
X125600000Y-82310000D01*
D24*
X124410000Y-84670000D02*
X124330000Y-84590000D01*
X124330000Y-82310000D02*
X124340000Y-82300000D01*
X124330000Y-84590000D02*
X124330000Y-82310000D01*
X123070000Y-84610000D02*
X123070000Y-82300000D01*
X123140000Y-84680000D02*
X123070000Y-84610000D01*
X128600000Y-93750000D02*
X136650000Y-85700000D01*
X136650000Y-85700000D02*
X139150000Y-85700000D01*
X112290000Y-93750000D02*
X128600000Y-93750000D01*
X136340000Y-83160000D02*
X139150000Y-83160000D01*
X132950000Y-86550000D02*
X136340000Y-83160000D01*
X112290000Y-91210000D02*
X116950000Y-86550000D01*
X116950000Y-86550000D02*
X132950000Y-86550000D01*
D23*
X133647702Y-87747702D02*
X135200000Y-86195404D01*
X135200000Y-86195404D02*
X135200000Y-85650000D01*
D24*
X131050000Y-74150000D02*
X131750000Y-74850000D01*
X123090000Y-73540000D02*
X123700000Y-74150000D01*
X123700000Y-74150000D02*
X131050000Y-74150000D01*
X123090000Y-71530000D02*
X123090000Y-73540000D01*
X136630000Y-80620000D02*
X139150000Y-80620000D01*
X131750000Y-85500000D02*
X136630000Y-80620000D01*
X115460000Y-85500000D02*
X131750000Y-85500000D01*
X112290000Y-88670000D02*
X115460000Y-85500000D01*
D23*
X144800000Y-97050000D02*
X144750000Y-97000000D01*
%TA.AperFunction,Conductor*%
G36*
X153093805Y-115510185D02*
G01*
X153139560Y-115562989D01*
X153149504Y-115632147D01*
X153139148Y-115666905D01*
X153116097Y-115716335D01*
X153116094Y-115716344D01*
X153054938Y-115944586D01*
X153054936Y-115944596D01*
X153034341Y-116179999D01*
X153034341Y-116180000D01*
X153054936Y-116415403D01*
X153054938Y-116415413D01*
X153116094Y-116643655D01*
X153116096Y-116643659D01*
X153116097Y-116643663D01*
X153195593Y-116814142D01*
X153215965Y-116857830D01*
X153215967Y-116857834D01*
X153351501Y-117051395D01*
X153351506Y-117051402D01*
X153518597Y-117218493D01*
X153518603Y-117218498D01*
X153704158Y-117348425D01*
X153747783Y-117403002D01*
X153754977Y-117472500D01*
X153723454Y-117534855D01*
X153704158Y-117551575D01*
X153518597Y-117681505D01*
X153351505Y-117848597D01*
X153215965Y-118042169D01*
X153215964Y-118042171D01*
X153116098Y-118256335D01*
X153116094Y-118256344D01*
X153054938Y-118484586D01*
X153054936Y-118484596D01*
X153034341Y-118719999D01*
X153034341Y-118720000D01*
X153054936Y-118955403D01*
X153054938Y-118955413D01*
X153116094Y-119183655D01*
X153116097Y-119183664D01*
X153128315Y-119209865D01*
X153137726Y-119230047D01*
X153139148Y-119233095D01*
X153149640Y-119302172D01*
X153121121Y-119365956D01*
X153062644Y-119404196D01*
X153026766Y-119409500D01*
X151632741Y-119409500D01*
X151632721Y-119409499D01*
X151626607Y-119409499D01*
X151503394Y-119409499D01*
X151402597Y-119429548D01*
X151402592Y-119429548D01*
X151382549Y-119433536D01*
X151339271Y-119451463D01*
X151339270Y-119451463D01*
X151268721Y-119480684D01*
X151268708Y-119480691D01*
X151166267Y-119549141D01*
X151166263Y-119549144D01*
X146797229Y-123918181D01*
X146735906Y-123951666D01*
X146709548Y-123954500D01*
X144084188Y-123954500D01*
X144017149Y-123934815D01*
X143982613Y-123901623D01*
X143870045Y-123740858D01*
X143709140Y-123579953D01*
X143548377Y-123467386D01*
X143504752Y-123412809D01*
X143495500Y-123365811D01*
X143495500Y-123199500D01*
X143515185Y-123132461D01*
X143567989Y-123086706D01*
X143619500Y-123075500D01*
X144661607Y-123075500D01*
X144722029Y-123063481D01*
X144782452Y-123051463D01*
X144782455Y-123051461D01*
X144782458Y-123051461D01*
X144815787Y-123037654D01*
X144815786Y-123037654D01*
X144815792Y-123037652D01*
X144896286Y-123004312D01*
X144947509Y-122970084D01*
X144998733Y-122935858D01*
X145085858Y-122848733D01*
X145085859Y-122848731D01*
X145092925Y-122841665D01*
X145092928Y-122841661D01*
X145148729Y-122785860D01*
X145148733Y-122785858D01*
X145235858Y-122698733D01*
X145280146Y-122632452D01*
X145304312Y-122596286D01*
X145351463Y-122482451D01*
X145359044Y-122444341D01*
X145361094Y-122434034D01*
X145371245Y-122383000D01*
X145375091Y-122363663D01*
X145375500Y-122361607D01*
X145375500Y-122238393D01*
X145375500Y-119594854D01*
X145394507Y-119528881D01*
X145402832Y-119515633D01*
X145456922Y-119429549D01*
X145475788Y-119399524D01*
X145475789Y-119399522D01*
X145535368Y-119229255D01*
X145535369Y-119229249D01*
X145555565Y-119050003D01*
X145555565Y-119049997D01*
X145549186Y-118993384D01*
X145561240Y-118924562D01*
X145608589Y-118873183D01*
X145672406Y-118855500D01*
X145931607Y-118855500D01*
X145992029Y-118843481D01*
X146052452Y-118831463D01*
X146052455Y-118831461D01*
X146052458Y-118831461D01*
X146085787Y-118817654D01*
X146085786Y-118817654D01*
X146085792Y-118817652D01*
X146166286Y-118784312D01*
X146240833Y-118734500D01*
X146268733Y-118715858D01*
X146355858Y-118628733D01*
X146355858Y-118628731D01*
X146366066Y-118618524D01*
X146366067Y-118618521D01*
X149457772Y-115526819D01*
X149519095Y-115493334D01*
X149545453Y-115490500D01*
X153026766Y-115490500D01*
X153093805Y-115510185D01*
G37*
%TD.AperFunction*%
%TA.AperFunction,Conductor*%
G36*
X164343065Y-115510185D02*
G01*
X164388820Y-115562989D01*
X164398764Y-115632147D01*
X164375293Y-115688811D01*
X164346204Y-115727668D01*
X164346202Y-115727671D01*
X164295908Y-115862517D01*
X164289501Y-115922116D01*
X164289500Y-115922135D01*
X164289500Y-117255548D01*
X164269815Y-117322587D01*
X164217011Y-117368342D01*
X164147853Y-117378286D01*
X164084297Y-117349261D01*
X164077819Y-117343229D01*
X163640198Y-116905608D01*
X163640178Y-116905586D01*
X163548736Y-116814144D01*
X163548732Y-116814141D01*
X163481675Y-116769335D01*
X163456373Y-116752428D01*
X163446285Y-116745687D01*
X163406039Y-116729017D01*
X163365792Y-116712347D01*
X163332452Y-116698537D01*
X163332448Y-116698536D01*
X163332444Y-116698535D01*
X163266701Y-116685458D01*
X163266700Y-116685458D01*
X163211611Y-116674500D01*
X163211607Y-116674500D01*
X163211606Y-116674500D01*
X157211607Y-116674500D01*
X157088393Y-116674500D01*
X157033298Y-116685459D01*
X157033297Y-116685458D01*
X156967555Y-116698535D01*
X156967541Y-116698539D01*
X156933207Y-116712761D01*
X156853715Y-116745686D01*
X156843627Y-116752428D01*
X156843626Y-116752429D01*
X156751268Y-116814140D01*
X156711054Y-116854355D01*
X156664142Y-116901267D01*
X156664139Y-116901270D01*
X156251270Y-117314139D01*
X156251267Y-117314142D01*
X156224051Y-117341358D01*
X156164142Y-117401266D01*
X156134189Y-117446095D01*
X156134188Y-117446096D01*
X156095690Y-117503709D01*
X156095690Y-117503710D01*
X156095688Y-117503712D01*
X156095688Y-117503714D01*
X156071718Y-117561583D01*
X156048538Y-117617544D01*
X156048535Y-117617556D01*
X156024500Y-117738389D01*
X156024500Y-119285500D01*
X156004815Y-119352539D01*
X155952011Y-119398294D01*
X155900500Y-119409500D01*
X155753234Y-119409500D01*
X155686195Y-119389815D01*
X155640440Y-119337011D01*
X155630496Y-119267853D01*
X155640852Y-119233095D01*
X155663903Y-119183663D01*
X155725063Y-118955408D01*
X155745659Y-118720000D01*
X155725063Y-118484592D01*
X155663903Y-118256337D01*
X155564035Y-118042171D01*
X155553796Y-118027547D01*
X155428494Y-117848597D01*
X155261402Y-117681506D01*
X155261396Y-117681501D01*
X155075842Y-117551575D01*
X155032217Y-117496998D01*
X155025023Y-117427500D01*
X155056546Y-117365145D01*
X155075842Y-117348425D01*
X155171115Y-117281714D01*
X155261401Y-117218495D01*
X155428495Y-117051401D01*
X155564035Y-116857830D01*
X155663903Y-116643663D01*
X155725063Y-116415408D01*
X155745659Y-116180000D01*
X155725063Y-115944592D01*
X155663903Y-115716337D01*
X155640851Y-115666904D01*
X155630360Y-115597828D01*
X155658879Y-115534044D01*
X155717356Y-115495804D01*
X155753234Y-115490500D01*
X164276026Y-115490500D01*
X164343065Y-115510185D01*
G37*
%TD.AperFunction*%
%TA.AperFunction,Conductor*%
G36*
X149435347Y-92800185D02*
G01*
X149469880Y-92833374D01*
X149555480Y-92955624D01*
X149599954Y-93019141D01*
X149760858Y-93180045D01*
X149760861Y-93180047D01*
X149947266Y-93310568D01*
X150153504Y-93406739D01*
X150373308Y-93465635D01*
X150535230Y-93479801D01*
X150599998Y-93485468D01*
X150600000Y-93485468D01*
X150600002Y-93485468D01*
X150656673Y-93480509D01*
X150826692Y-93465635D01*
X150922932Y-93439847D01*
X150992781Y-93441510D01*
X151042706Y-93471941D01*
X152535139Y-94964374D01*
X152535149Y-94964385D01*
X152539479Y-94968715D01*
X152539480Y-94968716D01*
X152651284Y-95080520D01*
X152736121Y-95129500D01*
X152788215Y-95159577D01*
X152940943Y-95200501D01*
X152940946Y-95200501D01*
X153012776Y-95200501D01*
X153079815Y-95220186D01*
X153125570Y-95272990D01*
X153135514Y-95342148D01*
X153125158Y-95376905D01*
X153124990Y-95377266D01*
X153116098Y-95396335D01*
X153116094Y-95396344D01*
X153054938Y-95624586D01*
X153054936Y-95624596D01*
X153034341Y-95859999D01*
X153034341Y-95860000D01*
X153054936Y-96095403D01*
X153054938Y-96095413D01*
X153116094Y-96323655D01*
X153116096Y-96323659D01*
X153116097Y-96323663D01*
X153187365Y-96476497D01*
X153215965Y-96537830D01*
X153215967Y-96537834D01*
X153351501Y-96731395D01*
X153351506Y-96731402D01*
X153518597Y-96898493D01*
X153518603Y-96898498D01*
X153704158Y-97028425D01*
X153747783Y-97083002D01*
X153754977Y-97152500D01*
X153723454Y-97214855D01*
X153704158Y-97231575D01*
X153518597Y-97361505D01*
X153351505Y-97528597D01*
X153215965Y-97722169D01*
X153215964Y-97722171D01*
X153116098Y-97936335D01*
X153116094Y-97936344D01*
X153054938Y-98164586D01*
X153054936Y-98164596D01*
X153034341Y-98399999D01*
X153034341Y-98400000D01*
X153054936Y-98635403D01*
X153054938Y-98635413D01*
X153116094Y-98863655D01*
X153116096Y-98863659D01*
X153116097Y-98863663D01*
X153134750Y-98903664D01*
X153215965Y-99077830D01*
X153215967Y-99077834D01*
X153351501Y-99271395D01*
X153351506Y-99271402D01*
X153518597Y-99438493D01*
X153518603Y-99438498D01*
X153704158Y-99568425D01*
X153747783Y-99623002D01*
X153754977Y-99692500D01*
X153723454Y-99754855D01*
X153704158Y-99771575D01*
X153518597Y-99901505D01*
X153351505Y-100068597D01*
X153215965Y-100262169D01*
X153215964Y-100262171D01*
X153116098Y-100476335D01*
X153116094Y-100476344D01*
X153054938Y-100704586D01*
X153054936Y-100704596D01*
X153034341Y-100939999D01*
X153034341Y-100940000D01*
X153054936Y-101175403D01*
X153054938Y-101175413D01*
X153116094Y-101403655D01*
X153116096Y-101403659D01*
X153116097Y-101403663D01*
X153215965Y-101617830D01*
X153215967Y-101617834D01*
X153351501Y-101811395D01*
X153351506Y-101811402D01*
X153518597Y-101978493D01*
X153518603Y-101978498D01*
X153704158Y-102108425D01*
X153747783Y-102163002D01*
X153754977Y-102232500D01*
X153723454Y-102294855D01*
X153704158Y-102311575D01*
X153518597Y-102441505D01*
X153351505Y-102608597D01*
X153215965Y-102802169D01*
X153215964Y-102802171D01*
X153116098Y-103016335D01*
X153116094Y-103016344D01*
X153054938Y-103244586D01*
X153054936Y-103244596D01*
X153034341Y-103479999D01*
X153034341Y-103480000D01*
X153054936Y-103715403D01*
X153054938Y-103715413D01*
X153116094Y-103943655D01*
X153116096Y-103943659D01*
X153116097Y-103943663D01*
X153148549Y-104013257D01*
X153162463Y-104043095D01*
X153172955Y-104112173D01*
X153144435Y-104175957D01*
X153085959Y-104214196D01*
X153050081Y-104219500D01*
X151503306Y-104219500D01*
X151436267Y-104199815D01*
X151432196Y-104197084D01*
X151292734Y-104099432D01*
X151279972Y-104093481D01*
X151086497Y-104003261D01*
X151086488Y-104003258D01*
X150866697Y-103944366D01*
X150866693Y-103944365D01*
X150866692Y-103944365D01*
X150866691Y-103944364D01*
X150866686Y-103944364D01*
X150640002Y-103924532D01*
X150639998Y-103924532D01*
X150413313Y-103944364D01*
X150413302Y-103944366D01*
X150193511Y-104003258D01*
X150193502Y-104003261D01*
X149987267Y-104099431D01*
X149987265Y-104099432D01*
X149800858Y-104229954D01*
X149639954Y-104390858D01*
X149509432Y-104577265D01*
X149509431Y-104577267D01*
X149413261Y-104783502D01*
X149413258Y-104783511D01*
X149354366Y-105003302D01*
X149354364Y-105003313D01*
X149334532Y-105229998D01*
X149334532Y-105230001D01*
X149354364Y-105456686D01*
X149354366Y-105456697D01*
X149413258Y-105676488D01*
X149413261Y-105676497D01*
X149509431Y-105882732D01*
X149509432Y-105882734D01*
X149639954Y-106069141D01*
X149800858Y-106230045D01*
X149800861Y-106230047D01*
X149986624Y-106360118D01*
X150030248Y-106414693D01*
X150039500Y-106461692D01*
X150039500Y-107259903D01*
X150019815Y-107326942D01*
X150003181Y-107347584D01*
X146157584Y-111193181D01*
X146096261Y-111226666D01*
X146069903Y-111229500D01*
X144251692Y-111229500D01*
X144184653Y-111209815D01*
X144150119Y-111176625D01*
X144020047Y-110990861D01*
X144020045Y-110990858D01*
X143859141Y-110829954D01*
X143672734Y-110699432D01*
X143672732Y-110699431D01*
X143466497Y-110603261D01*
X143466488Y-110603258D01*
X143246697Y-110544366D01*
X143246693Y-110544365D01*
X143246692Y-110544365D01*
X143246691Y-110544364D01*
X143246686Y-110544364D01*
X143020002Y-110524532D01*
X143019998Y-110524532D01*
X142793313Y-110544364D01*
X142793302Y-110544366D01*
X142573511Y-110603258D01*
X142573502Y-110603261D01*
X142367267Y-110699431D01*
X142367265Y-110699432D01*
X142180858Y-110829954D01*
X142019954Y-110990858D01*
X141889432Y-111177265D01*
X141889431Y-111177267D01*
X141793261Y-111383502D01*
X141793258Y-111383511D01*
X141734366Y-111603302D01*
X141734364Y-111603313D01*
X141714532Y-111829998D01*
X141714532Y-111830001D01*
X141734364Y-112056686D01*
X141734366Y-112056697D01*
X141793258Y-112276488D01*
X141793261Y-112276497D01*
X141889431Y-112482732D01*
X141889432Y-112482734D01*
X142019954Y-112669141D01*
X142180858Y-112830045D01*
X142180861Y-112830047D01*
X142367266Y-112960568D01*
X142573504Y-113056739D01*
X142793308Y-113115635D01*
X142955230Y-113129801D01*
X143019998Y-113135468D01*
X143020000Y-113135468D01*
X143020002Y-113135468D01*
X143076673Y-113130509D01*
X143246692Y-113115635D01*
X143466496Y-113056739D01*
X143672734Y-112960568D01*
X143859139Y-112830047D01*
X144020047Y-112669139D01*
X144150118Y-112483375D01*
X144204693Y-112439752D01*
X144251692Y-112430500D01*
X145820943Y-112430500D01*
X146283331Y-112430500D01*
X146283347Y-112430501D01*
X146290943Y-112430501D01*
X146449054Y-112430501D01*
X146449057Y-112430501D01*
X146601785Y-112389577D01*
X146651904Y-112360639D01*
X146738716Y-112310520D01*
X146850520Y-112198716D01*
X146850520Y-112198714D01*
X146860728Y-112188507D01*
X146860730Y-112188504D01*
X150998506Y-108050728D01*
X150998511Y-108050724D01*
X151008714Y-108040520D01*
X151008716Y-108040520D01*
X151120520Y-107928716D01*
X151175398Y-107833663D01*
X151199577Y-107791785D01*
X151240501Y-107639057D01*
X151240501Y-107480943D01*
X151240501Y-107473348D01*
X151240500Y-107473330D01*
X151240500Y-106461692D01*
X151260185Y-106394653D01*
X151293374Y-106360119D01*
X151479139Y-106230047D01*
X151640047Y-106069139D01*
X151770568Y-105882734D01*
X151866739Y-105676496D01*
X151910706Y-105512406D01*
X151947071Y-105452746D01*
X152009917Y-105422217D01*
X152030481Y-105420500D01*
X152990894Y-105420500D01*
X153057933Y-105440185D01*
X153103688Y-105492989D01*
X153113632Y-105562147D01*
X153110669Y-105576593D01*
X153054938Y-105784586D01*
X153054936Y-105784596D01*
X153034341Y-106019999D01*
X153034341Y-106020000D01*
X153054936Y-106255403D01*
X153054938Y-106255413D01*
X153116094Y-106483655D01*
X153116096Y-106483659D01*
X153116097Y-106483663D01*
X153213325Y-106692169D01*
X153215965Y-106697830D01*
X153215967Y-106697834D01*
X153351501Y-106891395D01*
X153351506Y-106891402D01*
X153518597Y-107058493D01*
X153518603Y-107058498D01*
X153704158Y-107188425D01*
X153747783Y-107243002D01*
X153754977Y-107312500D01*
X153723454Y-107374855D01*
X153704158Y-107391575D01*
X153518597Y-107521505D01*
X153351505Y-107688597D01*
X153215965Y-107882169D01*
X153215964Y-107882171D01*
X153116098Y-108096335D01*
X153116094Y-108096344D01*
X153054938Y-108324586D01*
X153054936Y-108324596D01*
X153034341Y-108559999D01*
X153034341Y-108560000D01*
X153054936Y-108795403D01*
X153054938Y-108795413D01*
X153116094Y-109023655D01*
X153116096Y-109023659D01*
X153116097Y-109023663D01*
X153196032Y-109195084D01*
X153215965Y-109237830D01*
X153215967Y-109237834D01*
X153351501Y-109431395D01*
X153351506Y-109431402D01*
X153518597Y-109598493D01*
X153518603Y-109598498D01*
X153704158Y-109728425D01*
X153747783Y-109783002D01*
X153754977Y-109852500D01*
X153723454Y-109914855D01*
X153704158Y-109931575D01*
X153518597Y-110061505D01*
X153351505Y-110228597D01*
X153215965Y-110422169D01*
X153215964Y-110422171D01*
X153116098Y-110636335D01*
X153116094Y-110636344D01*
X153054938Y-110864586D01*
X153054936Y-110864596D01*
X153034341Y-111099999D01*
X153034341Y-111100000D01*
X153054936Y-111335403D01*
X153054938Y-111335413D01*
X153116094Y-111563655D01*
X153116096Y-111563659D01*
X153116097Y-111563663D01*
X153191563Y-111725500D01*
X153215965Y-111777830D01*
X153215967Y-111777834D01*
X153324281Y-111932521D01*
X153351501Y-111971396D01*
X153351506Y-111971402D01*
X153518597Y-112138493D01*
X153518603Y-112138498D01*
X153704158Y-112268425D01*
X153747783Y-112323002D01*
X153754977Y-112392500D01*
X153723454Y-112454855D01*
X153704158Y-112471575D01*
X153518597Y-112601505D01*
X153351505Y-112768597D01*
X153215965Y-112962169D01*
X153215964Y-112962171D01*
X153116098Y-113176335D01*
X153116094Y-113176344D01*
X153054938Y-113404586D01*
X153054936Y-113404596D01*
X153034341Y-113639999D01*
X153034341Y-113640000D01*
X153054936Y-113875403D01*
X153054938Y-113875413D01*
X153110669Y-114083407D01*
X153109006Y-114153257D01*
X153069843Y-114211119D01*
X153005614Y-114238623D01*
X152990894Y-114239500D01*
X152422970Y-114239500D01*
X152355931Y-114219815D01*
X152310176Y-114167011D01*
X152299750Y-114101617D01*
X152305565Y-114050004D01*
X152305565Y-114049996D01*
X152285369Y-113870750D01*
X152285368Y-113870745D01*
X152275980Y-113843917D01*
X152225789Y-113700478D01*
X152129816Y-113547738D01*
X152002262Y-113420184D01*
X151977454Y-113404596D01*
X151849523Y-113324211D01*
X151679254Y-113264631D01*
X151679249Y-113264630D01*
X151500004Y-113244435D01*
X151499996Y-113244435D01*
X151320750Y-113264630D01*
X151320745Y-113264631D01*
X151150476Y-113324211D01*
X151021117Y-113405494D01*
X150955145Y-113424500D01*
X148467741Y-113424500D01*
X148467721Y-113424499D01*
X148461607Y-113424499D01*
X148338394Y-113424499D01*
X148237597Y-113444548D01*
X148237592Y-113444548D01*
X148217549Y-113448536D01*
X148217547Y-113448536D01*
X148170397Y-113468067D01*
X148103719Y-113495685D01*
X148103717Y-113495686D01*
X148001266Y-113564141D01*
X148001263Y-113564144D01*
X145327229Y-116238181D01*
X145265906Y-116271666D01*
X145239548Y-116274500D01*
X142460453Y-116274500D01*
X142393414Y-116254815D01*
X142372772Y-116238181D01*
X141161819Y-115027228D01*
X141128334Y-114965905D01*
X141125500Y-114939547D01*
X141125500Y-114088396D01*
X141124508Y-114083407D01*
X141101463Y-113967548D01*
X141101461Y-113967543D01*
X141081962Y-113920468D01*
X141081947Y-113920435D01*
X141081932Y-113920397D01*
X141054312Y-113853715D01*
X141054310Y-113853712D01*
X141054309Y-113853709D01*
X141033423Y-113822452D01*
X141033422Y-113822451D01*
X140985858Y-113751267D01*
X140985855Y-113751263D01*
X140895637Y-113661045D01*
X140895606Y-113661016D01*
X140480198Y-113245608D01*
X140480178Y-113245586D01*
X140450700Y-113216108D01*
X140425999Y-113180832D01*
X140324035Y-112962171D01*
X140324034Y-112962169D01*
X140188494Y-112768597D01*
X140021402Y-112601506D01*
X140021396Y-112601501D01*
X139835842Y-112471575D01*
X139792217Y-112416998D01*
X139785023Y-112347500D01*
X139816546Y-112285145D01*
X139835842Y-112268425D01*
X139858026Y-112252891D01*
X140021401Y-112138495D01*
X140188495Y-111971401D01*
X140324035Y-111777830D01*
X140423903Y-111563663D01*
X140485063Y-111335408D01*
X140505659Y-111100000D01*
X140502521Y-111064139D01*
X140492404Y-110948495D01*
X140485063Y-110864592D01*
X140423903Y-110636337D01*
X140324035Y-110422171D01*
X140323652Y-110421623D01*
X140188494Y-110228597D01*
X140021402Y-110061506D01*
X140021396Y-110061501D01*
X139835842Y-109931575D01*
X139792217Y-109876998D01*
X139785023Y-109807500D01*
X139816546Y-109745145D01*
X139835842Y-109728425D01*
X139858026Y-109712891D01*
X140021401Y-109598495D01*
X140188495Y-109431401D01*
X140324035Y-109237830D01*
X140423903Y-109023663D01*
X140485063Y-108795408D01*
X140505659Y-108560000D01*
X140485063Y-108324592D01*
X140423903Y-108096337D01*
X140324035Y-107882171D01*
X140319772Y-107876082D01*
X140188494Y-107688597D01*
X140021402Y-107521506D01*
X140021396Y-107521501D01*
X139835842Y-107391575D01*
X139792217Y-107336998D01*
X139785023Y-107267500D01*
X139816546Y-107205145D01*
X139835842Y-107188425D01*
X139866733Y-107166795D01*
X140021401Y-107058495D01*
X140188495Y-106891401D01*
X140324035Y-106697830D01*
X140423903Y-106483663D01*
X140485063Y-106255408D01*
X140505659Y-106020000D01*
X140485063Y-105784592D01*
X140423972Y-105556593D01*
X140425635Y-105486743D01*
X140464798Y-105428881D01*
X140529026Y-105401377D01*
X140543747Y-105400500D01*
X140657770Y-105400500D01*
X140724809Y-105420185D01*
X140745451Y-105436819D01*
X140827048Y-105518416D01*
X141017049Y-105708416D01*
X141121584Y-105812951D01*
X141121587Y-105812953D01*
X141121588Y-105812954D01*
X141244503Y-105895083D01*
X141244506Y-105895085D01*
X141301079Y-105918518D01*
X141301080Y-105918518D01*
X141381088Y-105951659D01*
X141497241Y-105974763D01*
X141516468Y-105978587D01*
X141526081Y-105980500D01*
X141526082Y-105980500D01*
X141526083Y-105980500D01*
X141673918Y-105980500D01*
X141893337Y-105980500D01*
X141960376Y-106000185D01*
X141994912Y-106033377D01*
X142019954Y-106069141D01*
X142180858Y-106230045D01*
X142180861Y-106230047D01*
X142367266Y-106360568D01*
X142573504Y-106456739D01*
X142793308Y-106515635D01*
X142955230Y-106529801D01*
X143019998Y-106535468D01*
X143020000Y-106535468D01*
X143020002Y-106535468D01*
X143076673Y-106530509D01*
X143246692Y-106515635D01*
X143466496Y-106456739D01*
X143672734Y-106360568D01*
X143859139Y-106230047D01*
X144020047Y-106069139D01*
X144150568Y-105882734D01*
X144246739Y-105676496D01*
X144305635Y-105456692D01*
X144325468Y-105230000D01*
X144305635Y-105003308D01*
X144246739Y-104783504D01*
X144150568Y-104577266D01*
X144032338Y-104408414D01*
X144020045Y-104390858D01*
X143859141Y-104229954D01*
X143672734Y-104099432D01*
X143672732Y-104099431D01*
X143466497Y-104003261D01*
X143466488Y-104003258D01*
X143246697Y-103944366D01*
X143246693Y-103944365D01*
X143246692Y-103944365D01*
X143246691Y-103944364D01*
X143246686Y-103944364D01*
X143020002Y-103924532D01*
X143019998Y-103924532D01*
X142793313Y-103944364D01*
X142793302Y-103944366D01*
X142573511Y-104003258D01*
X142573502Y-104003261D01*
X142367267Y-104099431D01*
X142367265Y-104099432D01*
X142180858Y-104229954D01*
X142019950Y-104390862D01*
X142016721Y-104394711D01*
X141958549Y-104433412D01*
X141888688Y-104434518D01*
X141834053Y-104402684D01*
X141598421Y-104167052D01*
X141598417Y-104167049D01*
X141598416Y-104167048D01*
X141475494Y-104084916D01*
X141475492Y-104084915D01*
X141475490Y-104084914D01*
X141338912Y-104028342D01*
X141338906Y-104028340D01*
X141193919Y-103999500D01*
X141193917Y-103999500D01*
X141046083Y-103999500D01*
X141046081Y-103999500D01*
X140901093Y-104028340D01*
X140901087Y-104028342D01*
X140816979Y-104063181D01*
X140772843Y-104081463D01*
X140758879Y-104087247D01*
X140758521Y-104086385D01*
X140706161Y-104099500D01*
X140543747Y-104099500D01*
X140476708Y-104079815D01*
X140430953Y-104027011D01*
X140421009Y-103957853D01*
X140423972Y-103943407D01*
X140447226Y-103856615D01*
X140485063Y-103715408D01*
X140505659Y-103480000D01*
X140485063Y-103244592D01*
X140423903Y-103016337D01*
X140324035Y-102802171D01*
X140323652Y-102801623D01*
X140188494Y-102608597D01*
X140021402Y-102441506D01*
X140021396Y-102441501D01*
X139835842Y-102311575D01*
X139792217Y-102256998D01*
X139785023Y-102187500D01*
X139816546Y-102125145D01*
X139835842Y-102108425D01*
X139858026Y-102092891D01*
X140021401Y-101978495D01*
X140188495Y-101811401D01*
X140324035Y-101617830D01*
X140423903Y-101403663D01*
X140485063Y-101175408D01*
X140505659Y-100940000D01*
X140485063Y-100704592D01*
X140423903Y-100476337D01*
X140324035Y-100262171D01*
X140322447Y-100259902D01*
X140188494Y-100068597D01*
X140021402Y-99901506D01*
X140021396Y-99901501D01*
X139835842Y-99771575D01*
X139792217Y-99716998D01*
X139785023Y-99647500D01*
X139816546Y-99585145D01*
X139835842Y-99568425D01*
X139858026Y-99552891D01*
X140021401Y-99438495D01*
X140188495Y-99271401D01*
X140324035Y-99077830D01*
X140423903Y-98863663D01*
X140485063Y-98635408D01*
X140505659Y-98400000D01*
X140485063Y-98164592D01*
X140423903Y-97936337D01*
X140324035Y-97722171D01*
X140319074Y-97715085D01*
X140188494Y-97528597D01*
X140021402Y-97361506D01*
X140021396Y-97361501D01*
X139835842Y-97231575D01*
X139792217Y-97176998D01*
X139785023Y-97107500D01*
X139816546Y-97045145D01*
X139835842Y-97028425D01*
X139876433Y-97000003D01*
X140021401Y-96898495D01*
X140188495Y-96731401D01*
X140324035Y-96537830D01*
X140423903Y-96323663D01*
X140485063Y-96095408D01*
X140505659Y-95860000D01*
X140485063Y-95624592D01*
X140434621Y-95436337D01*
X140429331Y-95416593D01*
X140430994Y-95346743D01*
X140470157Y-95288881D01*
X140534386Y-95261377D01*
X140549106Y-95260500D01*
X142255500Y-95260500D01*
X142322539Y-95280185D01*
X142368294Y-95332989D01*
X142379500Y-95384500D01*
X142379500Y-97548306D01*
X142359815Y-97615345D01*
X142326623Y-97649881D01*
X142140859Y-97779953D01*
X141979954Y-97940858D01*
X141849432Y-98127265D01*
X141849431Y-98127267D01*
X141753261Y-98333502D01*
X141753258Y-98333511D01*
X141694366Y-98553302D01*
X141694364Y-98553313D01*
X141674532Y-98779998D01*
X141674532Y-98780001D01*
X141694364Y-99006686D01*
X141694366Y-99006697D01*
X141753258Y-99226488D01*
X141753261Y-99226497D01*
X141849431Y-99432732D01*
X141849432Y-99432734D01*
X141979954Y-99619141D01*
X142140858Y-99780045D01*
X142140861Y-99780047D01*
X142327266Y-99910568D01*
X142533504Y-100006739D01*
X142753308Y-100065635D01*
X142915230Y-100079801D01*
X142979998Y-100085468D01*
X142980000Y-100085468D01*
X142980002Y-100085468D01*
X143036673Y-100080509D01*
X143206692Y-100065635D01*
X143426496Y-100006739D01*
X143632734Y-99910568D01*
X143819139Y-99780047D01*
X143980047Y-99619139D01*
X144110568Y-99432734D01*
X144206739Y-99226496D01*
X144265635Y-99006692D01*
X144285468Y-98780000D01*
X144265635Y-98553308D01*
X144206739Y-98333504D01*
X144110568Y-98127266D01*
X143980047Y-97940861D01*
X143980045Y-97940858D01*
X143819140Y-97779953D01*
X143633377Y-97649881D01*
X143589752Y-97595304D01*
X143580500Y-97548306D01*
X143580500Y-96999996D01*
X143944435Y-96999996D01*
X143944435Y-97000003D01*
X143964630Y-97179249D01*
X143964631Y-97179254D01*
X144024211Y-97349523D01*
X144102760Y-97474532D01*
X144120184Y-97502262D01*
X144247738Y-97629816D01*
X144307788Y-97667548D01*
X144394716Y-97722169D01*
X144400478Y-97725789D01*
X144531564Y-97771658D01*
X144570745Y-97785368D01*
X144570750Y-97785369D01*
X144749996Y-97805565D01*
X144750000Y-97805565D01*
X144750002Y-97805565D01*
X144788031Y-97801280D01*
X144801915Y-97800500D01*
X144873919Y-97800500D01*
X144873920Y-97800499D01*
X145018913Y-97771659D01*
X145155495Y-97715084D01*
X145278416Y-97632952D01*
X145382952Y-97528416D01*
X145465084Y-97405495D01*
X145521659Y-97268913D01*
X145550500Y-97123918D01*
X145550500Y-97051914D01*
X145551280Y-97038029D01*
X145552180Y-97030047D01*
X145555565Y-97000000D01*
X145549512Y-96946282D01*
X145535369Y-96820750D01*
X145535368Y-96820745D01*
X145508821Y-96744877D01*
X145475789Y-96650478D01*
X145474478Y-96648392D01*
X145392965Y-96518665D01*
X145379816Y-96497738D01*
X145252262Y-96370184D01*
X145099523Y-96274211D01*
X144929254Y-96214631D01*
X144929249Y-96214630D01*
X144750004Y-96194435D01*
X144749996Y-96194435D01*
X144570750Y-96214630D01*
X144570745Y-96214631D01*
X144400476Y-96274211D01*
X144247737Y-96370184D01*
X144120184Y-96497737D01*
X144024211Y-96650476D01*
X143964631Y-96820745D01*
X143964630Y-96820750D01*
X143944435Y-96999996D01*
X143580500Y-96999996D01*
X143580500Y-95370097D01*
X143600185Y-95303058D01*
X143616819Y-95282416D01*
X146082416Y-92816819D01*
X146143739Y-92783334D01*
X146170097Y-92780500D01*
X149368308Y-92780500D01*
X149435347Y-92800185D01*
G37*
%TD.AperFunction*%
%TA.AperFunction,Conductor*%
G36*
X168181754Y-96652133D02*
G01*
X168238426Y-96692999D01*
X168264007Y-96758018D01*
X168264500Y-96769069D01*
X168264500Y-114319547D01*
X168244815Y-114386586D01*
X168228181Y-114407228D01*
X167022931Y-115612477D01*
X166961608Y-115645962D01*
X166891916Y-115640978D01*
X166855020Y-115617266D01*
X166854645Y-115617768D01*
X166847626Y-115612514D01*
X166847569Y-115612477D01*
X166847544Y-115612452D01*
X166732335Y-115526206D01*
X166732328Y-115526202D01*
X166597482Y-115475908D01*
X166597483Y-115475908D01*
X166537883Y-115469501D01*
X166537881Y-115469500D01*
X166537873Y-115469500D01*
X166537865Y-115469500D01*
X165264453Y-115469500D01*
X165197414Y-115449815D01*
X165151659Y-115397011D01*
X165141715Y-115327853D01*
X165163365Y-115280445D01*
X165160455Y-115278626D01*
X165160460Y-115278618D01*
X165169239Y-115267581D01*
X165170740Y-115264297D01*
X165176772Y-115257819D01*
X165177919Y-115256671D01*
X165177925Y-115256664D01*
X166038729Y-114395860D01*
X166038733Y-114395858D01*
X166125858Y-114308733D01*
X166194311Y-114206286D01*
X166194312Y-114206285D01*
X166194313Y-114206282D01*
X166194315Y-114206279D01*
X166207385Y-114174723D01*
X166241463Y-114092451D01*
X166265500Y-113971607D01*
X166265500Y-113848393D01*
X166265500Y-111185226D01*
X166285185Y-111118187D01*
X166318374Y-111083654D01*
X166511401Y-110948495D01*
X166678495Y-110781401D01*
X166814035Y-110587830D01*
X166913903Y-110373663D01*
X166975063Y-110145408D01*
X166995659Y-109910000D01*
X166993694Y-109887546D01*
X166983833Y-109774828D01*
X166975063Y-109674592D01*
X166913903Y-109446337D01*
X166814035Y-109232171D01*
X166788068Y-109195085D01*
X166678494Y-109038597D01*
X166511402Y-108871506D01*
X166511401Y-108871505D01*
X166402716Y-108795403D01*
X166325839Y-108741573D01*
X166282216Y-108686997D01*
X166275023Y-108617498D01*
X166306545Y-108555144D01*
X166325831Y-108538432D01*
X166511401Y-108408495D01*
X166678495Y-108241401D01*
X166814035Y-108047830D01*
X166913903Y-107833663D01*
X166975063Y-107605408D01*
X166995659Y-107370000D01*
X166975063Y-107134592D01*
X166913903Y-106906337D01*
X166814035Y-106692171D01*
X166690422Y-106515633D01*
X166678496Y-106498600D01*
X166636634Y-106456738D01*
X166556567Y-106376671D01*
X166523084Y-106315351D01*
X166528068Y-106245659D01*
X166569939Y-106189725D01*
X166600915Y-106172810D01*
X166732331Y-106123796D01*
X166847546Y-106037546D01*
X166933796Y-105922331D01*
X166984091Y-105787483D01*
X166990500Y-105727873D01*
X166990499Y-103932128D01*
X166984091Y-103872517D01*
X166933796Y-103737669D01*
X166933795Y-103737668D01*
X166933793Y-103737664D01*
X166847547Y-103622455D01*
X166847544Y-103622452D01*
X166732335Y-103536206D01*
X166732328Y-103536202D01*
X166597482Y-103485908D01*
X166597483Y-103485908D01*
X166537883Y-103479501D01*
X166537881Y-103479500D01*
X166537873Y-103479500D01*
X166537864Y-103479500D01*
X164742129Y-103479500D01*
X164742123Y-103479501D01*
X164682516Y-103485908D01*
X164547671Y-103536202D01*
X164547664Y-103536206D01*
X164432455Y-103622452D01*
X164432452Y-103622455D01*
X164346206Y-103737664D01*
X164346202Y-103737671D01*
X164295908Y-103872517D01*
X164289501Y-103932116D01*
X164289501Y-103932123D01*
X164289500Y-103932135D01*
X164289500Y-105727870D01*
X164289501Y-105727876D01*
X164295908Y-105787483D01*
X164346202Y-105922328D01*
X164346206Y-105922335D01*
X164432452Y-106037544D01*
X164432455Y-106037547D01*
X164547664Y-106123793D01*
X164547671Y-106123797D01*
X164679081Y-106172810D01*
X164735015Y-106214681D01*
X164759432Y-106280145D01*
X164744580Y-106348418D01*
X164723430Y-106376673D01*
X164601503Y-106498600D01*
X164465965Y-106692169D01*
X164465964Y-106692171D01*
X164366098Y-106906335D01*
X164366094Y-106906344D01*
X164304938Y-107134586D01*
X164304936Y-107134596D01*
X164284341Y-107369999D01*
X164284341Y-107370000D01*
X164304936Y-107605403D01*
X164304938Y-107605413D01*
X164366094Y-107833655D01*
X164366097Y-107833663D01*
X164465965Y-108047830D01*
X164465967Y-108047834D01*
X164601501Y-108241395D01*
X164601506Y-108241402D01*
X164768597Y-108408493D01*
X164768603Y-108408498D01*
X164954158Y-108538425D01*
X164997783Y-108593002D01*
X165004977Y-108662500D01*
X164973454Y-108724855D01*
X164954158Y-108741575D01*
X164768597Y-108871505D01*
X164601505Y-109038597D01*
X164465965Y-109232169D01*
X164465964Y-109232171D01*
X164366098Y-109446335D01*
X164366094Y-109446344D01*
X164304938Y-109674586D01*
X164304936Y-109674596D01*
X164284341Y-109909999D01*
X164284341Y-109910000D01*
X164304936Y-110145403D01*
X164304938Y-110145413D01*
X164366094Y-110373655D01*
X164366096Y-110373659D01*
X164366097Y-110373663D01*
X164445697Y-110544365D01*
X164465965Y-110587830D01*
X164465967Y-110587834D01*
X164574281Y-110742521D01*
X164601505Y-110781401D01*
X164768599Y-110948495D01*
X164961624Y-111083653D01*
X165005248Y-111138228D01*
X165014500Y-111185226D01*
X165014500Y-113599548D01*
X164994815Y-113666587D01*
X164978181Y-113687229D01*
X164462229Y-114203181D01*
X164400906Y-114236666D01*
X164374548Y-114239500D01*
X155789106Y-114239500D01*
X155722067Y-114219815D01*
X155676312Y-114167011D01*
X155666368Y-114097853D01*
X155669331Y-114083407D01*
X155699286Y-113971611D01*
X155725063Y-113875408D01*
X155745659Y-113640000D01*
X155725063Y-113404592D01*
X155678626Y-113231285D01*
X155663905Y-113176344D01*
X155663904Y-113176343D01*
X155663903Y-113176337D01*
X155564035Y-112962171D01*
X155471522Y-112830047D01*
X155428494Y-112768597D01*
X155261402Y-112601506D01*
X155261396Y-112601501D01*
X155075842Y-112471575D01*
X155032217Y-112416998D01*
X155025023Y-112347500D01*
X155056546Y-112285145D01*
X155075842Y-112268425D01*
X155098026Y-112252891D01*
X155261401Y-112138495D01*
X155428495Y-111971401D01*
X155564035Y-111777830D01*
X155663903Y-111563663D01*
X155725063Y-111335408D01*
X155745659Y-111100000D01*
X155742521Y-111064139D01*
X155732404Y-110948495D01*
X155725063Y-110864592D01*
X155663903Y-110636337D01*
X155564035Y-110422171D01*
X155563652Y-110421623D01*
X155428494Y-110228597D01*
X155261402Y-110061506D01*
X155261396Y-110061501D01*
X155075842Y-109931575D01*
X155032217Y-109876998D01*
X155025023Y-109807500D01*
X155056546Y-109745145D01*
X155075842Y-109728425D01*
X155098026Y-109712891D01*
X155261401Y-109598495D01*
X155428495Y-109431401D01*
X155564035Y-109237830D01*
X155663903Y-109023663D01*
X155725063Y-108795408D01*
X155745659Y-108560000D01*
X155725063Y-108324592D01*
X155663903Y-108096337D01*
X155564035Y-107882171D01*
X155559772Y-107876082D01*
X155428494Y-107688597D01*
X155261402Y-107521506D01*
X155261396Y-107521501D01*
X155075842Y-107391575D01*
X155032217Y-107336998D01*
X155025023Y-107267500D01*
X155056546Y-107205145D01*
X155075842Y-107188425D01*
X155106733Y-107166795D01*
X155261401Y-107058495D01*
X155428495Y-106891401D01*
X155564035Y-106697830D01*
X155663903Y-106483663D01*
X155725063Y-106255408D01*
X155745659Y-106020000D01*
X155725063Y-105784592D01*
X155669331Y-105576593D01*
X155670994Y-105506743D01*
X155710157Y-105448881D01*
X155774386Y-105421377D01*
X155789106Y-105420500D01*
X161343331Y-105420500D01*
X161343347Y-105420501D01*
X161350943Y-105420501D01*
X161509054Y-105420501D01*
X161509057Y-105420501D01*
X161661785Y-105379577D01*
X161711904Y-105350639D01*
X161798716Y-105300520D01*
X161910520Y-105188716D01*
X161910520Y-105188714D01*
X161920728Y-105178507D01*
X161920729Y-105178504D01*
X166170520Y-100928716D01*
X166249577Y-100791784D01*
X166290501Y-100639057D01*
X166290501Y-100480942D01*
X166290501Y-100473347D01*
X166290500Y-100473329D01*
X166290500Y-99729090D01*
X166310185Y-99662051D01*
X166362101Y-99616706D01*
X166367830Y-99614035D01*
X166561401Y-99478495D01*
X166728495Y-99311401D01*
X166864035Y-99117830D01*
X166963903Y-98903663D01*
X167025063Y-98675408D01*
X167045659Y-98440000D01*
X167025063Y-98204592D01*
X166963903Y-97976337D01*
X166963900Y-97976331D01*
X166962053Y-97971256D01*
X166963666Y-97970668D01*
X166954341Y-97909241D01*
X166982866Y-97845460D01*
X167029763Y-97811363D01*
X167054107Y-97801280D01*
X167055981Y-97800504D01*
X167055983Y-97800502D01*
X167055990Y-97800500D01*
X167131286Y-97769312D01*
X167196421Y-97725789D01*
X167233733Y-97700858D01*
X167320858Y-97613733D01*
X167320859Y-97613730D01*
X167885858Y-97048733D01*
X167954312Y-96946285D01*
X167986267Y-96869139D01*
X168001463Y-96832452D01*
X168011797Y-96780500D01*
X168018883Y-96744877D01*
X168051269Y-96682966D01*
X168111985Y-96648392D01*
X168181754Y-96652133D01*
G37*
%TD.AperFunction*%
%TA.AperFunction,Conductor*%
G36*
X119529456Y-87195185D02*
G01*
X119575211Y-87247989D01*
X119585155Y-87317147D01*
X119556130Y-87380703D01*
X119533539Y-87401076D01*
X119520857Y-87409955D01*
X119359954Y-87570858D01*
X119229432Y-87757265D01*
X119229431Y-87757267D01*
X119133261Y-87963502D01*
X119133258Y-87963511D01*
X119074366Y-88183302D01*
X119074364Y-88183313D01*
X119054532Y-88409998D01*
X119054532Y-88410001D01*
X119074364Y-88636686D01*
X119074366Y-88636697D01*
X119133258Y-88856488D01*
X119133261Y-88856497D01*
X119229431Y-89062732D01*
X119229432Y-89062734D01*
X119359954Y-89249141D01*
X119520858Y-89410045D01*
X119542423Y-89425145D01*
X119707266Y-89540568D01*
X119913504Y-89636739D01*
X120133308Y-89695635D01*
X120280333Y-89708498D01*
X120359998Y-89715468D01*
X120360000Y-89715468D01*
X120360002Y-89715468D01*
X120439667Y-89708498D01*
X120586692Y-89695635D01*
X120806496Y-89636739D01*
X121012734Y-89540568D01*
X121199139Y-89410047D01*
X121360047Y-89249139D01*
X121490568Y-89062734D01*
X121517618Y-89004724D01*
X121563790Y-88952285D01*
X121630983Y-88933133D01*
X121697865Y-88953348D01*
X121742382Y-89004725D01*
X121769429Y-89062728D01*
X121769432Y-89062734D01*
X121899954Y-89249141D01*
X122060858Y-89410045D01*
X122082423Y-89425145D01*
X122247266Y-89540568D01*
X122453504Y-89636739D01*
X122673308Y-89695635D01*
X122820333Y-89708498D01*
X122899998Y-89715468D01*
X122900000Y-89715468D01*
X122900002Y-89715468D01*
X122979667Y-89708498D01*
X123126692Y-89695635D01*
X123346496Y-89636739D01*
X123552734Y-89540568D01*
X123739139Y-89410047D01*
X123900047Y-89249139D01*
X123996496Y-89111395D01*
X124012613Y-89088377D01*
X124067189Y-89044752D01*
X124114188Y-89035500D01*
X124225812Y-89035500D01*
X124292851Y-89055185D01*
X124327387Y-89088377D01*
X124439954Y-89249141D01*
X124600858Y-89410045D01*
X124622423Y-89425145D01*
X124787266Y-89540568D01*
X124993504Y-89636739D01*
X125213308Y-89695635D01*
X125360333Y-89708498D01*
X125439998Y-89715468D01*
X125440000Y-89715468D01*
X125440002Y-89715468D01*
X125519667Y-89708498D01*
X125666692Y-89695635D01*
X125886496Y-89636739D01*
X126092734Y-89540568D01*
X126279139Y-89410047D01*
X126440047Y-89249139D01*
X126570568Y-89062734D01*
X126666739Y-88856496D01*
X126725635Y-88636692D01*
X126745468Y-88410000D01*
X126725635Y-88183308D01*
X126666739Y-87963504D01*
X126570568Y-87757266D01*
X126440047Y-87570861D01*
X126440045Y-87570858D01*
X126279142Y-87409955D01*
X126266461Y-87401076D01*
X126222835Y-87346500D01*
X126215641Y-87277001D01*
X126247163Y-87214646D01*
X126307392Y-87179231D01*
X126337583Y-87175500D01*
X132837471Y-87175500D01*
X132904510Y-87195185D01*
X132950265Y-87247989D01*
X132960209Y-87317147D01*
X132942464Y-87365473D01*
X132921913Y-87398177D01*
X132862333Y-87568447D01*
X132862332Y-87568452D01*
X132842137Y-87747698D01*
X132842137Y-87747705D01*
X132862332Y-87926951D01*
X132862333Y-87926956D01*
X132921913Y-88097225D01*
X133017886Y-88249964D01*
X133028985Y-88261063D01*
X133062470Y-88322386D01*
X133057486Y-88392078D01*
X133028985Y-88436425D01*
X128377229Y-93088181D01*
X128315906Y-93121666D01*
X128289548Y-93124500D01*
X113565227Y-93124500D01*
X113498188Y-93104815D01*
X113463652Y-93071623D01*
X113328494Y-92878597D01*
X113161402Y-92711506D01*
X113161396Y-92711501D01*
X112975842Y-92581575D01*
X112932217Y-92526998D01*
X112925023Y-92457500D01*
X112956546Y-92395145D01*
X112975842Y-92378425D01*
X113114256Y-92281506D01*
X113161401Y-92248495D01*
X113328495Y-92081401D01*
X113464035Y-91887830D01*
X113563903Y-91673663D01*
X113625063Y-91445408D01*
X113645659Y-91210000D01*
X113625063Y-90974592D01*
X113598143Y-90874125D01*
X113599806Y-90804276D01*
X113630235Y-90754353D01*
X117172771Y-87211819D01*
X117234094Y-87178334D01*
X117260452Y-87175500D01*
X119462417Y-87175500D01*
X119529456Y-87195185D01*
G37*
%TD.AperFunction*%
%TA.AperFunction,Conductor*%
G36*
X171182539Y-55550185D02*
G01*
X171228294Y-55602989D01*
X171239500Y-55654500D01*
X171239500Y-139405500D01*
X171219815Y-139472539D01*
X171167011Y-139518294D01*
X171115500Y-139529500D01*
X107364500Y-139529500D01*
X107297461Y-139509815D01*
X107251706Y-139457011D01*
X107240500Y-139405500D01*
X107240500Y-126573920D01*
X109099499Y-126573920D01*
X109128340Y-126718907D01*
X109128343Y-126718917D01*
X109184913Y-126855490D01*
X109184914Y-126855492D01*
X109210982Y-126894505D01*
X109210983Y-126894507D01*
X109267045Y-126978414D01*
X109267049Y-126978418D01*
X110121580Y-127832948D01*
X110121584Y-127832951D01*
X110244498Y-127915080D01*
X110244511Y-127915087D01*
X110381082Y-127971656D01*
X110381087Y-127971658D01*
X110381091Y-127971658D01*
X110381092Y-127971659D01*
X110526079Y-128000500D01*
X110526082Y-128000500D01*
X110673917Y-128000500D01*
X111257756Y-128000500D01*
X111324795Y-128020185D01*
X111370550Y-128072989D01*
X111380494Y-128142147D01*
X111351469Y-128205703D01*
X111305209Y-128239061D01*
X111194509Y-128284914D01*
X111194496Y-128284921D01*
X111145269Y-128317813D01*
X111071588Y-128367044D01*
X111071580Y-128367050D01*
X110017048Y-129421583D01*
X109998642Y-129449130D01*
X109980358Y-129476496D01*
X109934914Y-129544507D01*
X109878343Y-129681082D01*
X109878340Y-129681092D01*
X109849500Y-129826079D01*
X109849500Y-129826082D01*
X109849500Y-136573918D01*
X109849500Y-136573920D01*
X109849499Y-136573920D01*
X109878340Y-136718907D01*
X109878343Y-136718917D01*
X109934914Y-136855492D01*
X109967812Y-136904727D01*
X109967813Y-136904730D01*
X110017046Y-136978414D01*
X110017052Y-136978421D01*
X110621584Y-137582952D01*
X110621586Y-137582954D01*
X110651058Y-137602645D01*
X110695270Y-137632186D01*
X110744505Y-137665084D01*
X110744506Y-137665084D01*
X110744507Y-137665085D01*
X110744509Y-137665086D01*
X110881082Y-137721656D01*
X110881087Y-137721658D01*
X110881091Y-137721658D01*
X110881092Y-137721659D01*
X111026079Y-137750500D01*
X111026082Y-137750500D01*
X125073920Y-137750500D01*
X125171462Y-137731096D01*
X125218913Y-137721658D01*
X125355495Y-137665084D01*
X125404729Y-137632186D01*
X125404734Y-137632183D01*
X125429071Y-137615921D01*
X125478416Y-137582952D01*
X125872952Y-137188416D01*
X125943420Y-137082951D01*
X125955084Y-137065495D01*
X126011658Y-136928913D01*
X126040500Y-136783918D01*
X126040500Y-135244996D01*
X159444435Y-135244996D01*
X159444435Y-135245003D01*
X159464630Y-135424249D01*
X159464631Y-135424254D01*
X159524211Y-135594523D01*
X159620184Y-135747262D01*
X159747738Y-135874816D01*
X159900478Y-135970789D01*
X160070745Y-136030368D01*
X160070750Y-136030369D01*
X160249996Y-136050565D01*
X160250000Y-136050565D01*
X160250004Y-136050565D01*
X160429249Y-136030369D01*
X160429252Y-136030368D01*
X160429255Y-136030368D01*
X160599522Y-135970789D01*
X160752262Y-135874816D01*
X160879816Y-135747262D01*
X160975789Y-135594522D01*
X161035368Y-135424255D01*
X161040672Y-135377173D01*
X161067737Y-135312763D01*
X161076201Y-135303387D01*
X163585858Y-132793733D01*
X163654312Y-132691285D01*
X163691916Y-132600500D01*
X163701463Y-132577452D01*
X163706632Y-132551463D01*
X163725501Y-132456606D01*
X163725501Y-132333393D01*
X163725501Y-132328283D01*
X163725500Y-132328257D01*
X163725500Y-129360452D01*
X163745185Y-129293413D01*
X163761819Y-129272771D01*
X163977820Y-129056770D01*
X164039143Y-129023285D01*
X164108835Y-129028269D01*
X164164768Y-129070141D01*
X164189185Y-129135605D01*
X164189501Y-129144451D01*
X164189501Y-129197876D01*
X164195908Y-129257483D01*
X164246202Y-129392328D01*
X164246206Y-129392335D01*
X164332452Y-129507544D01*
X164332455Y-129507547D01*
X164447664Y-129593793D01*
X164447671Y-129593797D01*
X164579081Y-129642810D01*
X164635015Y-129684681D01*
X164659432Y-129750145D01*
X164644580Y-129818418D01*
X164623430Y-129846673D01*
X164501503Y-129968600D01*
X164365965Y-130162169D01*
X164365964Y-130162171D01*
X164266098Y-130376335D01*
X164266094Y-130376344D01*
X164204938Y-130604586D01*
X164204936Y-130604596D01*
X164184341Y-130839999D01*
X164184341Y-130840000D01*
X164204936Y-131075403D01*
X164204938Y-131075413D01*
X164266094Y-131303655D01*
X164266096Y-131303659D01*
X164266097Y-131303663D01*
X164365965Y-131517830D01*
X164365967Y-131517834D01*
X164501501Y-131711395D01*
X164501506Y-131711402D01*
X164668597Y-131878493D01*
X164668603Y-131878498D01*
X164854158Y-132008425D01*
X164897783Y-132063002D01*
X164904977Y-132132500D01*
X164873454Y-132194855D01*
X164854158Y-132211575D01*
X164668597Y-132341505D01*
X164501505Y-132508597D01*
X164365965Y-132702169D01*
X164365964Y-132702171D01*
X164266098Y-132916335D01*
X164266094Y-132916344D01*
X164204938Y-133144586D01*
X164204936Y-133144596D01*
X164184341Y-133379999D01*
X164184341Y-133380000D01*
X164204936Y-133615403D01*
X164204938Y-133615413D01*
X164266094Y-133843655D01*
X164266096Y-133843659D01*
X164266097Y-133843663D01*
X164329671Y-133979998D01*
X164365965Y-134057830D01*
X164365967Y-134057834D01*
X164470195Y-134206686D01*
X164501505Y-134251401D01*
X164668599Y-134418495D01*
X164716838Y-134452272D01*
X164862165Y-134554032D01*
X164862167Y-134554033D01*
X164862170Y-134554035D01*
X165076337Y-134653903D01*
X165304592Y-134715063D01*
X165492918Y-134731539D01*
X165539999Y-134735659D01*
X165540000Y-134735659D01*
X165540001Y-134735659D01*
X165579234Y-134732226D01*
X165775408Y-134715063D01*
X166003663Y-134653903D01*
X166217830Y-134554035D01*
X166411401Y-134418495D01*
X166578495Y-134251401D01*
X166714035Y-134057830D01*
X166813903Y-133843663D01*
X166875063Y-133615408D01*
X166895659Y-133380000D01*
X166875063Y-133144592D01*
X166813903Y-132916337D01*
X166714035Y-132702171D01*
X166708570Y-132694365D01*
X166578494Y-132508597D01*
X166411402Y-132341506D01*
X166411396Y-132341501D01*
X166225842Y-132211575D01*
X166182217Y-132156998D01*
X166175023Y-132087500D01*
X166206546Y-132025145D01*
X166225842Y-132008425D01*
X166309287Y-131949996D01*
X166411401Y-131878495D01*
X166578495Y-131711401D01*
X166714035Y-131517830D01*
X166813903Y-131303663D01*
X166875063Y-131075408D01*
X166895659Y-130840000D01*
X166875063Y-130604592D01*
X166813903Y-130376337D01*
X166714035Y-130162171D01*
X166709409Y-130155565D01*
X166578496Y-129968600D01*
X166578495Y-129968599D01*
X166456567Y-129846671D01*
X166423084Y-129785351D01*
X166428068Y-129715659D01*
X166469939Y-129659725D01*
X166500915Y-129642810D01*
X166632331Y-129593796D01*
X166747546Y-129507546D01*
X166833796Y-129392331D01*
X166884091Y-129257483D01*
X166890500Y-129197873D01*
X166890499Y-127402128D01*
X166884091Y-127342517D01*
X166835188Y-127211402D01*
X166833797Y-127207671D01*
X166833793Y-127207664D01*
X166747547Y-127092455D01*
X166747544Y-127092452D01*
X166632335Y-127006206D01*
X166632328Y-127006202D01*
X166497482Y-126955908D01*
X166497483Y-126955908D01*
X166437883Y-126949501D01*
X166437881Y-126949500D01*
X166437873Y-126949500D01*
X166437864Y-126949500D01*
X164642129Y-126949500D01*
X164642123Y-126949501D01*
X164582516Y-126955908D01*
X164447671Y-127006202D01*
X164447664Y-127006206D01*
X164332455Y-127092452D01*
X164332452Y-127092455D01*
X164246206Y-127207664D01*
X164246202Y-127207671D01*
X164195908Y-127342517D01*
X164192040Y-127378498D01*
X164189501Y-127402123D01*
X164189500Y-127402135D01*
X164189500Y-127550500D01*
X164169815Y-127617539D01*
X164117011Y-127663294D01*
X164065500Y-127674500D01*
X163788389Y-127674500D01*
X163727971Y-127686518D01*
X163684743Y-127695116D01*
X163667546Y-127698537D01*
X163553716Y-127745687D01*
X163553707Y-127745692D01*
X163451268Y-127814140D01*
X163407705Y-127857703D01*
X163364142Y-127901267D01*
X163364139Y-127901270D01*
X162701270Y-128564139D01*
X162701267Y-128564142D01*
X162657704Y-128607704D01*
X162614142Y-128651266D01*
X162598230Y-128675079D01*
X162582426Y-128698733D01*
X162545688Y-128753714D01*
X162545686Y-128753717D01*
X162545685Y-128753719D01*
X162532374Y-128785857D01*
X162498538Y-128867544D01*
X162498535Y-128867556D01*
X162474500Y-128988389D01*
X162474500Y-132084547D01*
X162454815Y-132151586D01*
X162438181Y-132172228D01*
X160191621Y-134418787D01*
X160130298Y-134452272D01*
X160117825Y-134454326D01*
X160070750Y-134459630D01*
X159900478Y-134519210D01*
X159747737Y-134615184D01*
X159620184Y-134742737D01*
X159524211Y-134895476D01*
X159464631Y-135065745D01*
X159464630Y-135065750D01*
X159444435Y-135244996D01*
X126040500Y-135244996D01*
X126040500Y-135106662D01*
X126060185Y-135039623D01*
X126093379Y-135005086D01*
X126129140Y-134980046D01*
X126290045Y-134819141D01*
X126290047Y-134819139D01*
X126420568Y-134632734D01*
X126516739Y-134426496D01*
X126575635Y-134206692D01*
X126595468Y-133980000D01*
X126575635Y-133753308D01*
X126516739Y-133533504D01*
X126420568Y-133327266D01*
X126292662Y-133144596D01*
X126290045Y-133140858D01*
X126129141Y-132979954D01*
X125942734Y-132849432D01*
X125942732Y-132849431D01*
X125736497Y-132753261D01*
X125736488Y-132753258D01*
X125516697Y-132694366D01*
X125516693Y-132694365D01*
X125516692Y-132694365D01*
X125516691Y-132694364D01*
X125516686Y-132694364D01*
X125290002Y-132674532D01*
X125289998Y-132674532D01*
X125063313Y-132694364D01*
X125063302Y-132694366D01*
X124843511Y-132753258D01*
X124843502Y-132753261D01*
X124637267Y-132849431D01*
X124637265Y-132849432D01*
X124450858Y-132979954D01*
X124289954Y-133140858D01*
X124159432Y-133327265D01*
X124159431Y-133327267D01*
X124063261Y-133533502D01*
X124063258Y-133533511D01*
X124004366Y-133753302D01*
X124004364Y-133753313D01*
X123984532Y-133979998D01*
X123984532Y-133980001D01*
X124004364Y-134206686D01*
X124004366Y-134206697D01*
X124063258Y-134426488D01*
X124063261Y-134426497D01*
X124159431Y-134632732D01*
X124159432Y-134632734D01*
X124289954Y-134819141D01*
X124450859Y-134980046D01*
X124486621Y-135005086D01*
X124530247Y-135059662D01*
X124539500Y-135106662D01*
X124539500Y-136125500D01*
X124519815Y-136192539D01*
X124467011Y-136238294D01*
X124415500Y-136249500D01*
X111474500Y-136249500D01*
X111407461Y-136229815D01*
X111361706Y-136177011D01*
X111350500Y-136125500D01*
X111350500Y-133029635D01*
X111789500Y-133029635D01*
X111789500Y-135030370D01*
X111789501Y-135030376D01*
X111795908Y-135089983D01*
X111846202Y-135224828D01*
X111846206Y-135224835D01*
X111932452Y-135340044D01*
X111932455Y-135340047D01*
X112047664Y-135426293D01*
X112047671Y-135426297D01*
X112182517Y-135476591D01*
X112182516Y-135476591D01*
X112189444Y-135477335D01*
X112242127Y-135483000D01*
X114337872Y-135482999D01*
X114397483Y-135476591D01*
X114532331Y-135426296D01*
X114647546Y-135340046D01*
X114733796Y-135224831D01*
X114784091Y-135089983D01*
X114790500Y-135030373D01*
X114790500Y-134904500D01*
X114810185Y-134837461D01*
X114862989Y-134791706D01*
X114914500Y-134780500D01*
X118299951Y-134780500D01*
X118366990Y-134800185D01*
X118387632Y-134816819D01*
X118550858Y-134980045D01*
X118550861Y-134980047D01*
X118737266Y-135110568D01*
X118943504Y-135206739D01*
X119163308Y-135265635D01*
X119325230Y-135279801D01*
X119389998Y-135285468D01*
X119390000Y-135285468D01*
X119390002Y-135285468D01*
X119446673Y-135280509D01*
X119616692Y-135265635D01*
X119836496Y-135206739D01*
X120042734Y-135110568D01*
X120229139Y-134980047D01*
X120390047Y-134819139D01*
X120520568Y-134632734D01*
X120616739Y-134426496D01*
X120675635Y-134206692D01*
X120695468Y-133980000D01*
X120675635Y-133753308D01*
X120616739Y-133533504D01*
X120520568Y-133327266D01*
X120392662Y-133144596D01*
X120390045Y-133140858D01*
X120229141Y-132979954D01*
X120042734Y-132849432D01*
X120042732Y-132849431D01*
X119836497Y-132753261D01*
X119836488Y-132753258D01*
X119616697Y-132694366D01*
X119616693Y-132694365D01*
X119616692Y-132694365D01*
X119616691Y-132694364D01*
X119616686Y-132694364D01*
X119390002Y-132674532D01*
X119389998Y-132674532D01*
X119163313Y-132694364D01*
X119163302Y-132694366D01*
X118943511Y-132753258D01*
X118943502Y-132753261D01*
X118737267Y-132849431D01*
X118737265Y-132849432D01*
X118550858Y-132979954D01*
X118389954Y-133140858D01*
X118329902Y-133226623D01*
X118275325Y-133270248D01*
X118228327Y-133279500D01*
X114914499Y-133279500D01*
X114847460Y-133259815D01*
X114801705Y-133207011D01*
X114790499Y-133155500D01*
X114790499Y-133029629D01*
X114790498Y-133029623D01*
X114790497Y-133029616D01*
X114784091Y-132970017D01*
X114764072Y-132916344D01*
X114733797Y-132835171D01*
X114733793Y-132835164D01*
X114647547Y-132719955D01*
X114647544Y-132719952D01*
X114532335Y-132633706D01*
X114532328Y-132633702D01*
X114397482Y-132583408D01*
X114397483Y-132583408D01*
X114337883Y-132577001D01*
X114337881Y-132577000D01*
X114337873Y-132577000D01*
X114337864Y-132577000D01*
X112242129Y-132577000D01*
X112242123Y-132577001D01*
X112182516Y-132583408D01*
X112047671Y-132633702D01*
X112047664Y-132633706D01*
X111932455Y-132719952D01*
X111932452Y-132719955D01*
X111846206Y-132835164D01*
X111846202Y-132835171D01*
X111795908Y-132970017D01*
X111789501Y-133029616D01*
X111789501Y-133029623D01*
X111789500Y-133029635D01*
X111350500Y-133029635D01*
X111350500Y-130262230D01*
X111370185Y-130195191D01*
X111386819Y-130174549D01*
X111824549Y-129736819D01*
X111885872Y-129703334D01*
X111912230Y-129700500D01*
X111928582Y-129700500D01*
X111995621Y-129720185D01*
X112028899Y-129751613D01*
X112134214Y-129896566D01*
X112295934Y-130058286D01*
X112480962Y-130192717D01*
X112617389Y-130262230D01*
X112684744Y-130296549D01*
X112902251Y-130367221D01*
X112902252Y-130367221D01*
X112902255Y-130367222D01*
X113128146Y-130403000D01*
X113128147Y-130403000D01*
X113451853Y-130403000D01*
X113451854Y-130403000D01*
X113677745Y-130367222D01*
X113677748Y-130367221D01*
X113677749Y-130367221D01*
X113895255Y-130296549D01*
X113895255Y-130296548D01*
X113895258Y-130296548D01*
X114099038Y-130192717D01*
X114284066Y-130058286D01*
X114445786Y-129896566D01*
X114580217Y-129711538D01*
X114684048Y-129507758D01*
X114721551Y-129392335D01*
X114754721Y-129290249D01*
X114754721Y-129290248D01*
X114754722Y-129290245D01*
X114790500Y-129064354D01*
X114790500Y-128835646D01*
X114754722Y-128609755D01*
X114754721Y-128609751D01*
X114754721Y-128609750D01*
X114684049Y-128392244D01*
X114652892Y-128331095D01*
X114580217Y-128188462D01*
X114580216Y-128188461D01*
X114578005Y-128184121D01*
X114579165Y-128183529D01*
X114562481Y-128121839D01*
X114583599Y-128055238D01*
X114637373Y-128010626D01*
X114686452Y-128000500D01*
X114787770Y-128000500D01*
X114854809Y-128020185D01*
X114875451Y-128036819D01*
X115663181Y-128824548D01*
X115696666Y-128885871D01*
X115699500Y-128912229D01*
X115699500Y-129050028D01*
X115692542Y-129090982D01*
X115664631Y-129170747D01*
X115644435Y-129349996D01*
X115644435Y-129350003D01*
X115664630Y-129529249D01*
X115664631Y-129529254D01*
X115724211Y-129699523D01*
X115778141Y-129785351D01*
X115820184Y-129852262D01*
X115947738Y-129979816D01*
X116100478Y-130075789D01*
X116270745Y-130135368D01*
X116270750Y-130135369D01*
X116449996Y-130155565D01*
X116450000Y-130155565D01*
X116450004Y-130155565D01*
X116629249Y-130135369D01*
X116629252Y-130135368D01*
X116629255Y-130135368D01*
X116799522Y-130075789D01*
X116952262Y-129979816D01*
X117079816Y-129852262D01*
X117175789Y-129699522D01*
X117235368Y-129529255D01*
X117237790Y-129507758D01*
X117255565Y-129350003D01*
X117255565Y-129349996D01*
X117238425Y-129197876D01*
X117235368Y-129170745D01*
X117207458Y-129090982D01*
X117200500Y-129050028D01*
X117200500Y-128476081D01*
X117194763Y-128447242D01*
X117194763Y-128447240D01*
X117186991Y-128408168D01*
X117171659Y-128331088D01*
X117133263Y-128238393D01*
X117129100Y-128228342D01*
X117115087Y-128194511D01*
X117115080Y-128194498D01*
X117032952Y-128071585D01*
X116981552Y-128020185D01*
X116928416Y-127967049D01*
X116624661Y-127663294D01*
X115628421Y-126667052D01*
X115628414Y-126667046D01*
X115554729Y-126617812D01*
X115554729Y-126617813D01*
X115505491Y-126584913D01*
X115368917Y-126528343D01*
X115368907Y-126528340D01*
X115223920Y-126499500D01*
X115223918Y-126499500D01*
X110962229Y-126499500D01*
X110895190Y-126479815D01*
X110874548Y-126463181D01*
X110636819Y-126225451D01*
X110603334Y-126164128D01*
X110600500Y-126137770D01*
X110600500Y-118275646D01*
X111789500Y-118275646D01*
X111789500Y-118504353D01*
X111825278Y-118730246D01*
X111825278Y-118730249D01*
X111895950Y-118947755D01*
X111986050Y-119124586D01*
X111999783Y-119151538D01*
X112132525Y-119334242D01*
X112156005Y-119400046D01*
X112140180Y-119468100D01*
X112090074Y-119516795D01*
X112075541Y-119523308D01*
X112047670Y-119533703D01*
X112047664Y-119533706D01*
X111932455Y-119619952D01*
X111932454Y-119619954D01*
X111846206Y-119735164D01*
X111846202Y-119735171D01*
X111795908Y-119870017D01*
X111789501Y-119929616D01*
X111789500Y-119929628D01*
X111789500Y-121930370D01*
X111789501Y-121930376D01*
X111795908Y-121989983D01*
X111846202Y-122124828D01*
X111846206Y-122124835D01*
X111932452Y-122240044D01*
X111932455Y-122240047D01*
X112047664Y-122326293D01*
X112047671Y-122326297D01*
X112182517Y-122376591D01*
X112182516Y-122376591D01*
X112189444Y-122377335D01*
X112242127Y-122383000D01*
X114337872Y-122382999D01*
X114397483Y-122376591D01*
X114532331Y-122326296D01*
X114647546Y-122240046D01*
X114733796Y-122124831D01*
X114784091Y-121989983D01*
X114790500Y-121930373D01*
X114790499Y-119929628D01*
X114784091Y-119870017D01*
X114775080Y-119845858D01*
X114733797Y-119735171D01*
X114733793Y-119735164D01*
X114647546Y-119619954D01*
X114647544Y-119619952D01*
X114532335Y-119533706D01*
X114532328Y-119533702D01*
X114504459Y-119523308D01*
X114448525Y-119481437D01*
X114424108Y-119415973D01*
X114438960Y-119347700D01*
X114447460Y-119334260D01*
X114580217Y-119151538D01*
X114684048Y-118947758D01*
X114717930Y-118843481D01*
X114754721Y-118730249D01*
X114754721Y-118730248D01*
X114754722Y-118730245D01*
X114790500Y-118504354D01*
X114790500Y-118275646D01*
X114754722Y-118049755D01*
X114754721Y-118049751D01*
X114754721Y-118049750D01*
X114684049Y-117832244D01*
X114636230Y-117738394D01*
X114580217Y-117628462D01*
X114445786Y-117443434D01*
X114284066Y-117281714D01*
X114099038Y-117147283D01*
X113895255Y-117043450D01*
X113677748Y-116972778D01*
X113508326Y-116945944D01*
X113451854Y-116937000D01*
X113128146Y-116937000D01*
X113052849Y-116948926D01*
X112902253Y-116972778D01*
X112902250Y-116972778D01*
X112684744Y-117043450D01*
X112480961Y-117147283D01*
X112396679Y-117208518D01*
X112295934Y-117281714D01*
X112295932Y-117281716D01*
X112295931Y-117281716D01*
X112134216Y-117443431D01*
X112134216Y-117443432D01*
X112134214Y-117443434D01*
X112090422Y-117503709D01*
X111999783Y-117628461D01*
X111895950Y-117832244D01*
X111825278Y-118049750D01*
X111825278Y-118049753D01*
X111789500Y-118275646D01*
X110600500Y-118275646D01*
X110600500Y-106914500D01*
X110620185Y-106847461D01*
X110672989Y-106801706D01*
X110724500Y-106790500D01*
X111928582Y-106790500D01*
X111995621Y-106810185D01*
X112028899Y-106841613D01*
X112132525Y-106984242D01*
X112156005Y-107050046D01*
X112140180Y-107118100D01*
X112090074Y-107166795D01*
X112075541Y-107173308D01*
X112047670Y-107183703D01*
X112047664Y-107183706D01*
X111932455Y-107269952D01*
X111932452Y-107269955D01*
X111846206Y-107385164D01*
X111846202Y-107385171D01*
X111795908Y-107520017D01*
X111789501Y-107579616D01*
X111789501Y-107579623D01*
X111789500Y-107579635D01*
X111789500Y-109580370D01*
X111789501Y-109580376D01*
X111795908Y-109639983D01*
X111846202Y-109774828D01*
X111846206Y-109774835D01*
X111932452Y-109890044D01*
X111932455Y-109890047D01*
X112047664Y-109976293D01*
X112047671Y-109976297D01*
X112182517Y-110026591D01*
X112182516Y-110026591D01*
X112189444Y-110027335D01*
X112242127Y-110033000D01*
X114337872Y-110032999D01*
X114397483Y-110026591D01*
X114532331Y-109976296D01*
X114647546Y-109890046D01*
X114733796Y-109774831D01*
X114784091Y-109639983D01*
X114790500Y-109580373D01*
X114790499Y-107579628D01*
X114784091Y-107520017D01*
X114769959Y-107482128D01*
X114733797Y-107385171D01*
X114733793Y-107385164D01*
X114647547Y-107269955D01*
X114647544Y-107269952D01*
X114532335Y-107183706D01*
X114532328Y-107183702D01*
X114504459Y-107173308D01*
X114448525Y-107131437D01*
X114424108Y-107065973D01*
X114438960Y-106997700D01*
X114447468Y-106984250D01*
X114514932Y-106891395D01*
X114551101Y-106841614D01*
X114606431Y-106798948D01*
X114651418Y-106790500D01*
X115927770Y-106790500D01*
X115994809Y-106810185D01*
X116015451Y-106826819D01*
X118301584Y-109112952D01*
X118331381Y-109132861D01*
X118424505Y-109195084D01*
X118561087Y-109251658D01*
X118561091Y-109251658D01*
X118561092Y-109251659D01*
X118706079Y-109280500D01*
X118706082Y-109280500D01*
X118706083Y-109280500D01*
X118853918Y-109280500D01*
X122115501Y-109280500D01*
X122182540Y-109300185D01*
X122228295Y-109352989D01*
X122239501Y-109404500D01*
X122239501Y-109577876D01*
X122245908Y-109637483D01*
X122296202Y-109772328D01*
X122296206Y-109772335D01*
X122382452Y-109887544D01*
X122382455Y-109887547D01*
X122497664Y-109973793D01*
X122497671Y-109973797D01*
X122632517Y-110024091D01*
X122632516Y-110024091D01*
X122639444Y-110024835D01*
X122692127Y-110030500D01*
X124787872Y-110030499D01*
X124847483Y-110024091D01*
X124982331Y-109973796D01*
X125097546Y-109887546D01*
X125183796Y-109772331D01*
X125234091Y-109637483D01*
X125240500Y-109577873D01*
X125240499Y-107482128D01*
X125234091Y-107422517D01*
X125222550Y-107391575D01*
X125183797Y-107287671D01*
X125183793Y-107287664D01*
X125097547Y-107172455D01*
X125097544Y-107172452D01*
X124982335Y-107086206D01*
X124982328Y-107086202D01*
X124847482Y-107035908D01*
X124847483Y-107035908D01*
X124787883Y-107029501D01*
X124787881Y-107029500D01*
X124787873Y-107029500D01*
X124787864Y-107029500D01*
X122692129Y-107029500D01*
X122692123Y-107029501D01*
X122632516Y-107035908D01*
X122497671Y-107086202D01*
X122497664Y-107086206D01*
X122382455Y-107172452D01*
X122382452Y-107172455D01*
X122296206Y-107287664D01*
X122296202Y-107287671D01*
X122245908Y-107422517D01*
X122240446Y-107473330D01*
X122239501Y-107482123D01*
X122239500Y-107482135D01*
X122239500Y-107655500D01*
X122219815Y-107722539D01*
X122167011Y-107768294D01*
X122115500Y-107779500D01*
X119142230Y-107779500D01*
X119075191Y-107759815D01*
X119054549Y-107743181D01*
X116768421Y-105457052D01*
X116768420Y-105457051D01*
X116767890Y-105456697D01*
X116676292Y-105395494D01*
X116645495Y-105374916D01*
X116645488Y-105374912D01*
X116508917Y-105318343D01*
X116508907Y-105318340D01*
X116363920Y-105289500D01*
X116363918Y-105289500D01*
X114651418Y-105289500D01*
X114584379Y-105269815D01*
X114551100Y-105238386D01*
X114545006Y-105229998D01*
X114445786Y-105093434D01*
X114284066Y-104931714D01*
X114099038Y-104797283D01*
X114071991Y-104783502D01*
X113895255Y-104693450D01*
X113677748Y-104622778D01*
X113508326Y-104595944D01*
X113451854Y-104587000D01*
X113128146Y-104587000D01*
X113052849Y-104598926D01*
X112902253Y-104622778D01*
X112902250Y-104622778D01*
X112684744Y-104693450D01*
X112480961Y-104797283D01*
X112375396Y-104873980D01*
X112295934Y-104931714D01*
X112295932Y-104931716D01*
X112295931Y-104931716D01*
X112134216Y-105093431D01*
X112134216Y-105093432D01*
X112134214Y-105093434D01*
X112034994Y-105229998D01*
X112028900Y-105238386D01*
X111973570Y-105281051D01*
X111928582Y-105289500D01*
X110396403Y-105289500D01*
X110372212Y-105287117D01*
X110356367Y-105283965D01*
X110333919Y-105279500D01*
X110333918Y-105279500D01*
X110186083Y-105279500D01*
X110186078Y-105279500D01*
X110041095Y-105308339D01*
X110041087Y-105308341D01*
X109904507Y-105364914D01*
X109781580Y-105447051D01*
X109267048Y-105961583D01*
X109258242Y-105974763D01*
X109231798Y-106014341D01*
X109184919Y-106084499D01*
X109184912Y-106084511D01*
X109128343Y-106221082D01*
X109128340Y-106221092D01*
X109099500Y-106366079D01*
X109099500Y-106366082D01*
X109099500Y-107876082D01*
X109099500Y-112296082D01*
X109099500Y-126573918D01*
X109099500Y-126573920D01*
X109099499Y-126573920D01*
X107240500Y-126573920D01*
X107240500Y-95182135D01*
X119059500Y-95182135D01*
X119059500Y-96877870D01*
X119059501Y-96877876D01*
X119065908Y-96937483D01*
X119116202Y-97072328D01*
X119116206Y-97072335D01*
X119202452Y-97187544D01*
X119202455Y-97187547D01*
X119317664Y-97273793D01*
X119317671Y-97273797D01*
X119452517Y-97324091D01*
X119452516Y-97324091D01*
X119459444Y-97324835D01*
X119512127Y-97330500D01*
X121207872Y-97330499D01*
X121267483Y-97324091D01*
X121402331Y-97273796D01*
X121517546Y-97187546D01*
X121603796Y-97072331D01*
X121654091Y-96937483D01*
X121660500Y-96877873D01*
X121660499Y-95182128D01*
X121654091Y-95122517D01*
X121647803Y-95105659D01*
X121603797Y-94987671D01*
X121603793Y-94987664D01*
X121517547Y-94872455D01*
X121517544Y-94872452D01*
X121402335Y-94786206D01*
X121402328Y-94786202D01*
X121267482Y-94735908D01*
X121267483Y-94735908D01*
X121207883Y-94729501D01*
X121207881Y-94729500D01*
X121207873Y-94729500D01*
X121207864Y-94729500D01*
X119512129Y-94729500D01*
X119512123Y-94729501D01*
X119452516Y-94735908D01*
X119317671Y-94786202D01*
X119317664Y-94786206D01*
X119202455Y-94872452D01*
X119202452Y-94872455D01*
X119116206Y-94987664D01*
X119116202Y-94987671D01*
X119065908Y-95122517D01*
X119061924Y-95159577D01*
X119059501Y-95182123D01*
X119059500Y-95182135D01*
X107240500Y-95182135D01*
X107240500Y-76373920D01*
X108649499Y-76373920D01*
X108678340Y-76518907D01*
X108678343Y-76518917D01*
X108734914Y-76655492D01*
X108767812Y-76704727D01*
X108767813Y-76704730D01*
X108817046Y-76778414D01*
X108817052Y-76778421D01*
X109641584Y-77602952D01*
X109641586Y-77602954D01*
X109671058Y-77622645D01*
X109715270Y-77652186D01*
X109764505Y-77685084D01*
X109764506Y-77685084D01*
X109764507Y-77685085D01*
X109764509Y-77685086D01*
X109795286Y-77697834D01*
X109901087Y-77741658D01*
X109901091Y-77741658D01*
X109901092Y-77741659D01*
X110046079Y-77770500D01*
X110046082Y-77770500D01*
X110046083Y-77770500D01*
X110193918Y-77770500D01*
X111102299Y-77770500D01*
X111169338Y-77790185D01*
X111203873Y-77823376D01*
X111251505Y-77891401D01*
X111418597Y-78058493D01*
X111418603Y-78058498D01*
X111604158Y-78188425D01*
X111647783Y-78243002D01*
X111654977Y-78312500D01*
X111623454Y-78374855D01*
X111604158Y-78391575D01*
X111418597Y-78521505D01*
X111251505Y-78688597D01*
X111115965Y-78882169D01*
X111115964Y-78882171D01*
X111016098Y-79096335D01*
X111016094Y-79096344D01*
X110954938Y-79324586D01*
X110954936Y-79324596D01*
X110934341Y-79559999D01*
X110934341Y-79560000D01*
X110954936Y-79795403D01*
X110954938Y-79795413D01*
X111016094Y-80023655D01*
X111016096Y-80023659D01*
X111016097Y-80023663D01*
X111108242Y-80221267D01*
X111115965Y-80237830D01*
X111115967Y-80237834D01*
X111189895Y-80343413D01*
X111251505Y-80431401D01*
X111418599Y-80598495D01*
X111515384Y-80666265D01*
X111612165Y-80734032D01*
X111612167Y-80734033D01*
X111612170Y-80734035D01*
X111826337Y-80833903D01*
X111826343Y-80833904D01*
X111826344Y-80833905D01*
X111846307Y-80839254D01*
X112054592Y-80895063D01*
X112242918Y-80911539D01*
X112289999Y-80915659D01*
X112290000Y-80915659D01*
X112290001Y-80915659D01*
X112329234Y-80912226D01*
X112525408Y-80895063D01*
X112753663Y-80833903D01*
X112967830Y-80734035D01*
X113161401Y-80598495D01*
X113328495Y-80431401D01*
X113425140Y-80293376D01*
X113479717Y-80249752D01*
X113526715Y-80240500D01*
X116818771Y-80240500D01*
X116885810Y-80260185D01*
X116931565Y-80312989D01*
X116941509Y-80382147D01*
X116912484Y-80445703D01*
X116906452Y-80452181D01*
X112615449Y-84743181D01*
X112554126Y-84776666D01*
X112527768Y-84779500D01*
X111392129Y-84779500D01*
X111392123Y-84779501D01*
X111332516Y-84785908D01*
X111197671Y-84836202D01*
X111197664Y-84836206D01*
X111082455Y-84922452D01*
X111082452Y-84922455D01*
X110996206Y-85037664D01*
X110996202Y-85037671D01*
X110945908Y-85172517D01*
X110939501Y-85232116D01*
X110939500Y-85232135D01*
X110939500Y-87027870D01*
X110939501Y-87027876D01*
X110945908Y-87087483D01*
X110996202Y-87222328D01*
X110996206Y-87222335D01*
X111082452Y-87337544D01*
X111082455Y-87337547D01*
X111197664Y-87423793D01*
X111197671Y-87423797D01*
X111329081Y-87472810D01*
X111385015Y-87514681D01*
X111409432Y-87580145D01*
X111394580Y-87648418D01*
X111373430Y-87676673D01*
X111251503Y-87798600D01*
X111115965Y-87992169D01*
X111115964Y-87992171D01*
X111016098Y-88206335D01*
X111016094Y-88206344D01*
X110954938Y-88434586D01*
X110954936Y-88434596D01*
X110934341Y-88669999D01*
X110934341Y-88670000D01*
X110954936Y-88905403D01*
X110954938Y-88905413D01*
X111016094Y-89133655D01*
X111016096Y-89133659D01*
X111016097Y-89133663D01*
X111083635Y-89278498D01*
X111115965Y-89347830D01*
X111115967Y-89347834D01*
X111196609Y-89463002D01*
X111247339Y-89535452D01*
X111251501Y-89541395D01*
X111251506Y-89541402D01*
X111418597Y-89708493D01*
X111418603Y-89708498D01*
X111604158Y-89838425D01*
X111647783Y-89893002D01*
X111654977Y-89962500D01*
X111623454Y-90024855D01*
X111604158Y-90041575D01*
X111418597Y-90171505D01*
X111251505Y-90338597D01*
X111115965Y-90532169D01*
X111115964Y-90532171D01*
X111016098Y-90746335D01*
X111016094Y-90746344D01*
X110954938Y-90974586D01*
X110954936Y-90974596D01*
X110934341Y-91209999D01*
X110934341Y-91210000D01*
X110954936Y-91445403D01*
X110954938Y-91445413D01*
X111016094Y-91673655D01*
X111016096Y-91673659D01*
X111016097Y-91673663D01*
X111083635Y-91818498D01*
X111115965Y-91887830D01*
X111115967Y-91887834D01*
X111177683Y-91975973D01*
X111245272Y-92072500D01*
X111251501Y-92081395D01*
X111251506Y-92081402D01*
X111418597Y-92248493D01*
X111418603Y-92248498D01*
X111604158Y-92378425D01*
X111647783Y-92433002D01*
X111654977Y-92502500D01*
X111623454Y-92564855D01*
X111604158Y-92581575D01*
X111418597Y-92711505D01*
X111251505Y-92878597D01*
X111115965Y-93072169D01*
X111115964Y-93072171D01*
X111016098Y-93286335D01*
X111016094Y-93286344D01*
X110954938Y-93514586D01*
X110954936Y-93514596D01*
X110934341Y-93749999D01*
X110934341Y-93750000D01*
X110954936Y-93985403D01*
X110954938Y-93985413D01*
X111016094Y-94213655D01*
X111016096Y-94213659D01*
X111016097Y-94213663D01*
X111091563Y-94375500D01*
X111115965Y-94427830D01*
X111115967Y-94427834D01*
X111178505Y-94517147D01*
X111251505Y-94621401D01*
X111418599Y-94788495D01*
X111515384Y-94856265D01*
X111612165Y-94924032D01*
X111612167Y-94924033D01*
X111612170Y-94924035D01*
X111826337Y-95023903D01*
X111826343Y-95023904D01*
X111826344Y-95023905D01*
X111848916Y-95029953D01*
X112054592Y-95085063D01*
X112242918Y-95101539D01*
X112289999Y-95105659D01*
X112290000Y-95105659D01*
X112290001Y-95105659D01*
X112329234Y-95102226D01*
X112525408Y-95085063D01*
X112753663Y-95023903D01*
X112967830Y-94924035D01*
X113161401Y-94788495D01*
X113328495Y-94621401D01*
X113463652Y-94428377D01*
X113518229Y-94384752D01*
X113565227Y-94375500D01*
X127713770Y-94375500D01*
X127780809Y-94395185D01*
X127826564Y-94447989D01*
X127836508Y-94517147D01*
X127807483Y-94580703D01*
X127801463Y-94587168D01*
X127664099Y-94724532D01*
X127627849Y-94760782D01*
X127572265Y-94792874D01*
X127533503Y-94803261D01*
X127327267Y-94899431D01*
X127327265Y-94899432D01*
X127140858Y-95029954D01*
X126979954Y-95190858D01*
X126849432Y-95377265D01*
X126849431Y-95377267D01*
X126822382Y-95435275D01*
X126776209Y-95487714D01*
X126709016Y-95506866D01*
X126642135Y-95486650D01*
X126597618Y-95435275D01*
X126593330Y-95426079D01*
X126570568Y-95377266D01*
X126440047Y-95190861D01*
X126440045Y-95190858D01*
X126279141Y-95029954D01*
X126092734Y-94899432D01*
X126092732Y-94899431D01*
X125886497Y-94803261D01*
X125886488Y-94803258D01*
X125666697Y-94744366D01*
X125666693Y-94744365D01*
X125666692Y-94744365D01*
X125666691Y-94744364D01*
X125666686Y-94744364D01*
X125440002Y-94724532D01*
X125439998Y-94724532D01*
X125213313Y-94744364D01*
X125213302Y-94744366D01*
X124993511Y-94803258D01*
X124993502Y-94803261D01*
X124787267Y-94899431D01*
X124787265Y-94899432D01*
X124600858Y-95029954D01*
X124439954Y-95190858D01*
X124309432Y-95377265D01*
X124309431Y-95377267D01*
X124213261Y-95583502D01*
X124213258Y-95583511D01*
X124154366Y-95803302D01*
X124154364Y-95803313D01*
X124134532Y-96029998D01*
X124134532Y-96030001D01*
X124154364Y-96256686D01*
X124154366Y-96256697D01*
X124213258Y-96476488D01*
X124213261Y-96476497D01*
X124309431Y-96682732D01*
X124309432Y-96682734D01*
X124439954Y-96869141D01*
X124600858Y-97030045D01*
X124622149Y-97044953D01*
X124787266Y-97160568D01*
X124993504Y-97256739D01*
X125213308Y-97315635D01*
X125375230Y-97329801D01*
X125439998Y-97335468D01*
X125440000Y-97335468D01*
X125440002Y-97335468D01*
X125496807Y-97330498D01*
X125666692Y-97315635D01*
X125886496Y-97256739D01*
X126092734Y-97160568D01*
X126279139Y-97030047D01*
X126440047Y-96869139D01*
X126570568Y-96682734D01*
X126597618Y-96624724D01*
X126643790Y-96572285D01*
X126710983Y-96553133D01*
X126777865Y-96573348D01*
X126822382Y-96624725D01*
X126849429Y-96682728D01*
X126849432Y-96682734D01*
X126979954Y-96869141D01*
X127140859Y-97030046D01*
X127176621Y-97055086D01*
X127220247Y-97109662D01*
X127229500Y-97156662D01*
X127229500Y-113407770D01*
X127209815Y-113474809D01*
X127193181Y-113495451D01*
X125427774Y-115260858D01*
X125366451Y-115294343D01*
X125340093Y-115297177D01*
X125109136Y-115297177D01*
X125042097Y-115277492D01*
X125005327Y-115240999D01*
X124940324Y-115141505D01*
X124928164Y-115122892D01*
X124759744Y-114939939D01*
X124563509Y-114787203D01*
X124563507Y-114787202D01*
X124563506Y-114787201D01*
X124344811Y-114668849D01*
X124344802Y-114668846D01*
X124109616Y-114588106D01*
X123864335Y-114547177D01*
X123615665Y-114547177D01*
X123370383Y-114588106D01*
X123135197Y-114668846D01*
X123135188Y-114668849D01*
X122916493Y-114787201D01*
X122720257Y-114939938D01*
X122551833Y-115122894D01*
X122415826Y-115331070D01*
X122315936Y-115558795D01*
X122254892Y-115799852D01*
X122254890Y-115799864D01*
X122234357Y-116047671D01*
X122234357Y-116047682D01*
X122254890Y-116295489D01*
X122254892Y-116295501D01*
X122315936Y-116536558D01*
X122415826Y-116764283D01*
X122551833Y-116972459D01*
X122551835Y-116972461D01*
X122551836Y-116972462D01*
X122720256Y-117155415D01*
X122801299Y-117218493D01*
X122904390Y-117298733D01*
X122916491Y-117308151D01*
X122924513Y-117312492D01*
X122974106Y-117361709D01*
X122989500Y-117421549D01*
X122989500Y-118113918D01*
X122989500Y-118113920D01*
X122989499Y-118113920D01*
X123018340Y-118258907D01*
X123018343Y-118258917D01*
X123074912Y-118395488D01*
X123074920Y-118395502D01*
X123101883Y-118435854D01*
X123101884Y-118435857D01*
X123157046Y-118518414D01*
X123157052Y-118518421D01*
X124221584Y-119582952D01*
X124221590Y-119582957D01*
X124276959Y-119619951D01*
X124276962Y-119619954D01*
X124276963Y-119619954D01*
X124344505Y-119665084D01*
X124344507Y-119665085D01*
X124344511Y-119665087D01*
X124481082Y-119721656D01*
X124481087Y-119721658D01*
X124481091Y-119721658D01*
X124481092Y-119721659D01*
X124626079Y-119750500D01*
X124626082Y-119750500D01*
X124626083Y-119750500D01*
X124773917Y-119750500D01*
X129037770Y-119750500D01*
X129104809Y-119770185D01*
X129125451Y-119786819D01*
X130853181Y-121514548D01*
X130886666Y-121575871D01*
X130889500Y-121602229D01*
X130889500Y-127903336D01*
X130869815Y-127970375D01*
X130836625Y-128004910D01*
X130800863Y-128029951D01*
X130639951Y-128190862D01*
X130509432Y-128377265D01*
X130509431Y-128377267D01*
X130413261Y-128583502D01*
X130413258Y-128583511D01*
X130354366Y-128803302D01*
X130354364Y-128803313D01*
X130334532Y-129029998D01*
X130334532Y-129030001D01*
X130354364Y-129256686D01*
X130354366Y-129256697D01*
X130413258Y-129476488D01*
X130413261Y-129476496D01*
X130509431Y-129682732D01*
X130509432Y-129682734D01*
X130639954Y-129869141D01*
X130800858Y-130030045D01*
X130800861Y-130030047D01*
X130987266Y-130160568D01*
X131193504Y-130256739D01*
X131413308Y-130315635D01*
X131575230Y-130329801D01*
X131639998Y-130335468D01*
X131640000Y-130335468D01*
X131640002Y-130335468D01*
X131696673Y-130330509D01*
X131866692Y-130315635D01*
X132086496Y-130256739D01*
X132292734Y-130160568D01*
X132479139Y-130030047D01*
X132640047Y-129869139D01*
X132770568Y-129682734D01*
X132866739Y-129476496D01*
X132925635Y-129256692D01*
X132945468Y-129030000D01*
X132925635Y-128803308D01*
X132866739Y-128583504D01*
X132770568Y-128377266D01*
X132666291Y-128228342D01*
X132640048Y-128190862D01*
X132571025Y-128121839D01*
X132479139Y-128029953D01*
X132465189Y-128020185D01*
X132443375Y-128004910D01*
X132399751Y-127950332D01*
X132390500Y-127903336D01*
X132390500Y-121166079D01*
X132361659Y-121021092D01*
X132361658Y-121021091D01*
X132361658Y-121021087D01*
X132361656Y-121021082D01*
X132305087Y-120884511D01*
X132305080Y-120884498D01*
X132222952Y-120761585D01*
X132176222Y-120714855D01*
X132118416Y-120657049D01*
X129878416Y-118417048D01*
X129878415Y-118417047D01*
X129878413Y-118417045D01*
X129830908Y-118385305D01*
X129799236Y-118364143D01*
X129755495Y-118334916D01*
X129755494Y-118334915D01*
X129755492Y-118334914D01*
X129755490Y-118334913D01*
X129618917Y-118278343D01*
X129618907Y-118278340D01*
X129473920Y-118249500D01*
X129473918Y-118249500D01*
X125062230Y-118249500D01*
X124995191Y-118229815D01*
X124974549Y-118213181D01*
X124526819Y-117765451D01*
X124493334Y-117704128D01*
X124490500Y-117677770D01*
X124490500Y-117421549D01*
X124510185Y-117354510D01*
X124555487Y-117312492D01*
X124563509Y-117308151D01*
X124759744Y-117155415D01*
X124928164Y-116972462D01*
X125005327Y-116854354D01*
X125058474Y-116808999D01*
X125109136Y-116798177D01*
X125776243Y-116798177D01*
X125873785Y-116778773D01*
X125921236Y-116769335D01*
X126057818Y-116712761D01*
X126115080Y-116674500D01*
X126115080Y-116674499D01*
X126115082Y-116674499D01*
X126161244Y-116643655D01*
X126180739Y-116630629D01*
X128562952Y-114248416D01*
X128612186Y-114174729D01*
X128645084Y-114125495D01*
X128669042Y-114067653D01*
X128681022Y-114038734D01*
X128701657Y-113988916D01*
X128701659Y-113988912D01*
X128730500Y-113843917D01*
X128730500Y-113696082D01*
X128730500Y-97156662D01*
X128750185Y-97089623D01*
X128783379Y-97055086D01*
X128792455Y-97048731D01*
X128819139Y-97030047D01*
X128980047Y-96869139D01*
X129110568Y-96682734D01*
X129163118Y-96570038D01*
X129209290Y-96517601D01*
X129276484Y-96498449D01*
X129343365Y-96518665D01*
X129388700Y-96571830D01*
X129399500Y-96622445D01*
X129399500Y-104003918D01*
X129399500Y-104003920D01*
X129399499Y-104003920D01*
X129428340Y-104148907D01*
X129428343Y-104148917D01*
X129484913Y-104285490D01*
X129484914Y-104285491D01*
X129484916Y-104285495D01*
X129506863Y-104318340D01*
X129506864Y-104318343D01*
X129567045Y-104408414D01*
X129567049Y-104408418D01*
X130446579Y-105287947D01*
X130446580Y-105287948D01*
X130446583Y-105287950D01*
X130446585Y-105287952D01*
X130465395Y-105300520D01*
X130569507Y-105370085D01*
X130630848Y-105395493D01*
X130706088Y-105426659D01*
X130808607Y-105447051D01*
X130851078Y-105455499D01*
X130851082Y-105455500D01*
X130851083Y-105455500D01*
X130998919Y-105455500D01*
X130998920Y-105455499D01*
X131143913Y-105426659D01*
X131184278Y-105409939D01*
X131231731Y-105400500D01*
X137756253Y-105400500D01*
X137823292Y-105420185D01*
X137869047Y-105472989D01*
X137878991Y-105542147D01*
X137876028Y-105556593D01*
X137814938Y-105784586D01*
X137814936Y-105784596D01*
X137794341Y-106019999D01*
X137794341Y-106020000D01*
X137814936Y-106255403D01*
X137814938Y-106255413D01*
X137876094Y-106483655D01*
X137876096Y-106483659D01*
X137876097Y-106483663D01*
X137973325Y-106692169D01*
X137975965Y-106697830D01*
X137975967Y-106697834D01*
X138111501Y-106891395D01*
X138111506Y-106891402D01*
X138278597Y-107058493D01*
X138278603Y-107058498D01*
X138464158Y-107188425D01*
X138507783Y-107243002D01*
X138514977Y-107312500D01*
X138483454Y-107374855D01*
X138464158Y-107391575D01*
X138278597Y-107521505D01*
X138111505Y-107688597D01*
X137975965Y-107882169D01*
X137975964Y-107882171D01*
X137876098Y-108096335D01*
X137876094Y-108096344D01*
X137814938Y-108324586D01*
X137814936Y-108324596D01*
X137794341Y-108559999D01*
X137794341Y-108560000D01*
X137814936Y-108795403D01*
X137814938Y-108795413D01*
X137876094Y-109023655D01*
X137876096Y-109023659D01*
X137876097Y-109023663D01*
X137956032Y-109195084D01*
X137975965Y-109237830D01*
X137975967Y-109237834D01*
X138111501Y-109431395D01*
X138111506Y-109431402D01*
X138278597Y-109598493D01*
X138278603Y-109598498D01*
X138464158Y-109728425D01*
X138507783Y-109783002D01*
X138514977Y-109852500D01*
X138483454Y-109914855D01*
X138464158Y-109931575D01*
X138278597Y-110061505D01*
X138111505Y-110228597D01*
X137976348Y-110421623D01*
X137921771Y-110465248D01*
X137874773Y-110474500D01*
X135338389Y-110474500D01*
X135277971Y-110486518D01*
X135217548Y-110498537D01*
X135217546Y-110498537D01*
X135217545Y-110498538D01*
X135217543Y-110498538D01*
X135186341Y-110511463D01*
X135103713Y-110545688D01*
X135103708Y-110545690D01*
X135001272Y-110614138D01*
X135001264Y-110614144D01*
X134464144Y-111151264D01*
X134464138Y-111151272D01*
X134429914Y-111202489D01*
X134429915Y-111202490D01*
X134395688Y-111253713D01*
X134395685Y-111253718D01*
X134383786Y-111282449D01*
X134383785Y-111282452D01*
X134348538Y-111367545D01*
X134348535Y-111367555D01*
X134324500Y-111488389D01*
X134324500Y-131578583D01*
X134317541Y-131619538D01*
X134264633Y-131770737D01*
X134264630Y-131770750D01*
X134244435Y-131949996D01*
X134244435Y-131950003D01*
X134264630Y-132129249D01*
X134264631Y-132129254D01*
X134324211Y-132299523D01*
X134350591Y-132341506D01*
X134420184Y-132452262D01*
X134547738Y-132579816D01*
X134700478Y-132675789D01*
X134826697Y-132719955D01*
X134870745Y-132735368D01*
X134870750Y-132735369D01*
X135049996Y-132755565D01*
X135050000Y-132755565D01*
X135050004Y-132755565D01*
X135229249Y-132735369D01*
X135229252Y-132735368D01*
X135229255Y-132735368D01*
X135399522Y-132675789D01*
X135552262Y-132579816D01*
X135679816Y-132452262D01*
X135775789Y-132299522D01*
X135835368Y-132129255D01*
X135835369Y-132129249D01*
X135855565Y-131950003D01*
X135855565Y-131949996D01*
X135835369Y-131770750D01*
X135835368Y-131770745D01*
X135814603Y-131711401D01*
X135775789Y-131600478D01*
X135762031Y-131578583D01*
X135679815Y-131447737D01*
X135611819Y-131379741D01*
X135578334Y-131318418D01*
X135575500Y-131292060D01*
X135575500Y-126339999D01*
X137794341Y-126339999D01*
X137794341Y-126340000D01*
X137814936Y-126575403D01*
X137814938Y-126575413D01*
X137876094Y-126803655D01*
X137876096Y-126803659D01*
X137876097Y-126803663D01*
X137944102Y-126949500D01*
X137975965Y-127017830D01*
X137975967Y-127017834D01*
X138028216Y-127092452D01*
X138111505Y-127211401D01*
X138278599Y-127378495D01*
X138375384Y-127446265D01*
X138472165Y-127514032D01*
X138472167Y-127514033D01*
X138472170Y-127514035D01*
X138686337Y-127613903D01*
X138914592Y-127675063D01*
X139102918Y-127691539D01*
X139149999Y-127695659D01*
X139150000Y-127695659D01*
X139150001Y-127695659D01*
X139189234Y-127692226D01*
X139385408Y-127675063D01*
X139613663Y-127613903D01*
X139827830Y-127514035D01*
X140021401Y-127378495D01*
X140188495Y-127211401D01*
X140324035Y-127017830D01*
X140423903Y-126803663D01*
X140485063Y-126575408D01*
X140505659Y-126340000D01*
X140485063Y-126104592D01*
X140423903Y-125876337D01*
X140324035Y-125662171D01*
X140266532Y-125580047D01*
X140188494Y-125468597D01*
X140021402Y-125301506D01*
X140021395Y-125301501D01*
X139827832Y-125165966D01*
X139827826Y-125165963D01*
X139613663Y-125066097D01*
X139613659Y-125066096D01*
X139613655Y-125066094D01*
X139385413Y-125004938D01*
X139385403Y-125004936D01*
X139150001Y-124984341D01*
X139149999Y-124984341D01*
X138914596Y-125004936D01*
X138914586Y-125004938D01*
X138686344Y-125066094D01*
X138686335Y-125066098D01*
X138472171Y-125165964D01*
X138472169Y-125165965D01*
X138278597Y-125301505D01*
X138111505Y-125468597D01*
X137975965Y-125662169D01*
X137975964Y-125662171D01*
X137876098Y-125876335D01*
X137876094Y-125876344D01*
X137814938Y-126104586D01*
X137814936Y-126104596D01*
X137794341Y-126339999D01*
X135575500Y-126339999D01*
X135575500Y-111860452D01*
X135595185Y-111793413D01*
X135611819Y-111772771D01*
X135622771Y-111761819D01*
X135684094Y-111728334D01*
X135710452Y-111725500D01*
X137874773Y-111725500D01*
X137941812Y-111745185D01*
X137976348Y-111778377D01*
X138111501Y-111971396D01*
X138111506Y-111971402D01*
X138278597Y-112138493D01*
X138278603Y-112138498D01*
X138464158Y-112268425D01*
X138507783Y-112323002D01*
X138514977Y-112392500D01*
X138483454Y-112454855D01*
X138464158Y-112471575D01*
X138278597Y-112601505D01*
X138111505Y-112768597D01*
X137975965Y-112962169D01*
X137975964Y-112962171D01*
X137876098Y-113176335D01*
X137876094Y-113176344D01*
X137814938Y-113404586D01*
X137814936Y-113404596D01*
X137794341Y-113639999D01*
X137794341Y-113640000D01*
X137814936Y-113875403D01*
X137814938Y-113875413D01*
X137876094Y-114103655D01*
X137876096Y-114103659D01*
X137876097Y-114103663D01*
X137939030Y-114238623D01*
X137975965Y-114317830D01*
X137975967Y-114317834D01*
X138111501Y-114511395D01*
X138111506Y-114511402D01*
X138278597Y-114678493D01*
X138278603Y-114678498D01*
X138464158Y-114808425D01*
X138507783Y-114863002D01*
X138514977Y-114932500D01*
X138483454Y-114994855D01*
X138464158Y-115011575D01*
X138278597Y-115141505D01*
X138111505Y-115308597D01*
X137975965Y-115502169D01*
X137975964Y-115502171D01*
X137876098Y-115716335D01*
X137876094Y-115716344D01*
X137814938Y-115944586D01*
X137814936Y-115944596D01*
X137794341Y-116179999D01*
X137794341Y-116180000D01*
X137814936Y-116415403D01*
X137814938Y-116415413D01*
X137876094Y-116643655D01*
X137876096Y-116643659D01*
X137876097Y-116643663D01*
X137955593Y-116814142D01*
X137975965Y-116857830D01*
X137975967Y-116857834D01*
X138111501Y-117051395D01*
X138111506Y-117051402D01*
X138278597Y-117218493D01*
X138278603Y-117218498D01*
X138464158Y-117348425D01*
X138507783Y-117403002D01*
X138514977Y-117472500D01*
X138483454Y-117534855D01*
X138464158Y-117551575D01*
X138278597Y-117681505D01*
X138111505Y-117848597D01*
X137975965Y-118042169D01*
X137975964Y-118042171D01*
X137876098Y-118256335D01*
X137876094Y-118256344D01*
X137814938Y-118484586D01*
X137814936Y-118484596D01*
X137794341Y-118719999D01*
X137794341Y-118720000D01*
X137814936Y-118955403D01*
X137814938Y-118955413D01*
X137876094Y-119183655D01*
X137876096Y-119183659D01*
X137876097Y-119183663D01*
X137958324Y-119359999D01*
X137975965Y-119397830D01*
X137975967Y-119397834D01*
X138058453Y-119515635D01*
X138105592Y-119582957D01*
X138111501Y-119591395D01*
X138111506Y-119591402D01*
X138278597Y-119758493D01*
X138278603Y-119758498D01*
X138464158Y-119888425D01*
X138507783Y-119943002D01*
X138514977Y-120012500D01*
X138483454Y-120074855D01*
X138464158Y-120091575D01*
X138278597Y-120221505D01*
X138111505Y-120388597D01*
X137975965Y-120582169D01*
X137975964Y-120582171D01*
X137876098Y-120796335D01*
X137876094Y-120796344D01*
X137814938Y-121024586D01*
X137814936Y-121024596D01*
X137794341Y-121259999D01*
X137794341Y-121260000D01*
X137814936Y-121495403D01*
X137814938Y-121495413D01*
X137876094Y-121723655D01*
X137876096Y-121723659D01*
X137876097Y-121723663D01*
X137943434Y-121868067D01*
X137975965Y-121937830D01*
X137975967Y-121937834D01*
X138084281Y-122092521D01*
X138111505Y-122131401D01*
X138278599Y-122298495D01*
X138368731Y-122361606D01*
X138472165Y-122434032D01*
X138472167Y-122434033D01*
X138472170Y-122434035D01*
X138686337Y-122533903D01*
X138914592Y-122595063D01*
X139102918Y-122611539D01*
X139149999Y-122615659D01*
X139150000Y-122615659D01*
X139150001Y-122615659D01*
X139189234Y-122612226D01*
X139385408Y-122595063D01*
X139613663Y-122533903D01*
X139827830Y-122434035D01*
X140021401Y-122298495D01*
X140188495Y-122131401D01*
X140324035Y-121937830D01*
X140423903Y-121723663D01*
X140485063Y-121495408D01*
X140505659Y-121260000D01*
X140485063Y-121024592D01*
X140423903Y-120796337D01*
X140324035Y-120582171D01*
X140297547Y-120544341D01*
X140188494Y-120388597D01*
X140021402Y-120221506D01*
X140021396Y-120221501D01*
X139835842Y-120091575D01*
X139792217Y-120036998D01*
X139785023Y-119967500D01*
X139816546Y-119905145D01*
X139835842Y-119888425D01*
X139928330Y-119823664D01*
X140021401Y-119758495D01*
X140188495Y-119591401D01*
X140324035Y-119397830D01*
X140423903Y-119183663D01*
X140485063Y-118955408D01*
X140505659Y-118720000D01*
X140485063Y-118484592D01*
X140423903Y-118256337D01*
X140324035Y-118042171D01*
X140313796Y-118027547D01*
X140188494Y-117848597D01*
X140021402Y-117681506D01*
X140021396Y-117681501D01*
X139835842Y-117551575D01*
X139792217Y-117496998D01*
X139785023Y-117427500D01*
X139816546Y-117365145D01*
X139835842Y-117348425D01*
X139931115Y-117281714D01*
X140021401Y-117218495D01*
X140188495Y-117051401D01*
X140324035Y-116857830D01*
X140423903Y-116643663D01*
X140485063Y-116415408D01*
X140485680Y-116408353D01*
X140511132Y-116343285D01*
X140567723Y-116302307D01*
X140637485Y-116298428D01*
X140696889Y-116331480D01*
X141664141Y-117298732D01*
X141664142Y-117298733D01*
X141708638Y-117343229D01*
X141749562Y-117384153D01*
X141783046Y-117445477D01*
X141778062Y-117515168D01*
X141763456Y-117542955D01*
X141757421Y-117551575D01*
X141739431Y-117577267D01*
X141643261Y-117783502D01*
X141643258Y-117783511D01*
X141584366Y-118003302D01*
X141584364Y-118003313D01*
X141564532Y-118229998D01*
X141564532Y-118230001D01*
X141584364Y-118456686D01*
X141584366Y-118456697D01*
X141643258Y-118676488D01*
X141643261Y-118676497D01*
X141739431Y-118882732D01*
X141739432Y-118882734D01*
X141869954Y-119069141D01*
X142030858Y-119230045D01*
X142030861Y-119230047D01*
X142217266Y-119360568D01*
X142423504Y-119456739D01*
X142643308Y-119515635D01*
X142805230Y-119529801D01*
X142869998Y-119535468D01*
X142870000Y-119535468D01*
X142870002Y-119535468D01*
X142926673Y-119530509D01*
X143096692Y-119515635D01*
X143316496Y-119456739D01*
X143522734Y-119360568D01*
X143709139Y-119230047D01*
X143759065Y-119180121D01*
X143820388Y-119146635D01*
X143890079Y-119151619D01*
X143946013Y-119193490D01*
X143963789Y-119226846D01*
X144024211Y-119399524D01*
X144091079Y-119505942D01*
X144097168Y-119515633D01*
X144105493Y-119528881D01*
X144124500Y-119594854D01*
X144124500Y-121700500D01*
X144104815Y-121767539D01*
X144052011Y-121813294D01*
X144000500Y-121824500D01*
X143088389Y-121824500D01*
X143027971Y-121836518D01*
X142967548Y-121848537D01*
X142967543Y-121848538D01*
X142933546Y-121862620D01*
X142920397Y-121868067D01*
X142853715Y-121895688D01*
X142853709Y-121895691D01*
X142847263Y-121899999D01*
X142847262Y-121900000D01*
X142751268Y-121964140D01*
X142725427Y-121989982D01*
X142664142Y-122051267D01*
X142384144Y-122331264D01*
X142384138Y-122331272D01*
X142315690Y-122433708D01*
X142315688Y-122433713D01*
X142287626Y-122501461D01*
X142287626Y-122501463D01*
X142268537Y-122547548D01*
X142268536Y-122547552D01*
X142268536Y-122547553D01*
X142268535Y-122547556D01*
X142244500Y-122668389D01*
X142244500Y-123365811D01*
X142224815Y-123432850D01*
X142191623Y-123467386D01*
X142030859Y-123579953D01*
X141869954Y-123740858D01*
X141739432Y-123927265D01*
X141739431Y-123927267D01*
X141643261Y-124133502D01*
X141643258Y-124133511D01*
X141584366Y-124353302D01*
X141584364Y-124353313D01*
X141564532Y-124579998D01*
X141564532Y-124580001D01*
X141584364Y-124806686D01*
X141584366Y-124806697D01*
X141643258Y-125026488D01*
X141643261Y-125026497D01*
X141739431Y-125232732D01*
X141739432Y-125232734D01*
X141869954Y-125419141D01*
X142030858Y-125580045D01*
X142030861Y-125580047D01*
X142217266Y-125710568D01*
X142423504Y-125806739D01*
X142643308Y-125865635D01*
X142805230Y-125879801D01*
X142869998Y-125885468D01*
X142870000Y-125885468D01*
X142870002Y-125885468D01*
X142926673Y-125880509D01*
X143096692Y-125865635D01*
X143316496Y-125806739D01*
X143522734Y-125710568D01*
X143709139Y-125580047D01*
X143870047Y-125419139D01*
X143982613Y-125258377D01*
X144037189Y-125214752D01*
X144084188Y-125205500D01*
X147081607Y-125205500D01*
X147142029Y-125193481D01*
X147202452Y-125181463D01*
X147239867Y-125165965D01*
X147316286Y-125134312D01*
X147367509Y-125100084D01*
X147418733Y-125065858D01*
X147505858Y-124978733D01*
X147505858Y-124978731D01*
X147516066Y-124968524D01*
X147516067Y-124968521D01*
X151787772Y-120696819D01*
X151849095Y-120663334D01*
X151875453Y-120660500D01*
X152990894Y-120660500D01*
X153057933Y-120680185D01*
X153103688Y-120732989D01*
X153113632Y-120802147D01*
X153110669Y-120816593D01*
X153054938Y-121024586D01*
X153054936Y-121024596D01*
X153034341Y-121259999D01*
X153034341Y-121260000D01*
X153054936Y-121495403D01*
X153054938Y-121495413D01*
X153116094Y-121723655D01*
X153116096Y-121723659D01*
X153116097Y-121723663D01*
X153183434Y-121868067D01*
X153215965Y-121937830D01*
X153215967Y-121937834D01*
X153324281Y-122092521D01*
X153346907Y-122124835D01*
X153351501Y-122131395D01*
X153351506Y-122131402D01*
X153518597Y-122298493D01*
X153518603Y-122298498D01*
X153704158Y-122428425D01*
X153747783Y-122483002D01*
X153754977Y-122552500D01*
X153723454Y-122614855D01*
X153704158Y-122631575D01*
X153518597Y-122761505D01*
X153351505Y-122928597D01*
X153215965Y-123122169D01*
X153215964Y-123122171D01*
X153116098Y-123336335D01*
X153116094Y-123336344D01*
X153054938Y-123564586D01*
X153054936Y-123564596D01*
X153034341Y-123799999D01*
X153034341Y-123800000D01*
X153054936Y-124035403D01*
X153054938Y-124035413D01*
X153116094Y-124263655D01*
X153116096Y-124263659D01*
X153116097Y-124263663D01*
X153157902Y-124353313D01*
X153215965Y-124477830D01*
X153215967Y-124477834D01*
X153351501Y-124671395D01*
X153351506Y-124671402D01*
X153518597Y-124838493D01*
X153518603Y-124838498D01*
X153704158Y-124968425D01*
X153747783Y-125023002D01*
X153754977Y-125092500D01*
X153723454Y-125154855D01*
X153704158Y-125171575D01*
X153518597Y-125301505D01*
X153351505Y-125468597D01*
X153215965Y-125662169D01*
X153215964Y-125662171D01*
X153116098Y-125876335D01*
X153116094Y-125876344D01*
X153054938Y-126104586D01*
X153054936Y-126104596D01*
X153034341Y-126339999D01*
X153034341Y-126340000D01*
X153054936Y-126575403D01*
X153054938Y-126575413D01*
X153116094Y-126803655D01*
X153116096Y-126803659D01*
X153116097Y-126803663D01*
X153184102Y-126949500D01*
X153215965Y-127017830D01*
X153215967Y-127017834D01*
X153268216Y-127092452D01*
X153351505Y-127211401D01*
X153518599Y-127378495D01*
X153615384Y-127446265D01*
X153712165Y-127514032D01*
X153712167Y-127514033D01*
X153712170Y-127514035D01*
X153926337Y-127613903D01*
X154154592Y-127675063D01*
X154342918Y-127691539D01*
X154389999Y-127695659D01*
X154390000Y-127695659D01*
X154390001Y-127695659D01*
X154429234Y-127692226D01*
X154625408Y-127675063D01*
X154853663Y-127613903D01*
X155067830Y-127514035D01*
X155261401Y-127378495D01*
X155428495Y-127211401D01*
X155564035Y-127017830D01*
X155663903Y-126803663D01*
X155725063Y-126575408D01*
X155745659Y-126340000D01*
X155725063Y-126104592D01*
X155663903Y-125876337D01*
X155564035Y-125662171D01*
X155506532Y-125580047D01*
X155428494Y-125468597D01*
X155261402Y-125301506D01*
X155261396Y-125301501D01*
X155075842Y-125171575D01*
X155032217Y-125116998D01*
X155025023Y-125047500D01*
X155056546Y-124985145D01*
X155075842Y-124968425D01*
X155098026Y-124952891D01*
X155261401Y-124838495D01*
X155428495Y-124671401D01*
X155564035Y-124477830D01*
X155663903Y-124263663D01*
X155725063Y-124035408D01*
X155745659Y-123800000D01*
X155725063Y-123564592D01*
X155663903Y-123336337D01*
X155564035Y-123122171D01*
X155539203Y-123086706D01*
X155428494Y-122928597D01*
X155261402Y-122761506D01*
X155261396Y-122761501D01*
X155075842Y-122631575D01*
X155032217Y-122576998D01*
X155025023Y-122507500D01*
X155056546Y-122445145D01*
X155075842Y-122428425D01*
X155168330Y-122363664D01*
X155261401Y-122298495D01*
X155428495Y-122131401D01*
X155564035Y-121937830D01*
X155663903Y-121723663D01*
X155725063Y-121495408D01*
X155745659Y-121260000D01*
X155725063Y-121024592D01*
X155687527Y-120884505D01*
X155669331Y-120816593D01*
X155670994Y-120746743D01*
X155710157Y-120688881D01*
X155774386Y-120661377D01*
X155789106Y-120660500D01*
X156276607Y-120660500D01*
X156337029Y-120648481D01*
X156397452Y-120636463D01*
X156431842Y-120622218D01*
X156511286Y-120589312D01*
X156578588Y-120544341D01*
X156613733Y-120520858D01*
X156700858Y-120433733D01*
X156700859Y-120433731D01*
X156707925Y-120426665D01*
X156707928Y-120426661D01*
X157048729Y-120085860D01*
X157048733Y-120085858D01*
X157135858Y-119998733D01*
X157204311Y-119896286D01*
X157204312Y-119896285D01*
X157204313Y-119896282D01*
X157204315Y-119896279D01*
X157225200Y-119845856D01*
X157251463Y-119782451D01*
X157275500Y-119661607D01*
X157275500Y-119538393D01*
X157275500Y-118110452D01*
X157295185Y-118043413D01*
X157311819Y-118022771D01*
X157372771Y-117961819D01*
X157434094Y-117928334D01*
X157460452Y-117925500D01*
X162839548Y-117925500D01*
X162906587Y-117945185D01*
X162927229Y-117961819D01*
X163138181Y-118172771D01*
X163171666Y-118234094D01*
X163174500Y-118260452D01*
X163174500Y-118911611D01*
X163198535Y-119032444D01*
X163198540Y-119032461D01*
X163245685Y-119146281D01*
X163245691Y-119146292D01*
X163277511Y-119193911D01*
X163277512Y-119193915D01*
X163277513Y-119193915D01*
X163314138Y-119248728D01*
X163314144Y-119248736D01*
X163405586Y-119340178D01*
X163405608Y-119340198D01*
X163821016Y-119755606D01*
X163821045Y-119755637D01*
X163911264Y-119845856D01*
X163911267Y-119845858D01*
X163961616Y-119879500D01*
X164013715Y-119914312D01*
X164050690Y-119929627D01*
X164050691Y-119929628D01*
X164050692Y-119929628D01*
X164127548Y-119961463D01*
X164157899Y-119967500D01*
X164187484Y-119973385D01*
X164187504Y-119973388D01*
X164187526Y-119973393D01*
X164248391Y-119985499D01*
X164248392Y-119985500D01*
X164248393Y-119985500D01*
X164248394Y-119985500D01*
X164364773Y-119985500D01*
X164431812Y-120005185D01*
X164466348Y-120038377D01*
X164601501Y-120231396D01*
X164601506Y-120231402D01*
X164768597Y-120398493D01*
X164768603Y-120398498D01*
X164954158Y-120528425D01*
X164997783Y-120583002D01*
X165004977Y-120652500D01*
X164973454Y-120714855D01*
X164954158Y-120731575D01*
X164768597Y-120861505D01*
X164601505Y-121028597D01*
X164465965Y-121222169D01*
X164465964Y-121222171D01*
X164366098Y-121436335D01*
X164366094Y-121436344D01*
X164304938Y-121664586D01*
X164304936Y-121664596D01*
X164284341Y-121899999D01*
X164304936Y-122135403D01*
X164304938Y-122135413D01*
X164366094Y-122363655D01*
X164366096Y-122363659D01*
X164366097Y-122363663D01*
X164445482Y-122533905D01*
X164465965Y-122577830D01*
X164465967Y-122577834D01*
X164550621Y-122698731D01*
X164601505Y-122771401D01*
X164768599Y-122938495D01*
X164813717Y-122970087D01*
X164962165Y-123074032D01*
X164962167Y-123074033D01*
X164962170Y-123074035D01*
X165176337Y-123173903D01*
X165404592Y-123235063D01*
X165592918Y-123251539D01*
X165639999Y-123255659D01*
X165640000Y-123255659D01*
X165640001Y-123255659D01*
X165679234Y-123252226D01*
X165875408Y-123235063D01*
X166103663Y-123173903D01*
X166317830Y-123074035D01*
X166511401Y-122938495D01*
X166678495Y-122771401D01*
X166814035Y-122577830D01*
X166913903Y-122363663D01*
X166975063Y-122135408D01*
X166995659Y-121900000D01*
X166975063Y-121664592D01*
X166913903Y-121436337D01*
X166814035Y-121222171D01*
X166774762Y-121166082D01*
X166678494Y-121028597D01*
X166511402Y-120861506D01*
X166511401Y-120861505D01*
X166426629Y-120802147D01*
X166325839Y-120731573D01*
X166282216Y-120676997D01*
X166275023Y-120607498D01*
X166306545Y-120545144D01*
X166325831Y-120528432D01*
X166511401Y-120398495D01*
X166678495Y-120231401D01*
X166814035Y-120037830D01*
X166913903Y-119823663D01*
X166975063Y-119595408D01*
X166995659Y-119360000D01*
X166975063Y-119124592D01*
X166913903Y-118896337D01*
X166814035Y-118682171D01*
X166810061Y-118676496D01*
X166678496Y-118488600D01*
X166625750Y-118435854D01*
X166556567Y-118366671D01*
X166523084Y-118305351D01*
X166528068Y-118235659D01*
X166569939Y-118179725D01*
X166600915Y-118162810D01*
X166732331Y-118113796D01*
X166847546Y-118027546D01*
X166933796Y-117912331D01*
X166984091Y-117777483D01*
X166990500Y-117717873D01*
X166990499Y-117444456D01*
X167010183Y-117377418D01*
X167045604Y-117341358D01*
X167047575Y-117340040D01*
X167070833Y-117324500D01*
X167098733Y-117305858D01*
X167185858Y-117218733D01*
X167185858Y-117218731D01*
X167196066Y-117208524D01*
X167196067Y-117208521D01*
X169375858Y-115028733D01*
X169444312Y-114926285D01*
X169491463Y-114812451D01*
X169515501Y-114691606D01*
X169515501Y-114568393D01*
X169515501Y-114563283D01*
X169515500Y-114563257D01*
X169515500Y-62328393D01*
X169515499Y-62328389D01*
X169501408Y-62257546D01*
X169491463Y-62207548D01*
X169444311Y-62093714D01*
X169444310Y-62093713D01*
X169444307Y-62093707D01*
X169375858Y-61991267D01*
X169375855Y-61991263D01*
X169285637Y-61901045D01*
X169285606Y-61901016D01*
X168040198Y-60655608D01*
X168040178Y-60655586D01*
X167948736Y-60564144D01*
X167948728Y-60564138D01*
X167875939Y-60515502D01*
X167875938Y-60515501D01*
X167846290Y-60495690D01*
X167846286Y-60495688D01*
X167765792Y-60462347D01*
X167732453Y-60448537D01*
X167722427Y-60446543D01*
X167672029Y-60436518D01*
X167611610Y-60424500D01*
X167611607Y-60424500D01*
X167611606Y-60424500D01*
X167314499Y-60424500D01*
X167247460Y-60404815D01*
X167201705Y-60352011D01*
X167190499Y-60300500D01*
X167190499Y-60152129D01*
X167190498Y-60152123D01*
X167190497Y-60152116D01*
X167184091Y-60092517D01*
X167133796Y-59957669D01*
X167133795Y-59957668D01*
X167133793Y-59957664D01*
X167047547Y-59842455D01*
X167047544Y-59842452D01*
X166932335Y-59756206D01*
X166932328Y-59756202D01*
X166797482Y-59705908D01*
X166797483Y-59705908D01*
X166737883Y-59699501D01*
X166737881Y-59699500D01*
X166737873Y-59699500D01*
X166737865Y-59699500D01*
X166548830Y-59699500D01*
X166481791Y-59679815D01*
X166436036Y-59627011D01*
X166427210Y-59594265D01*
X166426689Y-59594369D01*
X166401464Y-59467555D01*
X166401463Y-59467548D01*
X166354311Y-59353714D01*
X166354310Y-59353713D01*
X166354307Y-59353707D01*
X166285858Y-59251267D01*
X166285855Y-59251263D01*
X166195637Y-59161045D01*
X166195606Y-59161016D01*
X165240198Y-58205608D01*
X165240178Y-58205586D01*
X165148733Y-58114141D01*
X165097509Y-58079915D01*
X165046286Y-58045688D01*
X165046283Y-58045686D01*
X165046280Y-58045685D01*
X164965792Y-58012347D01*
X164932453Y-57998537D01*
X164922427Y-57996543D01*
X164872029Y-57986518D01*
X164811610Y-57974500D01*
X164811607Y-57974500D01*
X164811606Y-57974500D01*
X128361607Y-57974500D01*
X128238393Y-57974500D01*
X128238389Y-57974500D01*
X128177971Y-57986518D01*
X128134743Y-57995116D01*
X128117546Y-57998537D01*
X128003716Y-58045687D01*
X128003707Y-58045692D01*
X127901268Y-58114140D01*
X127857705Y-58157703D01*
X127814142Y-58201267D01*
X125144144Y-60871264D01*
X125144138Y-60871272D01*
X125075690Y-60973708D01*
X125075688Y-60973713D01*
X125028540Y-61087538D01*
X125028535Y-61087554D01*
X125004935Y-61206205D01*
X125004932Y-61206223D01*
X125004500Y-61208393D01*
X125004500Y-62695811D01*
X124984815Y-62762850D01*
X124951623Y-62797386D01*
X124790859Y-62909953D01*
X124629954Y-63070858D01*
X124499432Y-63257265D01*
X124499431Y-63257267D01*
X124472382Y-63315275D01*
X124426209Y-63367714D01*
X124359016Y-63386866D01*
X124292135Y-63366650D01*
X124247618Y-63315275D01*
X124220568Y-63257267D01*
X124220567Y-63257265D01*
X124090045Y-63070858D01*
X123929141Y-62909954D01*
X123742734Y-62779432D01*
X123742732Y-62779431D01*
X123536497Y-62683261D01*
X123536488Y-62683258D01*
X123316697Y-62624366D01*
X123316693Y-62624365D01*
X123316692Y-62624365D01*
X123316691Y-62624364D01*
X123316686Y-62624364D01*
X123090002Y-62604532D01*
X123089998Y-62604532D01*
X122863313Y-62624364D01*
X122863302Y-62624366D01*
X122643511Y-62683258D01*
X122643502Y-62683261D01*
X122437267Y-62779431D01*
X122437265Y-62779432D01*
X122250858Y-62909954D01*
X122089954Y-63070858D01*
X121959432Y-63257265D01*
X121959431Y-63257267D01*
X121932382Y-63315275D01*
X121886209Y-63367714D01*
X121819016Y-63386866D01*
X121752135Y-63366650D01*
X121707618Y-63315275D01*
X121680568Y-63257267D01*
X121680567Y-63257265D01*
X121550045Y-63070858D01*
X121389141Y-62909954D01*
X121202734Y-62779432D01*
X121202732Y-62779431D01*
X120996497Y-62683261D01*
X120996488Y-62683258D01*
X120776697Y-62624366D01*
X120776693Y-62624365D01*
X120776692Y-62624365D01*
X120776691Y-62624364D01*
X120776686Y-62624364D01*
X120550002Y-62604532D01*
X120549998Y-62604532D01*
X120323313Y-62624364D01*
X120323302Y-62624366D01*
X120103511Y-62683258D01*
X120103502Y-62683261D01*
X119897267Y-62779431D01*
X119897265Y-62779432D01*
X119710858Y-62909954D01*
X119549954Y-63070858D01*
X119419432Y-63257265D01*
X119419431Y-63257267D01*
X119323261Y-63463502D01*
X119323258Y-63463511D01*
X119264366Y-63683302D01*
X119264364Y-63683313D01*
X119244532Y-63909998D01*
X119244532Y-63910001D01*
X119264364Y-64136686D01*
X119264366Y-64136697D01*
X119323258Y-64356488D01*
X119323261Y-64356497D01*
X119419431Y-64562732D01*
X119419432Y-64562734D01*
X119549954Y-64749141D01*
X119710858Y-64910045D01*
X119710861Y-64910047D01*
X119897266Y-65040568D01*
X120103504Y-65136739D01*
X120323308Y-65195635D01*
X120485230Y-65209801D01*
X120549998Y-65215468D01*
X120550000Y-65215468D01*
X120550002Y-65215468D01*
X120606673Y-65210509D01*
X120776692Y-65195635D01*
X120996496Y-65136739D01*
X121202734Y-65040568D01*
X121389139Y-64910047D01*
X121550047Y-64749139D01*
X121680568Y-64562734D01*
X121707618Y-64504724D01*
X121753790Y-64452285D01*
X121820983Y-64433133D01*
X121887865Y-64453348D01*
X121932382Y-64504725D01*
X121959429Y-64562728D01*
X121959432Y-64562734D01*
X122089954Y-64749141D01*
X122250858Y-64910045D01*
X122250861Y-64910047D01*
X122437266Y-65040568D01*
X122643504Y-65136739D01*
X122863308Y-65195635D01*
X123025230Y-65209801D01*
X123089998Y-65215468D01*
X123090000Y-65215468D01*
X123090002Y-65215468D01*
X123146673Y-65210509D01*
X123316692Y-65195635D01*
X123536496Y-65136739D01*
X123742734Y-65040568D01*
X123929139Y-64910047D01*
X124090047Y-64749139D01*
X124220568Y-64562734D01*
X124247618Y-64504724D01*
X124293790Y-64452285D01*
X124360983Y-64433133D01*
X124427865Y-64453348D01*
X124472382Y-64504725D01*
X124499429Y-64562728D01*
X124499432Y-64562734D01*
X124629954Y-64749141D01*
X124790858Y-64910045D01*
X124790861Y-64910047D01*
X124977266Y-65040568D01*
X125183504Y-65136739D01*
X125403308Y-65195635D01*
X125565230Y-65209801D01*
X125629998Y-65215468D01*
X125630000Y-65215468D01*
X125630002Y-65215468D01*
X125686673Y-65210509D01*
X125856692Y-65195635D01*
X126076496Y-65136739D01*
X126282734Y-65040568D01*
X126469139Y-64910047D01*
X126630047Y-64749139D01*
X126760568Y-64562734D01*
X126787618Y-64504724D01*
X126833790Y-64452285D01*
X126900983Y-64433133D01*
X126967865Y-64453348D01*
X127012382Y-64504725D01*
X127039429Y-64562728D01*
X127039432Y-64562734D01*
X127169954Y-64749141D01*
X127330858Y-64910045D01*
X127330861Y-64910047D01*
X127517266Y-65040568D01*
X127723504Y-65136739D01*
X127943308Y-65195635D01*
X128105230Y-65209801D01*
X128169998Y-65215468D01*
X128170000Y-65215468D01*
X128170002Y-65215468D01*
X128226673Y-65210509D01*
X128396692Y-65195635D01*
X128616496Y-65136739D01*
X128822734Y-65040568D01*
X129009139Y-64910047D01*
X129170047Y-64749139D01*
X129300568Y-64562734D01*
X129396739Y-64356496D01*
X129455635Y-64136692D01*
X129475468Y-63910000D01*
X129455635Y-63683308D01*
X129396739Y-63463504D01*
X129300568Y-63257266D01*
X129170047Y-63070861D01*
X129170045Y-63070858D01*
X129009141Y-62909954D01*
X128822734Y-62779432D01*
X128822732Y-62779431D01*
X128616497Y-62683261D01*
X128616488Y-62683258D01*
X128396697Y-62624366D01*
X128396693Y-62624365D01*
X128396692Y-62624365D01*
X128396691Y-62624364D01*
X128396686Y-62624364D01*
X128170002Y-62604532D01*
X128169998Y-62604532D01*
X127943313Y-62624364D01*
X127943302Y-62624366D01*
X127723511Y-62683258D01*
X127723502Y-62683261D01*
X127517267Y-62779431D01*
X127517265Y-62779432D01*
X127330858Y-62909954D01*
X127169954Y-63070858D01*
X127039432Y-63257265D01*
X127039431Y-63257267D01*
X127012382Y-63315275D01*
X126966209Y-63367714D01*
X126899016Y-63386866D01*
X126832135Y-63366650D01*
X126787618Y-63315275D01*
X126760568Y-63257267D01*
X126760567Y-63257265D01*
X126630045Y-63070858D01*
X126469140Y-62909953D01*
X126308377Y-62797386D01*
X126264752Y-62742809D01*
X126255500Y-62695811D01*
X126255500Y-61580452D01*
X126275185Y-61513413D01*
X126291819Y-61492771D01*
X128522771Y-59261819D01*
X128584094Y-59228334D01*
X128610452Y-59225500D01*
X164439548Y-59225500D01*
X164506587Y-59245185D01*
X164527229Y-59261819D01*
X164810759Y-59545349D01*
X164844244Y-59606672D01*
X164839260Y-59676364D01*
X164797388Y-59732297D01*
X164766416Y-59749210D01*
X164747674Y-59756200D01*
X164747664Y-59756206D01*
X164632455Y-59842452D01*
X164632452Y-59842455D01*
X164546206Y-59957664D01*
X164546202Y-59957671D01*
X164495908Y-60092517D01*
X164489501Y-60152116D01*
X164489501Y-60152123D01*
X164489500Y-60152135D01*
X164489500Y-61947870D01*
X164489501Y-61947876D01*
X164495908Y-62007483D01*
X164546202Y-62142328D01*
X164546206Y-62142335D01*
X164632452Y-62257544D01*
X164632455Y-62257547D01*
X164747664Y-62343793D01*
X164747671Y-62343797D01*
X164882517Y-62394091D01*
X164882516Y-62394091D01*
X164889444Y-62394835D01*
X164942127Y-62400500D01*
X166737872Y-62400499D01*
X166797483Y-62394091D01*
X166932331Y-62343796D01*
X167047546Y-62257546D01*
X167133796Y-62142331D01*
X167184091Y-62007483D01*
X167190500Y-61947873D01*
X167190500Y-61874452D01*
X167210185Y-61807413D01*
X167262989Y-61761658D01*
X167332147Y-61751714D01*
X167395703Y-61780739D01*
X167402181Y-61786771D01*
X168228181Y-62612771D01*
X168261666Y-62674094D01*
X168264500Y-62700452D01*
X168264500Y-81230936D01*
X168244815Y-81297975D01*
X168192011Y-81343730D01*
X168122853Y-81353674D01*
X168059297Y-81324649D01*
X168021523Y-81265871D01*
X168018884Y-81255135D01*
X168017531Y-81248334D01*
X168017125Y-81246291D01*
X168017125Y-81246286D01*
X168017124Y-81246287D01*
X168017124Y-81246286D01*
X168001463Y-81167548D01*
X167954311Y-81053714D01*
X167925829Y-81011088D01*
X167885858Y-80951267D01*
X167798733Y-80864142D01*
X167798732Y-80864141D01*
X167492927Y-80558337D01*
X167492925Y-80558334D01*
X167492925Y-80558335D01*
X167485858Y-80551268D01*
X167485858Y-80551267D01*
X167398733Y-80464142D01*
X167398732Y-80464141D01*
X167398731Y-80464140D01*
X167347509Y-80429915D01*
X167296287Y-80395689D01*
X167296286Y-80395688D01*
X167296283Y-80395686D01*
X167296280Y-80395685D01*
X167199206Y-80355477D01*
X167199201Y-80355475D01*
X167182452Y-80348536D01*
X167178505Y-80347339D01*
X167120069Y-80309036D01*
X167102128Y-80281086D01*
X167014035Y-80092171D01*
X167014034Y-80092169D01*
X166878494Y-79898597D01*
X166711402Y-79731506D01*
X166711396Y-79731501D01*
X166525842Y-79601575D01*
X166482217Y-79546998D01*
X166475023Y-79477500D01*
X166506546Y-79415145D01*
X166525842Y-79398425D01*
X166561020Y-79373793D01*
X166711401Y-79268495D01*
X166878495Y-79101401D01*
X167014035Y-78907830D01*
X167113903Y-78693663D01*
X167175063Y-78465408D01*
X167195659Y-78230000D01*
X167175063Y-77994592D01*
X167120293Y-77790185D01*
X167113905Y-77766344D01*
X167113904Y-77766343D01*
X167113903Y-77766337D01*
X167014035Y-77552171D01*
X166966066Y-77483663D01*
X166878494Y-77358597D01*
X166711402Y-77191506D01*
X166711395Y-77191501D01*
X166517834Y-77055967D01*
X166517830Y-77055965D01*
X166440703Y-77020000D01*
X166303663Y-76956097D01*
X166303659Y-76956096D01*
X166303655Y-76956094D01*
X166075413Y-76894938D01*
X166075403Y-76894936D01*
X165840001Y-76874341D01*
X165839999Y-76874341D01*
X165604596Y-76894936D01*
X165604586Y-76894938D01*
X165376344Y-76956094D01*
X165376335Y-76956098D01*
X165162171Y-77055964D01*
X165162169Y-77055965D01*
X164968597Y-77191505D01*
X164801505Y-77358597D01*
X164665965Y-77552169D01*
X164665964Y-77552171D01*
X164566098Y-77766335D01*
X164566094Y-77766344D01*
X164504938Y-77994586D01*
X164504936Y-77994596D01*
X164484341Y-78229999D01*
X164484341Y-78230000D01*
X164504936Y-78465403D01*
X164504938Y-78465413D01*
X164566094Y-78693655D01*
X164566096Y-78693659D01*
X164566097Y-78693663D01*
X164650977Y-78875688D01*
X164665965Y-78907830D01*
X164665967Y-78907834D01*
X164801501Y-79101395D01*
X164801506Y-79101402D01*
X164968597Y-79268493D01*
X164968603Y-79268498D01*
X165154158Y-79398425D01*
X165197783Y-79453002D01*
X165204977Y-79522500D01*
X165173454Y-79584855D01*
X165154158Y-79601575D01*
X164968597Y-79731505D01*
X164801505Y-79898597D01*
X164665965Y-80092169D01*
X164665964Y-80092171D01*
X164566098Y-80306335D01*
X164566094Y-80306344D01*
X164504938Y-80534586D01*
X164504936Y-80534596D01*
X164484341Y-80769999D01*
X164484341Y-80770000D01*
X164504936Y-81005403D01*
X164504938Y-81005413D01*
X164566094Y-81233655D01*
X164566096Y-81233659D01*
X164566097Y-81233663D01*
X164630806Y-81372431D01*
X164665965Y-81447830D01*
X164665967Y-81447834D01*
X164801501Y-81641395D01*
X164801506Y-81641402D01*
X164968597Y-81808493D01*
X164968603Y-81808498D01*
X165154158Y-81938425D01*
X165197783Y-81993002D01*
X165204977Y-82062500D01*
X165173454Y-82124855D01*
X165154158Y-82141575D01*
X164968597Y-82271505D01*
X164801505Y-82438597D01*
X164665965Y-82632169D01*
X164665964Y-82632171D01*
X164566098Y-82846335D01*
X164566094Y-82846344D01*
X164504938Y-83074586D01*
X164504936Y-83074596D01*
X164484341Y-83309999D01*
X164484341Y-83310000D01*
X164504936Y-83545403D01*
X164504938Y-83545413D01*
X164566094Y-83773655D01*
X164566096Y-83773659D01*
X164566097Y-83773663D01*
X164631227Y-83913334D01*
X164665965Y-83987830D01*
X164665967Y-83987834D01*
X164711549Y-84052931D01*
X164796706Y-84174548D01*
X164801501Y-84181395D01*
X164801506Y-84181402D01*
X164968597Y-84348493D01*
X164968603Y-84348498D01*
X165154158Y-84478425D01*
X165197783Y-84533002D01*
X165204977Y-84602500D01*
X165173454Y-84664855D01*
X165154158Y-84681575D01*
X164968597Y-84811505D01*
X164801505Y-84978597D01*
X164665965Y-85172169D01*
X164665964Y-85172171D01*
X164566098Y-85386335D01*
X164566094Y-85386344D01*
X164504938Y-85614586D01*
X164504936Y-85614596D01*
X164484341Y-85849999D01*
X164484341Y-85850000D01*
X164504936Y-86085403D01*
X164504938Y-86085413D01*
X164553971Y-86268407D01*
X164552308Y-86338257D01*
X164513145Y-86396119D01*
X164448917Y-86423623D01*
X164434196Y-86424500D01*
X163010452Y-86424500D01*
X162943413Y-86404815D01*
X162922771Y-86388181D01*
X162461819Y-85927229D01*
X162428334Y-85865906D01*
X162425500Y-85839548D01*
X162425500Y-82644854D01*
X162444507Y-82578881D01*
X162525788Y-82449524D01*
X162529612Y-82438597D01*
X162585368Y-82279255D01*
X162585369Y-82279249D01*
X162605565Y-82100003D01*
X162605565Y-82099996D01*
X162585369Y-81920750D01*
X162585368Y-81920745D01*
X162563809Y-81859132D01*
X162525789Y-81750478D01*
X162429816Y-81597738D01*
X162302262Y-81470184D01*
X162262768Y-81445368D01*
X162149523Y-81374211D01*
X161979254Y-81314631D01*
X161979249Y-81314630D01*
X161800004Y-81294435D01*
X161799996Y-81294435D01*
X161620750Y-81314630D01*
X161620745Y-81314631D01*
X161450476Y-81374211D01*
X161297737Y-81470184D01*
X161170184Y-81597737D01*
X161074211Y-81750476D01*
X161014631Y-81920745D01*
X161014630Y-81920750D01*
X160994435Y-82099996D01*
X160994435Y-82100003D01*
X161014630Y-82279249D01*
X161014631Y-82279254D01*
X161074211Y-82449524D01*
X161155493Y-82578881D01*
X161174500Y-82644854D01*
X161174500Y-86088393D01*
X161174500Y-86211607D01*
X161174500Y-86211609D01*
X161174499Y-86211609D01*
X161182875Y-86253712D01*
X161182875Y-86253714D01*
X161198535Y-86332444D01*
X161198540Y-86332461D01*
X161200124Y-86336285D01*
X161245685Y-86446281D01*
X161245688Y-86446286D01*
X161266302Y-86477136D01*
X161266303Y-86477139D01*
X161266304Y-86477139D01*
X161314141Y-86548732D01*
X161314144Y-86548736D01*
X161405586Y-86640178D01*
X161405608Y-86640198D01*
X162211016Y-87445606D01*
X162211045Y-87445637D01*
X162301263Y-87535855D01*
X162301267Y-87535858D01*
X162403707Y-87604307D01*
X162403716Y-87604312D01*
X162406572Y-87605495D01*
X162517548Y-87651463D01*
X162577971Y-87663481D01*
X162638393Y-87675500D01*
X165511607Y-87675500D01*
X165572029Y-87663481D01*
X165632452Y-87651463D01*
X165632455Y-87651461D01*
X165632458Y-87651461D01*
X165665787Y-87637654D01*
X165665786Y-87637654D01*
X165665792Y-87637652D01*
X165746286Y-87604312D01*
X165809353Y-87562171D01*
X165809354Y-87562171D01*
X165835425Y-87544749D01*
X165848733Y-87535858D01*
X165935858Y-87448733D01*
X165935859Y-87448730D01*
X165942925Y-87441665D01*
X165942928Y-87441661D01*
X166221463Y-87163125D01*
X166277050Y-87131033D01*
X166303663Y-87123903D01*
X166517830Y-87024035D01*
X166579376Y-86980940D01*
X166645582Y-86958612D01*
X166713349Y-86975622D01*
X166761163Y-87026569D01*
X166774500Y-87082514D01*
X166774500Y-91891519D01*
X166754815Y-91958558D01*
X166702011Y-92004313D01*
X166637247Y-92014808D01*
X166587873Y-92009500D01*
X166587864Y-92009500D01*
X164792129Y-92009500D01*
X164792123Y-92009501D01*
X164732516Y-92015908D01*
X164597671Y-92066202D01*
X164597664Y-92066206D01*
X164482455Y-92152452D01*
X164482452Y-92152455D01*
X164396206Y-92267664D01*
X164396202Y-92267671D01*
X164345908Y-92402517D01*
X164339501Y-92462116D01*
X164339500Y-92462135D01*
X164339500Y-92635500D01*
X164319815Y-92702539D01*
X164267011Y-92748294D01*
X164215500Y-92759500D01*
X158276669Y-92759500D01*
X158276653Y-92759499D01*
X158269057Y-92759499D01*
X158110943Y-92759499D01*
X158003587Y-92788265D01*
X157958210Y-92800424D01*
X157958209Y-92800425D01*
X157908096Y-92829359D01*
X157908095Y-92829360D01*
X157864689Y-92854420D01*
X157821285Y-92879479D01*
X157821282Y-92879481D01*
X157709480Y-92991284D01*
X157709478Y-92991286D01*
X157215297Y-93485468D01*
X156737584Y-93963181D01*
X156676261Y-93996666D01*
X156649903Y-93999500D01*
X155757897Y-93999500D01*
X155690858Y-93979815D01*
X155645103Y-93927011D01*
X155635159Y-93857853D01*
X155645514Y-93823097D01*
X155663903Y-93783663D01*
X155725063Y-93555408D01*
X155745659Y-93320000D01*
X155725063Y-93084592D01*
X155669868Y-92878599D01*
X155663905Y-92856344D01*
X155663904Y-92856343D01*
X155663903Y-92856337D01*
X155564035Y-92642171D01*
X155553060Y-92626496D01*
X155428494Y-92448597D01*
X155261402Y-92281506D01*
X155261396Y-92281501D01*
X155075842Y-92151575D01*
X155032217Y-92096998D01*
X155025023Y-92027500D01*
X155056546Y-91965145D01*
X155075842Y-91948425D01*
X155098026Y-91932891D01*
X155261401Y-91818495D01*
X155428495Y-91651401D01*
X155564035Y-91457830D01*
X155663903Y-91243663D01*
X155725063Y-91015408D01*
X155745659Y-90780000D01*
X155725063Y-90544592D01*
X155669868Y-90338599D01*
X155663905Y-90316344D01*
X155663904Y-90316343D01*
X155663903Y-90316337D01*
X155564035Y-90102171D01*
X155553952Y-90087770D01*
X155428494Y-89908597D01*
X155261402Y-89741506D01*
X155261396Y-89741501D01*
X155075842Y-89611575D01*
X155032217Y-89556998D01*
X155025023Y-89487500D01*
X155056546Y-89425145D01*
X155075842Y-89408425D01*
X155098026Y-89392891D01*
X155261401Y-89278495D01*
X155428495Y-89111401D01*
X155564035Y-88917830D01*
X155663903Y-88703663D01*
X155725063Y-88475408D01*
X155745659Y-88240000D01*
X155725063Y-88004592D01*
X155663903Y-87776337D01*
X155564035Y-87562171D01*
X155550066Y-87542220D01*
X155428494Y-87368597D01*
X155261402Y-87201506D01*
X155261396Y-87201501D01*
X155075842Y-87071575D01*
X155032217Y-87016998D01*
X155025023Y-86947500D01*
X155056546Y-86885145D01*
X155075842Y-86868425D01*
X155116975Y-86839623D01*
X155261401Y-86738495D01*
X155428495Y-86571401D01*
X155564035Y-86377830D01*
X155663903Y-86163663D01*
X155725063Y-85935408D01*
X155745659Y-85700000D01*
X155725063Y-85464592D01*
X155663903Y-85236337D01*
X155564035Y-85022171D01*
X155563652Y-85021623D01*
X155428494Y-84828597D01*
X155261402Y-84661506D01*
X155261396Y-84661501D01*
X155075842Y-84531575D01*
X155032217Y-84476998D01*
X155025023Y-84407500D01*
X155056546Y-84345145D01*
X155075842Y-84328425D01*
X155098557Y-84312520D01*
X155261401Y-84198495D01*
X155428495Y-84031401D01*
X155564035Y-83837830D01*
X155663903Y-83623663D01*
X155725063Y-83395408D01*
X155745659Y-83160000D01*
X155725063Y-82924592D01*
X155663903Y-82696337D01*
X155564035Y-82482171D01*
X155563652Y-82481623D01*
X155428494Y-82288597D01*
X155261402Y-82121506D01*
X155261395Y-82121501D01*
X155067834Y-81985967D01*
X155067830Y-81985965D01*
X155049587Y-81977458D01*
X154853663Y-81886097D01*
X154853659Y-81886096D01*
X154853655Y-81886094D01*
X154625413Y-81824938D01*
X154625403Y-81824936D01*
X154390001Y-81804341D01*
X154389999Y-81804341D01*
X154154596Y-81824936D01*
X154154586Y-81824938D01*
X153926344Y-81886094D01*
X153926335Y-81886098D01*
X153712171Y-81985964D01*
X153712169Y-81985965D01*
X153518597Y-82121505D01*
X153351506Y-82288596D01*
X153303874Y-82356623D01*
X153249297Y-82400248D01*
X153202299Y-82409500D01*
X149866080Y-82409500D01*
X149721092Y-82438340D01*
X149721082Y-82438343D01*
X149584511Y-82494912D01*
X149584498Y-82494919D01*
X149461584Y-82577048D01*
X149461580Y-82577051D01*
X147425451Y-84613181D01*
X147364128Y-84646666D01*
X147337770Y-84649500D01*
X145649972Y-84649500D01*
X145609017Y-84642542D01*
X145529254Y-84614631D01*
X145529249Y-84614630D01*
X145350004Y-84594435D01*
X145349516Y-84594435D01*
X145349212Y-84594345D01*
X145343081Y-84593655D01*
X145343202Y-84592580D01*
X145282477Y-84574750D01*
X145236722Y-84521946D01*
X145226778Y-84452788D01*
X145255803Y-84389232D01*
X145261835Y-84382754D01*
X145398040Y-84246549D01*
X145598729Y-84045860D01*
X145598733Y-84045858D01*
X145685858Y-83958733D01*
X145737358Y-83881658D01*
X145754312Y-83856286D01*
X145788976Y-83772597D01*
X145801459Y-83742461D01*
X145801459Y-83742459D01*
X145801463Y-83742451D01*
X145825500Y-83621607D01*
X145825500Y-83498393D01*
X145825500Y-80410452D01*
X145845185Y-80343413D01*
X145861819Y-80322771D01*
X146092771Y-80091819D01*
X146154094Y-80058334D01*
X146180452Y-80055500D01*
X149385812Y-80055500D01*
X149452851Y-80075185D01*
X149487387Y-80108377D01*
X149599954Y-80269141D01*
X149760858Y-80430045D01*
X149760861Y-80430047D01*
X149947266Y-80560568D01*
X150153504Y-80656739D01*
X150373308Y-80715635D01*
X150535230Y-80729801D01*
X150599998Y-80735468D01*
X150600000Y-80735468D01*
X150600002Y-80735468D01*
X150656673Y-80730509D01*
X150826692Y-80715635D01*
X151046496Y-80656739D01*
X151252734Y-80560568D01*
X151439139Y-80430047D01*
X151600047Y-80269139D01*
X151730568Y-80082734D01*
X151826739Y-79876496D01*
X151885635Y-79656692D01*
X151905468Y-79430000D01*
X151885635Y-79203308D01*
X151826739Y-78983504D01*
X151730568Y-78777266D01*
X151600047Y-78590861D01*
X151600045Y-78590858D01*
X151439141Y-78429954D01*
X151252734Y-78299432D01*
X151252732Y-78299431D01*
X151046497Y-78203261D01*
X151046488Y-78203258D01*
X150826697Y-78144366D01*
X150826693Y-78144365D01*
X150826692Y-78144365D01*
X150826691Y-78144364D01*
X150826686Y-78144364D01*
X150600002Y-78124532D01*
X150599998Y-78124532D01*
X150373313Y-78144364D01*
X150373302Y-78144366D01*
X150153511Y-78203258D01*
X150153502Y-78203261D01*
X149947267Y-78299431D01*
X149947265Y-78299432D01*
X149760858Y-78429954D01*
X149599954Y-78590858D01*
X149487387Y-78751623D01*
X149432811Y-78795248D01*
X149385812Y-78804500D01*
X145808389Y-78804500D01*
X145747971Y-78816518D01*
X145704743Y-78825116D01*
X145687546Y-78828537D01*
X145663877Y-78838342D01*
X145663876Y-78838342D01*
X145573718Y-78875685D01*
X145573709Y-78875690D01*
X145525611Y-78907830D01*
X145525610Y-78907831D01*
X145471268Y-78944140D01*
X145437545Y-78977864D01*
X145384142Y-79031267D01*
X145384139Y-79031270D01*
X144801270Y-79614139D01*
X144801267Y-79614142D01*
X144772069Y-79643340D01*
X144714141Y-79701267D01*
X144697423Y-79726286D01*
X144697424Y-79726287D01*
X144645686Y-79803717D01*
X144645685Y-79803718D01*
X144615540Y-79876495D01*
X144615541Y-79876496D01*
X144599238Y-79915857D01*
X144599236Y-79915862D01*
X144598537Y-79917548D01*
X144598536Y-79917551D01*
X144575879Y-80031463D01*
X144575878Y-80031464D01*
X144574500Y-80038391D01*
X144574500Y-83249547D01*
X144554815Y-83316586D01*
X144538181Y-83337228D01*
X143394822Y-84480586D01*
X143333499Y-84514071D01*
X143275049Y-84512680D01*
X143206699Y-84494367D01*
X143206702Y-84494367D01*
X143206692Y-84494365D01*
X143206689Y-84494364D01*
X143206686Y-84494364D01*
X142980001Y-84474532D01*
X142979998Y-84474532D01*
X142753313Y-84494364D01*
X142753302Y-84494366D01*
X142533511Y-84553258D01*
X142533502Y-84553261D01*
X142327267Y-84649431D01*
X142327265Y-84649432D01*
X142195623Y-84741608D01*
X142129416Y-84763936D01*
X142061649Y-84746924D01*
X142013837Y-84695976D01*
X142000500Y-84640033D01*
X142000500Y-84262229D01*
X142020185Y-84195190D01*
X142036819Y-84174548D01*
X143562948Y-82648419D01*
X143562951Y-82648416D01*
X143645084Y-82525495D01*
X143701658Y-82388913D01*
X143705100Y-82371607D01*
X143730500Y-82243918D01*
X143730500Y-80556662D01*
X143750185Y-80489623D01*
X143783379Y-80455086D01*
X143787528Y-80452181D01*
X143819139Y-80430047D01*
X143980047Y-80269139D01*
X144110568Y-80082734D01*
X144206739Y-79876496D01*
X144265635Y-79656692D01*
X144285468Y-79430000D01*
X144265635Y-79203308D01*
X144206739Y-78983504D01*
X144110568Y-78777266D01*
X144045307Y-78684063D01*
X143980048Y-78590862D01*
X143910687Y-78521501D01*
X143819139Y-78429953D01*
X143814373Y-78426615D01*
X143783375Y-78404910D01*
X143739751Y-78350332D01*
X143730500Y-78303336D01*
X143730500Y-77246079D01*
X143701659Y-77101092D01*
X143701658Y-77101091D01*
X143701658Y-77101087D01*
X143682968Y-77055965D01*
X143645087Y-76964511D01*
X143645080Y-76964498D01*
X143562952Y-76841585D01*
X143562951Y-76841584D01*
X143458416Y-76737049D01*
X143277702Y-76556335D01*
X142638421Y-75917052D01*
X142638414Y-75917046D01*
X142564729Y-75867812D01*
X142564729Y-75867813D01*
X142515491Y-75834913D01*
X142378917Y-75778343D01*
X142378907Y-75778340D01*
X142233920Y-75749500D01*
X142233918Y-75749500D01*
X141354453Y-75749500D01*
X141287414Y-75729815D01*
X141241659Y-75677011D01*
X141231715Y-75607853D01*
X141260740Y-75544297D01*
X141266772Y-75537819D01*
X141495857Y-75308734D01*
X141525651Y-75264144D01*
X141564311Y-75206286D01*
X141611463Y-75092452D01*
X141635500Y-74971607D01*
X141635500Y-74848394D01*
X141635500Y-71449996D01*
X158144435Y-71449996D01*
X158144435Y-71450003D01*
X158164630Y-71629249D01*
X158164631Y-71629254D01*
X158224211Y-71799523D01*
X158259828Y-71856206D01*
X158320184Y-71952262D01*
X158447738Y-72079816D01*
X158600478Y-72175789D01*
X158770745Y-72235368D01*
X158817823Y-72240672D01*
X158882236Y-72267737D01*
X158891621Y-72276211D01*
X159888181Y-73272771D01*
X159921666Y-73334094D01*
X159924500Y-73360452D01*
X159924500Y-78255145D01*
X159905494Y-78321117D01*
X159824211Y-78450476D01*
X159764631Y-78620745D01*
X159764630Y-78620750D01*
X159744435Y-78799996D01*
X159744435Y-78800003D01*
X159764630Y-78979249D01*
X159764631Y-78979254D01*
X159824211Y-79149523D01*
X159898967Y-79268495D01*
X159920184Y-79302262D01*
X160047738Y-79429816D01*
X160116231Y-79472853D01*
X160195243Y-79522500D01*
X160200478Y-79525789D01*
X160313540Y-79565351D01*
X160370745Y-79585368D01*
X160370750Y-79585369D01*
X160549996Y-79605565D01*
X160550000Y-79605565D01*
X160550004Y-79605565D01*
X160729249Y-79585369D01*
X160729252Y-79585368D01*
X160729255Y-79585368D01*
X160899522Y-79525789D01*
X161052262Y-79429816D01*
X161179816Y-79302262D01*
X161275789Y-79149522D01*
X161335368Y-78979255D01*
X161335523Y-78977883D01*
X161355565Y-78800003D01*
X161355565Y-78799996D01*
X161335369Y-78620750D01*
X161335368Y-78620745D01*
X161275788Y-78450476D01*
X161194506Y-78321117D01*
X161175500Y-78255145D01*
X161175500Y-73117741D01*
X161175501Y-73117720D01*
X161175501Y-72988391D01*
X161151464Y-72867555D01*
X161151463Y-72867549D01*
X161104312Y-72753715D01*
X161035858Y-72651267D01*
X161035855Y-72651263D01*
X160636726Y-72252135D01*
X164489500Y-72252135D01*
X164489500Y-74047870D01*
X164489501Y-74047876D01*
X164495908Y-74107483D01*
X164546202Y-74242328D01*
X164546206Y-74242335D01*
X164632452Y-74357544D01*
X164632455Y-74357547D01*
X164747664Y-74443793D01*
X164747671Y-74443797D01*
X164882517Y-74494091D01*
X164882516Y-74494091D01*
X164889444Y-74494835D01*
X164942127Y-74500500D01*
X166737872Y-74500499D01*
X166797483Y-74494091D01*
X166932331Y-74443796D01*
X167047546Y-74357546D01*
X167133796Y-74242331D01*
X167184091Y-74107483D01*
X167190500Y-74047873D01*
X167190499Y-72252128D01*
X167184091Y-72192517D01*
X167180442Y-72182734D01*
X167133797Y-72057671D01*
X167133793Y-72057664D01*
X167047547Y-71942455D01*
X167047544Y-71942452D01*
X166932335Y-71856206D01*
X166932328Y-71856202D01*
X166797482Y-71805908D01*
X166797483Y-71805908D01*
X166737883Y-71799501D01*
X166737881Y-71799500D01*
X166737873Y-71799500D01*
X166737864Y-71799500D01*
X164942129Y-71799500D01*
X164942123Y-71799501D01*
X164882516Y-71805908D01*
X164747671Y-71856202D01*
X164747664Y-71856206D01*
X164632455Y-71942452D01*
X164632452Y-71942455D01*
X164546206Y-72057664D01*
X164546202Y-72057671D01*
X164495908Y-72192517D01*
X164490209Y-72245530D01*
X164489501Y-72252123D01*
X164489500Y-72252135D01*
X160636726Y-72252135D01*
X159776211Y-71391621D01*
X159742726Y-71330298D01*
X159740673Y-71317838D01*
X159735368Y-71270745D01*
X159675789Y-71100478D01*
X159579816Y-70947738D01*
X159452262Y-70820184D01*
X159299523Y-70724211D01*
X159129254Y-70664631D01*
X159129249Y-70664630D01*
X158950004Y-70644435D01*
X158949996Y-70644435D01*
X158770750Y-70664630D01*
X158770745Y-70664631D01*
X158600476Y-70724211D01*
X158447737Y-70820184D01*
X158320184Y-70947737D01*
X158224211Y-71100476D01*
X158164631Y-71270745D01*
X158164630Y-71270750D01*
X158144435Y-71449996D01*
X141635500Y-71449996D01*
X141635500Y-69626114D01*
X141655185Y-69559075D01*
X141688575Y-69526398D01*
X141687668Y-69525150D01*
X141691605Y-69522289D01*
X141691610Y-69522287D01*
X141857219Y-69401966D01*
X142001966Y-69257219D01*
X142001968Y-69257215D01*
X142001971Y-69257213D01*
X142054732Y-69184590D01*
X142122287Y-69091610D01*
X142215220Y-68909219D01*
X142278477Y-68714534D01*
X142310500Y-68512352D01*
X142310500Y-67407648D01*
X142278477Y-67205466D01*
X142215220Y-67010781D01*
X142215218Y-67010778D01*
X142215218Y-67010776D01*
X142159879Y-66902169D01*
X142122287Y-66828390D01*
X142114556Y-66817749D01*
X142001971Y-66662786D01*
X141857213Y-66518028D01*
X141691613Y-66397715D01*
X141691612Y-66397714D01*
X141691610Y-66397713D01*
X141634653Y-66368691D01*
X141509223Y-66304781D01*
X141314534Y-66241522D01*
X141139995Y-66213878D01*
X141112352Y-66209500D01*
X140907648Y-66209500D01*
X140883329Y-66213351D01*
X140705465Y-66241522D01*
X140510776Y-66304781D01*
X140328386Y-66397715D01*
X140162786Y-66518028D01*
X140018028Y-66662786D01*
X139897715Y-66828386D01*
X139804781Y-67010776D01*
X139741522Y-67205465D01*
X139709500Y-67407648D01*
X139709500Y-68512351D01*
X139741522Y-68714534D01*
X139804781Y-68909223D01*
X139897715Y-69091613D01*
X140018028Y-69257213D01*
X140018034Y-69257219D01*
X140162781Y-69401966D01*
X140328390Y-69522287D01*
X140328394Y-69522289D01*
X140332332Y-69525150D01*
X140331111Y-69526829D01*
X140372155Y-69572177D01*
X140384500Y-69626114D01*
X140384500Y-74599547D01*
X140364815Y-74666586D01*
X140348181Y-74687228D01*
X139947229Y-75088181D01*
X139885906Y-75121666D01*
X139859548Y-75124500D01*
X132663393Y-75124500D01*
X132596354Y-75104815D01*
X132550599Y-75052011D01*
X132540173Y-74986617D01*
X132555565Y-74850003D01*
X132555565Y-74849996D01*
X132535369Y-74670750D01*
X132535368Y-74670745D01*
X132518764Y-74623294D01*
X132475789Y-74500478D01*
X132379816Y-74347738D01*
X132252262Y-74220184D01*
X132099521Y-74124210D01*
X131929249Y-74064630D01*
X131882174Y-74059326D01*
X131817760Y-74032259D01*
X131808378Y-74023787D01*
X131542928Y-73758338D01*
X131542925Y-73758334D01*
X131542925Y-73758335D01*
X131535858Y-73751268D01*
X131535858Y-73751267D01*
X131448733Y-73664142D01*
X131448732Y-73664141D01*
X131448731Y-73664140D01*
X131388528Y-73623914D01*
X131346286Y-73595688D01*
X131265792Y-73562347D01*
X131232452Y-73548537D01*
X131232448Y-73548536D01*
X131232444Y-73548535D01*
X131161910Y-73534505D01*
X131161909Y-73534505D01*
X131111611Y-73524500D01*
X131111607Y-73524500D01*
X131111606Y-73524500D01*
X124010452Y-73524500D01*
X123943413Y-73504815D01*
X123922771Y-73488181D01*
X123751819Y-73317229D01*
X123718334Y-73255906D01*
X123715500Y-73229548D01*
X123715500Y-72744188D01*
X123735185Y-72677149D01*
X123768377Y-72642613D01*
X123868745Y-72572335D01*
X123929139Y-72530047D01*
X124090047Y-72369139D01*
X124220568Y-72182734D01*
X124247618Y-72124724D01*
X124293790Y-72072285D01*
X124360983Y-72053133D01*
X124427865Y-72073348D01*
X124472382Y-72124725D01*
X124499429Y-72182728D01*
X124499432Y-72182734D01*
X124629954Y-72369141D01*
X124790858Y-72530045D01*
X124790861Y-72530047D01*
X124977266Y-72660568D01*
X125183504Y-72756739D01*
X125403308Y-72815635D01*
X125565230Y-72829801D01*
X125629998Y-72835468D01*
X125630000Y-72835468D01*
X125630002Y-72835468D01*
X125686807Y-72830498D01*
X125856692Y-72815635D01*
X126076496Y-72756739D01*
X126282734Y-72660568D01*
X126469139Y-72530047D01*
X126630047Y-72369139D01*
X126760568Y-72182734D01*
X126787618Y-72124724D01*
X126833790Y-72072285D01*
X126900983Y-72053133D01*
X126967865Y-72073348D01*
X127012382Y-72124725D01*
X127039429Y-72182728D01*
X127039432Y-72182734D01*
X127169954Y-72369141D01*
X127330858Y-72530045D01*
X127330861Y-72530047D01*
X127517266Y-72660568D01*
X127723504Y-72756739D01*
X127943308Y-72815635D01*
X128105230Y-72829801D01*
X128169998Y-72835468D01*
X128170000Y-72835468D01*
X128170002Y-72835468D01*
X128226807Y-72830498D01*
X128396692Y-72815635D01*
X128616496Y-72756739D01*
X128822734Y-72660568D01*
X129009139Y-72530047D01*
X129170047Y-72369139D01*
X129300568Y-72182734D01*
X129396739Y-71976496D01*
X129455635Y-71756692D01*
X129475468Y-71530000D01*
X129455635Y-71303308D01*
X129396739Y-71083504D01*
X129300568Y-70877266D01*
X129170047Y-70690861D01*
X129170045Y-70690858D01*
X129086819Y-70607632D01*
X129053334Y-70546309D01*
X129050500Y-70519951D01*
X129050500Y-70326079D01*
X129021659Y-70181092D01*
X129021658Y-70181091D01*
X129021658Y-70181087D01*
X128981008Y-70082948D01*
X128965087Y-70044511D01*
X128965080Y-70044498D01*
X128882952Y-69921585D01*
X128882951Y-69921584D01*
X128778416Y-69817049D01*
X128587481Y-69626114D01*
X127878421Y-68917052D01*
X127878414Y-68917046D01*
X127783911Y-68853902D01*
X127783910Y-68853902D01*
X127755495Y-68834916D01*
X127755488Y-68834912D01*
X127618917Y-68778343D01*
X127618907Y-68778340D01*
X127473920Y-68749500D01*
X127473918Y-68749500D01*
X114212229Y-68749500D01*
X114145190Y-68729815D01*
X114124548Y-68713181D01*
X113590675Y-68179308D01*
X113557190Y-68117985D01*
X113562139Y-68048780D01*
X113562052Y-68048749D01*
X113562163Y-68048443D01*
X113562174Y-68048293D01*
X113562508Y-68047494D01*
X113563901Y-68043666D01*
X113563903Y-68043663D01*
X113625063Y-67815408D01*
X113645659Y-67580000D01*
X113625063Y-67344592D01*
X113563903Y-67116337D01*
X113464035Y-66902171D01*
X113412374Y-66828390D01*
X113328494Y-66708597D01*
X113161404Y-66541507D01*
X113093375Y-66493872D01*
X113049751Y-66439294D01*
X113040500Y-66392298D01*
X113040500Y-66227700D01*
X113060185Y-66160661D01*
X113093375Y-66126126D01*
X113161401Y-66078495D01*
X113328495Y-65911401D01*
X113464035Y-65717830D01*
X113563903Y-65503663D01*
X113625063Y-65275408D01*
X113645659Y-65040000D01*
X113625063Y-64804592D01*
X113563903Y-64576337D01*
X113464035Y-64362171D01*
X113460061Y-64356496D01*
X113328496Y-64168600D01*
X113296582Y-64136686D01*
X113206567Y-64046671D01*
X113173084Y-63985351D01*
X113178068Y-63915659D01*
X113219939Y-63859725D01*
X113250915Y-63842810D01*
X113382331Y-63793796D01*
X113497546Y-63707546D01*
X113583796Y-63592331D01*
X113634091Y-63457483D01*
X113640500Y-63397873D01*
X113640499Y-61602128D01*
X113634091Y-61542517D01*
X113583796Y-61407669D01*
X113583795Y-61407668D01*
X113583793Y-61407664D01*
X113497547Y-61292455D01*
X113497544Y-61292452D01*
X113382335Y-61206206D01*
X113382328Y-61206202D01*
X113247482Y-61155908D01*
X113247483Y-61155908D01*
X113187883Y-61149501D01*
X113187881Y-61149500D01*
X113187873Y-61149500D01*
X113187864Y-61149500D01*
X111392129Y-61149500D01*
X111392123Y-61149501D01*
X111332516Y-61155908D01*
X111197671Y-61206202D01*
X111197664Y-61206206D01*
X111082455Y-61292452D01*
X111082452Y-61292455D01*
X110996206Y-61407664D01*
X110996202Y-61407671D01*
X110945908Y-61542517D01*
X110941830Y-61580452D01*
X110939501Y-61602123D01*
X110939500Y-61602135D01*
X110939500Y-61655012D01*
X110919815Y-61722051D01*
X110867011Y-61767806D01*
X110839698Y-61776628D01*
X110831093Y-61778340D01*
X110831084Y-61778342D01*
X110694511Y-61834912D01*
X110694498Y-61834919D01*
X110571584Y-61917048D01*
X110571580Y-61917051D01*
X108817047Y-63671584D01*
X108809211Y-63683313D01*
X108794763Y-63704937D01*
X108764736Y-63749874D01*
X108734914Y-63794507D01*
X108678343Y-63931082D01*
X108678340Y-63931092D01*
X108649500Y-64076079D01*
X108649500Y-64076082D01*
X108649500Y-76373918D01*
X108649500Y-76373920D01*
X108649499Y-76373920D01*
X107240500Y-76373920D01*
X107240500Y-55654500D01*
X107260185Y-55587461D01*
X107312989Y-55541706D01*
X107364500Y-55530500D01*
X171115500Y-55530500D01*
X171182539Y-55550185D01*
G37*
%TD.AperFunction*%
M02*
