M48
; DRILL file {KiCad 8.0.6} date 2024-11-23T19:07:37+0100
; FORMAT={-:-/ absolute / inch / decimal}
; #@! TF.CreationDate,2024-11-23T19:07:37+01:00
; #@! TF.GenerationSoftware,Kicad,Pcbnew,8.0.6
; #@! TF.FileFunction,MixedPlating,1,2
FMAT,2
INCH
; #@! TA.AperFunction,Plated,PTH,ViaDrill
T1C0.0118
; #@! TA.AperFunction,Plated,PTH,ComponentDrill
T2C0.0315
; #@! TA.AperFunction,Plated,PTH,ComponentDrill
T3C0.0350
; #@! TA.AperFunction,Plated,PTH,ComponentDrill
T4C0.0394
; #@! TA.AperFunction,Plated,PTH,ComponentDrill
T5C0.0433
; #@! TA.AperFunction,Plated,PTH,ComponentDrill
T6C0.0791
%
G90
G05
T1
X4.5846Y-5.0925
X5.187Y-2.9469
X5.2382Y-3.7264
X5.252Y-3.2008
X5.2617Y-3.4546
X5.3169Y-5.1949
X5.3228Y-3.372
X5.6988Y-3.8189
X5.6988Y-4.687
X5.7028Y-3.4961
X5.747Y-3.3622
X5.7835Y-4.189
X5.8031Y-4.6949
X5.9646Y-4.4902
X6.1623Y-4.554
X6.2579Y-2.813
X6.2598Y-4.4665
X6.3091Y-5.3246
X6.3209Y-3.1024
X6.3701Y-3.2323
T2
X4.7004Y-5.078
X4.7004Y-5.2748
X4.7386Y-3.4807
X4.7386Y-3.7807
X4.7461Y-2.5161
X4.7461Y-2.8161
X4.7476Y-2.9984
X4.7476Y-3.2984
X4.8386Y-3.4807
X4.8386Y-3.7807
X4.8461Y-2.5161
X4.8461Y-2.8161
X4.8476Y-2.9984
X4.8476Y-3.2984
X4.9327Y-5.078
X4.9327Y-5.2748
X4.9386Y-3.4807
X4.9386Y-3.7807
X4.9461Y-2.5161
X4.9461Y-2.8161
X4.9476Y-2.9984
X4.9476Y-3.2984
X5.0386Y-3.4807
X5.0386Y-3.7807
X5.0461Y-2.5161
X5.0461Y-2.8161
X5.0476Y-2.9984
X5.0476Y-3.2984
X5.1827Y-5.0799
X5.1827Y-5.2768
X5.6248Y-4.6547
X5.6248Y-4.9047
X5.6291Y-3.1272
X5.6291Y-3.3772
X5.6291Y-3.6291
X5.6291Y-3.889
X5.6307Y-4.1429
X5.6307Y-4.4028
X5.9248Y-4.6547
X5.9248Y-4.9047
X5.9291Y-3.1272
X5.9291Y-3.3772
X5.9291Y-3.6291
X5.9291Y-3.889
X5.9307Y-4.1429
X5.9307Y-4.4028
T3
X5.4516Y-2.6756
X5.5516Y-2.6756
T4
X4.4209Y-2.4606
X4.4209Y-2.5606
X4.4209Y-2.6606
X4.4209Y-2.9323
X4.4209Y-3.0323
X4.4209Y-3.1323
X4.4209Y-3.3909
X4.4209Y-3.4909
X4.4209Y-3.5909
X4.4209Y-3.6909
X4.4209Y-3.7909
X4.8717Y-4.076
X4.8717Y-4.2728
X4.8717Y-4.5688
X4.8717Y-4.7657
X5.4783Y-3.074
X5.4783Y-3.174
X5.4783Y-3.274
X5.4783Y-3.374
X5.4783Y-3.474
X5.4783Y-3.574
X5.4783Y-3.674
X5.4783Y-3.774
X5.4783Y-3.874
X5.4783Y-3.974
X5.4783Y-4.074
X5.4783Y-4.174
X5.4783Y-4.274
X5.4783Y-4.374
X5.4783Y-4.474
X5.4783Y-4.574
X5.4783Y-4.674
X5.4783Y-4.774
X5.4783Y-4.874
X5.4783Y-4.974
X6.0783Y-3.074
X6.0783Y-3.174
X6.0783Y-3.274
X6.0783Y-3.374
X6.0783Y-3.474
X6.0783Y-3.574
X6.0783Y-3.674
X6.0783Y-3.774
X6.0783Y-3.874
X6.0783Y-3.974
X6.0783Y-4.074
X6.0783Y-4.174
X6.0783Y-4.274
X6.0783Y-4.374
X6.0783Y-4.474
X6.0783Y-4.574
X6.0783Y-4.674
X6.0783Y-4.774
X6.0783Y-4.874
X6.0783Y-4.974
X6.5173Y-5.0512
X6.5173Y-5.1512
X6.5173Y-5.2512
X6.5173Y-5.3512
X6.5213Y-4.1272
X6.5213Y-4.2272
X6.5213Y-4.3272
X6.5213Y-4.5992
X6.5213Y-4.6992
X6.5213Y-4.7992
X6.5232Y-3.6756
X6.5232Y-3.7756
X6.5232Y-3.8756
X6.5291Y-2.4035
X6.5291Y-2.5035
X6.5291Y-2.6035
X6.5291Y-2.8799
X6.5291Y-2.9799
X6.5291Y-3.0799
X6.5291Y-3.1799
X6.5291Y-3.2799
X6.5291Y-3.3799
T5
X4.4602Y-4.0748
X4.4602Y-4.1748
X4.4602Y-4.2748
X4.4602Y-4.561
X4.4602Y-4.661
X4.4602Y-4.761
X4.4602Y-5.0768
X4.4602Y-5.1768
X4.4602Y-5.2768
T6
X5.3516Y-2.4756
X5.7516Y-2.4756
M30
