%TF.GenerationSoftware,KiCad,Pcbnew,8.0.6*%
%TF.CreationDate,2024-11-24T22:04:56+01:00*%
%TF.ProjectId,function_generator,66756e63-7469-46f6-9e5f-67656e657261,rev?*%
%TF.SameCoordinates,Original*%
%TF.FileFunction,Copper,L1,Top*%
%TF.FilePolarity,Positive*%
%FSLAX46Y46*%
G04 Gerber Fmt 4.6, Leading zero omitted, Abs format (unit mm)*
G04 Created by KiCad (PCBNEW 8.0.6) date 2024-11-24 22:04:56*
%MOMM*%
%LPD*%
G01*
G04 APERTURE LIST*
G04 Aperture macros list*
%AMRoundRect*
0 Rectangle with rounded corners*
0 $1 Rounding radius*
0 $2 $3 $4 $5 $6 $7 $8 $9 X,Y pos of 4 corners*
0 Add a 4 corners polygon primitive as box body*
4,1,4,$2,$3,$4,$5,$6,$7,$8,$9,$2,$3,0*
0 Add four circle primitives for the rounded corners*
1,1,$1+$1,$2,$3*
1,1,$1+$1,$4,$5*
1,1,$1+$1,$6,$7*
1,1,$1+$1,$8,$9*
0 Add four rect primitives between the rounded corners*
20,1,$1+$1,$2,$3,$4,$5,0*
20,1,$1+$1,$4,$5,$6,$7,0*
20,1,$1+$1,$6,$7,$8,$9,0*
20,1,$1+$1,$8,$9,$2,$3,0*%
G04 Aperture macros list end*
%TA.AperFunction,ComponentPad*%
%ADD10C,1.600000*%
%TD*%
%TA.AperFunction,ComponentPad*%
%ADD11R,1.700000X1.700000*%
%TD*%
%TA.AperFunction,ComponentPad*%
%ADD12O,1.700000X1.700000*%
%TD*%
%TA.AperFunction,ComponentPad*%
%ADD13O,1.600000X1.600000*%
%TD*%
%TA.AperFunction,ComponentPad*%
%ADD14R,2.000000X1.905000*%
%TD*%
%TA.AperFunction,ComponentPad*%
%ADD15O,2.000000X1.905000*%
%TD*%
%TA.AperFunction,ComponentPad*%
%ADD16R,1.600000X1.600000*%
%TD*%
%TA.AperFunction,ComponentPad*%
%ADD17R,2.000000X2.000000*%
%TD*%
%TA.AperFunction,ComponentPad*%
%ADD18C,2.000000*%
%TD*%
%TA.AperFunction,ComponentPad*%
%ADD19O,1.600000X2.500000*%
%TD*%
%TA.AperFunction,ComponentPad*%
%ADD20O,3.500000X7.000000*%
%TD*%
%TA.AperFunction,SMDPad,CuDef*%
%ADD21RoundRect,0.150000X0.150000X-0.825000X0.150000X0.825000X-0.150000X0.825000X-0.150000X-0.825000X0*%
%TD*%
%TA.AperFunction,ViaPad*%
%ADD22C,0.600000*%
%TD*%
%TA.AperFunction,Conductor*%
%ADD23C,0.250000*%
%TD*%
%TA.AperFunction,Conductor*%
%ADD24C,0.200000*%
%TD*%
G04 APERTURE END LIST*
D10*
X131640000Y-134030000D03*
X131640000Y-129030000D03*
D11*
X165840000Y-73150000D03*
D12*
X165840000Y-75690000D03*
X165840000Y-78230000D03*
X165840000Y-80770000D03*
X165840000Y-83310000D03*
X165840000Y-85850000D03*
D10*
X142980000Y-79430000D03*
D13*
X150600000Y-79430000D03*
D10*
X142870000Y-124580000D03*
D13*
X150490000Y-124580000D03*
D14*
X113290000Y-120930000D03*
D15*
X113290000Y-118390000D03*
X113290000Y-115850000D03*
D16*
X120360000Y-96030000D03*
D13*
X122900000Y-96030000D03*
X125440000Y-96030000D03*
X127980000Y-96030000D03*
X127980000Y-88410000D03*
X125440000Y-88410000D03*
X122900000Y-88410000D03*
X120360000Y-88410000D03*
D14*
X113290000Y-108580000D03*
D15*
X113290000Y-106040000D03*
X113290000Y-103500000D03*
D14*
X113290000Y-134030000D03*
D15*
X113290000Y-131490000D03*
X113290000Y-128950000D03*
D11*
X112290000Y-74480000D03*
D12*
X112290000Y-77020000D03*
X112290000Y-79560000D03*
D11*
X139150000Y-78080000D03*
X154390000Y-78080000D03*
D12*
X139150000Y-80620000D03*
X154390000Y-80620000D03*
X139150000Y-83160000D03*
X154390000Y-83160000D03*
X139150000Y-85700000D03*
X154390000Y-85700000D03*
X139150000Y-88240000D03*
X154390000Y-88240000D03*
X139150000Y-90780000D03*
X154390000Y-90780000D03*
X139150000Y-93320000D03*
X154390000Y-93320000D03*
X139150000Y-95860000D03*
X154390000Y-95860000D03*
X139150000Y-98400000D03*
X154390000Y-98400000D03*
X139150000Y-100940000D03*
X154390000Y-100940000D03*
X139150000Y-103480000D03*
X154390000Y-103480000D03*
X139150000Y-106020000D03*
X154390000Y-106020000D03*
X139150000Y-108560000D03*
X154390000Y-108560000D03*
X139150000Y-111100000D03*
X154390000Y-111100000D03*
X139150000Y-113640000D03*
X154390000Y-113640000D03*
X139150000Y-116180000D03*
X154390000Y-116180000D03*
X139150000Y-118720000D03*
X154390000Y-118720000D03*
X139150000Y-121260000D03*
X154390000Y-121260000D03*
X139150000Y-123800000D03*
X154390000Y-123800000D03*
X139150000Y-126340000D03*
X154390000Y-126340000D03*
D10*
X143020000Y-111830000D03*
D13*
X150640000Y-111830000D03*
D11*
X165690000Y-93360000D03*
D12*
X165690000Y-95900000D03*
X165690000Y-98440000D03*
D10*
X143020000Y-105230000D03*
D13*
X150640000Y-105230000D03*
D11*
X165640000Y-116820000D03*
D12*
X165640000Y-119360000D03*
X165640000Y-121900000D03*
D11*
X112290000Y-62500000D03*
D12*
X112290000Y-65040000D03*
X112290000Y-67580000D03*
D11*
X112290000Y-86130000D03*
D12*
X112290000Y-88670000D03*
X112290000Y-91210000D03*
X112290000Y-93750000D03*
X112290000Y-96290000D03*
D10*
X142980000Y-85780000D03*
D13*
X150600000Y-85780000D03*
D10*
X142980000Y-98780000D03*
D13*
X150600000Y-98780000D03*
D17*
X123740000Y-121047677D03*
D18*
X123740000Y-116047677D03*
D10*
X119390000Y-133980000D03*
X119390000Y-128980000D03*
D11*
X165640000Y-104830000D03*
D12*
X165640000Y-107370000D03*
X165640000Y-109910000D03*
D11*
X165540000Y-128300000D03*
D12*
X165540000Y-130840000D03*
X165540000Y-133380000D03*
X165540000Y-135920000D03*
D17*
X123740000Y-108530000D03*
D18*
X123740000Y-103530000D03*
D19*
X141010000Y-67960000D03*
D20*
X135930000Y-62880000D03*
D19*
X138470000Y-67960000D03*
D20*
X146090000Y-62880000D03*
D21*
X121800000Y-82300000D03*
X123070000Y-82300000D03*
X124340000Y-82300000D03*
X125610000Y-82300000D03*
X125610000Y-77350000D03*
X124340000Y-77350000D03*
X123070000Y-77350000D03*
X121800000Y-77350000D03*
D10*
X142980000Y-92180000D03*
D13*
X150600000Y-92180000D03*
D16*
X120550000Y-71530000D03*
D13*
X123090000Y-71530000D03*
X125630000Y-71530000D03*
X128170000Y-71530000D03*
X128170000Y-63910000D03*
X125630000Y-63910000D03*
X123090000Y-63910000D03*
X120550000Y-63910000D03*
D11*
X165840000Y-61050000D03*
D12*
X165840000Y-63590000D03*
X165840000Y-66130000D03*
D10*
X125290000Y-133980000D03*
X125290000Y-128980000D03*
X142870000Y-118230000D03*
D13*
X150490000Y-118230000D03*
D22*
X116450000Y-129350000D03*
X121940000Y-73890000D03*
X133050000Y-94650000D03*
X135200000Y-85650000D03*
X144750000Y-97000000D03*
X133647702Y-87747702D03*
X128150000Y-81040000D03*
X144850000Y-88800000D03*
X125600000Y-84640000D03*
X156521614Y-115671614D03*
X159000000Y-113450000D03*
X146900000Y-106400000D03*
X147400000Y-119250000D03*
X123140000Y-84680000D03*
X144750000Y-119050000D03*
X131750000Y-74850000D03*
X158950000Y-71450000D03*
X124410000Y-84670000D03*
X160550000Y-78800000D03*
X161800000Y-82100000D03*
X133570000Y-80660000D03*
X145975000Y-85400000D03*
X151500000Y-114050000D03*
X160250000Y-135245000D03*
X135050000Y-131950000D03*
D23*
X128280000Y-79330000D02*
X123370000Y-79330000D01*
X125400000Y-111100000D02*
X125250000Y-111250000D01*
X123070000Y-79030000D02*
X123070000Y-77350000D01*
X112480000Y-79370000D02*
X112290000Y-79560000D01*
X125250000Y-111250000D02*
X111750000Y-111250000D01*
X142980000Y-79430000D02*
X142980000Y-77320000D01*
X123740000Y-108530000D02*
X118780000Y-108530000D01*
X113290000Y-134030000D02*
X119340000Y-134030000D01*
X121940000Y-73890000D02*
X123070000Y-75020000D01*
X125400000Y-109350000D02*
X125400000Y-111100000D01*
X123070000Y-78970000D02*
X122670000Y-79370000D01*
X124580000Y-108530000D02*
X125400000Y-109350000D01*
X109850000Y-126500000D02*
X110600000Y-127250000D01*
X116450000Y-128550000D02*
X116450000Y-129350000D01*
X109750000Y-113250000D02*
X109750000Y-113450000D01*
X141250000Y-83900000D02*
X142980000Y-82170000D01*
X142945000Y-79395000D02*
X142980000Y-79430000D01*
X131110000Y-76500000D02*
X128280000Y-79330000D01*
X142980000Y-82170000D02*
X142980000Y-79430000D01*
X141250000Y-90450000D02*
X141250000Y-83900000D01*
X119340000Y-134030000D02*
X119390000Y-133980000D01*
X123070000Y-77350000D02*
X123070000Y-78970000D01*
X122670000Y-79370000D02*
X112480000Y-79370000D01*
X110600000Y-127250000D02*
X115150000Y-127250000D01*
X116290000Y-106040000D02*
X113290000Y-106040000D01*
X142980000Y-77320000D02*
X142160000Y-76500000D01*
X118780000Y-108530000D02*
X116290000Y-106040000D01*
X109750000Y-113450000D02*
X109850000Y-113550000D01*
X123070000Y-75020000D02*
X123070000Y-77350000D01*
X123370000Y-79330000D02*
X123070000Y-79030000D01*
X142160000Y-76500000D02*
X131110000Y-76500000D01*
X109850000Y-113550000D02*
X109850000Y-126500000D01*
X111750000Y-111250000D02*
X109750000Y-113250000D01*
X115150000Y-127250000D02*
X116450000Y-128550000D01*
X123740000Y-108530000D02*
X124580000Y-108530000D01*
X142980000Y-92180000D02*
X141250000Y-90450000D01*
X144175000Y-89225000D02*
X142980000Y-88030000D01*
X142980000Y-88030000D02*
X142980000Y-85780000D01*
X133050000Y-94650000D02*
X133400000Y-94650000D01*
X133415000Y-94635000D02*
X142265000Y-94635000D01*
X144175000Y-92725000D02*
X144175000Y-89225000D01*
X142265000Y-94635000D02*
X144175000Y-92725000D01*
X145870000Y-79430000D02*
X150600000Y-79430000D01*
X145200000Y-83560000D02*
X145200000Y-80100000D01*
X142980000Y-85780000D02*
X145200000Y-83560000D01*
X133400000Y-94650000D02*
X133415000Y-94635000D01*
X145200000Y-80100000D02*
X145870000Y-79430000D01*
X125610000Y-81230000D02*
X125800000Y-81040000D01*
X127980000Y-95470000D02*
X128450000Y-95000000D01*
X149900000Y-87950000D02*
X150600000Y-87250000D01*
X125600000Y-82310000D02*
X125610000Y-82300000D01*
X129400000Y-119000000D02*
X131640000Y-121240000D01*
X123740000Y-116047677D02*
X123740000Y-118040000D01*
X127980000Y-113770000D02*
X125702323Y-116047677D01*
X128450000Y-95000000D02*
X129650000Y-95000000D01*
X130100000Y-103950000D02*
X130945000Y-104795000D01*
X143020000Y-105230000D02*
X143020000Y-106170000D01*
X143450000Y-106600000D02*
X144400000Y-106600000D01*
X112290000Y-65040000D02*
X112290000Y-67580000D01*
X145700000Y-87950000D02*
X149900000Y-87950000D01*
X125610000Y-82300000D02*
X125610000Y-81230000D01*
X127980000Y-96030000D02*
X127980000Y-95470000D01*
X131640000Y-121240000D02*
X131640000Y-129030000D01*
X128300000Y-71400000D02*
X128170000Y-71530000D01*
X129650000Y-95000000D02*
X130150000Y-95500000D01*
X144850000Y-88800000D02*
X145700000Y-87950000D01*
X144800000Y-105900000D02*
X144800000Y-97050000D01*
X144800000Y-106200000D02*
X144800000Y-105900000D01*
X127980000Y-96030000D02*
X127980000Y-113770000D01*
X127400000Y-69500000D02*
X128300000Y-70400000D01*
X113850000Y-69500000D02*
X127400000Y-69500000D01*
X142585000Y-104795000D02*
X143020000Y-105230000D01*
X130945000Y-104795000D02*
X142585000Y-104795000D01*
X112290000Y-67940000D02*
X113850000Y-69500000D01*
X128300000Y-70400000D02*
X128300000Y-71400000D01*
X144800000Y-97050000D02*
X144750000Y-97000000D01*
X112290000Y-67580000D02*
X112290000Y-67940000D01*
X124700000Y-119000000D02*
X129400000Y-119000000D01*
X130150000Y-103900000D02*
X130100000Y-103950000D01*
X143020000Y-106170000D02*
X143450000Y-106600000D01*
X130150000Y-95500000D02*
X130150000Y-103900000D01*
X125800000Y-81040000D02*
X128150000Y-81040000D01*
X150600000Y-87250000D02*
X150600000Y-85780000D01*
X135200000Y-86195404D02*
X135200000Y-85650000D01*
X125702323Y-116047677D02*
X123740000Y-116047677D01*
X144400000Y-106600000D02*
X144800000Y-106200000D01*
X125600000Y-84640000D02*
X125600000Y-82310000D01*
X123740000Y-118040000D02*
X124700000Y-119000000D01*
X133647702Y-87747702D02*
X135200000Y-86195404D01*
D24*
X152940000Y-94520000D02*
X157030000Y-94520000D01*
X158190000Y-93360000D02*
X165690000Y-93360000D01*
X157030000Y-94520000D02*
X158190000Y-93360000D01*
X145870000Y-92180000D02*
X150600000Y-92180000D01*
X150600000Y-92180000D02*
X152940000Y-94520000D01*
X142980000Y-95070000D02*
X145870000Y-92180000D01*
X142980000Y-98780000D02*
X142980000Y-95070000D01*
D23*
X124450000Y-100050000D02*
X123740000Y-100760000D01*
X160980000Y-80620000D02*
X154390000Y-80620000D01*
X125290000Y-128980000D02*
X126550000Y-130240000D01*
X154390000Y-80620000D02*
X154390000Y-78080000D01*
X138200000Y-123800000D02*
X139150000Y-123800000D01*
X150490000Y-131090000D02*
X155320000Y-135920000D01*
X122900000Y-96030000D02*
X124450000Y-97580000D01*
X128980000Y-134030000D02*
X131640000Y-134030000D01*
X151475000Y-109875000D02*
X159325000Y-109875000D01*
X136210000Y-67960000D02*
X135200000Y-66950000D01*
X117000000Y-115850000D02*
X122197677Y-121047677D01*
X168050000Y-69650000D02*
X165840000Y-67440000D01*
X124450000Y-97580000D02*
X124450000Y-100050000D01*
X148200000Y-120050000D02*
X149950000Y-120050000D01*
X149070000Y-124580000D02*
X150490000Y-124580000D01*
X126550000Y-131600000D02*
X128980000Y-134030000D01*
X159700000Y-112750000D02*
X159000000Y-113450000D01*
X150490000Y-118230000D02*
X151315000Y-117405000D01*
X150180000Y-62880000D02*
X154390000Y-67090000D01*
X150640000Y-111830000D02*
X150640000Y-110710000D01*
X147400000Y-119250000D02*
X148200000Y-120050000D01*
X141300000Y-126450000D02*
X141750000Y-126900000D01*
X138470000Y-67960000D02*
X136210000Y-67960000D01*
X159700000Y-110250000D02*
X159700000Y-112750000D01*
X141050000Y-123800000D02*
X141300000Y-124050000D01*
X141750000Y-126900000D02*
X146750000Y-126900000D01*
X155495000Y-117405000D02*
X156500000Y-116400000D01*
X165840000Y-75690000D02*
X162500000Y-79030000D01*
X168050000Y-73480000D02*
X168050000Y-69650000D01*
X122197677Y-121047677D02*
X123740000Y-121047677D01*
X162500000Y-79100000D02*
X160980000Y-80620000D01*
X119390000Y-128980000D02*
X125290000Y-128980000D01*
X156500000Y-116400000D02*
X156500000Y-115900000D01*
X146750000Y-126900000D02*
X149070000Y-124580000D01*
X126550000Y-130240000D02*
X126550000Y-131600000D01*
X141300000Y-124050000D02*
X141300000Y-126450000D01*
X112290000Y-102500000D02*
X113290000Y-103500000D01*
X135200000Y-66950000D02*
X135200000Y-63610000D01*
X139150000Y-123800000D02*
X141050000Y-123800000D01*
X156500000Y-115693228D02*
X156521614Y-115671614D01*
X123740000Y-100760000D02*
X123740000Y-103530000D01*
X150640000Y-110710000D02*
X151475000Y-109875000D01*
X165840000Y-75690000D02*
X168050000Y-73480000D01*
X150490000Y-124580000D02*
X150490000Y-131090000D01*
X146090000Y-62880000D02*
X150180000Y-62880000D01*
X123740000Y-103530000D02*
X113320000Y-103530000D01*
X135420000Y-134030000D02*
X137300000Y-132150000D01*
X150600000Y-100750000D02*
X148650000Y-102700000D01*
X165840000Y-63590000D02*
X165840000Y-66130000D01*
X112290000Y-96290000D02*
X112290000Y-102500000D01*
X113290000Y-115850000D02*
X117000000Y-115850000D01*
X113320000Y-103530000D02*
X113290000Y-103500000D01*
X125290000Y-128980000D02*
X125290000Y-122597677D01*
X149950000Y-120050000D02*
X149950000Y-120000000D01*
X151315000Y-117405000D02*
X155495000Y-117405000D01*
X150490000Y-119460000D02*
X150490000Y-118230000D01*
X137300000Y-132150000D02*
X137300000Y-124700000D01*
X150600000Y-98780000D02*
X150600000Y-100750000D01*
X125290000Y-122597677D02*
X123740000Y-121047677D01*
X135200000Y-63610000D02*
X135930000Y-62880000D01*
X131640000Y-134030000D02*
X135420000Y-134030000D01*
X162500000Y-79030000D02*
X162500000Y-79100000D01*
X149950000Y-120000000D02*
X150490000Y-119460000D01*
X113290000Y-131490000D02*
X116880000Y-131490000D01*
X137300000Y-124700000D02*
X138200000Y-123800000D01*
X146900000Y-104450000D02*
X146900000Y-106400000D01*
X159325000Y-109875000D02*
X159700000Y-110250000D01*
X165840000Y-67440000D02*
X165840000Y-66130000D01*
X154390000Y-67090000D02*
X154390000Y-78080000D01*
X135930000Y-62880000D02*
X146090000Y-62880000D01*
X156500000Y-115900000D02*
X156500000Y-115693228D01*
X148650000Y-102700000D02*
X146900000Y-104450000D01*
X116880000Y-131490000D02*
X119390000Y-128980000D01*
X155320000Y-135920000D02*
X165540000Y-135920000D01*
D24*
X161430000Y-104820000D02*
X165690000Y-100560000D01*
X150640000Y-107560000D02*
X146370000Y-111830000D01*
X150640000Y-105230000D02*
X150640000Y-107560000D01*
X146370000Y-111830000D02*
X145900000Y-111830000D01*
X165690000Y-100560000D02*
X165690000Y-98440000D01*
X143020000Y-111830000D02*
X145900000Y-111830000D01*
X151050000Y-104820000D02*
X161430000Y-104820000D01*
X150640000Y-105230000D02*
X151050000Y-104820000D01*
D23*
X165640000Y-113910000D02*
X165640000Y-109910000D01*
X164685000Y-114865000D02*
X165640000Y-113910000D01*
X142870000Y-118230000D02*
X145870000Y-118230000D01*
X149235000Y-114865000D02*
X164685000Y-114865000D01*
X145870000Y-118230000D02*
X149235000Y-114865000D01*
X165640000Y-107370000D02*
X165640000Y-109910000D01*
X123140000Y-82370000D02*
X123070000Y-82300000D01*
X123140000Y-84680000D02*
X123140000Y-82370000D01*
X165640000Y-119360000D02*
X165640000Y-121900000D01*
X147020000Y-124580000D02*
X151565000Y-120035000D01*
X144750000Y-122300000D02*
X144600000Y-122450000D01*
X156215000Y-120035000D02*
X156650000Y-119600000D01*
X163800000Y-117950000D02*
X163800000Y-118850000D01*
X156650000Y-117800000D02*
X157150000Y-117300000D01*
X144750000Y-119050000D02*
X144750000Y-122300000D01*
X142870000Y-124580000D02*
X147020000Y-124580000D01*
X157150000Y-117300000D02*
X163150000Y-117300000D01*
X131050000Y-74150000D02*
X131750000Y-74850000D01*
X163150000Y-117300000D02*
X163800000Y-117950000D01*
X151565000Y-120035000D02*
X156215000Y-120035000D01*
X123090000Y-73540000D02*
X123700000Y-74150000D01*
X144600000Y-122450000D02*
X143150000Y-122450000D01*
X143150000Y-122450000D02*
X142870000Y-122730000D01*
X123700000Y-74150000D02*
X131050000Y-74150000D01*
X163800000Y-118850000D02*
X164310000Y-119360000D01*
X142870000Y-122730000D02*
X142870000Y-124580000D01*
X156650000Y-119600000D02*
X156650000Y-117800000D01*
X123090000Y-71530000D02*
X123090000Y-73540000D01*
X164310000Y-119360000D02*
X165640000Y-119360000D01*
X111100000Y-137000000D02*
X125000000Y-137000000D01*
X110600000Y-129900000D02*
X110600000Y-136500000D01*
X125290000Y-136710000D02*
X125290000Y-133980000D01*
X113290000Y-128950000D02*
X111550000Y-128950000D01*
X111550000Y-128950000D02*
X110600000Y-129900000D01*
X110600000Y-136500000D02*
X111100000Y-137000000D01*
X125000000Y-137000000D02*
X125290000Y-136710000D01*
X122900000Y-88410000D02*
X125440000Y-88410000D01*
X140170000Y-75750000D02*
X141010000Y-74910000D01*
X141010000Y-74910000D02*
X141010000Y-67960000D01*
X124340000Y-78550000D02*
X124530000Y-78740000D01*
X124530000Y-78740000D02*
X127810000Y-78740000D01*
X127810000Y-78740000D02*
X130800000Y-75750000D01*
X130800000Y-75750000D02*
X140170000Y-75750000D01*
X124340000Y-77350000D02*
X124340000Y-78550000D01*
X165450000Y-87050000D02*
X165840000Y-86660000D01*
X161800000Y-82100000D02*
X161800000Y-86150000D01*
X124410000Y-82370000D02*
X124340000Y-82300000D01*
X158950000Y-71450000D02*
X160550000Y-73050000D01*
X165840000Y-86660000D02*
X165840000Y-85850000D01*
X160550000Y-73050000D02*
X160550000Y-78800000D01*
X124410000Y-84670000D02*
X124410000Y-82370000D01*
X161800000Y-86150000D02*
X162700000Y-87050000D01*
X165650000Y-86040000D02*
X165840000Y-85850000D01*
X162700000Y-87050000D02*
X165450000Y-87050000D01*
X165640000Y-116820000D02*
X168550000Y-113910000D01*
X168550000Y-62850000D02*
X166750000Y-61050000D01*
X125630000Y-63910000D02*
X125630000Y-61270000D01*
X165800000Y-59650000D02*
X165800000Y-59850000D01*
X164750000Y-58600000D02*
X165800000Y-59650000D01*
X125630000Y-61270000D02*
X128300000Y-58600000D01*
X165800000Y-59850000D02*
X165840000Y-59890000D01*
X166750000Y-61050000D02*
X165840000Y-61050000D01*
X165840000Y-59890000D02*
X165840000Y-61050000D01*
X168550000Y-113910000D02*
X168550000Y-62850000D01*
X128300000Y-58600000D02*
X164750000Y-58600000D01*
X149940000Y-83160000D02*
X154390000Y-83160000D01*
X132880000Y-79970000D02*
X114030000Y-79970000D01*
X114030000Y-79970000D02*
X112290000Y-81710000D01*
X133570000Y-80660000D02*
X132880000Y-79970000D01*
X112290000Y-81710000D02*
X112290000Y-86130000D01*
X145975000Y-85400000D02*
X147700000Y-85400000D01*
X147700000Y-85400000D02*
X149940000Y-83160000D01*
X160870000Y-103480000D02*
X154390000Y-103480000D01*
X166020000Y-80950000D02*
X167000000Y-80950000D01*
X166835000Y-97215000D02*
X164235000Y-97215000D01*
X167000000Y-80950000D02*
X167400000Y-81350000D01*
X167400000Y-81350000D02*
X167400000Y-96650000D01*
X163600000Y-97850000D02*
X163600000Y-100750000D01*
X167400000Y-96650000D02*
X166835000Y-97215000D01*
X165840000Y-80770000D02*
X166020000Y-80950000D01*
X163600000Y-100750000D02*
X160870000Y-103480000D01*
X164235000Y-97215000D02*
X163600000Y-97850000D01*
X131750000Y-85500000D02*
X136630000Y-80620000D01*
X136630000Y-80620000D02*
X139150000Y-80620000D01*
X115460000Y-85500000D02*
X131750000Y-85500000D01*
X112290000Y-88670000D02*
X115460000Y-85500000D01*
X128600000Y-93750000D02*
X136650000Y-85700000D01*
X136650000Y-85700000D02*
X139150000Y-85700000D01*
X112290000Y-93750000D02*
X128600000Y-93750000D01*
X116950000Y-86550000D02*
X132950000Y-86550000D01*
X136340000Y-83160000D02*
X139150000Y-83160000D01*
X132950000Y-86550000D02*
X136340000Y-83160000D01*
X112290000Y-91210000D02*
X116950000Y-86550000D01*
X145550000Y-116900000D02*
X142150000Y-116900000D01*
X140500000Y-114150000D02*
X139990000Y-113640000D01*
X140500000Y-115250000D02*
X140500000Y-114150000D01*
X148400000Y-114050000D02*
X145550000Y-116900000D01*
X151500000Y-114050000D02*
X148400000Y-114050000D01*
X139990000Y-113640000D02*
X139150000Y-113640000D01*
X142150000Y-116900000D02*
X140500000Y-115250000D01*
X139150000Y-111100000D02*
X135400000Y-111100000D01*
X134950000Y-111550000D02*
X134950000Y-131850000D01*
X163100000Y-129050000D02*
X163850000Y-128300000D01*
X134950000Y-131850000D02*
X135050000Y-131950000D01*
X160250000Y-135245000D02*
X163100000Y-132395000D01*
X163100000Y-132395000D02*
X163100000Y-129050000D01*
X135400000Y-111100000D02*
X134950000Y-111550000D01*
X163850000Y-128300000D02*
X165540000Y-128300000D01*
X110120000Y-77020000D02*
X112290000Y-77020000D01*
X109400000Y-76300000D02*
X110120000Y-77020000D01*
X111050000Y-62500000D02*
X109400000Y-64150000D01*
X109400000Y-64150000D02*
X109400000Y-76300000D01*
X112290000Y-62500000D02*
X111050000Y-62500000D01*
%TA.AperFunction,Conductor*%
G36*
X153093805Y-115510185D02*
G01*
X153139560Y-115562989D01*
X153149504Y-115632147D01*
X153139148Y-115666905D01*
X153116097Y-115716335D01*
X153116094Y-115716344D01*
X153054938Y-115944586D01*
X153054936Y-115944596D01*
X153034341Y-116179999D01*
X153034341Y-116180000D01*
X153054936Y-116415403D01*
X153054938Y-116415413D01*
X153116094Y-116643655D01*
X153116096Y-116643659D01*
X153116097Y-116643663D01*
X153195593Y-116814142D01*
X153215965Y-116857830D01*
X153215967Y-116857834D01*
X153351501Y-117051395D01*
X153351506Y-117051402D01*
X153518597Y-117218493D01*
X153518603Y-117218498D01*
X153704158Y-117348425D01*
X153747783Y-117403002D01*
X153754977Y-117472500D01*
X153723454Y-117534855D01*
X153704158Y-117551575D01*
X153518597Y-117681505D01*
X153351505Y-117848597D01*
X153215965Y-118042169D01*
X153215964Y-118042171D01*
X153116098Y-118256335D01*
X153116094Y-118256344D01*
X153054938Y-118484586D01*
X153054936Y-118484596D01*
X153034341Y-118719999D01*
X153034341Y-118720000D01*
X153054936Y-118955403D01*
X153054938Y-118955413D01*
X153116094Y-119183655D01*
X153116097Y-119183664D01*
X153128315Y-119209865D01*
X153137726Y-119230047D01*
X153139148Y-119233095D01*
X153149640Y-119302172D01*
X153121121Y-119365956D01*
X153062644Y-119404196D01*
X153026766Y-119409500D01*
X151632741Y-119409500D01*
X151632721Y-119409499D01*
X151626607Y-119409499D01*
X151503394Y-119409499D01*
X151402597Y-119429548D01*
X151402592Y-119429548D01*
X151382549Y-119433536D01*
X151339271Y-119451463D01*
X151339270Y-119451463D01*
X151268721Y-119480684D01*
X151268708Y-119480691D01*
X151166267Y-119549141D01*
X151166263Y-119549144D01*
X146797229Y-123918181D01*
X146735906Y-123951666D01*
X146709548Y-123954500D01*
X144084188Y-123954500D01*
X144017149Y-123934815D01*
X143982613Y-123901623D01*
X143870045Y-123740858D01*
X143709140Y-123579953D01*
X143548377Y-123467386D01*
X143504752Y-123412809D01*
X143495500Y-123365811D01*
X143495500Y-123199500D01*
X143515185Y-123132461D01*
X143567989Y-123086706D01*
X143619500Y-123075500D01*
X144661607Y-123075500D01*
X144722029Y-123063481D01*
X144782452Y-123051463D01*
X144782455Y-123051461D01*
X144782458Y-123051461D01*
X144815787Y-123037654D01*
X144815786Y-123037654D01*
X144815792Y-123037652D01*
X144896286Y-123004312D01*
X144947509Y-122970084D01*
X144998733Y-122935858D01*
X145085858Y-122848733D01*
X145085859Y-122848731D01*
X145092925Y-122841665D01*
X145092928Y-122841661D01*
X145148729Y-122785860D01*
X145148733Y-122785858D01*
X145235858Y-122698733D01*
X145280146Y-122632452D01*
X145304312Y-122596286D01*
X145351463Y-122482451D01*
X145359044Y-122444341D01*
X145361094Y-122434034D01*
X145371245Y-122383000D01*
X145375091Y-122363663D01*
X145375500Y-122361607D01*
X145375500Y-122238393D01*
X145375500Y-119594854D01*
X145394507Y-119528881D01*
X145402832Y-119515633D01*
X145456922Y-119429549D01*
X145475788Y-119399524D01*
X145476066Y-119398729D01*
X145535368Y-119229255D01*
X145535369Y-119229249D01*
X145555565Y-119050003D01*
X145555565Y-119049997D01*
X145549186Y-118993384D01*
X145561240Y-118924562D01*
X145608589Y-118873183D01*
X145672406Y-118855500D01*
X145931607Y-118855500D01*
X145992029Y-118843481D01*
X146052452Y-118831463D01*
X146086045Y-118817548D01*
X146166286Y-118784312D01*
X146240833Y-118734500D01*
X146268733Y-118715858D01*
X146355858Y-118628733D01*
X146355858Y-118628731D01*
X146366066Y-118618524D01*
X146366067Y-118618521D01*
X149457772Y-115526819D01*
X149519095Y-115493334D01*
X149545453Y-115490500D01*
X153026766Y-115490500D01*
X153093805Y-115510185D01*
G37*
%TD.AperFunction*%
%TA.AperFunction,Conductor*%
G36*
X164343065Y-115510185D02*
G01*
X164388820Y-115562989D01*
X164398764Y-115632147D01*
X164375293Y-115688811D01*
X164346204Y-115727668D01*
X164346202Y-115727671D01*
X164295908Y-115862517D01*
X164289501Y-115922116D01*
X164289500Y-115922135D01*
X164289500Y-117255548D01*
X164269815Y-117322587D01*
X164217011Y-117368342D01*
X164147853Y-117378286D01*
X164084297Y-117349261D01*
X164077819Y-117343229D01*
X163640198Y-116905608D01*
X163640178Y-116905586D01*
X163548733Y-116814141D01*
X163497509Y-116779915D01*
X163474116Y-116764284D01*
X163446286Y-116745688D01*
X163446283Y-116745686D01*
X163446280Y-116745685D01*
X163365792Y-116712347D01*
X163332454Y-116698538D01*
X163332455Y-116698538D01*
X163332452Y-116698537D01*
X163332448Y-116698536D01*
X163332444Y-116698535D01*
X163266701Y-116685458D01*
X163266700Y-116685458D01*
X163211611Y-116674500D01*
X163211607Y-116674500D01*
X163211606Y-116674500D01*
X157211607Y-116674500D01*
X157088393Y-116674500D01*
X157033298Y-116685459D01*
X157033297Y-116685458D01*
X156967555Y-116698535D01*
X156967545Y-116698538D01*
X156934208Y-116712347D01*
X156921652Y-116717548D01*
X156889622Y-116730814D01*
X156853711Y-116745689D01*
X156843627Y-116752428D01*
X156843626Y-116752429D01*
X156751268Y-116814140D01*
X156707705Y-116857703D01*
X156664142Y-116901267D01*
X156664139Y-116901270D01*
X156251270Y-117314139D01*
X156251267Y-117314142D01*
X156222180Y-117343229D01*
X156164142Y-117401266D01*
X156134189Y-117446095D01*
X156134188Y-117446096D01*
X156095690Y-117503709D01*
X156095688Y-117503713D01*
X156087036Y-117524601D01*
X156074800Y-117554143D01*
X156048538Y-117617544D01*
X156048535Y-117617556D01*
X156024500Y-117738389D01*
X156024500Y-119285500D01*
X156004815Y-119352539D01*
X155952011Y-119398294D01*
X155900500Y-119409500D01*
X155753234Y-119409500D01*
X155686195Y-119389815D01*
X155640440Y-119337011D01*
X155630496Y-119267853D01*
X155640852Y-119233095D01*
X155663903Y-119183663D01*
X155725063Y-118955408D01*
X155745659Y-118720000D01*
X155725063Y-118484592D01*
X155663903Y-118256337D01*
X155564035Y-118042171D01*
X155553796Y-118027547D01*
X155428494Y-117848597D01*
X155261402Y-117681506D01*
X155261396Y-117681501D01*
X155075842Y-117551575D01*
X155032217Y-117496998D01*
X155025023Y-117427500D01*
X155056546Y-117365145D01*
X155075842Y-117348425D01*
X155124807Y-117314139D01*
X155261401Y-117218495D01*
X155428495Y-117051401D01*
X155564035Y-116857830D01*
X155663903Y-116643663D01*
X155725063Y-116415408D01*
X155745659Y-116180000D01*
X155725063Y-115944592D01*
X155663903Y-115716337D01*
X155640851Y-115666904D01*
X155630360Y-115597828D01*
X155658879Y-115534044D01*
X155717356Y-115495804D01*
X155753234Y-115490500D01*
X164276026Y-115490500D01*
X164343065Y-115510185D01*
G37*
%TD.AperFunction*%
%TA.AperFunction,Conductor*%
G36*
X149435347Y-92800185D02*
G01*
X149469880Y-92833374D01*
X149555480Y-92955624D01*
X149599954Y-93019141D01*
X149760858Y-93180045D01*
X149760861Y-93180047D01*
X149947266Y-93310568D01*
X150153504Y-93406739D01*
X150373308Y-93465635D01*
X150535230Y-93479801D01*
X150599998Y-93485468D01*
X150600000Y-93485468D01*
X150600002Y-93485468D01*
X150656673Y-93480509D01*
X150826692Y-93465635D01*
X150922932Y-93439847D01*
X150992781Y-93441510D01*
X151042705Y-93471940D01*
X152571284Y-95000520D01*
X152571286Y-95000521D01*
X152571290Y-95000524D01*
X152708209Y-95079573D01*
X152708212Y-95079575D01*
X152708216Y-95079577D01*
X152860943Y-95120501D01*
X152860945Y-95120501D01*
X153026654Y-95120501D01*
X153026670Y-95120500D01*
X153050081Y-95120500D01*
X153117120Y-95140185D01*
X153162875Y-95192989D01*
X153172819Y-95262147D01*
X153162463Y-95296905D01*
X153116098Y-95396335D01*
X153116094Y-95396344D01*
X153054938Y-95624586D01*
X153054936Y-95624596D01*
X153034341Y-95859999D01*
X153034341Y-95860000D01*
X153054936Y-96095403D01*
X153054938Y-96095413D01*
X153116094Y-96323655D01*
X153116096Y-96323659D01*
X153116097Y-96323663D01*
X153187365Y-96476497D01*
X153215965Y-96537830D01*
X153215967Y-96537834D01*
X153351501Y-96731395D01*
X153351506Y-96731402D01*
X153518597Y-96898493D01*
X153518603Y-96898498D01*
X153704158Y-97028425D01*
X153747783Y-97083002D01*
X153754977Y-97152500D01*
X153723454Y-97214855D01*
X153704158Y-97231575D01*
X153518597Y-97361505D01*
X153351505Y-97528597D01*
X153254212Y-97667548D01*
X153215965Y-97722171D01*
X153122022Y-97923632D01*
X153116098Y-97936335D01*
X153116094Y-97936344D01*
X153054938Y-98164586D01*
X153054936Y-98164596D01*
X153034341Y-98399999D01*
X153034341Y-98400000D01*
X153054936Y-98635403D01*
X153054938Y-98635413D01*
X153116094Y-98863655D01*
X153116096Y-98863659D01*
X153116097Y-98863663D01*
X153134750Y-98903664D01*
X153215965Y-99077830D01*
X153215967Y-99077834D01*
X153351501Y-99271395D01*
X153351506Y-99271402D01*
X153518597Y-99438493D01*
X153518603Y-99438498D01*
X153704158Y-99568425D01*
X153747783Y-99623002D01*
X153754977Y-99692500D01*
X153723454Y-99754855D01*
X153704158Y-99771575D01*
X153518597Y-99901505D01*
X153351505Y-100068597D01*
X153215965Y-100262169D01*
X153215964Y-100262171D01*
X153116098Y-100476335D01*
X153116094Y-100476344D01*
X153054938Y-100704586D01*
X153054936Y-100704596D01*
X153034341Y-100939999D01*
X153034341Y-100940000D01*
X153054936Y-101175403D01*
X153054938Y-101175413D01*
X153116094Y-101403655D01*
X153116096Y-101403659D01*
X153116097Y-101403663D01*
X153215965Y-101617830D01*
X153215967Y-101617834D01*
X153351501Y-101811395D01*
X153351506Y-101811402D01*
X153518597Y-101978493D01*
X153518603Y-101978498D01*
X153704158Y-102108425D01*
X153747783Y-102163002D01*
X153754977Y-102232500D01*
X153723454Y-102294855D01*
X153704158Y-102311575D01*
X153518597Y-102441505D01*
X153351505Y-102608597D01*
X153215965Y-102802169D01*
X153215964Y-102802171D01*
X153116098Y-103016335D01*
X153116094Y-103016344D01*
X153054938Y-103244586D01*
X153054936Y-103244596D01*
X153034341Y-103479999D01*
X153034341Y-103480000D01*
X153054936Y-103715403D01*
X153054938Y-103715413D01*
X153116094Y-103943655D01*
X153116096Y-103943659D01*
X153116097Y-103943663D01*
X153116425Y-103944366D01*
X153162463Y-104043095D01*
X153172955Y-104112173D01*
X153144435Y-104175957D01*
X153085959Y-104214196D01*
X153050081Y-104219500D01*
X151503306Y-104219500D01*
X151436267Y-104199815D01*
X151432196Y-104197084D01*
X151292734Y-104099432D01*
X151224582Y-104067652D01*
X151086497Y-104003261D01*
X151086488Y-104003258D01*
X150866697Y-103944366D01*
X150866693Y-103944365D01*
X150866692Y-103944365D01*
X150866691Y-103944364D01*
X150866686Y-103944364D01*
X150640002Y-103924532D01*
X150639998Y-103924532D01*
X150413313Y-103944364D01*
X150413302Y-103944366D01*
X150193511Y-104003258D01*
X150193502Y-104003261D01*
X149987267Y-104099431D01*
X149987265Y-104099432D01*
X149800858Y-104229954D01*
X149639954Y-104390858D01*
X149509432Y-104577265D01*
X149509431Y-104577267D01*
X149413261Y-104783502D01*
X149413258Y-104783511D01*
X149354366Y-105003302D01*
X149354364Y-105003313D01*
X149334532Y-105229998D01*
X149334532Y-105230001D01*
X149354364Y-105456686D01*
X149354366Y-105456697D01*
X149413258Y-105676488D01*
X149413261Y-105676497D01*
X149509431Y-105882732D01*
X149509432Y-105882734D01*
X149639954Y-106069141D01*
X149800858Y-106230045D01*
X149800861Y-106230047D01*
X149986624Y-106360118D01*
X150030248Y-106414693D01*
X150039500Y-106461692D01*
X150039500Y-107259903D01*
X150019815Y-107326942D01*
X150003181Y-107347584D01*
X146157584Y-111193181D01*
X146096261Y-111226666D01*
X146069903Y-111229500D01*
X144251692Y-111229500D01*
X144184653Y-111209815D01*
X144150119Y-111176625D01*
X144020047Y-110990861D01*
X144020045Y-110990858D01*
X143859141Y-110829954D01*
X143672734Y-110699432D01*
X143672732Y-110699431D01*
X143466497Y-110603261D01*
X143466488Y-110603258D01*
X143246697Y-110544366D01*
X143246693Y-110544365D01*
X143246692Y-110544365D01*
X143246691Y-110544364D01*
X143246686Y-110544364D01*
X143020002Y-110524532D01*
X143019998Y-110524532D01*
X142793313Y-110544364D01*
X142793302Y-110544366D01*
X142573511Y-110603258D01*
X142573502Y-110603261D01*
X142367267Y-110699431D01*
X142367265Y-110699432D01*
X142180858Y-110829954D01*
X142019954Y-110990858D01*
X141889432Y-111177265D01*
X141889431Y-111177267D01*
X141793261Y-111383502D01*
X141793258Y-111383511D01*
X141734366Y-111603302D01*
X141734364Y-111603313D01*
X141714532Y-111829998D01*
X141714532Y-111830000D01*
X141734364Y-112056686D01*
X141734366Y-112056697D01*
X141793258Y-112276488D01*
X141793261Y-112276497D01*
X141889431Y-112482732D01*
X141889432Y-112482734D01*
X142019954Y-112669141D01*
X142180858Y-112830045D01*
X142180861Y-112830047D01*
X142367266Y-112960568D01*
X142573504Y-113056739D01*
X142793308Y-113115635D01*
X142955230Y-113129801D01*
X143019998Y-113135468D01*
X143020000Y-113135468D01*
X143020002Y-113135468D01*
X143076673Y-113130509D01*
X143246692Y-113115635D01*
X143466496Y-113056739D01*
X143672734Y-112960568D01*
X143859139Y-112830047D01*
X144020047Y-112669139D01*
X144150118Y-112483375D01*
X144204693Y-112439752D01*
X144251692Y-112430500D01*
X145820943Y-112430500D01*
X146283331Y-112430500D01*
X146283347Y-112430501D01*
X146290943Y-112430501D01*
X146449054Y-112430501D01*
X146449057Y-112430501D01*
X146601785Y-112389577D01*
X146651904Y-112360639D01*
X146738716Y-112310520D01*
X146850520Y-112198716D01*
X146850520Y-112198714D01*
X146860728Y-112188507D01*
X146860730Y-112188504D01*
X150998506Y-108050728D01*
X150998511Y-108050724D01*
X151008714Y-108040520D01*
X151008716Y-108040520D01*
X151120520Y-107928716D01*
X151175398Y-107833663D01*
X151199577Y-107791785D01*
X151240501Y-107639057D01*
X151240501Y-107480943D01*
X151240501Y-107473348D01*
X151240500Y-107473330D01*
X151240500Y-106461692D01*
X151260185Y-106394653D01*
X151293374Y-106360119D01*
X151479139Y-106230047D01*
X151640047Y-106069139D01*
X151770568Y-105882734D01*
X151866739Y-105676496D01*
X151910706Y-105512406D01*
X151947071Y-105452746D01*
X152009917Y-105422217D01*
X152030481Y-105420500D01*
X152990894Y-105420500D01*
X153057933Y-105440185D01*
X153103688Y-105492989D01*
X153113632Y-105562147D01*
X153110669Y-105576593D01*
X153054938Y-105784586D01*
X153054936Y-105784596D01*
X153034341Y-106019999D01*
X153034341Y-106020000D01*
X153054936Y-106255403D01*
X153054938Y-106255413D01*
X153116094Y-106483655D01*
X153116096Y-106483659D01*
X153116097Y-106483663D01*
X153169756Y-106598734D01*
X153215965Y-106697830D01*
X153215967Y-106697834D01*
X153351501Y-106891395D01*
X153351506Y-106891402D01*
X153518597Y-107058493D01*
X153518603Y-107058498D01*
X153704158Y-107188425D01*
X153747783Y-107243002D01*
X153754977Y-107312500D01*
X153723454Y-107374855D01*
X153704158Y-107391575D01*
X153518597Y-107521505D01*
X153351505Y-107688597D01*
X153215965Y-107882169D01*
X153215964Y-107882171D01*
X153116098Y-108096335D01*
X153116094Y-108096344D01*
X153054938Y-108324586D01*
X153054936Y-108324596D01*
X153034341Y-108559999D01*
X153034341Y-108560000D01*
X153054936Y-108795403D01*
X153054938Y-108795413D01*
X153116094Y-109023655D01*
X153116096Y-109023659D01*
X153116097Y-109023663D01*
X153183192Y-109167548D01*
X153215965Y-109237830D01*
X153215967Y-109237834D01*
X153351501Y-109431395D01*
X153351506Y-109431402D01*
X153518597Y-109598493D01*
X153518603Y-109598498D01*
X153704158Y-109728425D01*
X153747783Y-109783002D01*
X153754977Y-109852500D01*
X153723454Y-109914855D01*
X153704158Y-109931575D01*
X153518597Y-110061505D01*
X153351505Y-110228597D01*
X153215965Y-110422169D01*
X153215964Y-110422171D01*
X153116098Y-110636335D01*
X153116094Y-110636344D01*
X153054938Y-110864586D01*
X153054936Y-110864596D01*
X153034341Y-111099999D01*
X153034341Y-111100000D01*
X153054936Y-111335403D01*
X153054938Y-111335413D01*
X153116094Y-111563655D01*
X153116096Y-111563659D01*
X153116097Y-111563663D01*
X153152470Y-111641665D01*
X153215965Y-111777830D01*
X153215967Y-111777834D01*
X153309785Y-111911819D01*
X153351501Y-111971396D01*
X153351506Y-111971402D01*
X153518597Y-112138493D01*
X153518603Y-112138498D01*
X153704158Y-112268425D01*
X153747783Y-112323002D01*
X153754977Y-112392500D01*
X153723454Y-112454855D01*
X153704158Y-112471575D01*
X153518597Y-112601505D01*
X153351505Y-112768597D01*
X153215965Y-112962169D01*
X153215964Y-112962171D01*
X153116098Y-113176335D01*
X153116094Y-113176344D01*
X153054938Y-113404586D01*
X153054936Y-113404596D01*
X153034341Y-113639999D01*
X153034341Y-113640000D01*
X153054936Y-113875403D01*
X153054938Y-113875413D01*
X153110669Y-114083407D01*
X153109006Y-114153257D01*
X153069843Y-114211119D01*
X153005614Y-114238623D01*
X152990894Y-114239500D01*
X152422970Y-114239500D01*
X152355931Y-114219815D01*
X152310176Y-114167011D01*
X152299750Y-114101617D01*
X152305565Y-114050004D01*
X152305565Y-114049996D01*
X152285369Y-113870750D01*
X152285368Y-113870745D01*
X152269291Y-113824801D01*
X152225789Y-113700478D01*
X152217463Y-113687228D01*
X152162370Y-113599547D01*
X152129816Y-113547738D01*
X152002262Y-113420184D01*
X151977454Y-113404596D01*
X151849523Y-113324211D01*
X151679254Y-113264631D01*
X151679249Y-113264630D01*
X151500004Y-113244435D01*
X151499996Y-113244435D01*
X151320750Y-113264630D01*
X151320745Y-113264631D01*
X151150476Y-113324211D01*
X151021117Y-113405494D01*
X150955145Y-113424500D01*
X148467741Y-113424500D01*
X148467721Y-113424499D01*
X148461607Y-113424499D01*
X148338394Y-113424499D01*
X148237597Y-113444548D01*
X148237592Y-113444548D01*
X148217549Y-113448536D01*
X148217547Y-113448536D01*
X148170397Y-113468067D01*
X148103719Y-113495685D01*
X148103717Y-113495686D01*
X148001266Y-113564141D01*
X148001263Y-113564144D01*
X145327229Y-116238181D01*
X145265906Y-116271666D01*
X145239548Y-116274500D01*
X142460453Y-116274500D01*
X142393414Y-116254815D01*
X142372772Y-116238181D01*
X141161819Y-115027228D01*
X141128334Y-114965905D01*
X141125500Y-114939547D01*
X141125500Y-114088393D01*
X141121102Y-114066286D01*
X141121101Y-114066282D01*
X141121101Y-114066280D01*
X141101463Y-113967549D01*
X141095209Y-113952451D01*
X141081932Y-113920397D01*
X141054312Y-113853715D01*
X141054309Y-113853710D01*
X141054308Y-113853708D01*
X141033423Y-113822452D01*
X141033422Y-113822451D01*
X140985858Y-113751267D01*
X140985855Y-113751263D01*
X140895637Y-113661045D01*
X140895606Y-113661016D01*
X140480198Y-113245608D01*
X140480178Y-113245586D01*
X140450700Y-113216108D01*
X140425999Y-113180832D01*
X140324035Y-112962171D01*
X140324034Y-112962169D01*
X140188494Y-112768597D01*
X140021402Y-112601506D01*
X140021396Y-112601501D01*
X139835842Y-112471575D01*
X139792217Y-112416998D01*
X139785023Y-112347500D01*
X139816546Y-112285145D01*
X139835842Y-112268425D01*
X139858026Y-112252891D01*
X140021401Y-112138495D01*
X140188495Y-111971401D01*
X140324035Y-111777830D01*
X140423903Y-111563663D01*
X140485063Y-111335408D01*
X140505659Y-111100000D01*
X140502521Y-111064139D01*
X140492404Y-110948495D01*
X140485063Y-110864592D01*
X140427172Y-110648537D01*
X140423905Y-110636344D01*
X140423904Y-110636343D01*
X140423903Y-110636337D01*
X140324035Y-110422171D01*
X140323652Y-110421623D01*
X140188494Y-110228597D01*
X140021402Y-110061506D01*
X140021396Y-110061501D01*
X139835842Y-109931575D01*
X139792217Y-109876998D01*
X139785023Y-109807500D01*
X139816546Y-109745145D01*
X139835842Y-109728425D01*
X139858026Y-109712891D01*
X140021401Y-109598495D01*
X140188495Y-109431401D01*
X140324035Y-109237830D01*
X140423903Y-109023663D01*
X140485063Y-108795408D01*
X140505659Y-108560000D01*
X140485063Y-108324592D01*
X140423903Y-108096337D01*
X140324035Y-107882171D01*
X140314240Y-107868181D01*
X140188494Y-107688597D01*
X140021402Y-107521506D01*
X140021396Y-107521501D01*
X139835842Y-107391575D01*
X139792217Y-107336998D01*
X139785023Y-107267500D01*
X139816546Y-107205145D01*
X139835842Y-107188425D01*
X139884563Y-107154310D01*
X140021401Y-107058495D01*
X140188495Y-106891401D01*
X140324035Y-106697830D01*
X140423903Y-106483663D01*
X140485063Y-106255408D01*
X140505659Y-106020000D01*
X140485063Y-105784592D01*
X140447817Y-105645586D01*
X140429331Y-105576593D01*
X140430994Y-105506743D01*
X140470157Y-105448881D01*
X140534386Y-105421377D01*
X140549106Y-105420500D01*
X141629519Y-105420500D01*
X141696558Y-105440185D01*
X141742313Y-105492989D01*
X141749292Y-105512403D01*
X141760354Y-105553685D01*
X141793258Y-105676488D01*
X141793261Y-105676497D01*
X141889431Y-105882732D01*
X141889432Y-105882734D01*
X142019954Y-106069141D01*
X142180858Y-106230045D01*
X142286064Y-106303710D01*
X142367266Y-106360568D01*
X142391274Y-106371763D01*
X142443711Y-106417933D01*
X142453429Y-106436691D01*
X142465687Y-106466284D01*
X142465691Y-106466292D01*
X142498661Y-106515632D01*
X142498662Y-106515636D01*
X142498663Y-106515636D01*
X142534138Y-106568728D01*
X142534144Y-106568736D01*
X142625586Y-106660178D01*
X142625608Y-106660198D01*
X142961016Y-106995606D01*
X142961045Y-106995637D01*
X143051264Y-107085856D01*
X143051267Y-107085858D01*
X143128190Y-107137256D01*
X143153710Y-107154309D01*
X143153712Y-107154310D01*
X143153715Y-107154312D01*
X143220396Y-107181931D01*
X143220398Y-107181933D01*
X143260640Y-107198601D01*
X143267548Y-107201463D01*
X143327971Y-107213481D01*
X143388393Y-107225500D01*
X144461607Y-107225500D01*
X144522029Y-107213481D01*
X144582452Y-107201463D01*
X144625326Y-107183704D01*
X144696286Y-107154312D01*
X144747509Y-107120084D01*
X144750479Y-107118100D01*
X144760271Y-107111556D01*
X144798733Y-107085858D01*
X144885858Y-106998733D01*
X144885859Y-106998730D01*
X145285857Y-106598734D01*
X145288813Y-106594311D01*
X145341383Y-106515635D01*
X145354307Y-106496292D01*
X145354307Y-106496291D01*
X145354311Y-106496286D01*
X145401463Y-106382452D01*
X145409257Y-106343262D01*
X145417124Y-106303718D01*
X145417124Y-106303715D01*
X145425500Y-106261607D01*
X145425500Y-106138394D01*
X145425500Y-105838394D01*
X145425500Y-97465280D01*
X145444507Y-97399307D01*
X145475788Y-97349524D01*
X145475789Y-97349522D01*
X145535368Y-97179255D01*
X145535369Y-97179249D01*
X145555565Y-97000003D01*
X145555565Y-96999996D01*
X145535369Y-96820750D01*
X145535368Y-96820745D01*
X145475789Y-96650478D01*
X145452577Y-96613537D01*
X145379815Y-96497737D01*
X145252262Y-96370184D01*
X145099523Y-96274211D01*
X144929254Y-96214631D01*
X144929249Y-96214630D01*
X144750004Y-96194435D01*
X144749996Y-96194435D01*
X144570750Y-96214630D01*
X144570745Y-96214631D01*
X144400476Y-96274211D01*
X144247737Y-96370184D01*
X144120184Y-96497737D01*
X144024211Y-96650476D01*
X143964631Y-96820745D01*
X143964630Y-96820750D01*
X143944435Y-96999996D01*
X143944435Y-97000003D01*
X143964630Y-97179249D01*
X143964631Y-97179254D01*
X144024211Y-97349523D01*
X144120184Y-97502262D01*
X144138181Y-97520259D01*
X144171666Y-97581582D01*
X144174500Y-97607940D01*
X144174500Y-97835951D01*
X144154815Y-97902990D01*
X144102011Y-97948745D01*
X144032853Y-97958689D01*
X143969297Y-97929664D01*
X143962819Y-97923632D01*
X143819140Y-97779953D01*
X143633377Y-97649881D01*
X143589752Y-97595304D01*
X143580500Y-97548306D01*
X143580500Y-95370097D01*
X143600185Y-95303058D01*
X143616819Y-95282416D01*
X146082416Y-92816819D01*
X146143739Y-92783334D01*
X146170097Y-92780500D01*
X149368308Y-92780500D01*
X149435347Y-92800185D01*
G37*
%TD.AperFunction*%
%TA.AperFunction,Conductor*%
G36*
X167843834Y-97193271D02*
G01*
X167899767Y-97235143D01*
X167924184Y-97300607D01*
X167924500Y-97309453D01*
X167924500Y-113599547D01*
X167904815Y-113666586D01*
X167888181Y-113687228D01*
X166142228Y-115433181D01*
X166080905Y-115466666D01*
X166054547Y-115469500D01*
X165264453Y-115469500D01*
X165197414Y-115449815D01*
X165151659Y-115397011D01*
X165141715Y-115327853D01*
X165163365Y-115280445D01*
X165160455Y-115278626D01*
X165160460Y-115278618D01*
X165169239Y-115267581D01*
X165170740Y-115264297D01*
X165176772Y-115257819D01*
X165177919Y-115256671D01*
X165177925Y-115256664D01*
X166038729Y-114395860D01*
X166038733Y-114395858D01*
X166125858Y-114308733D01*
X166194311Y-114206286D01*
X166194312Y-114206285D01*
X166194313Y-114206282D01*
X166194315Y-114206279D01*
X166210580Y-114167011D01*
X166233529Y-114111606D01*
X166241463Y-114092452D01*
X166265500Y-113971606D01*
X166265500Y-111185226D01*
X166285185Y-111118187D01*
X166318374Y-111083654D01*
X166511401Y-110948495D01*
X166678495Y-110781401D01*
X166814035Y-110587830D01*
X166913903Y-110373663D01*
X166975063Y-110145408D01*
X166995659Y-109910000D01*
X166993694Y-109887546D01*
X166983833Y-109774828D01*
X166975063Y-109674592D01*
X166913903Y-109446337D01*
X166814035Y-109232171D01*
X166789955Y-109197780D01*
X166678494Y-109038597D01*
X166511402Y-108871506D01*
X166511401Y-108871505D01*
X166402716Y-108795403D01*
X166325839Y-108741573D01*
X166282216Y-108686997D01*
X166275023Y-108617498D01*
X166306545Y-108555144D01*
X166325831Y-108538432D01*
X166511401Y-108408495D01*
X166678495Y-108241401D01*
X166814035Y-108047830D01*
X166913903Y-107833663D01*
X166975063Y-107605408D01*
X166995659Y-107370000D01*
X166975063Y-107134592D01*
X166913903Y-106906337D01*
X166814035Y-106692171D01*
X166809143Y-106685185D01*
X166678496Y-106498600D01*
X166641588Y-106461692D01*
X166556567Y-106376671D01*
X166523084Y-106315351D01*
X166528068Y-106245659D01*
X166569939Y-106189725D01*
X166600915Y-106172810D01*
X166732331Y-106123796D01*
X166847546Y-106037546D01*
X166933796Y-105922331D01*
X166984091Y-105787483D01*
X166990500Y-105727873D01*
X166990499Y-103932128D01*
X166984091Y-103872517D01*
X166944938Y-103767543D01*
X166933797Y-103737671D01*
X166933793Y-103737664D01*
X166847547Y-103622455D01*
X166847544Y-103622452D01*
X166732335Y-103536206D01*
X166732328Y-103536202D01*
X166597482Y-103485908D01*
X166597483Y-103485908D01*
X166537883Y-103479501D01*
X166537881Y-103479500D01*
X166537873Y-103479500D01*
X166537864Y-103479500D01*
X164742129Y-103479500D01*
X164742123Y-103479501D01*
X164682516Y-103485908D01*
X164547671Y-103536202D01*
X164547664Y-103536206D01*
X164432455Y-103622452D01*
X164432452Y-103622455D01*
X164346206Y-103737664D01*
X164346202Y-103737671D01*
X164295908Y-103872517D01*
X164289501Y-103932116D01*
X164289501Y-103932123D01*
X164289500Y-103932135D01*
X164289500Y-105727870D01*
X164289501Y-105727876D01*
X164295908Y-105787483D01*
X164346202Y-105922328D01*
X164346206Y-105922335D01*
X164432452Y-106037544D01*
X164432455Y-106037547D01*
X164547664Y-106123793D01*
X164547671Y-106123797D01*
X164679081Y-106172810D01*
X164735015Y-106214681D01*
X164759432Y-106280145D01*
X164744580Y-106348418D01*
X164723430Y-106376673D01*
X164601503Y-106498600D01*
X164465965Y-106692169D01*
X164465964Y-106692171D01*
X164366098Y-106906335D01*
X164366094Y-106906344D01*
X164304938Y-107134586D01*
X164304936Y-107134596D01*
X164284341Y-107369999D01*
X164284341Y-107370000D01*
X164304936Y-107605403D01*
X164304938Y-107605413D01*
X164366094Y-107833655D01*
X164366097Y-107833663D01*
X164465965Y-108047830D01*
X164465967Y-108047834D01*
X164601501Y-108241395D01*
X164601506Y-108241402D01*
X164768597Y-108408493D01*
X164768603Y-108408498D01*
X164954158Y-108538425D01*
X164997783Y-108593002D01*
X165004977Y-108662500D01*
X164973454Y-108724855D01*
X164954158Y-108741575D01*
X164768597Y-108871505D01*
X164601505Y-109038597D01*
X164465965Y-109232169D01*
X164465964Y-109232171D01*
X164366098Y-109446335D01*
X164366094Y-109446344D01*
X164304938Y-109674586D01*
X164304936Y-109674596D01*
X164284341Y-109909999D01*
X164284341Y-109910000D01*
X164304936Y-110145403D01*
X164304938Y-110145413D01*
X164366094Y-110373655D01*
X164366096Y-110373659D01*
X164366097Y-110373663D01*
X164445697Y-110544365D01*
X164465965Y-110587830D01*
X164465967Y-110587834D01*
X164565454Y-110729915D01*
X164601505Y-110781401D01*
X164768599Y-110948495D01*
X164961624Y-111083653D01*
X165005248Y-111138228D01*
X165014500Y-111185226D01*
X165014500Y-113599548D01*
X164994815Y-113666587D01*
X164978181Y-113687229D01*
X164462229Y-114203181D01*
X164400906Y-114236666D01*
X164374548Y-114239500D01*
X155789106Y-114239500D01*
X155722067Y-114219815D01*
X155676312Y-114167011D01*
X155666368Y-114097853D01*
X155669331Y-114083407D01*
X155699286Y-113971611D01*
X155725063Y-113875408D01*
X155745659Y-113640000D01*
X155725063Y-113404592D01*
X155678626Y-113231285D01*
X155663905Y-113176344D01*
X155663904Y-113176343D01*
X155663903Y-113176337D01*
X155564035Y-112962171D01*
X155558114Y-112953714D01*
X155428494Y-112768597D01*
X155261402Y-112601506D01*
X155261396Y-112601501D01*
X155075842Y-112471575D01*
X155032217Y-112416998D01*
X155025023Y-112347500D01*
X155056546Y-112285145D01*
X155075842Y-112268425D01*
X155098026Y-112252891D01*
X155261401Y-112138495D01*
X155428495Y-111971401D01*
X155564035Y-111777830D01*
X155663903Y-111563663D01*
X155725063Y-111335408D01*
X155745659Y-111100000D01*
X155742521Y-111064139D01*
X155732404Y-110948495D01*
X155725063Y-110864592D01*
X155667172Y-110648537D01*
X155663905Y-110636344D01*
X155663904Y-110636343D01*
X155663903Y-110636337D01*
X155564035Y-110422171D01*
X155563652Y-110421623D01*
X155428494Y-110228597D01*
X155261402Y-110061506D01*
X155261396Y-110061501D01*
X155075842Y-109931575D01*
X155032217Y-109876998D01*
X155025023Y-109807500D01*
X155056546Y-109745145D01*
X155075842Y-109728425D01*
X155098026Y-109712891D01*
X155261401Y-109598495D01*
X155428495Y-109431401D01*
X155564035Y-109237830D01*
X155663903Y-109023663D01*
X155725063Y-108795408D01*
X155745659Y-108560000D01*
X155725063Y-108324592D01*
X155663903Y-108096337D01*
X155564035Y-107882171D01*
X155554240Y-107868181D01*
X155428494Y-107688597D01*
X155261402Y-107521506D01*
X155261396Y-107521501D01*
X155075842Y-107391575D01*
X155032217Y-107336998D01*
X155025023Y-107267500D01*
X155056546Y-107205145D01*
X155075842Y-107188425D01*
X155124563Y-107154310D01*
X155261401Y-107058495D01*
X155428495Y-106891401D01*
X155564035Y-106697830D01*
X155663903Y-106483663D01*
X155725063Y-106255408D01*
X155745659Y-106020000D01*
X155725063Y-105784592D01*
X155687817Y-105645586D01*
X155669331Y-105576593D01*
X155670994Y-105506743D01*
X155710157Y-105448881D01*
X155774386Y-105421377D01*
X155789106Y-105420500D01*
X161343331Y-105420500D01*
X161343347Y-105420501D01*
X161350943Y-105420501D01*
X161509054Y-105420501D01*
X161509057Y-105420501D01*
X161661785Y-105379577D01*
X161720480Y-105345689D01*
X161798716Y-105300520D01*
X161910520Y-105188716D01*
X161910520Y-105188714D01*
X161920724Y-105178511D01*
X161920727Y-105178506D01*
X166170520Y-100928716D01*
X166249577Y-100791784D01*
X166290501Y-100639057D01*
X166290501Y-100480942D01*
X166290501Y-100473347D01*
X166290500Y-100473329D01*
X166290500Y-99729090D01*
X166310185Y-99662051D01*
X166362101Y-99616706D01*
X166367830Y-99614035D01*
X166561401Y-99478495D01*
X166728495Y-99311401D01*
X166864035Y-99117830D01*
X166963903Y-98903663D01*
X167025063Y-98675408D01*
X167045659Y-98440000D01*
X167025063Y-98204592D01*
X166963903Y-97976337D01*
X166963900Y-97976331D01*
X166962053Y-97971256D01*
X166963669Y-97970667D01*
X166954339Y-97909258D01*
X166982856Y-97845473D01*
X167029758Y-97811365D01*
X167051842Y-97802218D01*
X167131286Y-97769312D01*
X167196421Y-97725789D01*
X167233733Y-97700858D01*
X167320858Y-97613733D01*
X167320859Y-97613730D01*
X167712819Y-97221770D01*
X167774142Y-97188287D01*
X167843834Y-97193271D01*
G37*
%TD.AperFunction*%
%TA.AperFunction,Conductor*%
G36*
X119529456Y-87195185D02*
G01*
X119575211Y-87247989D01*
X119585155Y-87317147D01*
X119556130Y-87380703D01*
X119533539Y-87401076D01*
X119520857Y-87409955D01*
X119359954Y-87570858D01*
X119229432Y-87757265D01*
X119229431Y-87757267D01*
X119133261Y-87963502D01*
X119133258Y-87963511D01*
X119074366Y-88183302D01*
X119074364Y-88183313D01*
X119054532Y-88409998D01*
X119054532Y-88410001D01*
X119074364Y-88636686D01*
X119074366Y-88636697D01*
X119133258Y-88856488D01*
X119133261Y-88856497D01*
X119229431Y-89062732D01*
X119229432Y-89062734D01*
X119359954Y-89249141D01*
X119520858Y-89410045D01*
X119542423Y-89425145D01*
X119707266Y-89540568D01*
X119913504Y-89636739D01*
X120133308Y-89695635D01*
X120280333Y-89708498D01*
X120359998Y-89715468D01*
X120360000Y-89715468D01*
X120360002Y-89715468D01*
X120439667Y-89708498D01*
X120586692Y-89695635D01*
X120806496Y-89636739D01*
X121012734Y-89540568D01*
X121199139Y-89410047D01*
X121360047Y-89249139D01*
X121490568Y-89062734D01*
X121517618Y-89004724D01*
X121563790Y-88952285D01*
X121630983Y-88933133D01*
X121697865Y-88953348D01*
X121742382Y-89004725D01*
X121769429Y-89062728D01*
X121769432Y-89062734D01*
X121899954Y-89249141D01*
X122060858Y-89410045D01*
X122082423Y-89425145D01*
X122247266Y-89540568D01*
X122453504Y-89636739D01*
X122673308Y-89695635D01*
X122820333Y-89708498D01*
X122899998Y-89715468D01*
X122900000Y-89715468D01*
X122900002Y-89715468D01*
X122979667Y-89708498D01*
X123126692Y-89695635D01*
X123346496Y-89636739D01*
X123552734Y-89540568D01*
X123739139Y-89410047D01*
X123900047Y-89249139D01*
X124012613Y-89088377D01*
X124067189Y-89044752D01*
X124114188Y-89035500D01*
X124225812Y-89035500D01*
X124292851Y-89055185D01*
X124327387Y-89088377D01*
X124439954Y-89249141D01*
X124600858Y-89410045D01*
X124622423Y-89425145D01*
X124787266Y-89540568D01*
X124993504Y-89636739D01*
X125213308Y-89695635D01*
X125360333Y-89708498D01*
X125439998Y-89715468D01*
X125440000Y-89715468D01*
X125440002Y-89715468D01*
X125519667Y-89708498D01*
X125666692Y-89695635D01*
X125886496Y-89636739D01*
X126092734Y-89540568D01*
X126279139Y-89410047D01*
X126440047Y-89249139D01*
X126570568Y-89062734D01*
X126666739Y-88856496D01*
X126725635Y-88636692D01*
X126745468Y-88410000D01*
X126725635Y-88183308D01*
X126677747Y-88004586D01*
X126666741Y-87963511D01*
X126666738Y-87963502D01*
X126589842Y-87798599D01*
X126570568Y-87757266D01*
X126440047Y-87570861D01*
X126440045Y-87570858D01*
X126279142Y-87409955D01*
X126266461Y-87401076D01*
X126222835Y-87346500D01*
X126215641Y-87277001D01*
X126247163Y-87214646D01*
X126307392Y-87179231D01*
X126337583Y-87175500D01*
X132837471Y-87175500D01*
X132904510Y-87195185D01*
X132950265Y-87247989D01*
X132960209Y-87317147D01*
X132942464Y-87365473D01*
X132921913Y-87398177D01*
X132862333Y-87568447D01*
X132862332Y-87568452D01*
X132842137Y-87747698D01*
X132842137Y-87747705D01*
X132862332Y-87926951D01*
X132862333Y-87926956D01*
X132921913Y-88097225D01*
X133017886Y-88249964D01*
X133028985Y-88261063D01*
X133062470Y-88322386D01*
X133057486Y-88392078D01*
X133028985Y-88436425D01*
X128377229Y-93088181D01*
X128315906Y-93121666D01*
X128289548Y-93124500D01*
X113565227Y-93124500D01*
X113498188Y-93104815D01*
X113463652Y-93071623D01*
X113328494Y-92878597D01*
X113161402Y-92711506D01*
X113161396Y-92711501D01*
X112975842Y-92581575D01*
X112932217Y-92526998D01*
X112925023Y-92457500D01*
X112956546Y-92395145D01*
X112975842Y-92378425D01*
X113114256Y-92281506D01*
X113161401Y-92248495D01*
X113328495Y-92081401D01*
X113464035Y-91887830D01*
X113563903Y-91673663D01*
X113625063Y-91445408D01*
X113645659Y-91210000D01*
X113625063Y-90974592D01*
X113598143Y-90874125D01*
X113599806Y-90804276D01*
X113630235Y-90754353D01*
X117172771Y-87211819D01*
X117234094Y-87178334D01*
X117260452Y-87175500D01*
X119462417Y-87175500D01*
X119529456Y-87195185D01*
G37*
%TD.AperFunction*%
%TA.AperFunction,Conductor*%
G36*
X171182539Y-55550185D02*
G01*
X171228294Y-55602989D01*
X171239500Y-55654500D01*
X171239500Y-139405500D01*
X171219815Y-139472539D01*
X171167011Y-139518294D01*
X171115500Y-139529500D01*
X107364500Y-139529500D01*
X107297461Y-139509815D01*
X107251706Y-139457011D01*
X107240500Y-139405500D01*
X107240500Y-113188389D01*
X109124500Y-113188389D01*
X109124500Y-113188394D01*
X109124500Y-113511606D01*
X109148537Y-113632452D01*
X109148538Y-113632455D01*
X109161662Y-113664137D01*
X109161663Y-113664141D01*
X109195686Y-113746283D01*
X109195690Y-113746289D01*
X109203599Y-113758125D01*
X109224480Y-113824801D01*
X109224500Y-113827020D01*
X109224500Y-126561611D01*
X109248535Y-126682444D01*
X109248540Y-126682461D01*
X109295685Y-126796280D01*
X109295690Y-126796289D01*
X109329914Y-126847507D01*
X109329915Y-126847509D01*
X109364141Y-126898733D01*
X109455586Y-126990178D01*
X109455608Y-126990198D01*
X110111016Y-127645606D01*
X110111045Y-127645637D01*
X110201263Y-127735855D01*
X110201267Y-127735858D01*
X110303707Y-127804307D01*
X110303713Y-127804310D01*
X110303714Y-127804311D01*
X110417548Y-127851463D01*
X110477971Y-127863481D01*
X110538393Y-127875500D01*
X110538394Y-127875500D01*
X111983800Y-127875500D01*
X112050839Y-127895185D01*
X112096594Y-127947989D01*
X112106538Y-128017147D01*
X112084118Y-128072383D01*
X112043716Y-128127992D01*
X111999783Y-128188461D01*
X111964966Y-128256795D01*
X111916992Y-128307591D01*
X111854481Y-128324500D01*
X111488388Y-128324500D01*
X111458049Y-128330535D01*
X111367555Y-128348535D01*
X111367545Y-128348538D01*
X111335997Y-128361606D01*
X111253718Y-128395686D01*
X111253711Y-128395690D01*
X111236620Y-128407110D01*
X111228190Y-128412743D01*
X111228189Y-128412744D01*
X111228188Y-128412743D01*
X111151266Y-128464142D01*
X111151265Y-128464143D01*
X111127020Y-128488389D01*
X111064142Y-128551267D01*
X110114143Y-129501265D01*
X110109946Y-129507547D01*
X110104393Y-129515858D01*
X110104391Y-129515861D01*
X110104390Y-129515860D01*
X110045689Y-129603712D01*
X110045685Y-129603719D01*
X110015954Y-129675499D01*
X110015954Y-129675500D01*
X109998538Y-129717545D01*
X109998535Y-129717555D01*
X109974500Y-129838389D01*
X109974500Y-129838394D01*
X109974500Y-136561606D01*
X109991762Y-136648393D01*
X109998537Y-136682451D01*
X110045688Y-136796286D01*
X110045690Y-136796288D01*
X110045690Y-136796289D01*
X110079914Y-136847507D01*
X110079915Y-136847509D01*
X110114141Y-136898733D01*
X110205586Y-136990178D01*
X110205608Y-136990198D01*
X110611016Y-137395606D01*
X110611045Y-137395637D01*
X110701264Y-137485856D01*
X110701267Y-137485858D01*
X110778190Y-137537256D01*
X110803710Y-137554309D01*
X110803712Y-137554310D01*
X110803715Y-137554312D01*
X110870396Y-137581931D01*
X110870398Y-137581933D01*
X110910640Y-137598601D01*
X110917548Y-137601463D01*
X110977971Y-137613481D01*
X111038393Y-137625500D01*
X125061607Y-137625500D01*
X125122029Y-137613481D01*
X125182452Y-137601463D01*
X125182455Y-137601461D01*
X125182458Y-137601461D01*
X125215787Y-137587654D01*
X125215786Y-137587654D01*
X125215792Y-137587652D01*
X125296286Y-137554312D01*
X125347509Y-137520084D01*
X125398733Y-137485858D01*
X125485858Y-137398733D01*
X125485859Y-137398731D01*
X125492925Y-137391665D01*
X125492928Y-137391661D01*
X125688729Y-137195860D01*
X125688733Y-137195858D01*
X125775858Y-137108733D01*
X125844311Y-137006286D01*
X125844312Y-137006285D01*
X125844313Y-137006282D01*
X125844315Y-137006279D01*
X125854672Y-136981272D01*
X125891463Y-136892451D01*
X125915500Y-136771607D01*
X125915500Y-136648393D01*
X125915500Y-135244996D01*
X159444435Y-135244996D01*
X159444435Y-135245003D01*
X159464630Y-135424249D01*
X159464631Y-135424254D01*
X159524211Y-135594523D01*
X159620184Y-135747262D01*
X159747738Y-135874816D01*
X159900478Y-135970789D01*
X160070745Y-136030368D01*
X160070750Y-136030369D01*
X160249996Y-136050565D01*
X160250000Y-136050565D01*
X160250004Y-136050565D01*
X160429249Y-136030369D01*
X160429252Y-136030368D01*
X160429255Y-136030368D01*
X160599522Y-135970789D01*
X160752262Y-135874816D01*
X160879816Y-135747262D01*
X160975789Y-135594522D01*
X161035368Y-135424255D01*
X161040672Y-135377173D01*
X161067737Y-135312763D01*
X161076201Y-135303387D01*
X163585858Y-132793733D01*
X163654312Y-132691285D01*
X163691916Y-132600500D01*
X163701463Y-132577452D01*
X163706632Y-132551463D01*
X163725501Y-132456606D01*
X163725501Y-132333393D01*
X163725501Y-132328283D01*
X163725500Y-132328257D01*
X163725500Y-129360452D01*
X163745185Y-129293413D01*
X163761819Y-129272771D01*
X163977820Y-129056770D01*
X164039143Y-129023285D01*
X164108835Y-129028269D01*
X164164768Y-129070141D01*
X164189185Y-129135605D01*
X164189501Y-129144451D01*
X164189501Y-129197876D01*
X164195908Y-129257483D01*
X164246202Y-129392328D01*
X164246206Y-129392335D01*
X164332452Y-129507544D01*
X164332455Y-129507547D01*
X164447664Y-129593793D01*
X164447671Y-129593797D01*
X164579081Y-129642810D01*
X164635015Y-129684681D01*
X164659432Y-129750145D01*
X164644580Y-129818418D01*
X164623430Y-129846673D01*
X164501503Y-129968600D01*
X164365965Y-130162169D01*
X164365964Y-130162171D01*
X164266098Y-130376335D01*
X164266094Y-130376344D01*
X164204938Y-130604586D01*
X164204936Y-130604596D01*
X164184341Y-130839999D01*
X164184341Y-130840000D01*
X164204936Y-131075403D01*
X164204938Y-131075413D01*
X164266094Y-131303655D01*
X164266096Y-131303659D01*
X164266097Y-131303663D01*
X164365965Y-131517830D01*
X164365967Y-131517834D01*
X164501501Y-131711395D01*
X164501506Y-131711402D01*
X164668597Y-131878493D01*
X164668603Y-131878498D01*
X164854158Y-132008425D01*
X164897783Y-132063002D01*
X164904977Y-132132500D01*
X164873454Y-132194855D01*
X164854158Y-132211575D01*
X164668597Y-132341505D01*
X164501505Y-132508597D01*
X164365965Y-132702169D01*
X164365964Y-132702171D01*
X164266098Y-132916335D01*
X164266094Y-132916344D01*
X164204938Y-133144586D01*
X164204936Y-133144596D01*
X164184341Y-133379999D01*
X164184341Y-133380000D01*
X164204936Y-133615403D01*
X164204938Y-133615413D01*
X164266094Y-133843655D01*
X164266096Y-133843659D01*
X164266097Y-133843663D01*
X164329671Y-133979998D01*
X164365965Y-134057830D01*
X164365967Y-134057834D01*
X164470195Y-134206686D01*
X164501505Y-134251401D01*
X164668599Y-134418495D01*
X164716838Y-134452272D01*
X164862165Y-134554032D01*
X164862167Y-134554033D01*
X164862170Y-134554035D01*
X165076337Y-134653903D01*
X165304592Y-134715063D01*
X165492918Y-134731539D01*
X165539999Y-134735659D01*
X165540000Y-134735659D01*
X165540001Y-134735659D01*
X165579234Y-134732226D01*
X165775408Y-134715063D01*
X166003663Y-134653903D01*
X166217830Y-134554035D01*
X166411401Y-134418495D01*
X166578495Y-134251401D01*
X166714035Y-134057830D01*
X166813903Y-133843663D01*
X166875063Y-133615408D01*
X166895659Y-133380000D01*
X166875063Y-133144592D01*
X166813903Y-132916337D01*
X166714035Y-132702171D01*
X166708570Y-132694365D01*
X166578494Y-132508597D01*
X166411402Y-132341506D01*
X166411396Y-132341501D01*
X166225842Y-132211575D01*
X166182217Y-132156998D01*
X166175023Y-132087500D01*
X166206546Y-132025145D01*
X166225842Y-132008425D01*
X166309287Y-131949996D01*
X166411401Y-131878495D01*
X166578495Y-131711401D01*
X166714035Y-131517830D01*
X166813903Y-131303663D01*
X166875063Y-131075408D01*
X166895659Y-130840000D01*
X166875063Y-130604592D01*
X166813903Y-130376337D01*
X166714035Y-130162171D01*
X166709409Y-130155565D01*
X166578496Y-129968600D01*
X166578495Y-129968599D01*
X166456567Y-129846671D01*
X166423084Y-129785351D01*
X166428068Y-129715659D01*
X166469939Y-129659725D01*
X166500915Y-129642810D01*
X166632331Y-129593796D01*
X166747546Y-129507546D01*
X166833796Y-129392331D01*
X166884091Y-129257483D01*
X166890500Y-129197873D01*
X166890499Y-127402128D01*
X166884091Y-127342517D01*
X166835188Y-127211402D01*
X166833797Y-127207671D01*
X166833793Y-127207664D01*
X166747547Y-127092455D01*
X166747544Y-127092452D01*
X166632335Y-127006206D01*
X166632328Y-127006202D01*
X166497482Y-126955908D01*
X166497483Y-126955908D01*
X166437883Y-126949501D01*
X166437881Y-126949500D01*
X166437873Y-126949500D01*
X166437864Y-126949500D01*
X164642129Y-126949500D01*
X164642123Y-126949501D01*
X164582516Y-126955908D01*
X164447671Y-127006202D01*
X164447664Y-127006206D01*
X164332455Y-127092452D01*
X164332452Y-127092455D01*
X164246206Y-127207664D01*
X164246202Y-127207671D01*
X164195908Y-127342517D01*
X164192040Y-127378498D01*
X164189501Y-127402123D01*
X164189500Y-127402135D01*
X164189500Y-127550500D01*
X164169815Y-127617539D01*
X164117011Y-127663294D01*
X164065500Y-127674500D01*
X163788389Y-127674500D01*
X163727971Y-127686518D01*
X163684743Y-127695116D01*
X163667546Y-127698537D01*
X163553716Y-127745687D01*
X163553707Y-127745692D01*
X163451268Y-127814140D01*
X163413948Y-127851461D01*
X163364142Y-127901267D01*
X163364139Y-127901270D01*
X162701270Y-128564139D01*
X162701267Y-128564142D01*
X162657704Y-128607704D01*
X162614142Y-128651266D01*
X162598230Y-128675079D01*
X162582426Y-128698733D01*
X162547215Y-128751429D01*
X162545686Y-128753717D01*
X162545685Y-128753719D01*
X162532374Y-128785857D01*
X162498538Y-128867544D01*
X162498535Y-128867556D01*
X162474500Y-128988389D01*
X162474500Y-132084547D01*
X162454815Y-132151586D01*
X162438181Y-132172228D01*
X160191621Y-134418787D01*
X160130298Y-134452272D01*
X160117825Y-134454326D01*
X160070750Y-134459630D01*
X159900478Y-134519210D01*
X159747737Y-134615184D01*
X159620184Y-134742737D01*
X159524211Y-134895476D01*
X159464631Y-135065745D01*
X159464630Y-135065750D01*
X159444435Y-135244996D01*
X125915500Y-135244996D01*
X125915500Y-135194188D01*
X125935185Y-135127149D01*
X125968377Y-135092613D01*
X126057265Y-135030373D01*
X126129139Y-134980047D01*
X126290047Y-134819139D01*
X126420568Y-134632734D01*
X126516739Y-134426496D01*
X126575635Y-134206692D01*
X126595468Y-133980000D01*
X126575635Y-133753308D01*
X126516739Y-133533504D01*
X126420568Y-133327266D01*
X126292662Y-133144596D01*
X126290045Y-133140858D01*
X126129141Y-132979954D01*
X125942734Y-132849432D01*
X125942732Y-132849431D01*
X125736497Y-132753261D01*
X125736488Y-132753258D01*
X125516697Y-132694366D01*
X125516693Y-132694365D01*
X125516692Y-132694365D01*
X125516691Y-132694364D01*
X125516686Y-132694364D01*
X125290002Y-132674532D01*
X125289998Y-132674532D01*
X125063313Y-132694364D01*
X125063302Y-132694366D01*
X124843511Y-132753258D01*
X124843502Y-132753261D01*
X124637267Y-132849431D01*
X124637265Y-132849432D01*
X124450858Y-132979954D01*
X124289954Y-133140858D01*
X124159432Y-133327265D01*
X124159431Y-133327267D01*
X124063261Y-133533502D01*
X124063258Y-133533511D01*
X124004366Y-133753302D01*
X124004364Y-133753313D01*
X123984532Y-133979998D01*
X123984532Y-133980001D01*
X124004364Y-134206686D01*
X124004366Y-134206697D01*
X124063258Y-134426488D01*
X124063261Y-134426497D01*
X124159431Y-134632732D01*
X124159432Y-134632734D01*
X124289954Y-134819141D01*
X124450858Y-134980045D01*
X124611623Y-135092613D01*
X124655248Y-135147189D01*
X124664500Y-135194188D01*
X124664500Y-136250500D01*
X124644815Y-136317539D01*
X124592011Y-136363294D01*
X124540500Y-136374500D01*
X111410452Y-136374500D01*
X111343413Y-136354815D01*
X111322771Y-136338181D01*
X111261819Y-136277229D01*
X111228334Y-136215906D01*
X111225500Y-136189548D01*
X111225500Y-133029635D01*
X111789500Y-133029635D01*
X111789500Y-135030370D01*
X111789501Y-135030376D01*
X111795908Y-135089983D01*
X111846202Y-135224828D01*
X111846206Y-135224835D01*
X111932452Y-135340044D01*
X111932455Y-135340047D01*
X112047664Y-135426293D01*
X112047671Y-135426297D01*
X112182517Y-135476591D01*
X112182516Y-135476591D01*
X112189444Y-135477335D01*
X112242127Y-135483000D01*
X114337872Y-135482999D01*
X114397483Y-135476591D01*
X114532331Y-135426296D01*
X114647546Y-135340046D01*
X114733796Y-135224831D01*
X114784091Y-135089983D01*
X114790500Y-135030373D01*
X114790500Y-134779500D01*
X114810185Y-134712461D01*
X114862989Y-134666706D01*
X114914500Y-134655500D01*
X118210822Y-134655500D01*
X118277861Y-134675185D01*
X118312397Y-134708377D01*
X118389954Y-134819141D01*
X118550858Y-134980045D01*
X118550861Y-134980047D01*
X118737266Y-135110568D01*
X118943504Y-135206739D01*
X119163308Y-135265635D01*
X119325230Y-135279801D01*
X119389998Y-135285468D01*
X119390000Y-135285468D01*
X119390002Y-135285468D01*
X119446673Y-135280509D01*
X119616692Y-135265635D01*
X119836496Y-135206739D01*
X120042734Y-135110568D01*
X120229139Y-134980047D01*
X120390047Y-134819139D01*
X120520568Y-134632734D01*
X120616739Y-134426496D01*
X120675635Y-134206692D01*
X120695468Y-133980000D01*
X120675635Y-133753308D01*
X120616739Y-133533504D01*
X120520568Y-133327266D01*
X120392662Y-133144596D01*
X120390045Y-133140858D01*
X120229141Y-132979954D01*
X120042734Y-132849432D01*
X120042732Y-132849431D01*
X119836497Y-132753261D01*
X119836488Y-132753258D01*
X119616697Y-132694366D01*
X119616693Y-132694365D01*
X119616692Y-132694365D01*
X119616691Y-132694364D01*
X119616686Y-132694364D01*
X119390002Y-132674532D01*
X119389998Y-132674532D01*
X119163313Y-132694364D01*
X119163302Y-132694366D01*
X118943511Y-132753258D01*
X118943502Y-132753261D01*
X118737267Y-132849431D01*
X118737265Y-132849432D01*
X118550858Y-132979954D01*
X118389954Y-133140858D01*
X118259432Y-133327265D01*
X118258272Y-133329752D01*
X118256802Y-133332904D01*
X118210633Y-133385343D01*
X118144421Y-133404500D01*
X114914499Y-133404500D01*
X114847460Y-133384815D01*
X114801705Y-133332011D01*
X114790499Y-133280500D01*
X114790499Y-133029629D01*
X114790498Y-133029623D01*
X114790497Y-133029616D01*
X114784091Y-132970017D01*
X114764072Y-132916344D01*
X114733797Y-132835171D01*
X114733793Y-132835164D01*
X114647547Y-132719955D01*
X114647544Y-132719952D01*
X114532335Y-132633706D01*
X114532328Y-132633702D01*
X114397482Y-132583408D01*
X114397483Y-132583408D01*
X114337883Y-132577001D01*
X114337881Y-132577000D01*
X114337873Y-132577000D01*
X114337864Y-132577000D01*
X112242129Y-132577000D01*
X112242123Y-132577001D01*
X112182516Y-132583408D01*
X112047671Y-132633702D01*
X112047664Y-132633706D01*
X111932455Y-132719952D01*
X111932452Y-132719955D01*
X111846206Y-132835164D01*
X111846202Y-132835171D01*
X111795908Y-132970017D01*
X111789501Y-133029616D01*
X111789501Y-133029623D01*
X111789500Y-133029635D01*
X111225500Y-133029635D01*
X111225500Y-130210452D01*
X111245185Y-130143413D01*
X111261819Y-130122771D01*
X111488024Y-129896566D01*
X111768817Y-129615772D01*
X111830138Y-129582289D01*
X111899829Y-129587273D01*
X111955763Y-129629144D01*
X111966979Y-129647157D01*
X111999783Y-129711538D01*
X112134214Y-129896566D01*
X112295934Y-130058286D01*
X112480962Y-130192717D01*
X112684742Y-130296548D01*
X112684744Y-130296549D01*
X112902251Y-130367221D01*
X112902252Y-130367221D01*
X112902255Y-130367222D01*
X113128146Y-130403000D01*
X113128147Y-130403000D01*
X113451853Y-130403000D01*
X113451854Y-130403000D01*
X113677745Y-130367222D01*
X113677748Y-130367221D01*
X113677749Y-130367221D01*
X113895255Y-130296549D01*
X113895255Y-130296548D01*
X113895258Y-130296548D01*
X114099038Y-130192717D01*
X114284066Y-130058286D01*
X114445786Y-129896566D01*
X114580217Y-129711538D01*
X114684048Y-129507758D01*
X114721551Y-129392335D01*
X114754721Y-129290249D01*
X114754721Y-129290248D01*
X114754722Y-129290245D01*
X114790500Y-129064354D01*
X114790500Y-128835646D01*
X114754722Y-128609755D01*
X114754721Y-128609751D01*
X114754721Y-128609750D01*
X114684049Y-128392244D01*
X114640916Y-128307591D01*
X114580217Y-128188462D01*
X114495881Y-128072384D01*
X114472402Y-128006580D01*
X114488227Y-127938526D01*
X114538333Y-127889831D01*
X114596200Y-127875500D01*
X114839548Y-127875500D01*
X114906587Y-127895185D01*
X114927229Y-127911819D01*
X115766839Y-128751429D01*
X115800324Y-128812752D01*
X115795340Y-128882444D01*
X115784152Y-128905082D01*
X115724211Y-129000476D01*
X115664631Y-129170745D01*
X115664630Y-129170750D01*
X115644435Y-129349996D01*
X115644435Y-129350003D01*
X115664630Y-129529249D01*
X115664631Y-129529254D01*
X115724211Y-129699523D01*
X115778141Y-129785351D01*
X115820184Y-129852262D01*
X115947738Y-129979816D01*
X116100478Y-130075789D01*
X116234745Y-130122771D01*
X116270745Y-130135368D01*
X116270750Y-130135369D01*
X116449996Y-130155565D01*
X116450000Y-130155565D01*
X116450004Y-130155565D01*
X116629249Y-130135369D01*
X116629252Y-130135368D01*
X116629255Y-130135368D01*
X116799522Y-130075789D01*
X116952262Y-129979816D01*
X117079816Y-129852262D01*
X117175789Y-129699522D01*
X117235368Y-129529255D01*
X117236877Y-129515861D01*
X117255565Y-129350003D01*
X117255565Y-129349996D01*
X117235369Y-129170750D01*
X117235368Y-129170745D01*
X117195486Y-129056770D01*
X117175789Y-129000478D01*
X117094505Y-128871116D01*
X117075500Y-128805145D01*
X117075500Y-128617741D01*
X117075501Y-128617720D01*
X117075501Y-128488391D01*
X117075500Y-128488389D01*
X117051465Y-128367558D01*
X117051463Y-128367551D01*
X117051463Y-128367549D01*
X117049001Y-128361606D01*
X117015342Y-128280345D01*
X117004312Y-128253715D01*
X116935858Y-128151267D01*
X116935855Y-128151263D01*
X115642928Y-126858338D01*
X115642925Y-126858334D01*
X115642925Y-126858335D01*
X115635858Y-126851268D01*
X115635858Y-126851267D01*
X115548733Y-126764142D01*
X115548732Y-126764141D01*
X115548731Y-126764140D01*
X115497509Y-126729915D01*
X115446287Y-126695689D01*
X115446286Y-126695688D01*
X115446283Y-126695686D01*
X115446280Y-126695685D01*
X115365792Y-126662347D01*
X115332454Y-126648538D01*
X115332455Y-126648538D01*
X115332452Y-126648537D01*
X115332448Y-126648536D01*
X115332444Y-126648535D01*
X115248492Y-126631835D01*
X115248483Y-126631835D01*
X115211607Y-126624500D01*
X115211606Y-126624500D01*
X110910452Y-126624500D01*
X110843413Y-126604815D01*
X110822771Y-126588181D01*
X110511819Y-126277229D01*
X110478334Y-126215906D01*
X110475500Y-126189548D01*
X110475500Y-118275646D01*
X111789500Y-118275646D01*
X111789500Y-118504353D01*
X111825278Y-118730246D01*
X111825278Y-118730249D01*
X111895950Y-118947755D01*
X111986050Y-119124586D01*
X111999783Y-119151538D01*
X112132525Y-119334242D01*
X112156005Y-119400046D01*
X112140180Y-119468100D01*
X112090074Y-119516795D01*
X112075541Y-119523308D01*
X112047670Y-119533703D01*
X112047664Y-119533706D01*
X111932455Y-119619952D01*
X111932452Y-119619955D01*
X111846206Y-119735164D01*
X111846202Y-119735171D01*
X111795908Y-119870017D01*
X111789501Y-119929616D01*
X111789500Y-119929628D01*
X111789500Y-121930370D01*
X111789501Y-121930376D01*
X111795908Y-121989983D01*
X111846202Y-122124828D01*
X111846206Y-122124835D01*
X111932452Y-122240044D01*
X111932455Y-122240047D01*
X112047664Y-122326293D01*
X112047671Y-122326297D01*
X112182517Y-122376591D01*
X112182516Y-122376591D01*
X112189444Y-122377335D01*
X112242127Y-122383000D01*
X114337872Y-122382999D01*
X114397483Y-122376591D01*
X114532331Y-122326296D01*
X114647546Y-122240046D01*
X114733796Y-122124831D01*
X114784091Y-121989983D01*
X114790500Y-121930373D01*
X114790499Y-119929628D01*
X114784091Y-119870017D01*
X114775080Y-119845858D01*
X114733797Y-119735171D01*
X114733793Y-119735164D01*
X114647547Y-119619955D01*
X114647544Y-119619952D01*
X114532335Y-119533706D01*
X114532328Y-119533702D01*
X114504459Y-119523308D01*
X114448525Y-119481437D01*
X114424108Y-119415973D01*
X114438960Y-119347700D01*
X114447460Y-119334260D01*
X114580217Y-119151538D01*
X114684048Y-118947758D01*
X114717930Y-118843481D01*
X114754721Y-118730249D01*
X114754721Y-118730248D01*
X114754722Y-118730245D01*
X114790500Y-118504354D01*
X114790500Y-118275646D01*
X114754722Y-118049755D01*
X114754721Y-118049751D01*
X114754721Y-118049750D01*
X114684049Y-117832244D01*
X114684048Y-117832242D01*
X114580217Y-117628462D01*
X114445786Y-117443434D01*
X114284066Y-117281714D01*
X114099038Y-117147283D01*
X113895255Y-117043450D01*
X113677748Y-116972778D01*
X113508326Y-116945944D01*
X113451854Y-116937000D01*
X113128146Y-116937000D01*
X113052849Y-116948926D01*
X112902253Y-116972778D01*
X112902250Y-116972778D01*
X112684744Y-117043450D01*
X112480961Y-117147283D01*
X112382950Y-117218493D01*
X112295934Y-117281714D01*
X112295932Y-117281716D01*
X112295931Y-117281716D01*
X112134216Y-117443431D01*
X112134216Y-117443432D01*
X112134214Y-117443434D01*
X112090422Y-117503709D01*
X111999783Y-117628461D01*
X111895950Y-117832244D01*
X111825278Y-118049750D01*
X111825278Y-118049753D01*
X111789500Y-118275646D01*
X110475500Y-118275646D01*
X110475500Y-113488392D01*
X110475274Y-113487257D01*
X110475328Y-113486648D01*
X110474903Y-113482329D01*
X110475721Y-113482248D01*
X110481498Y-113417665D01*
X110509207Y-113375381D01*
X111972771Y-111911819D01*
X112034094Y-111878334D01*
X112060452Y-111875500D01*
X125311607Y-111875500D01*
X125372029Y-111863481D01*
X125432452Y-111851463D01*
X125484268Y-111830000D01*
X125484269Y-111829999D01*
X125484271Y-111829999D01*
X125546281Y-111804314D01*
X125546280Y-111804314D01*
X125546286Y-111804312D01*
X125597509Y-111770084D01*
X125648733Y-111735858D01*
X125735858Y-111648733D01*
X125735859Y-111648731D01*
X125742925Y-111641665D01*
X125742928Y-111641661D01*
X125798729Y-111585860D01*
X125798733Y-111585858D01*
X125885858Y-111498733D01*
X125930146Y-111432452D01*
X125954312Y-111396286D01*
X126001463Y-111282451D01*
X126003856Y-111270423D01*
X126025500Y-111161606D01*
X126025500Y-109288394D01*
X126024725Y-109284500D01*
X126015443Y-109237834D01*
X126007477Y-109197781D01*
X126007477Y-109197780D01*
X126001464Y-109167553D01*
X126001463Y-109167552D01*
X126001463Y-109167548D01*
X125986516Y-109131463D01*
X125978426Y-109111932D01*
X125954314Y-109053718D01*
X125954312Y-109053715D01*
X125954312Y-109053714D01*
X125920084Y-109002490D01*
X125885858Y-108951267D01*
X125885856Y-108951264D01*
X125795637Y-108861045D01*
X125795606Y-108861016D01*
X125276818Y-108342228D01*
X125243333Y-108280905D01*
X125240499Y-108254547D01*
X125240499Y-107482129D01*
X125240498Y-107482123D01*
X125240497Y-107482116D01*
X125234091Y-107422517D01*
X125222550Y-107391575D01*
X125183797Y-107287671D01*
X125183793Y-107287664D01*
X125097547Y-107172455D01*
X125097544Y-107172452D01*
X124982335Y-107086206D01*
X124982328Y-107086202D01*
X124847482Y-107035908D01*
X124847483Y-107035908D01*
X124787883Y-107029501D01*
X124787881Y-107029500D01*
X124787873Y-107029500D01*
X124787864Y-107029500D01*
X122692129Y-107029500D01*
X122692123Y-107029501D01*
X122632516Y-107035908D01*
X122497671Y-107086202D01*
X122497664Y-107086206D01*
X122382455Y-107172452D01*
X122382452Y-107172455D01*
X122296206Y-107287664D01*
X122296202Y-107287671D01*
X122245908Y-107422517D01*
X122240446Y-107473330D01*
X122239501Y-107482123D01*
X122239500Y-107482135D01*
X122239500Y-107780500D01*
X122219815Y-107847539D01*
X122167011Y-107893294D01*
X122115500Y-107904500D01*
X119090452Y-107904500D01*
X119023413Y-107884815D01*
X119002771Y-107868181D01*
X116780198Y-105645608D01*
X116780178Y-105645586D01*
X116688733Y-105554141D01*
X116637509Y-105519915D01*
X116586287Y-105485689D01*
X116586286Y-105485688D01*
X116586283Y-105485686D01*
X116586280Y-105485685D01*
X116505792Y-105452347D01*
X116472453Y-105438537D01*
X116462427Y-105436543D01*
X116412029Y-105426518D01*
X116351610Y-105414500D01*
X116351607Y-105414500D01*
X116351606Y-105414500D01*
X114725519Y-105414500D01*
X114658480Y-105394815D01*
X114615034Y-105346795D01*
X114614470Y-105345689D01*
X114580217Y-105278462D01*
X114445786Y-105093434D01*
X114284066Y-104931714D01*
X114099038Y-104797283D01*
X114071991Y-104783502D01*
X113895255Y-104693450D01*
X113677748Y-104622778D01*
X113508326Y-104595944D01*
X113451854Y-104587000D01*
X113128146Y-104587000D01*
X113052849Y-104598926D01*
X112902253Y-104622778D01*
X112902250Y-104622778D01*
X112684744Y-104693450D01*
X112480961Y-104797283D01*
X112375396Y-104873980D01*
X112295934Y-104931714D01*
X112295932Y-104931716D01*
X112295931Y-104931716D01*
X112134216Y-105093431D01*
X112134216Y-105093432D01*
X112134214Y-105093434D01*
X112076480Y-105172896D01*
X111999783Y-105278461D01*
X111895950Y-105482244D01*
X111825278Y-105699750D01*
X111825278Y-105699753D01*
X111789500Y-105925646D01*
X111789500Y-106154353D01*
X111825278Y-106380246D01*
X111825278Y-106380249D01*
X111895950Y-106597755D01*
X111999783Y-106801538D01*
X112132525Y-106984242D01*
X112156005Y-107050046D01*
X112140180Y-107118100D01*
X112090074Y-107166795D01*
X112075541Y-107173308D01*
X112047670Y-107183703D01*
X112047664Y-107183706D01*
X111932455Y-107269952D01*
X111932452Y-107269955D01*
X111846206Y-107385164D01*
X111846202Y-107385171D01*
X111795908Y-107520017D01*
X111789501Y-107579616D01*
X111789501Y-107579623D01*
X111789500Y-107579635D01*
X111789500Y-109580370D01*
X111789501Y-109580376D01*
X111795908Y-109639983D01*
X111846202Y-109774828D01*
X111846206Y-109774835D01*
X111932452Y-109890044D01*
X111932455Y-109890047D01*
X112047664Y-109976293D01*
X112047671Y-109976297D01*
X112182517Y-110026591D01*
X112182516Y-110026591D01*
X112189444Y-110027335D01*
X112242127Y-110033000D01*
X114337872Y-110032999D01*
X114397483Y-110026591D01*
X114532331Y-109976296D01*
X114647546Y-109890046D01*
X114733796Y-109774831D01*
X114784091Y-109639983D01*
X114790500Y-109580373D01*
X114790499Y-107579628D01*
X114784091Y-107520017D01*
X114769959Y-107482128D01*
X114733797Y-107385171D01*
X114733793Y-107385164D01*
X114647547Y-107269955D01*
X114647544Y-107269952D01*
X114532335Y-107183706D01*
X114532328Y-107183702D01*
X114504459Y-107173308D01*
X114448525Y-107131437D01*
X114424108Y-107065973D01*
X114438960Y-106997700D01*
X114447460Y-106984260D01*
X114580217Y-106801538D01*
X114615035Y-106733203D01*
X114663008Y-106682409D01*
X114725519Y-106665500D01*
X115979548Y-106665500D01*
X116046587Y-106685185D01*
X116067229Y-106701819D01*
X118291016Y-108925606D01*
X118291045Y-108925637D01*
X118381264Y-109015856D01*
X118381267Y-109015858D01*
X118458190Y-109067256D01*
X118483710Y-109084309D01*
X118483712Y-109084310D01*
X118483715Y-109084312D01*
X118550396Y-109111931D01*
X118550398Y-109111933D01*
X118590640Y-109128601D01*
X118597548Y-109131463D01*
X118657971Y-109143481D01*
X118718393Y-109155500D01*
X118718394Y-109155500D01*
X122115501Y-109155500D01*
X122182540Y-109175185D01*
X122228295Y-109227989D01*
X122239501Y-109279500D01*
X122239501Y-109577876D01*
X122245908Y-109637483D01*
X122296202Y-109772328D01*
X122296206Y-109772335D01*
X122382452Y-109887544D01*
X122382455Y-109887547D01*
X122497664Y-109973793D01*
X122497671Y-109973797D01*
X122632517Y-110024091D01*
X122632516Y-110024091D01*
X122639444Y-110024835D01*
X122692127Y-110030500D01*
X124650500Y-110030499D01*
X124717539Y-110050184D01*
X124763294Y-110102987D01*
X124774500Y-110154499D01*
X124774500Y-110500500D01*
X124754815Y-110567539D01*
X124702011Y-110613294D01*
X124650500Y-110624500D01*
X111688392Y-110624500D01*
X111680418Y-110626086D01*
X111680417Y-110626085D01*
X111567554Y-110648535D01*
X111567545Y-110648537D01*
X111547543Y-110656823D01*
X111534207Y-110662347D01*
X111453719Y-110695684D01*
X111453705Y-110695692D01*
X111351272Y-110764138D01*
X111351264Y-110764144D01*
X110345325Y-111770084D01*
X109351270Y-112764139D01*
X109351267Y-112764142D01*
X109307704Y-112807704D01*
X109264142Y-112851266D01*
X109249252Y-112873551D01*
X109234461Y-112895688D01*
X109218930Y-112918931D01*
X109195687Y-112953714D01*
X109179811Y-112992044D01*
X109170510Y-113014500D01*
X109148538Y-113067544D01*
X109148535Y-113067556D01*
X109124500Y-113188389D01*
X107240500Y-113188389D01*
X107240500Y-95182135D01*
X119059500Y-95182135D01*
X119059500Y-96877870D01*
X119059501Y-96877876D01*
X119065908Y-96937483D01*
X119116202Y-97072328D01*
X119116206Y-97072335D01*
X119202452Y-97187544D01*
X119202455Y-97187547D01*
X119317664Y-97273793D01*
X119317671Y-97273797D01*
X119452517Y-97324091D01*
X119452516Y-97324091D01*
X119459444Y-97324835D01*
X119512127Y-97330500D01*
X121207872Y-97330499D01*
X121267483Y-97324091D01*
X121402331Y-97273796D01*
X121517546Y-97187546D01*
X121603796Y-97072331D01*
X121654091Y-96937483D01*
X121660500Y-96877873D01*
X121660499Y-95182128D01*
X121654091Y-95122517D01*
X121647803Y-95105659D01*
X121603797Y-94987671D01*
X121603793Y-94987664D01*
X121517547Y-94872455D01*
X121517544Y-94872452D01*
X121402335Y-94786206D01*
X121402328Y-94786202D01*
X121267482Y-94735908D01*
X121267483Y-94735908D01*
X121207883Y-94729501D01*
X121207881Y-94729500D01*
X121207873Y-94729500D01*
X121207864Y-94729500D01*
X119512129Y-94729500D01*
X119512123Y-94729501D01*
X119452516Y-94735908D01*
X119317671Y-94786202D01*
X119317664Y-94786206D01*
X119202455Y-94872452D01*
X119202452Y-94872455D01*
X119116206Y-94987664D01*
X119116202Y-94987671D01*
X119065908Y-95122517D01*
X119061437Y-95164107D01*
X119059501Y-95182123D01*
X119059500Y-95182135D01*
X107240500Y-95182135D01*
X107240500Y-64088396D01*
X108774500Y-64088396D01*
X108774500Y-76361611D01*
X108798535Y-76482444D01*
X108798540Y-76482461D01*
X108845685Y-76596280D01*
X108845690Y-76596289D01*
X108879914Y-76647507D01*
X108879915Y-76647509D01*
X108914141Y-76698733D01*
X109005586Y-76790178D01*
X109005608Y-76790198D01*
X109631016Y-77415606D01*
X109631045Y-77415637D01*
X109721265Y-77505857D01*
X109731316Y-77512572D01*
X109761068Y-77532452D01*
X109823715Y-77574312D01*
X109890396Y-77601931D01*
X109890398Y-77601933D01*
X109930640Y-77618601D01*
X109937548Y-77621463D01*
X109997971Y-77633481D01*
X110058393Y-77645500D01*
X110058394Y-77645500D01*
X111014773Y-77645500D01*
X111081812Y-77665185D01*
X111116348Y-77698377D01*
X111251501Y-77891396D01*
X111251506Y-77891402D01*
X111418597Y-78058493D01*
X111418603Y-78058498D01*
X111604158Y-78188425D01*
X111647783Y-78243002D01*
X111654977Y-78312500D01*
X111623454Y-78374855D01*
X111604158Y-78391575D01*
X111418597Y-78521505D01*
X111251505Y-78688597D01*
X111115965Y-78882169D01*
X111115964Y-78882171D01*
X111016098Y-79096335D01*
X111016094Y-79096344D01*
X110954938Y-79324586D01*
X110954936Y-79324596D01*
X110934341Y-79559999D01*
X110934341Y-79560000D01*
X110954936Y-79795403D01*
X110954938Y-79795413D01*
X111016094Y-80023655D01*
X111016096Y-80023659D01*
X111016097Y-80023663D01*
X111108242Y-80221267D01*
X111115965Y-80237830D01*
X111115967Y-80237834D01*
X111189895Y-80343413D01*
X111251505Y-80431401D01*
X111418599Y-80598495D01*
X111515384Y-80666265D01*
X111612165Y-80734032D01*
X111612167Y-80734033D01*
X111612170Y-80734035D01*
X111826337Y-80833903D01*
X111826343Y-80833904D01*
X111826344Y-80833905D01*
X111843777Y-80838576D01*
X111977861Y-80874503D01*
X112037521Y-80910868D01*
X112068051Y-80973714D01*
X112059757Y-81043090D01*
X112033450Y-81081959D01*
X111891269Y-81224140D01*
X111891267Y-81224142D01*
X111867075Y-81248334D01*
X111804141Y-81311267D01*
X111787423Y-81336286D01*
X111787424Y-81336287D01*
X111735687Y-81413715D01*
X111724949Y-81439639D01*
X111714211Y-81465565D01*
X111688538Y-81527544D01*
X111688535Y-81527554D01*
X111680383Y-81568536D01*
X111680384Y-81568537D01*
X111665879Y-81641463D01*
X111665878Y-81641464D01*
X111664500Y-81648391D01*
X111664500Y-84655500D01*
X111644815Y-84722539D01*
X111592011Y-84768294D01*
X111540501Y-84779500D01*
X111392130Y-84779500D01*
X111392123Y-84779501D01*
X111332516Y-84785908D01*
X111197671Y-84836202D01*
X111197664Y-84836206D01*
X111082455Y-84922452D01*
X111082452Y-84922455D01*
X110996206Y-85037664D01*
X110996202Y-85037671D01*
X110945908Y-85172517D01*
X110940723Y-85220750D01*
X110939501Y-85232123D01*
X110939500Y-85232135D01*
X110939500Y-87027870D01*
X110939501Y-87027876D01*
X110945908Y-87087483D01*
X110996202Y-87222328D01*
X110996206Y-87222335D01*
X111082452Y-87337544D01*
X111082455Y-87337547D01*
X111197664Y-87423793D01*
X111197671Y-87423797D01*
X111329081Y-87472810D01*
X111385015Y-87514681D01*
X111409432Y-87580145D01*
X111394580Y-87648418D01*
X111373430Y-87676673D01*
X111251503Y-87798600D01*
X111115965Y-87992169D01*
X111115964Y-87992171D01*
X111016098Y-88206335D01*
X111016094Y-88206344D01*
X110954938Y-88434586D01*
X110954936Y-88434596D01*
X110934341Y-88669999D01*
X110934341Y-88670000D01*
X110954936Y-88905403D01*
X110954938Y-88905413D01*
X111016094Y-89133655D01*
X111016096Y-89133659D01*
X111016097Y-89133663D01*
X111083635Y-89278498D01*
X111115965Y-89347830D01*
X111115967Y-89347834D01*
X111196609Y-89463002D01*
X111247339Y-89535452D01*
X111251501Y-89541395D01*
X111251506Y-89541402D01*
X111418597Y-89708493D01*
X111418603Y-89708498D01*
X111604158Y-89838425D01*
X111647783Y-89893002D01*
X111654977Y-89962500D01*
X111623454Y-90024855D01*
X111604158Y-90041575D01*
X111418597Y-90171505D01*
X111251505Y-90338597D01*
X111115965Y-90532169D01*
X111115964Y-90532171D01*
X111016098Y-90746335D01*
X111016094Y-90746344D01*
X110954938Y-90974586D01*
X110954936Y-90974596D01*
X110934341Y-91209999D01*
X110934341Y-91210000D01*
X110954936Y-91445403D01*
X110954938Y-91445413D01*
X111016094Y-91673655D01*
X111016096Y-91673659D01*
X111016097Y-91673663D01*
X111083635Y-91818498D01*
X111115965Y-91887830D01*
X111115967Y-91887834D01*
X111196609Y-92003002D01*
X111245272Y-92072500D01*
X111251501Y-92081395D01*
X111251506Y-92081402D01*
X111418597Y-92248493D01*
X111418603Y-92248498D01*
X111604158Y-92378425D01*
X111647783Y-92433002D01*
X111654977Y-92502500D01*
X111623454Y-92564855D01*
X111604158Y-92581575D01*
X111418597Y-92711505D01*
X111251505Y-92878597D01*
X111115965Y-93072169D01*
X111115964Y-93072171D01*
X111016098Y-93286335D01*
X111016094Y-93286344D01*
X110954938Y-93514586D01*
X110954936Y-93514596D01*
X110934341Y-93749999D01*
X110934341Y-93750000D01*
X110954936Y-93985403D01*
X110954938Y-93985413D01*
X111016094Y-94213655D01*
X111016096Y-94213659D01*
X111016097Y-94213663D01*
X111091097Y-94374500D01*
X111115965Y-94427830D01*
X111115967Y-94427834D01*
X111176401Y-94514142D01*
X111251505Y-94621401D01*
X111418599Y-94788495D01*
X111515384Y-94856265D01*
X111612165Y-94924032D01*
X111612167Y-94924033D01*
X111612170Y-94924035D01*
X111826337Y-95023903D01*
X111826343Y-95023904D01*
X111826344Y-95023905D01*
X111848916Y-95029953D01*
X112054592Y-95085063D01*
X112239755Y-95101263D01*
X112289999Y-95105659D01*
X112290000Y-95105659D01*
X112290001Y-95105659D01*
X112329234Y-95102226D01*
X112525408Y-95085063D01*
X112753663Y-95023903D01*
X112967830Y-94924035D01*
X113161401Y-94788495D01*
X113328495Y-94621401D01*
X113463652Y-94428377D01*
X113518229Y-94384752D01*
X113565227Y-94375500D01*
X127890547Y-94375500D01*
X127957586Y-94395185D01*
X128003341Y-94447989D01*
X128013285Y-94517147D01*
X127984260Y-94580703D01*
X127978245Y-94587162D01*
X127870983Y-94694424D01*
X127859451Y-94705957D01*
X127798127Y-94739441D01*
X127782582Y-94741803D01*
X127753307Y-94744365D01*
X127533511Y-94803258D01*
X127533502Y-94803261D01*
X127327267Y-94899431D01*
X127327265Y-94899432D01*
X127140858Y-95029954D01*
X126979954Y-95190858D01*
X126849432Y-95377265D01*
X126849431Y-95377267D01*
X126822382Y-95435275D01*
X126776209Y-95487714D01*
X126709016Y-95506866D01*
X126642135Y-95486650D01*
X126597618Y-95435275D01*
X126594472Y-95428529D01*
X126570568Y-95377266D01*
X126440047Y-95190861D01*
X126440045Y-95190858D01*
X126279141Y-95029954D01*
X126092734Y-94899432D01*
X126092732Y-94899431D01*
X125886497Y-94803261D01*
X125886488Y-94803258D01*
X125666697Y-94744366D01*
X125666693Y-94744365D01*
X125666692Y-94744365D01*
X125666691Y-94744364D01*
X125666686Y-94744364D01*
X125440002Y-94724532D01*
X125439998Y-94724532D01*
X125213313Y-94744364D01*
X125213302Y-94744366D01*
X124993511Y-94803258D01*
X124993502Y-94803261D01*
X124787267Y-94899431D01*
X124787265Y-94899432D01*
X124600858Y-95029954D01*
X124439954Y-95190858D01*
X124309432Y-95377265D01*
X124309431Y-95377267D01*
X124213261Y-95583502D01*
X124213258Y-95583511D01*
X124154366Y-95803302D01*
X124154364Y-95803313D01*
X124134532Y-96029998D01*
X124134532Y-96030001D01*
X124154364Y-96256686D01*
X124154366Y-96256697D01*
X124213258Y-96476488D01*
X124213261Y-96476497D01*
X124309431Y-96682732D01*
X124309432Y-96682734D01*
X124439954Y-96869141D01*
X124600858Y-97030045D01*
X124622423Y-97045145D01*
X124787266Y-97160568D01*
X124993504Y-97256739D01*
X125213308Y-97315635D01*
X125375230Y-97329801D01*
X125439998Y-97335468D01*
X125440000Y-97335468D01*
X125440002Y-97335468D01*
X125496807Y-97330498D01*
X125666692Y-97315635D01*
X125886496Y-97256739D01*
X126092734Y-97160568D01*
X126279139Y-97030047D01*
X126440047Y-96869139D01*
X126570568Y-96682734D01*
X126597618Y-96624724D01*
X126643790Y-96572285D01*
X126710983Y-96553133D01*
X126777865Y-96573348D01*
X126822382Y-96624725D01*
X126849429Y-96682728D01*
X126849432Y-96682734D01*
X126979954Y-96869141D01*
X127140858Y-97030045D01*
X127301623Y-97142613D01*
X127345248Y-97197189D01*
X127354500Y-97244188D01*
X127354500Y-113459547D01*
X127334815Y-113526586D01*
X127318181Y-113547228D01*
X125479552Y-115385858D01*
X125418229Y-115419343D01*
X125391871Y-115422177D01*
X125185150Y-115422177D01*
X125118111Y-115402492D01*
X125072356Y-115349688D01*
X125071595Y-115347988D01*
X125064175Y-115331073D01*
X124928166Y-115122894D01*
X124840099Y-115027228D01*
X124759744Y-114939939D01*
X124563509Y-114787203D01*
X124563507Y-114787202D01*
X124563506Y-114787201D01*
X124344811Y-114668849D01*
X124344802Y-114668846D01*
X124109616Y-114588106D01*
X123864335Y-114547177D01*
X123615665Y-114547177D01*
X123370383Y-114588106D01*
X123135197Y-114668846D01*
X123135188Y-114668849D01*
X122916493Y-114787201D01*
X122720257Y-114939938D01*
X122551833Y-115122894D01*
X122415826Y-115331070D01*
X122315936Y-115558795D01*
X122254892Y-115799852D01*
X122254890Y-115799864D01*
X122234357Y-116047671D01*
X122234357Y-116047682D01*
X122254890Y-116295489D01*
X122254892Y-116295501D01*
X122315936Y-116536558D01*
X122415826Y-116764283D01*
X122551833Y-116972459D01*
X122551836Y-116972462D01*
X122720256Y-117155415D01*
X122801299Y-117218493D01*
X122904390Y-117298733D01*
X122916491Y-117308151D01*
X122981310Y-117343229D01*
X123049517Y-117380141D01*
X123099108Y-117429360D01*
X123114500Y-117489196D01*
X123114500Y-118101606D01*
X123138537Y-118222452D01*
X123149342Y-118248537D01*
X123185688Y-118336286D01*
X123201196Y-118359494D01*
X123201198Y-118359500D01*
X123201200Y-118359500D01*
X123254141Y-118438733D01*
X123345586Y-118530178D01*
X123345608Y-118530198D01*
X124211016Y-119395606D01*
X124211045Y-119395637D01*
X124301264Y-119485856D01*
X124301267Y-119485858D01*
X124352490Y-119520084D01*
X124403714Y-119554312D01*
X124403715Y-119554312D01*
X124403716Y-119554313D01*
X124443960Y-119570982D01*
X124484207Y-119587652D01*
X124517548Y-119601463D01*
X124577971Y-119613481D01*
X124638393Y-119625500D01*
X124638394Y-119625500D01*
X129089548Y-119625500D01*
X129156587Y-119645185D01*
X129177229Y-119661819D01*
X130978181Y-121462771D01*
X131011666Y-121524094D01*
X131014500Y-121550452D01*
X131014500Y-127815811D01*
X130994815Y-127882850D01*
X130961623Y-127917386D01*
X130800859Y-128029953D01*
X130639954Y-128190858D01*
X130509432Y-128377265D01*
X130509431Y-128377267D01*
X130413261Y-128583502D01*
X130413258Y-128583511D01*
X130354366Y-128803302D01*
X130354364Y-128803313D01*
X130334532Y-129029998D01*
X130334532Y-129030001D01*
X130354364Y-129256686D01*
X130354366Y-129256697D01*
X130413258Y-129476488D01*
X130413261Y-129476497D01*
X130509431Y-129682732D01*
X130509432Y-129682734D01*
X130639954Y-129869141D01*
X130800858Y-130030045D01*
X130800861Y-130030047D01*
X130987266Y-130160568D01*
X131193504Y-130256739D01*
X131413308Y-130315635D01*
X131575230Y-130329801D01*
X131639998Y-130335468D01*
X131640000Y-130335468D01*
X131640002Y-130335468D01*
X131696673Y-130330509D01*
X131866692Y-130315635D01*
X132086496Y-130256739D01*
X132292734Y-130160568D01*
X132479139Y-130030047D01*
X132640047Y-129869139D01*
X132770568Y-129682734D01*
X132866739Y-129476496D01*
X132925635Y-129256692D01*
X132945468Y-129030000D01*
X132925635Y-128803308D01*
X132875907Y-128617720D01*
X132866741Y-128583511D01*
X132866738Y-128583502D01*
X132851708Y-128551270D01*
X132770568Y-128377266D01*
X132640047Y-128190861D01*
X132640045Y-128190858D01*
X132479140Y-128029953D01*
X132318377Y-127917386D01*
X132274752Y-127862809D01*
X132265500Y-127815811D01*
X132265500Y-121178393D01*
X132265499Y-121178389D01*
X132241464Y-121057555D01*
X132241463Y-121057548D01*
X132194311Y-120943714D01*
X132194310Y-120943713D01*
X132194307Y-120943707D01*
X132125859Y-120841268D01*
X132086738Y-120802147D01*
X132038733Y-120754142D01*
X132038732Y-120754141D01*
X129892927Y-118608337D01*
X129892925Y-118608334D01*
X129892925Y-118608335D01*
X129885858Y-118601268D01*
X129885858Y-118601267D01*
X129798733Y-118514142D01*
X129798732Y-118514141D01*
X129798731Y-118514140D01*
X129747509Y-118479915D01*
X129696286Y-118445688D01*
X129696283Y-118445686D01*
X129696280Y-118445685D01*
X129615792Y-118412347D01*
X129582453Y-118398537D01*
X129572427Y-118396543D01*
X129522029Y-118386518D01*
X129461610Y-118374500D01*
X129461607Y-118374500D01*
X129461606Y-118374500D01*
X125010452Y-118374500D01*
X124943413Y-118354815D01*
X124922771Y-118338181D01*
X124401819Y-117817229D01*
X124368334Y-117755906D01*
X124365500Y-117729548D01*
X124365500Y-117489196D01*
X124385185Y-117422157D01*
X124430483Y-117380141D01*
X124433911Y-117378286D01*
X124563509Y-117308151D01*
X124759744Y-117155415D01*
X124928164Y-116972462D01*
X125064173Y-116764284D01*
X125064175Y-116764280D01*
X125071595Y-116747366D01*
X125116551Y-116693880D01*
X125183287Y-116673191D01*
X125185150Y-116673177D01*
X125763930Y-116673177D01*
X125824352Y-116661158D01*
X125884775Y-116649140D01*
X125884778Y-116649138D01*
X125884781Y-116649138D01*
X125918110Y-116635331D01*
X125918109Y-116635331D01*
X125918115Y-116635329D01*
X125998609Y-116601989D01*
X126049832Y-116567761D01*
X126101056Y-116533535D01*
X126188181Y-116446410D01*
X126188181Y-116446408D01*
X126198389Y-116436201D01*
X126198390Y-116436198D01*
X128465858Y-114168733D01*
X128534312Y-114066285D01*
X128566576Y-113988393D01*
X128581463Y-113952452D01*
X128585564Y-113931835D01*
X128605501Y-113831606D01*
X128605501Y-113708393D01*
X128605501Y-113703283D01*
X128605500Y-113703257D01*
X128605500Y-97244188D01*
X128625185Y-97177149D01*
X128658377Y-97142613D01*
X128708524Y-97107500D01*
X128819139Y-97030047D01*
X128980047Y-96869139D01*
X129110568Y-96682734D01*
X129206739Y-96476496D01*
X129265635Y-96256692D01*
X129276972Y-96127110D01*
X129302424Y-96062041D01*
X129359015Y-96021062D01*
X129428777Y-96017184D01*
X129489561Y-96051638D01*
X129522069Y-96113485D01*
X129524500Y-96137917D01*
X129524500Y-103680201D01*
X129515062Y-103727652D01*
X129498539Y-103767543D01*
X129498535Y-103767555D01*
X129474500Y-103888388D01*
X129474500Y-104011611D01*
X129498535Y-104132444D01*
X129498540Y-104132461D01*
X129545685Y-104246281D01*
X129545690Y-104246290D01*
X129608083Y-104339664D01*
X129614143Y-104348733D01*
X130459141Y-105193732D01*
X130459142Y-105193733D01*
X130546267Y-105280858D01*
X130580773Y-105303914D01*
X130648714Y-105349311D01*
X130762548Y-105396463D01*
X130883388Y-105420499D01*
X130883392Y-105420500D01*
X130883393Y-105420500D01*
X130883394Y-105420500D01*
X137750894Y-105420500D01*
X137817933Y-105440185D01*
X137863688Y-105492989D01*
X137873632Y-105562147D01*
X137870669Y-105576593D01*
X137814938Y-105784586D01*
X137814936Y-105784596D01*
X137794341Y-106019999D01*
X137794341Y-106020000D01*
X137814936Y-106255403D01*
X137814938Y-106255413D01*
X137876094Y-106483655D01*
X137876096Y-106483659D01*
X137876097Y-106483663D01*
X137929756Y-106598734D01*
X137975965Y-106697830D01*
X137975967Y-106697834D01*
X138111501Y-106891395D01*
X138111506Y-106891402D01*
X138278597Y-107058493D01*
X138278603Y-107058498D01*
X138464158Y-107188425D01*
X138507783Y-107243002D01*
X138514977Y-107312500D01*
X138483454Y-107374855D01*
X138464158Y-107391575D01*
X138278597Y-107521505D01*
X138111505Y-107688597D01*
X137975965Y-107882169D01*
X137975964Y-107882171D01*
X137876098Y-108096335D01*
X137876094Y-108096344D01*
X137814938Y-108324586D01*
X137814936Y-108324596D01*
X137794341Y-108559999D01*
X137794341Y-108560000D01*
X137814936Y-108795403D01*
X137814938Y-108795413D01*
X137876094Y-109023655D01*
X137876096Y-109023659D01*
X137876097Y-109023663D01*
X137943192Y-109167548D01*
X137975965Y-109237830D01*
X137975967Y-109237834D01*
X138111501Y-109431395D01*
X138111506Y-109431402D01*
X138278597Y-109598493D01*
X138278603Y-109598498D01*
X138464158Y-109728425D01*
X138507783Y-109783002D01*
X138514977Y-109852500D01*
X138483454Y-109914855D01*
X138464158Y-109931575D01*
X138278597Y-110061505D01*
X138111505Y-110228597D01*
X137976348Y-110421623D01*
X137921771Y-110465248D01*
X137874773Y-110474500D01*
X135338389Y-110474500D01*
X135277971Y-110486518D01*
X135217548Y-110498537D01*
X135217546Y-110498537D01*
X135217545Y-110498538D01*
X135217543Y-110498538D01*
X135186341Y-110511463D01*
X135103713Y-110545688D01*
X135103708Y-110545690D01*
X135001272Y-110614138D01*
X135001264Y-110614144D01*
X134464144Y-111151264D01*
X134464138Y-111151272D01*
X134395692Y-111253705D01*
X134395684Y-111253719D01*
X134362347Y-111334207D01*
X134356823Y-111347543D01*
X134348537Y-111367545D01*
X134348535Y-111367553D01*
X134324500Y-111488389D01*
X134324500Y-131578583D01*
X134317541Y-131619538D01*
X134264633Y-131770737D01*
X134264630Y-131770750D01*
X134244435Y-131949996D01*
X134244435Y-131950003D01*
X134264630Y-132129249D01*
X134264631Y-132129254D01*
X134324211Y-132299523D01*
X134350591Y-132341506D01*
X134420184Y-132452262D01*
X134547738Y-132579816D01*
X134700478Y-132675789D01*
X134826697Y-132719955D01*
X134870745Y-132735368D01*
X134870750Y-132735369D01*
X135049996Y-132755565D01*
X135050000Y-132755565D01*
X135050004Y-132755565D01*
X135229249Y-132735369D01*
X135229252Y-132735368D01*
X135229255Y-132735368D01*
X135399522Y-132675789D01*
X135552262Y-132579816D01*
X135679816Y-132452262D01*
X135775789Y-132299522D01*
X135835368Y-132129255D01*
X135835369Y-132129249D01*
X135855565Y-131950003D01*
X135855565Y-131949996D01*
X135835369Y-131770750D01*
X135835368Y-131770745D01*
X135814603Y-131711401D01*
X135775789Y-131600478D01*
X135762031Y-131578583D01*
X135679815Y-131447737D01*
X135611819Y-131379741D01*
X135578334Y-131318418D01*
X135575500Y-131292060D01*
X135575500Y-126339999D01*
X137794341Y-126339999D01*
X137794341Y-126340000D01*
X137814936Y-126575403D01*
X137814938Y-126575413D01*
X137876094Y-126803655D01*
X137876096Y-126803659D01*
X137876097Y-126803663D01*
X137920429Y-126898733D01*
X137975965Y-127017830D01*
X137975967Y-127017834D01*
X138028216Y-127092452D01*
X138111505Y-127211401D01*
X138278599Y-127378495D01*
X138375384Y-127446265D01*
X138472165Y-127514032D01*
X138472167Y-127514033D01*
X138472170Y-127514035D01*
X138686337Y-127613903D01*
X138914592Y-127675063D01*
X139102918Y-127691539D01*
X139149999Y-127695659D01*
X139150000Y-127695659D01*
X139150001Y-127695659D01*
X139189234Y-127692226D01*
X139385408Y-127675063D01*
X139613663Y-127613903D01*
X139827830Y-127514035D01*
X140021401Y-127378495D01*
X140188495Y-127211401D01*
X140324035Y-127017830D01*
X140423903Y-126803663D01*
X140485063Y-126575408D01*
X140505659Y-126340000D01*
X140485063Y-126104592D01*
X140423903Y-125876337D01*
X140324035Y-125662171D01*
X140266532Y-125580047D01*
X140188494Y-125468597D01*
X140021402Y-125301506D01*
X140021395Y-125301501D01*
X139827832Y-125165966D01*
X139827826Y-125165963D01*
X139613663Y-125066097D01*
X139613659Y-125066096D01*
X139613655Y-125066094D01*
X139385413Y-125004938D01*
X139385403Y-125004936D01*
X139150001Y-124984341D01*
X139149999Y-124984341D01*
X138914596Y-125004936D01*
X138914586Y-125004938D01*
X138686344Y-125066094D01*
X138686335Y-125066098D01*
X138472171Y-125165964D01*
X138472169Y-125165965D01*
X138278597Y-125301505D01*
X138111505Y-125468597D01*
X137975965Y-125662169D01*
X137975964Y-125662171D01*
X137876098Y-125876335D01*
X137876094Y-125876344D01*
X137814938Y-126104586D01*
X137814936Y-126104596D01*
X137794341Y-126339999D01*
X135575500Y-126339999D01*
X135575500Y-111860452D01*
X135595185Y-111793413D01*
X135611819Y-111772771D01*
X135622771Y-111761819D01*
X135684094Y-111728334D01*
X135710452Y-111725500D01*
X137874773Y-111725500D01*
X137941812Y-111745185D01*
X137976348Y-111778377D01*
X138111501Y-111971396D01*
X138111506Y-111971402D01*
X138278597Y-112138493D01*
X138278603Y-112138498D01*
X138464158Y-112268425D01*
X138507783Y-112323002D01*
X138514977Y-112392500D01*
X138483454Y-112454855D01*
X138464158Y-112471575D01*
X138278597Y-112601505D01*
X138111505Y-112768597D01*
X137975965Y-112962169D01*
X137975964Y-112962171D01*
X137876098Y-113176335D01*
X137876094Y-113176344D01*
X137814938Y-113404586D01*
X137814936Y-113404596D01*
X137794341Y-113639999D01*
X137794341Y-113640000D01*
X137814936Y-113875403D01*
X137814938Y-113875413D01*
X137876094Y-114103655D01*
X137876096Y-114103659D01*
X137876097Y-114103663D01*
X137939030Y-114238623D01*
X137975965Y-114317830D01*
X137975967Y-114317834D01*
X138111501Y-114511395D01*
X138111506Y-114511402D01*
X138278597Y-114678493D01*
X138278603Y-114678498D01*
X138464158Y-114808425D01*
X138507783Y-114863002D01*
X138514977Y-114932500D01*
X138483454Y-114994855D01*
X138464158Y-115011575D01*
X138278597Y-115141505D01*
X138111505Y-115308597D01*
X137975965Y-115502169D01*
X137975964Y-115502171D01*
X137876098Y-115716335D01*
X137876094Y-115716344D01*
X137814938Y-115944586D01*
X137814936Y-115944596D01*
X137794341Y-116179999D01*
X137794341Y-116180000D01*
X137814936Y-116415403D01*
X137814938Y-116415413D01*
X137876094Y-116643655D01*
X137876096Y-116643659D01*
X137876097Y-116643663D01*
X137955593Y-116814142D01*
X137975965Y-116857830D01*
X137975967Y-116857834D01*
X138111501Y-117051395D01*
X138111506Y-117051402D01*
X138278597Y-117218493D01*
X138278603Y-117218498D01*
X138464158Y-117348425D01*
X138507783Y-117403002D01*
X138514977Y-117472500D01*
X138483454Y-117534855D01*
X138464158Y-117551575D01*
X138278597Y-117681505D01*
X138111505Y-117848597D01*
X137975965Y-118042169D01*
X137975964Y-118042171D01*
X137876098Y-118256335D01*
X137876094Y-118256344D01*
X137814938Y-118484586D01*
X137814936Y-118484596D01*
X137794341Y-118719999D01*
X137794341Y-118720000D01*
X137814936Y-118955403D01*
X137814938Y-118955413D01*
X137876094Y-119183655D01*
X137876096Y-119183659D01*
X137876097Y-119183663D01*
X137958324Y-119359999D01*
X137975965Y-119397830D01*
X137975967Y-119397834D01*
X138061568Y-119520084D01*
X138108881Y-119587654D01*
X138111501Y-119591395D01*
X138111506Y-119591402D01*
X138278597Y-119758493D01*
X138278603Y-119758498D01*
X138464158Y-119888425D01*
X138507783Y-119943002D01*
X138514977Y-120012500D01*
X138483454Y-120074855D01*
X138464158Y-120091575D01*
X138278597Y-120221505D01*
X138111505Y-120388597D01*
X137975965Y-120582169D01*
X137975964Y-120582171D01*
X137876098Y-120796335D01*
X137876094Y-120796344D01*
X137814938Y-121024586D01*
X137814936Y-121024596D01*
X137794341Y-121259999D01*
X137794341Y-121260000D01*
X137814936Y-121495403D01*
X137814938Y-121495413D01*
X137876094Y-121723655D01*
X137876096Y-121723659D01*
X137876097Y-121723663D01*
X137928723Y-121836519D01*
X137975965Y-121937830D01*
X137975967Y-121937834D01*
X138084281Y-122092521D01*
X138111505Y-122131401D01*
X138278599Y-122298495D01*
X138368731Y-122361606D01*
X138472165Y-122434032D01*
X138472167Y-122434033D01*
X138472170Y-122434035D01*
X138686337Y-122533903D01*
X138914592Y-122595063D01*
X139102918Y-122611539D01*
X139149999Y-122615659D01*
X139150000Y-122615659D01*
X139150001Y-122615659D01*
X139189234Y-122612226D01*
X139385408Y-122595063D01*
X139613663Y-122533903D01*
X139827830Y-122434035D01*
X140021401Y-122298495D01*
X140188495Y-122131401D01*
X140324035Y-121937830D01*
X140423903Y-121723663D01*
X140485063Y-121495408D01*
X140505659Y-121260000D01*
X140485063Y-121024592D01*
X140423903Y-120796337D01*
X140324035Y-120582171D01*
X140297547Y-120544341D01*
X140188494Y-120388597D01*
X140021402Y-120221506D01*
X140021396Y-120221501D01*
X139835842Y-120091575D01*
X139792217Y-120036998D01*
X139785023Y-119967500D01*
X139816546Y-119905145D01*
X139835842Y-119888425D01*
X139928330Y-119823664D01*
X140021401Y-119758495D01*
X140188495Y-119591401D01*
X140324035Y-119397830D01*
X140423903Y-119183663D01*
X140485063Y-118955408D01*
X140505659Y-118720000D01*
X140485063Y-118484592D01*
X140423903Y-118256337D01*
X140324035Y-118042171D01*
X140313796Y-118027547D01*
X140188494Y-117848597D01*
X140021402Y-117681506D01*
X140021396Y-117681501D01*
X139835842Y-117551575D01*
X139792217Y-117496998D01*
X139785023Y-117427500D01*
X139816546Y-117365145D01*
X139835842Y-117348425D01*
X139884807Y-117314139D01*
X140021401Y-117218495D01*
X140188495Y-117051401D01*
X140324035Y-116857830D01*
X140423903Y-116643663D01*
X140485063Y-116415408D01*
X140485680Y-116408353D01*
X140511132Y-116343285D01*
X140567723Y-116302307D01*
X140637485Y-116298428D01*
X140696889Y-116331480D01*
X141664141Y-117298732D01*
X141664142Y-117298733D01*
X141708638Y-117343229D01*
X141749562Y-117384153D01*
X141783046Y-117445477D01*
X141778062Y-117515168D01*
X141763456Y-117542955D01*
X141757421Y-117551575D01*
X141739431Y-117577267D01*
X141643261Y-117783502D01*
X141643258Y-117783511D01*
X141584366Y-118003302D01*
X141584364Y-118003313D01*
X141564532Y-118229998D01*
X141564532Y-118230001D01*
X141584364Y-118456686D01*
X141584366Y-118456697D01*
X141643258Y-118676488D01*
X141643261Y-118676497D01*
X141739431Y-118882732D01*
X141739432Y-118882734D01*
X141869954Y-119069141D01*
X142030858Y-119230045D01*
X142030861Y-119230047D01*
X142217266Y-119360568D01*
X142423504Y-119456739D01*
X142643308Y-119515635D01*
X142805230Y-119529801D01*
X142869998Y-119535468D01*
X142870000Y-119535468D01*
X142870002Y-119535468D01*
X142926673Y-119530509D01*
X143096692Y-119515635D01*
X143316496Y-119456739D01*
X143522734Y-119360568D01*
X143709139Y-119230047D01*
X143759065Y-119180121D01*
X143820388Y-119146635D01*
X143890079Y-119151619D01*
X143946013Y-119193490D01*
X143963789Y-119226846D01*
X144024211Y-119399524D01*
X144091079Y-119505942D01*
X144097168Y-119515633D01*
X144105493Y-119528881D01*
X144124500Y-119594854D01*
X144124500Y-121700500D01*
X144104815Y-121767539D01*
X144052011Y-121813294D01*
X144000500Y-121824500D01*
X143088389Y-121824500D01*
X143027971Y-121836518D01*
X142984743Y-121845116D01*
X142967546Y-121848537D01*
X142926596Y-121865500D01*
X142926595Y-121865500D01*
X142853722Y-121895684D01*
X142853710Y-121895690D01*
X142847263Y-121899999D01*
X142847262Y-121900000D01*
X142751268Y-121964140D01*
X142725427Y-121989982D01*
X142664142Y-122051267D01*
X142384144Y-122331264D01*
X142384138Y-122331272D01*
X142315690Y-122433708D01*
X142315688Y-122433713D01*
X142287626Y-122501461D01*
X142287626Y-122501463D01*
X142268537Y-122547548D01*
X142268536Y-122547552D01*
X142268536Y-122547553D01*
X142268535Y-122547556D01*
X142244500Y-122668389D01*
X142244500Y-123365811D01*
X142224815Y-123432850D01*
X142191623Y-123467386D01*
X142030859Y-123579953D01*
X141869954Y-123740858D01*
X141739432Y-123927265D01*
X141739431Y-123927267D01*
X141643261Y-124133502D01*
X141643258Y-124133511D01*
X141584366Y-124353302D01*
X141584364Y-124353313D01*
X141564532Y-124579998D01*
X141564532Y-124580001D01*
X141584364Y-124806686D01*
X141584366Y-124806697D01*
X141643258Y-125026488D01*
X141643261Y-125026497D01*
X141739431Y-125232732D01*
X141739432Y-125232734D01*
X141869954Y-125419141D01*
X142030858Y-125580045D01*
X142030861Y-125580047D01*
X142217266Y-125710568D01*
X142423504Y-125806739D01*
X142643308Y-125865635D01*
X142805230Y-125879801D01*
X142869998Y-125885468D01*
X142870000Y-125885468D01*
X142870002Y-125885468D01*
X142926673Y-125880509D01*
X143096692Y-125865635D01*
X143316496Y-125806739D01*
X143522734Y-125710568D01*
X143709139Y-125580047D01*
X143870047Y-125419139D01*
X143982613Y-125258377D01*
X144037189Y-125214752D01*
X144084188Y-125205500D01*
X147081607Y-125205500D01*
X147142029Y-125193481D01*
X147202452Y-125181463D01*
X147239867Y-125165965D01*
X147316286Y-125134312D01*
X147367509Y-125100084D01*
X147418733Y-125065858D01*
X147505858Y-124978733D01*
X147505858Y-124978731D01*
X147516066Y-124968524D01*
X147516067Y-124968521D01*
X151787772Y-120696819D01*
X151849095Y-120663334D01*
X151875453Y-120660500D01*
X152990894Y-120660500D01*
X153057933Y-120680185D01*
X153103688Y-120732989D01*
X153113632Y-120802147D01*
X153110669Y-120816593D01*
X153054938Y-121024586D01*
X153054936Y-121024596D01*
X153034341Y-121259999D01*
X153034341Y-121260000D01*
X153054936Y-121495403D01*
X153054938Y-121495413D01*
X153116094Y-121723655D01*
X153116096Y-121723659D01*
X153116097Y-121723663D01*
X153168723Y-121836519D01*
X153215965Y-121937830D01*
X153215967Y-121937834D01*
X153324281Y-122092521D01*
X153346907Y-122124835D01*
X153351501Y-122131395D01*
X153351506Y-122131402D01*
X153518597Y-122298493D01*
X153518603Y-122298498D01*
X153704158Y-122428425D01*
X153747783Y-122483002D01*
X153754977Y-122552500D01*
X153723454Y-122614855D01*
X153704158Y-122631575D01*
X153518597Y-122761505D01*
X153351505Y-122928597D01*
X153215965Y-123122169D01*
X153215964Y-123122171D01*
X153116098Y-123336335D01*
X153116094Y-123336344D01*
X153054938Y-123564586D01*
X153054936Y-123564596D01*
X153034341Y-123799999D01*
X153034341Y-123800000D01*
X153054936Y-124035403D01*
X153054938Y-124035413D01*
X153116094Y-124263655D01*
X153116096Y-124263659D01*
X153116097Y-124263663D01*
X153157902Y-124353313D01*
X153215965Y-124477830D01*
X153215967Y-124477834D01*
X153351501Y-124671395D01*
X153351506Y-124671402D01*
X153518597Y-124838493D01*
X153518603Y-124838498D01*
X153704158Y-124968425D01*
X153747783Y-125023002D01*
X153754977Y-125092500D01*
X153723454Y-125154855D01*
X153704158Y-125171575D01*
X153518597Y-125301505D01*
X153351505Y-125468597D01*
X153215965Y-125662169D01*
X153215964Y-125662171D01*
X153116098Y-125876335D01*
X153116094Y-125876344D01*
X153054938Y-126104586D01*
X153054936Y-126104596D01*
X153034341Y-126339999D01*
X153034341Y-126340000D01*
X153054936Y-126575403D01*
X153054938Y-126575413D01*
X153116094Y-126803655D01*
X153116096Y-126803659D01*
X153116097Y-126803663D01*
X153160429Y-126898733D01*
X153215965Y-127017830D01*
X153215967Y-127017834D01*
X153268216Y-127092452D01*
X153351505Y-127211401D01*
X153518599Y-127378495D01*
X153615384Y-127446265D01*
X153712165Y-127514032D01*
X153712167Y-127514033D01*
X153712170Y-127514035D01*
X153926337Y-127613903D01*
X154154592Y-127675063D01*
X154342918Y-127691539D01*
X154389999Y-127695659D01*
X154390000Y-127695659D01*
X154390001Y-127695659D01*
X154429234Y-127692226D01*
X154625408Y-127675063D01*
X154853663Y-127613903D01*
X155067830Y-127514035D01*
X155261401Y-127378495D01*
X155428495Y-127211401D01*
X155564035Y-127017830D01*
X155663903Y-126803663D01*
X155725063Y-126575408D01*
X155745659Y-126340000D01*
X155725063Y-126104592D01*
X155663903Y-125876337D01*
X155564035Y-125662171D01*
X155506532Y-125580047D01*
X155428494Y-125468597D01*
X155261402Y-125301506D01*
X155261396Y-125301501D01*
X155075842Y-125171575D01*
X155032217Y-125116998D01*
X155025023Y-125047500D01*
X155056546Y-124985145D01*
X155075842Y-124968425D01*
X155098026Y-124952891D01*
X155261401Y-124838495D01*
X155428495Y-124671401D01*
X155564035Y-124477830D01*
X155663903Y-124263663D01*
X155725063Y-124035408D01*
X155745659Y-123800000D01*
X155725063Y-123564592D01*
X155663903Y-123336337D01*
X155564035Y-123122171D01*
X155539203Y-123086706D01*
X155428494Y-122928597D01*
X155261402Y-122761506D01*
X155261396Y-122761501D01*
X155075842Y-122631575D01*
X155032217Y-122576998D01*
X155025023Y-122507500D01*
X155056546Y-122445145D01*
X155075842Y-122428425D01*
X155168330Y-122363664D01*
X155261401Y-122298495D01*
X155428495Y-122131401D01*
X155564035Y-121937830D01*
X155663903Y-121723663D01*
X155725063Y-121495408D01*
X155745659Y-121260000D01*
X155725063Y-121024592D01*
X155669331Y-120816593D01*
X155670994Y-120746743D01*
X155710157Y-120688881D01*
X155774386Y-120661377D01*
X155789106Y-120660500D01*
X156276607Y-120660500D01*
X156337029Y-120648481D01*
X156397452Y-120636463D01*
X156450475Y-120614500D01*
X156511286Y-120589312D01*
X156578588Y-120544341D01*
X156613733Y-120520858D01*
X156700858Y-120433733D01*
X156700859Y-120433731D01*
X156707925Y-120426665D01*
X156707928Y-120426661D01*
X157048729Y-120085860D01*
X157048733Y-120085858D01*
X157135858Y-119998733D01*
X157204311Y-119896286D01*
X157204312Y-119896285D01*
X157204313Y-119896282D01*
X157204315Y-119896279D01*
X157225200Y-119845856D01*
X157251463Y-119782451D01*
X157275500Y-119661607D01*
X157275500Y-119538393D01*
X157275500Y-118110452D01*
X157295185Y-118043413D01*
X157311819Y-118022771D01*
X157372771Y-117961819D01*
X157434094Y-117928334D01*
X157460452Y-117925500D01*
X162839548Y-117925500D01*
X162906587Y-117945185D01*
X162927229Y-117961819D01*
X163138181Y-118172771D01*
X163171666Y-118234094D01*
X163174500Y-118260452D01*
X163174500Y-118911611D01*
X163198535Y-119032444D01*
X163198540Y-119032461D01*
X163245685Y-119146281D01*
X163245691Y-119146292D01*
X163277511Y-119193911D01*
X163277512Y-119193915D01*
X163277513Y-119193915D01*
X163314138Y-119248728D01*
X163314144Y-119248736D01*
X163405586Y-119340178D01*
X163405608Y-119340198D01*
X163821016Y-119755606D01*
X163821045Y-119755637D01*
X163911264Y-119845856D01*
X163911267Y-119845858D01*
X163961616Y-119879500D01*
X164013715Y-119914312D01*
X164050690Y-119929627D01*
X164050691Y-119929628D01*
X164050692Y-119929628D01*
X164127548Y-119961463D01*
X164157899Y-119967500D01*
X164187484Y-119973385D01*
X164187504Y-119973388D01*
X164187526Y-119973393D01*
X164248391Y-119985499D01*
X164248392Y-119985500D01*
X164248393Y-119985500D01*
X164248394Y-119985500D01*
X164364773Y-119985500D01*
X164431812Y-120005185D01*
X164466348Y-120038377D01*
X164601501Y-120231396D01*
X164601506Y-120231402D01*
X164768597Y-120398493D01*
X164768603Y-120398498D01*
X164954158Y-120528425D01*
X164997783Y-120583002D01*
X165004977Y-120652500D01*
X164973454Y-120714855D01*
X164954158Y-120731575D01*
X164768597Y-120861505D01*
X164601505Y-121028597D01*
X164465965Y-121222169D01*
X164465964Y-121222171D01*
X164366098Y-121436335D01*
X164366094Y-121436344D01*
X164304938Y-121664586D01*
X164304936Y-121664596D01*
X164284341Y-121899999D01*
X164304936Y-122135403D01*
X164304938Y-122135413D01*
X164366094Y-122363655D01*
X164366096Y-122363659D01*
X164366097Y-122363663D01*
X164445482Y-122533905D01*
X164465965Y-122577830D01*
X164465967Y-122577834D01*
X164550621Y-122698731D01*
X164601505Y-122771401D01*
X164768599Y-122938495D01*
X164813717Y-122970087D01*
X164962165Y-123074032D01*
X164962167Y-123074033D01*
X164962170Y-123074035D01*
X165176337Y-123173903D01*
X165404592Y-123235063D01*
X165592918Y-123251539D01*
X165639999Y-123255659D01*
X165640000Y-123255659D01*
X165640001Y-123255659D01*
X165679234Y-123252226D01*
X165875408Y-123235063D01*
X166103663Y-123173903D01*
X166317830Y-123074035D01*
X166511401Y-122938495D01*
X166678495Y-122771401D01*
X166814035Y-122577830D01*
X166913903Y-122363663D01*
X166975063Y-122135408D01*
X166995659Y-121900000D01*
X166975063Y-121664592D01*
X166913903Y-121436337D01*
X166814035Y-121222171D01*
X166783383Y-121178394D01*
X166678494Y-121028597D01*
X166511402Y-120861506D01*
X166511401Y-120861505D01*
X166426629Y-120802147D01*
X166325839Y-120731573D01*
X166282216Y-120676997D01*
X166275023Y-120607498D01*
X166306545Y-120545144D01*
X166325831Y-120528432D01*
X166511401Y-120398495D01*
X166678495Y-120231401D01*
X166814035Y-120037830D01*
X166913903Y-119823663D01*
X166975063Y-119595408D01*
X166995659Y-119360000D01*
X166975063Y-119124592D01*
X166913903Y-118896337D01*
X166814035Y-118682171D01*
X166810061Y-118676496D01*
X166678496Y-118488600D01*
X166628629Y-118438733D01*
X166556567Y-118366671D01*
X166523084Y-118305351D01*
X166528068Y-118235659D01*
X166569939Y-118179725D01*
X166600915Y-118162810D01*
X166732331Y-118113796D01*
X166847546Y-118027546D01*
X166933796Y-117912331D01*
X166984091Y-117777483D01*
X166990500Y-117717873D01*
X166990499Y-116405451D01*
X167010184Y-116338413D01*
X167026813Y-116317776D01*
X169035857Y-114308734D01*
X169104311Y-114206286D01*
X169151463Y-114092452D01*
X169175500Y-113971607D01*
X169175500Y-113848394D01*
X169175500Y-113848393D01*
X169175500Y-62788394D01*
X169173718Y-62779437D01*
X169173718Y-62779433D01*
X169158779Y-62704333D01*
X169151463Y-62667548D01*
X169104311Y-62553714D01*
X169081390Y-62519411D01*
X169035857Y-62451265D01*
X169035854Y-62451262D01*
X167242928Y-60658338D01*
X167242926Y-60658335D01*
X167226818Y-60642227D01*
X167193333Y-60580904D01*
X167190499Y-60554546D01*
X167190499Y-60152129D01*
X167190498Y-60152123D01*
X167190497Y-60152116D01*
X167184091Y-60092517D01*
X167133796Y-59957669D01*
X167133795Y-59957668D01*
X167133793Y-59957664D01*
X167047547Y-59842455D01*
X167047544Y-59842452D01*
X166932335Y-59756206D01*
X166932328Y-59756202D01*
X166797482Y-59705908D01*
X166797483Y-59705908D01*
X166737883Y-59699501D01*
X166737881Y-59699500D01*
X166737873Y-59699500D01*
X166737865Y-59699500D01*
X166548830Y-59699500D01*
X166481791Y-59679815D01*
X166436036Y-59627011D01*
X166427210Y-59594265D01*
X166426689Y-59594369D01*
X166401464Y-59467555D01*
X166401463Y-59467548D01*
X166354311Y-59353714D01*
X166354310Y-59353713D01*
X166354307Y-59353707D01*
X166285858Y-59251267D01*
X166285855Y-59251263D01*
X166195637Y-59161045D01*
X166195606Y-59161016D01*
X165240198Y-58205608D01*
X165240178Y-58205586D01*
X165148733Y-58114141D01*
X165097509Y-58079915D01*
X165046286Y-58045688D01*
X165046283Y-58045686D01*
X165046280Y-58045685D01*
X164965792Y-58012347D01*
X164932453Y-57998537D01*
X164922427Y-57996543D01*
X164872029Y-57986518D01*
X164811610Y-57974500D01*
X164811607Y-57974500D01*
X164811606Y-57974500D01*
X128361607Y-57974500D01*
X128238393Y-57974500D01*
X128238389Y-57974500D01*
X128177971Y-57986518D01*
X128134743Y-57995116D01*
X128117546Y-57998537D01*
X128003716Y-58045687D01*
X128003707Y-58045692D01*
X127901268Y-58114140D01*
X127857705Y-58157703D01*
X127814142Y-58201267D01*
X125144144Y-60871264D01*
X125144138Y-60871272D01*
X125075690Y-60973708D01*
X125075688Y-60973713D01*
X125028540Y-61087538D01*
X125028535Y-61087554D01*
X125004935Y-61206205D01*
X125004932Y-61206223D01*
X125004500Y-61208393D01*
X125004500Y-62695811D01*
X124984815Y-62762850D01*
X124951623Y-62797386D01*
X124790859Y-62909953D01*
X124629954Y-63070858D01*
X124499432Y-63257265D01*
X124499431Y-63257267D01*
X124472382Y-63315275D01*
X124426209Y-63367714D01*
X124359016Y-63386866D01*
X124292135Y-63366650D01*
X124247618Y-63315275D01*
X124220568Y-63257267D01*
X124220567Y-63257265D01*
X124090045Y-63070858D01*
X123929141Y-62909954D01*
X123742734Y-62779432D01*
X123742732Y-62779431D01*
X123536497Y-62683261D01*
X123536488Y-62683258D01*
X123316697Y-62624366D01*
X123316693Y-62624365D01*
X123316692Y-62624365D01*
X123316691Y-62624364D01*
X123316686Y-62624364D01*
X123090002Y-62604532D01*
X123089998Y-62604532D01*
X122863313Y-62624364D01*
X122863302Y-62624366D01*
X122643511Y-62683258D01*
X122643502Y-62683261D01*
X122437267Y-62779431D01*
X122437265Y-62779432D01*
X122250858Y-62909954D01*
X122089954Y-63070858D01*
X121959432Y-63257265D01*
X121959431Y-63257267D01*
X121932382Y-63315275D01*
X121886209Y-63367714D01*
X121819016Y-63386866D01*
X121752135Y-63366650D01*
X121707618Y-63315275D01*
X121680568Y-63257267D01*
X121680567Y-63257265D01*
X121550045Y-63070858D01*
X121389141Y-62909954D01*
X121202734Y-62779432D01*
X121202732Y-62779431D01*
X120996497Y-62683261D01*
X120996488Y-62683258D01*
X120776697Y-62624366D01*
X120776693Y-62624365D01*
X120776692Y-62624365D01*
X120776691Y-62624364D01*
X120776686Y-62624364D01*
X120550002Y-62604532D01*
X120549998Y-62604532D01*
X120323313Y-62624364D01*
X120323302Y-62624366D01*
X120103511Y-62683258D01*
X120103502Y-62683261D01*
X119897267Y-62779431D01*
X119897265Y-62779432D01*
X119710858Y-62909954D01*
X119549954Y-63070858D01*
X119419432Y-63257265D01*
X119419431Y-63257267D01*
X119323261Y-63463502D01*
X119323258Y-63463511D01*
X119264366Y-63683302D01*
X119264364Y-63683313D01*
X119244532Y-63909998D01*
X119244532Y-63910001D01*
X119264364Y-64136686D01*
X119264366Y-64136697D01*
X119323258Y-64356488D01*
X119323261Y-64356497D01*
X119419431Y-64562732D01*
X119419432Y-64562734D01*
X119549954Y-64749141D01*
X119710858Y-64910045D01*
X119710861Y-64910047D01*
X119897266Y-65040568D01*
X120103504Y-65136739D01*
X120323308Y-65195635D01*
X120485230Y-65209801D01*
X120549998Y-65215468D01*
X120550000Y-65215468D01*
X120550002Y-65215468D01*
X120606673Y-65210509D01*
X120776692Y-65195635D01*
X120996496Y-65136739D01*
X121202734Y-65040568D01*
X121389139Y-64910047D01*
X121550047Y-64749139D01*
X121680568Y-64562734D01*
X121707618Y-64504724D01*
X121753790Y-64452285D01*
X121820983Y-64433133D01*
X121887865Y-64453348D01*
X121932382Y-64504725D01*
X121959429Y-64562728D01*
X121959432Y-64562734D01*
X122089954Y-64749141D01*
X122250858Y-64910045D01*
X122250861Y-64910047D01*
X122437266Y-65040568D01*
X122643504Y-65136739D01*
X122863308Y-65195635D01*
X123025230Y-65209801D01*
X123089998Y-65215468D01*
X123090000Y-65215468D01*
X123090002Y-65215468D01*
X123146673Y-65210509D01*
X123316692Y-65195635D01*
X123536496Y-65136739D01*
X123742734Y-65040568D01*
X123929139Y-64910047D01*
X124090047Y-64749139D01*
X124220568Y-64562734D01*
X124247618Y-64504724D01*
X124293790Y-64452285D01*
X124360983Y-64433133D01*
X124427865Y-64453348D01*
X124472382Y-64504725D01*
X124499429Y-64562728D01*
X124499432Y-64562734D01*
X124629954Y-64749141D01*
X124790858Y-64910045D01*
X124790861Y-64910047D01*
X124977266Y-65040568D01*
X125183504Y-65136739D01*
X125403308Y-65195635D01*
X125565230Y-65209801D01*
X125629998Y-65215468D01*
X125630000Y-65215468D01*
X125630002Y-65215468D01*
X125686673Y-65210509D01*
X125856692Y-65195635D01*
X126076496Y-65136739D01*
X126282734Y-65040568D01*
X126469139Y-64910047D01*
X126630047Y-64749139D01*
X126760568Y-64562734D01*
X126787618Y-64504724D01*
X126833790Y-64452285D01*
X126900983Y-64433133D01*
X126967865Y-64453348D01*
X127012382Y-64504725D01*
X127039429Y-64562728D01*
X127039432Y-64562734D01*
X127169954Y-64749141D01*
X127330858Y-64910045D01*
X127330861Y-64910047D01*
X127517266Y-65040568D01*
X127723504Y-65136739D01*
X127943308Y-65195635D01*
X128105230Y-65209801D01*
X128169998Y-65215468D01*
X128170000Y-65215468D01*
X128170002Y-65215468D01*
X128226673Y-65210509D01*
X128396692Y-65195635D01*
X128616496Y-65136739D01*
X128822734Y-65040568D01*
X129009139Y-64910047D01*
X129170047Y-64749139D01*
X129300568Y-64562734D01*
X129396739Y-64356496D01*
X129455635Y-64136692D01*
X129475468Y-63910000D01*
X129455635Y-63683308D01*
X129396739Y-63463504D01*
X129300568Y-63257266D01*
X129170047Y-63070861D01*
X129170045Y-63070858D01*
X129009141Y-62909954D01*
X128822734Y-62779432D01*
X128822732Y-62779431D01*
X128616497Y-62683261D01*
X128616488Y-62683258D01*
X128396697Y-62624366D01*
X128396693Y-62624365D01*
X128396692Y-62624365D01*
X128396691Y-62624364D01*
X128396686Y-62624364D01*
X128170002Y-62604532D01*
X128169998Y-62604532D01*
X127943313Y-62624364D01*
X127943302Y-62624366D01*
X127723511Y-62683258D01*
X127723502Y-62683261D01*
X127517267Y-62779431D01*
X127517265Y-62779432D01*
X127330858Y-62909954D01*
X127169954Y-63070858D01*
X127039432Y-63257265D01*
X127039431Y-63257267D01*
X127012382Y-63315275D01*
X126966209Y-63367714D01*
X126899016Y-63386866D01*
X126832135Y-63366650D01*
X126787618Y-63315275D01*
X126760568Y-63257267D01*
X126760567Y-63257265D01*
X126630045Y-63070858D01*
X126469140Y-62909953D01*
X126308377Y-62797386D01*
X126264752Y-62742809D01*
X126255500Y-62695811D01*
X126255500Y-61580452D01*
X126275185Y-61513413D01*
X126291819Y-61492771D01*
X128522771Y-59261819D01*
X128584094Y-59228334D01*
X128610452Y-59225500D01*
X164439548Y-59225500D01*
X164506587Y-59245185D01*
X164527229Y-59261819D01*
X164810759Y-59545349D01*
X164844244Y-59606672D01*
X164839260Y-59676364D01*
X164797388Y-59732297D01*
X164766416Y-59749210D01*
X164747674Y-59756200D01*
X164747664Y-59756206D01*
X164632455Y-59842452D01*
X164632452Y-59842455D01*
X164546206Y-59957664D01*
X164546202Y-59957671D01*
X164495908Y-60092517D01*
X164489501Y-60152116D01*
X164489501Y-60152123D01*
X164489500Y-60152135D01*
X164489500Y-61947870D01*
X164489501Y-61947876D01*
X164495908Y-62007483D01*
X164546202Y-62142328D01*
X164546206Y-62142335D01*
X164632452Y-62257544D01*
X164632455Y-62257547D01*
X164747664Y-62343793D01*
X164747671Y-62343797D01*
X164882517Y-62394091D01*
X164882516Y-62394091D01*
X164889444Y-62394835D01*
X164942127Y-62400500D01*
X166737872Y-62400499D01*
X166797483Y-62394091D01*
X166932331Y-62343796D01*
X166976062Y-62311058D01*
X167041525Y-62286641D01*
X167109798Y-62301492D01*
X167138054Y-62322644D01*
X167888181Y-63072771D01*
X167921666Y-63134094D01*
X167924500Y-63160452D01*
X167924500Y-80690547D01*
X167904815Y-80757586D01*
X167852011Y-80803341D01*
X167782853Y-80813285D01*
X167719297Y-80784260D01*
X167712819Y-80778228D01*
X167492928Y-80558338D01*
X167492925Y-80558334D01*
X167492925Y-80558335D01*
X167485859Y-80551269D01*
X167485858Y-80551267D01*
X167398733Y-80464142D01*
X167398729Y-80464139D01*
X167398728Y-80464138D01*
X167324441Y-80414501D01*
X167324440Y-80414500D01*
X167296290Y-80395690D01*
X167296286Y-80395688D01*
X167269497Y-80384592D01*
X167199206Y-80355477D01*
X167198088Y-80355014D01*
X167182452Y-80348536D01*
X167178505Y-80347339D01*
X167120069Y-80309036D01*
X167102128Y-80281086D01*
X167014035Y-80092171D01*
X167014034Y-80092169D01*
X166878494Y-79898597D01*
X166711402Y-79731506D01*
X166711396Y-79731501D01*
X166525842Y-79601575D01*
X166482217Y-79546998D01*
X166475023Y-79477500D01*
X166506546Y-79415145D01*
X166525842Y-79398425D01*
X166588843Y-79354311D01*
X166711401Y-79268495D01*
X166878495Y-79101401D01*
X167014035Y-78907830D01*
X167113903Y-78693663D01*
X167175063Y-78465408D01*
X167195659Y-78230000D01*
X167175063Y-77994592D01*
X167113903Y-77766337D01*
X167014035Y-77552171D01*
X166981607Y-77505858D01*
X166878494Y-77358597D01*
X166711402Y-77191506D01*
X166711395Y-77191501D01*
X166517834Y-77055967D01*
X166517830Y-77055965D01*
X166448676Y-77023718D01*
X166303663Y-76956097D01*
X166303659Y-76956096D01*
X166303655Y-76956094D01*
X166075413Y-76894938D01*
X166075403Y-76894936D01*
X165840001Y-76874341D01*
X165839999Y-76874341D01*
X165604596Y-76894936D01*
X165604586Y-76894938D01*
X165376344Y-76956094D01*
X165376335Y-76956098D01*
X165162171Y-77055964D01*
X165162169Y-77055965D01*
X164968597Y-77191505D01*
X164801505Y-77358597D01*
X164665965Y-77552169D01*
X164665964Y-77552171D01*
X164566098Y-77766335D01*
X164566094Y-77766344D01*
X164504938Y-77994586D01*
X164504936Y-77994596D01*
X164484341Y-78229999D01*
X164484341Y-78230000D01*
X164504936Y-78465403D01*
X164504938Y-78465413D01*
X164566094Y-78693655D01*
X164566096Y-78693659D01*
X164566097Y-78693663D01*
X164650977Y-78875688D01*
X164665965Y-78907830D01*
X164665967Y-78907834D01*
X164801501Y-79101395D01*
X164801506Y-79101402D01*
X164968597Y-79268493D01*
X164968603Y-79268498D01*
X165154158Y-79398425D01*
X165197783Y-79453002D01*
X165204977Y-79522500D01*
X165173454Y-79584855D01*
X165154158Y-79601575D01*
X164968597Y-79731505D01*
X164801505Y-79898597D01*
X164665965Y-80092169D01*
X164665964Y-80092171D01*
X164566098Y-80306335D01*
X164566094Y-80306344D01*
X164504938Y-80534586D01*
X164504936Y-80534596D01*
X164484341Y-80769999D01*
X164484341Y-80770000D01*
X164504936Y-81005403D01*
X164504938Y-81005413D01*
X164566094Y-81233655D01*
X164566096Y-81233659D01*
X164566097Y-81233663D01*
X164638776Y-81389523D01*
X164665965Y-81447830D01*
X164665967Y-81447834D01*
X164801501Y-81641395D01*
X164801506Y-81641402D01*
X164968597Y-81808493D01*
X164968603Y-81808498D01*
X165154158Y-81938425D01*
X165197783Y-81993002D01*
X165204977Y-82062500D01*
X165173454Y-82124855D01*
X165154158Y-82141575D01*
X164968597Y-82271505D01*
X164801505Y-82438597D01*
X164665965Y-82632169D01*
X164665964Y-82632171D01*
X164566098Y-82846335D01*
X164566094Y-82846344D01*
X164504938Y-83074586D01*
X164504936Y-83074596D01*
X164484341Y-83309999D01*
X164484341Y-83310000D01*
X164504936Y-83545403D01*
X164504938Y-83545413D01*
X164566094Y-83773655D01*
X164566096Y-83773659D01*
X164566097Y-83773663D01*
X164617844Y-83884634D01*
X164665965Y-83987830D01*
X164665967Y-83987834D01*
X164801501Y-84181395D01*
X164801506Y-84181402D01*
X164968597Y-84348493D01*
X164968603Y-84348498D01*
X165154158Y-84478425D01*
X165197783Y-84533002D01*
X165204977Y-84602500D01*
X165173454Y-84664855D01*
X165154158Y-84681575D01*
X164968597Y-84811505D01*
X164801505Y-84978597D01*
X164665965Y-85172169D01*
X164665964Y-85172171D01*
X164566098Y-85386335D01*
X164566094Y-85386344D01*
X164504938Y-85614586D01*
X164504936Y-85614596D01*
X164484341Y-85849999D01*
X164484341Y-85850000D01*
X164504936Y-86085403D01*
X164504938Y-86085413D01*
X164553971Y-86268407D01*
X164552308Y-86338257D01*
X164513145Y-86396119D01*
X164448917Y-86423623D01*
X164434196Y-86424500D01*
X163010452Y-86424500D01*
X162943413Y-86404815D01*
X162922771Y-86388181D01*
X162461819Y-85927229D01*
X162428334Y-85865906D01*
X162425500Y-85839548D01*
X162425500Y-82644854D01*
X162444507Y-82578881D01*
X162450881Y-82568738D01*
X162515252Y-82466292D01*
X162525788Y-82449524D01*
X162529612Y-82438597D01*
X162585368Y-82279255D01*
X162585369Y-82279249D01*
X162605565Y-82100003D01*
X162605565Y-82099996D01*
X162585369Y-81920750D01*
X162585368Y-81920745D01*
X162559061Y-81845565D01*
X162525789Y-81750478D01*
X162429816Y-81597738D01*
X162302262Y-81470184D01*
X162262768Y-81445368D01*
X162149523Y-81374211D01*
X161979254Y-81314631D01*
X161979249Y-81314630D01*
X161800004Y-81294435D01*
X161799996Y-81294435D01*
X161620750Y-81314630D01*
X161620745Y-81314631D01*
X161450476Y-81374211D01*
X161297737Y-81470184D01*
X161170184Y-81597737D01*
X161074211Y-81750476D01*
X161014631Y-81920745D01*
X161014630Y-81920750D01*
X160994435Y-82099996D01*
X160994435Y-82100003D01*
X161014630Y-82279249D01*
X161014631Y-82279254D01*
X161074211Y-82449524D01*
X161127606Y-82534500D01*
X161149119Y-82568738D01*
X161155493Y-82578881D01*
X161174500Y-82644854D01*
X161174500Y-86088393D01*
X161174500Y-86211607D01*
X161174500Y-86211609D01*
X161174499Y-86211609D01*
X161182875Y-86253712D01*
X161182875Y-86253714D01*
X161198535Y-86332444D01*
X161198540Y-86332461D01*
X161200124Y-86336285D01*
X161245685Y-86446281D01*
X161245688Y-86446286D01*
X161266302Y-86477136D01*
X161266303Y-86477139D01*
X161266304Y-86477139D01*
X161314141Y-86548732D01*
X161314144Y-86548736D01*
X161405586Y-86640178D01*
X161405608Y-86640198D01*
X162211016Y-87445606D01*
X162211045Y-87445637D01*
X162301263Y-87535855D01*
X162301267Y-87535858D01*
X162403707Y-87604307D01*
X162403716Y-87604312D01*
X162424739Y-87613020D01*
X162517548Y-87651463D01*
X162577971Y-87663481D01*
X162638393Y-87675500D01*
X165511607Y-87675500D01*
X165572029Y-87663481D01*
X165632452Y-87651463D01*
X165632455Y-87651461D01*
X165632458Y-87651461D01*
X165665787Y-87637654D01*
X165665786Y-87637654D01*
X165665792Y-87637652D01*
X165746286Y-87604312D01*
X165809353Y-87562171D01*
X165809354Y-87562171D01*
X165835425Y-87544749D01*
X165848733Y-87535858D01*
X165935858Y-87448733D01*
X165935859Y-87448730D01*
X165942925Y-87441665D01*
X165942928Y-87441661D01*
X166221463Y-87163125D01*
X166277050Y-87131033D01*
X166303663Y-87123903D01*
X166517830Y-87024035D01*
X166579376Y-86980940D01*
X166645582Y-86958612D01*
X166713349Y-86975622D01*
X166761163Y-87026569D01*
X166774500Y-87082514D01*
X166774500Y-91891519D01*
X166754815Y-91958558D01*
X166702011Y-92004313D01*
X166637247Y-92014808D01*
X166587873Y-92009500D01*
X166587864Y-92009500D01*
X164792129Y-92009500D01*
X164792123Y-92009501D01*
X164732516Y-92015908D01*
X164597671Y-92066202D01*
X164597664Y-92066206D01*
X164482455Y-92152452D01*
X164482452Y-92152455D01*
X164396206Y-92267664D01*
X164396202Y-92267671D01*
X164345908Y-92402517D01*
X164339501Y-92462116D01*
X164339500Y-92462135D01*
X164339500Y-92635500D01*
X164319815Y-92702539D01*
X164267011Y-92748294D01*
X164215500Y-92759500D01*
X158276670Y-92759500D01*
X158276654Y-92759499D01*
X158269058Y-92759499D01*
X158110943Y-92759499D01*
X158034579Y-92779961D01*
X157958214Y-92800423D01*
X157958209Y-92800426D01*
X157821290Y-92879475D01*
X157821282Y-92879481D01*
X156817584Y-93883181D01*
X156756261Y-93916666D01*
X156729903Y-93919500D01*
X155789106Y-93919500D01*
X155722067Y-93899815D01*
X155676312Y-93847011D01*
X155666368Y-93777853D01*
X155669331Y-93763407D01*
X155716578Y-93587074D01*
X155725063Y-93555408D01*
X155745659Y-93320000D01*
X155725063Y-93084592D01*
X155669868Y-92878599D01*
X155663905Y-92856344D01*
X155663904Y-92856343D01*
X155663903Y-92856337D01*
X155564035Y-92642171D01*
X155553060Y-92626496D01*
X155428494Y-92448597D01*
X155261402Y-92281506D01*
X155261396Y-92281501D01*
X155075842Y-92151575D01*
X155032217Y-92096998D01*
X155025023Y-92027500D01*
X155056546Y-91965145D01*
X155075842Y-91948425D01*
X155157112Y-91891519D01*
X155261401Y-91818495D01*
X155428495Y-91651401D01*
X155564035Y-91457830D01*
X155663903Y-91243663D01*
X155725063Y-91015408D01*
X155745659Y-90780000D01*
X155725063Y-90544592D01*
X155669868Y-90338599D01*
X155663905Y-90316344D01*
X155663904Y-90316343D01*
X155663903Y-90316337D01*
X155564035Y-90102171D01*
X155521606Y-90041575D01*
X155428494Y-89908597D01*
X155261402Y-89741506D01*
X155261396Y-89741501D01*
X155075842Y-89611575D01*
X155032217Y-89556998D01*
X155025023Y-89487500D01*
X155056546Y-89425145D01*
X155075842Y-89408425D01*
X155098026Y-89392891D01*
X155261401Y-89278495D01*
X155428495Y-89111401D01*
X155564035Y-88917830D01*
X155663903Y-88703663D01*
X155725063Y-88475408D01*
X155745659Y-88240000D01*
X155725063Y-88004592D01*
X155663903Y-87776337D01*
X155564035Y-87562171D01*
X155552913Y-87546286D01*
X155428494Y-87368597D01*
X155261402Y-87201506D01*
X155261396Y-87201501D01*
X155075842Y-87071575D01*
X155032217Y-87016998D01*
X155025023Y-86947500D01*
X155056546Y-86885145D01*
X155075842Y-86868425D01*
X155098026Y-86852891D01*
X155261401Y-86738495D01*
X155428495Y-86571401D01*
X155564035Y-86377830D01*
X155663903Y-86163663D01*
X155725063Y-85935408D01*
X155745659Y-85700000D01*
X155725063Y-85464592D01*
X155663903Y-85236337D01*
X155564035Y-85022171D01*
X155563652Y-85021623D01*
X155428494Y-84828597D01*
X155261402Y-84661506D01*
X155261396Y-84661501D01*
X155075842Y-84531575D01*
X155032217Y-84476998D01*
X155025023Y-84407500D01*
X155056546Y-84345145D01*
X155075842Y-84328425D01*
X155130039Y-84290476D01*
X155261401Y-84198495D01*
X155428495Y-84031401D01*
X155564035Y-83837830D01*
X155663903Y-83623663D01*
X155725063Y-83395408D01*
X155745659Y-83160000D01*
X155725063Y-82924592D01*
X155663903Y-82696337D01*
X155564035Y-82482171D01*
X155563652Y-82481623D01*
X155428494Y-82288597D01*
X155261402Y-82121506D01*
X155261395Y-82121501D01*
X155067834Y-81985967D01*
X155067830Y-81985965D01*
X155067828Y-81985964D01*
X154853663Y-81886097D01*
X154853659Y-81886096D01*
X154853655Y-81886094D01*
X154625413Y-81824938D01*
X154625403Y-81824936D01*
X154390001Y-81804341D01*
X154389999Y-81804341D01*
X154154596Y-81824936D01*
X154154586Y-81824938D01*
X153926344Y-81886094D01*
X153926335Y-81886098D01*
X153712171Y-81985964D01*
X153712169Y-81985965D01*
X153518597Y-82121505D01*
X153351505Y-82288597D01*
X153216348Y-82481623D01*
X153161771Y-82525248D01*
X153114773Y-82534500D01*
X149878389Y-82534500D01*
X149817971Y-82546518D01*
X149774743Y-82555116D01*
X149757546Y-82558537D01*
X149643716Y-82605687D01*
X149544153Y-82672212D01*
X149544154Y-82672213D01*
X149541266Y-82674142D01*
X149541260Y-82674147D01*
X147477229Y-84738181D01*
X147415906Y-84771666D01*
X147389548Y-84774500D01*
X146519855Y-84774500D01*
X146453883Y-84755494D01*
X146324523Y-84674211D01*
X146154254Y-84614631D01*
X146154249Y-84614630D01*
X145975004Y-84594435D01*
X145974996Y-84594435D01*
X145795750Y-84614630D01*
X145795745Y-84614631D01*
X145625476Y-84674211D01*
X145472737Y-84770184D01*
X145345184Y-84897737D01*
X145249211Y-85050476D01*
X145189631Y-85220745D01*
X145189630Y-85220750D01*
X145169435Y-85399996D01*
X145169435Y-85400003D01*
X145189630Y-85579249D01*
X145189631Y-85579254D01*
X145249211Y-85749523D01*
X145313609Y-85852011D01*
X145345184Y-85902262D01*
X145472738Y-86029816D01*
X145625478Y-86125789D01*
X145680909Y-86145185D01*
X145795745Y-86185368D01*
X145795750Y-86185369D01*
X145974996Y-86205565D01*
X145975000Y-86205565D01*
X145975004Y-86205565D01*
X146154249Y-86185369D01*
X146154252Y-86185368D01*
X146154255Y-86185368D01*
X146324522Y-86125789D01*
X146453883Y-86044505D01*
X146519855Y-86025500D01*
X147761608Y-86025500D01*
X147761608Y-86025499D01*
X147856163Y-86006692D01*
X147856164Y-86006692D01*
X147882442Y-86001465D01*
X147882442Y-86001464D01*
X147882452Y-86001463D01*
X147915792Y-85987652D01*
X147996286Y-85954312D01*
X148060198Y-85911606D01*
X148098733Y-85885858D01*
X148185858Y-85798733D01*
X148185858Y-85798731D01*
X148196066Y-85788524D01*
X148196067Y-85788521D01*
X150162772Y-83821819D01*
X150224095Y-83788334D01*
X150250453Y-83785500D01*
X153114773Y-83785500D01*
X153181812Y-83805185D01*
X153216348Y-83838377D01*
X153351501Y-84031396D01*
X153351506Y-84031402D01*
X153518597Y-84198493D01*
X153518603Y-84198498D01*
X153704158Y-84328425D01*
X153747783Y-84383002D01*
X153754977Y-84452500D01*
X153723454Y-84514855D01*
X153704158Y-84531575D01*
X153518597Y-84661505D01*
X153351505Y-84828597D01*
X153215965Y-85022169D01*
X153215964Y-85022171D01*
X153116098Y-85236335D01*
X153116094Y-85236344D01*
X153054938Y-85464586D01*
X153054936Y-85464596D01*
X153034341Y-85699999D01*
X153034341Y-85700000D01*
X153054936Y-85935403D01*
X153054938Y-85935413D01*
X153116094Y-86163655D01*
X153116096Y-86163659D01*
X153116097Y-86163663D01*
X153191563Y-86325500D01*
X153215965Y-86377830D01*
X153215967Y-86377834D01*
X153263895Y-86446281D01*
X153351501Y-86571396D01*
X153351506Y-86571402D01*
X153518597Y-86738493D01*
X153518603Y-86738498D01*
X153704158Y-86868425D01*
X153747783Y-86923002D01*
X153754977Y-86992500D01*
X153723454Y-87054855D01*
X153704158Y-87071575D01*
X153518597Y-87201505D01*
X153351505Y-87368597D01*
X153215965Y-87562169D01*
X153215964Y-87562171D01*
X153116098Y-87776335D01*
X153116094Y-87776344D01*
X153054938Y-88004586D01*
X153054936Y-88004596D01*
X153034341Y-88239999D01*
X153034341Y-88240000D01*
X153054936Y-88475403D01*
X153054938Y-88475413D01*
X153116094Y-88703655D01*
X153116096Y-88703659D01*
X153116097Y-88703663D01*
X153187365Y-88856497D01*
X153215965Y-88917830D01*
X153215967Y-88917834D01*
X153351501Y-89111395D01*
X153351506Y-89111402D01*
X153518597Y-89278493D01*
X153518603Y-89278498D01*
X153704158Y-89408425D01*
X153747783Y-89463002D01*
X153754977Y-89532500D01*
X153723454Y-89594855D01*
X153704158Y-89611575D01*
X153518597Y-89741505D01*
X153351505Y-89908597D01*
X153215965Y-90102169D01*
X153215964Y-90102171D01*
X153116098Y-90316335D01*
X153116094Y-90316344D01*
X153054938Y-90544586D01*
X153054936Y-90544596D01*
X153034341Y-90779999D01*
X153034341Y-90780000D01*
X153054936Y-91015403D01*
X153054938Y-91015413D01*
X153116094Y-91243655D01*
X153116096Y-91243659D01*
X153116097Y-91243663D01*
X153210170Y-91445403D01*
X153215965Y-91457830D01*
X153215967Y-91457834D01*
X153351501Y-91651395D01*
X153351506Y-91651402D01*
X153518597Y-91818493D01*
X153518603Y-91818498D01*
X153704158Y-91948425D01*
X153747783Y-92003002D01*
X153754977Y-92072500D01*
X153723454Y-92134855D01*
X153704158Y-92151575D01*
X153518597Y-92281505D01*
X153351505Y-92448597D01*
X153215965Y-92642169D01*
X153215964Y-92642171D01*
X153116098Y-92856335D01*
X153116094Y-92856344D01*
X153054938Y-93084586D01*
X153054936Y-93084596D01*
X153034341Y-93319999D01*
X153034341Y-93320002D01*
X153047323Y-93468391D01*
X153033556Y-93536891D01*
X152984941Y-93587074D01*
X152916912Y-93603007D01*
X152851069Y-93579631D01*
X152836114Y-93566879D01*
X151891941Y-92622706D01*
X151858456Y-92561383D01*
X151859847Y-92502931D01*
X151885635Y-92406692D01*
X151905468Y-92180000D01*
X151885635Y-91953308D01*
X151826739Y-91733504D01*
X151730568Y-91527266D01*
X151600047Y-91340861D01*
X151600045Y-91340858D01*
X151439141Y-91179954D01*
X151252734Y-91049432D01*
X151252732Y-91049431D01*
X151046497Y-90953261D01*
X151046488Y-90953258D01*
X150826697Y-90894366D01*
X150826693Y-90894365D01*
X150826692Y-90894365D01*
X150826691Y-90894364D01*
X150826686Y-90894364D01*
X150600002Y-90874532D01*
X150599998Y-90874532D01*
X150373313Y-90894364D01*
X150373302Y-90894366D01*
X150153511Y-90953258D01*
X150153502Y-90953261D01*
X149947267Y-91049431D01*
X149947265Y-91049432D01*
X149760858Y-91179954D01*
X149599954Y-91340858D01*
X149526753Y-91445403D01*
X149469881Y-91526624D01*
X149415307Y-91570248D01*
X149368308Y-91579500D01*
X145949057Y-91579500D01*
X145790942Y-91579500D01*
X145638215Y-91620423D01*
X145638214Y-91620423D01*
X145638212Y-91620424D01*
X145638209Y-91620425D01*
X145588096Y-91649359D01*
X145588095Y-91649360D01*
X145546015Y-91673655D01*
X145501285Y-91699479D01*
X145501282Y-91699481D01*
X145012181Y-92188583D01*
X144950858Y-92222068D01*
X144881166Y-92217084D01*
X144825233Y-92175212D01*
X144800816Y-92109748D01*
X144800500Y-92100902D01*
X144800500Y-89721955D01*
X144820185Y-89654916D01*
X144872989Y-89609161D01*
X144910615Y-89598735D01*
X144945055Y-89594855D01*
X145029250Y-89585369D01*
X145029253Y-89585368D01*
X145029255Y-89585368D01*
X145199522Y-89525789D01*
X145352262Y-89429816D01*
X145479816Y-89302262D01*
X145575789Y-89149522D01*
X145635368Y-88979255D01*
X145640672Y-88932174D01*
X145667737Y-88867764D01*
X145676199Y-88858389D01*
X145922773Y-88611818D01*
X145984097Y-88578334D01*
X146010454Y-88575500D01*
X149961608Y-88575500D01*
X149961608Y-88575499D01*
X150073382Y-88553267D01*
X150082452Y-88551463D01*
X150115792Y-88537652D01*
X150196286Y-88504312D01*
X150247509Y-88470084D01*
X150298733Y-88435858D01*
X150385858Y-88348733D01*
X150385858Y-88348731D01*
X150396066Y-88338524D01*
X150396067Y-88338521D01*
X151085857Y-87648734D01*
X151124512Y-87590884D01*
X151154311Y-87546286D01*
X151201463Y-87432452D01*
X151214164Y-87368597D01*
X151218602Y-87346288D01*
X151218602Y-87346285D01*
X151225500Y-87311607D01*
X151225500Y-87188394D01*
X151225500Y-86994188D01*
X151245185Y-86927149D01*
X151278377Y-86892613D01*
X151374373Y-86825396D01*
X151439139Y-86780047D01*
X151600047Y-86619139D01*
X151730568Y-86432734D01*
X151826739Y-86226496D01*
X151885635Y-86006692D01*
X151905468Y-85780000D01*
X151885635Y-85553308D01*
X151826739Y-85333504D01*
X151730568Y-85127266D01*
X151600047Y-84940861D01*
X151600045Y-84940858D01*
X151439141Y-84779954D01*
X151252734Y-84649432D01*
X151252732Y-84649431D01*
X151046497Y-84553261D01*
X151046488Y-84553258D01*
X150826697Y-84494366D01*
X150826693Y-84494365D01*
X150826692Y-84494365D01*
X150826691Y-84494364D01*
X150826686Y-84494364D01*
X150600002Y-84474532D01*
X150599998Y-84474532D01*
X150373313Y-84494364D01*
X150373302Y-84494366D01*
X150153511Y-84553258D01*
X150153502Y-84553261D01*
X149947267Y-84649431D01*
X149947265Y-84649432D01*
X149760858Y-84779954D01*
X149599954Y-84940858D01*
X149469432Y-85127265D01*
X149469431Y-85127267D01*
X149373261Y-85333502D01*
X149373258Y-85333511D01*
X149314366Y-85553302D01*
X149314364Y-85553313D01*
X149294532Y-85779998D01*
X149294532Y-85780001D01*
X149314364Y-86006686D01*
X149314366Y-86006697D01*
X149373258Y-86226488D01*
X149373261Y-86226497D01*
X149469431Y-86432732D01*
X149469432Y-86432734D01*
X149599954Y-86619141D01*
X149760859Y-86780046D01*
X149889484Y-86870110D01*
X149933109Y-86924687D01*
X149940303Y-86994185D01*
X149908780Y-87056540D01*
X149906043Y-87059366D01*
X149677227Y-87288182D01*
X149615907Y-87321666D01*
X149589548Y-87324500D01*
X145767741Y-87324500D01*
X145767721Y-87324499D01*
X145761607Y-87324499D01*
X145638394Y-87324499D01*
X145537597Y-87344548D01*
X145537592Y-87344548D01*
X145517549Y-87348536D01*
X145517547Y-87348536D01*
X145470397Y-87368067D01*
X145403719Y-87395685D01*
X145403717Y-87395686D01*
X145301266Y-87464141D01*
X145301263Y-87464144D01*
X144791621Y-87973787D01*
X144730298Y-88007272D01*
X144717825Y-88009326D01*
X144670750Y-88014630D01*
X144500478Y-88074210D01*
X144347737Y-88170184D01*
X144263937Y-88253985D01*
X144202614Y-88287470D01*
X144132922Y-88282486D01*
X144088575Y-88253985D01*
X143641819Y-87807229D01*
X143608334Y-87745906D01*
X143605500Y-87719548D01*
X143605500Y-86994188D01*
X143625185Y-86927149D01*
X143658377Y-86892613D01*
X143754373Y-86825396D01*
X143819139Y-86780047D01*
X143980047Y-86619139D01*
X144110568Y-86432734D01*
X144206739Y-86226496D01*
X144265635Y-86006692D01*
X144285468Y-85780000D01*
X144265635Y-85553308D01*
X144247318Y-85484947D01*
X144248981Y-85415101D01*
X144279410Y-85365178D01*
X145598729Y-84045860D01*
X145598733Y-84045858D01*
X145685858Y-83958733D01*
X145735370Y-83884634D01*
X145735371Y-83884633D01*
X145754309Y-83856290D01*
X145754312Y-83856286D01*
X145801463Y-83742451D01*
X145801464Y-83742444D01*
X145801465Y-83742444D01*
X145804587Y-83726745D01*
X145806417Y-83717548D01*
X145820676Y-83645858D01*
X145820676Y-83645857D01*
X145820677Y-83645857D01*
X145820677Y-83645851D01*
X145820683Y-83645825D01*
X145825500Y-83621607D01*
X145825500Y-83498393D01*
X145825500Y-80410452D01*
X145845185Y-80343413D01*
X145861819Y-80322771D01*
X146092771Y-80091819D01*
X146154094Y-80058334D01*
X146180452Y-80055500D01*
X149385812Y-80055500D01*
X149452851Y-80075185D01*
X149487387Y-80108377D01*
X149599954Y-80269141D01*
X149760858Y-80430045D01*
X149760861Y-80430047D01*
X149947266Y-80560568D01*
X150153504Y-80656739D01*
X150153509Y-80656740D01*
X150153511Y-80656741D01*
X150206415Y-80670916D01*
X150373308Y-80715635D01*
X150535230Y-80729801D01*
X150599998Y-80735468D01*
X150600000Y-80735468D01*
X150600002Y-80735468D01*
X150656673Y-80730509D01*
X150826692Y-80715635D01*
X151046496Y-80656739D01*
X151252734Y-80560568D01*
X151439139Y-80430047D01*
X151600047Y-80269139D01*
X151730568Y-80082734D01*
X151826739Y-79876496D01*
X151885635Y-79656692D01*
X151905468Y-79430000D01*
X151885635Y-79203308D01*
X151826739Y-78983504D01*
X151730568Y-78777266D01*
X151600047Y-78590861D01*
X151600045Y-78590858D01*
X151439141Y-78429954D01*
X151252734Y-78299432D01*
X151252732Y-78299431D01*
X151046497Y-78203261D01*
X151046488Y-78203258D01*
X150826697Y-78144366D01*
X150826693Y-78144365D01*
X150826692Y-78144365D01*
X150826691Y-78144364D01*
X150826686Y-78144364D01*
X150600002Y-78124532D01*
X150599998Y-78124532D01*
X150373313Y-78144364D01*
X150373302Y-78144366D01*
X150153511Y-78203258D01*
X150153502Y-78203261D01*
X149947267Y-78299431D01*
X149947265Y-78299432D01*
X149760858Y-78429954D01*
X149599954Y-78590858D01*
X149487387Y-78751623D01*
X149432811Y-78795248D01*
X149385812Y-78804500D01*
X145808392Y-78804500D01*
X145780269Y-78810094D01*
X145752146Y-78815688D01*
X145700396Y-78825981D01*
X145687547Y-78828537D01*
X145687541Y-78828539D01*
X145658212Y-78840688D01*
X145573718Y-78875685D01*
X145573709Y-78875690D01*
X145525611Y-78907830D01*
X145525610Y-78907831D01*
X145471268Y-78944140D01*
X145437545Y-78977864D01*
X145384142Y-79031267D01*
X145384139Y-79031270D01*
X144801270Y-79614139D01*
X144801267Y-79614142D01*
X144758723Y-79656686D01*
X144714141Y-79701267D01*
X144697423Y-79726286D01*
X144697424Y-79726287D01*
X144645686Y-79803717D01*
X144645685Y-79803718D01*
X144615540Y-79876495D01*
X144615541Y-79876496D01*
X144599238Y-79915857D01*
X144599236Y-79915862D01*
X144598537Y-79917548D01*
X144598536Y-79917551D01*
X144575879Y-80031463D01*
X144575878Y-80031464D01*
X144574500Y-80038391D01*
X144574500Y-83249547D01*
X144554815Y-83316586D01*
X144538181Y-83337228D01*
X143394822Y-84480586D01*
X143333499Y-84514071D01*
X143275049Y-84512680D01*
X143206699Y-84494367D01*
X143206702Y-84494367D01*
X143206692Y-84494365D01*
X143206689Y-84494364D01*
X143206686Y-84494364D01*
X142980001Y-84474532D01*
X142979998Y-84474532D01*
X142753313Y-84494364D01*
X142753302Y-84494366D01*
X142533511Y-84553258D01*
X142533502Y-84553261D01*
X142327267Y-84649431D01*
X142327265Y-84649432D01*
X142140858Y-84779954D01*
X142087181Y-84833632D01*
X142025858Y-84867117D01*
X141956166Y-84862133D01*
X141900233Y-84820261D01*
X141875816Y-84754797D01*
X141875500Y-84745951D01*
X141875500Y-84210452D01*
X141895185Y-84143413D01*
X141911819Y-84122771D01*
X143465853Y-82568738D01*
X143465853Y-82568737D01*
X143465857Y-82568734D01*
X143472671Y-82558537D01*
X143534311Y-82466286D01*
X143581463Y-82352452D01*
X143605500Y-82231606D01*
X143605500Y-80644188D01*
X143625185Y-80577149D01*
X143658377Y-80542613D01*
X143746734Y-80480745D01*
X143819139Y-80430047D01*
X143980047Y-80269139D01*
X144110568Y-80082734D01*
X144206739Y-79876496D01*
X144265635Y-79656692D01*
X144285468Y-79430000D01*
X144265635Y-79203308D01*
X144206739Y-78983504D01*
X144110568Y-78777266D01*
X143980047Y-78590861D01*
X143980045Y-78590858D01*
X143819140Y-78429953D01*
X143658377Y-78317386D01*
X143614752Y-78262809D01*
X143605500Y-78215811D01*
X143605500Y-77258393D01*
X143605499Y-77258389D01*
X143593485Y-77197989D01*
X143581463Y-77137548D01*
X143566516Y-77101463D01*
X143547671Y-77055967D01*
X143534314Y-77023718D01*
X143534312Y-77023715D01*
X143534312Y-77023714D01*
X143500084Y-76972490D01*
X143465858Y-76921267D01*
X143465856Y-76921264D01*
X143375637Y-76831045D01*
X143375606Y-76831016D01*
X142650198Y-76105608D01*
X142650178Y-76105586D01*
X142558733Y-76014141D01*
X142507509Y-75979915D01*
X142456286Y-75945688D01*
X142456283Y-75945686D01*
X142456280Y-75945685D01*
X142375792Y-75912347D01*
X142342453Y-75898537D01*
X142327983Y-75895659D01*
X142282029Y-75886518D01*
X142221610Y-75874500D01*
X142221607Y-75874500D01*
X142221606Y-75874500D01*
X141229453Y-75874500D01*
X141162414Y-75854815D01*
X141116659Y-75802011D01*
X141106715Y-75732853D01*
X141135740Y-75669297D01*
X141141772Y-75662819D01*
X141495857Y-75308734D01*
X141498957Y-75304094D01*
X141564311Y-75206286D01*
X141611463Y-75092452D01*
X141635500Y-74971607D01*
X141635500Y-74848394D01*
X141635500Y-71449996D01*
X158144435Y-71449996D01*
X158144435Y-71450003D01*
X158164630Y-71629249D01*
X158164631Y-71629254D01*
X158224211Y-71799523D01*
X158259828Y-71856206D01*
X158320184Y-71952262D01*
X158447738Y-72079816D01*
X158600478Y-72175789D01*
X158770745Y-72235368D01*
X158817823Y-72240672D01*
X158882236Y-72267737D01*
X158891621Y-72276211D01*
X159888181Y-73272771D01*
X159921666Y-73334094D01*
X159924500Y-73360452D01*
X159924500Y-78255145D01*
X159905494Y-78321117D01*
X159824211Y-78450476D01*
X159764631Y-78620745D01*
X159764630Y-78620750D01*
X159744435Y-78799996D01*
X159744435Y-78800003D01*
X159764630Y-78979249D01*
X159764631Y-78979254D01*
X159824211Y-79149523D01*
X159898967Y-79268495D01*
X159920184Y-79302262D01*
X160047738Y-79429816D01*
X160123627Y-79477500D01*
X160195243Y-79522500D01*
X160200478Y-79525789D01*
X160359705Y-79581505D01*
X160370745Y-79585368D01*
X160370750Y-79585369D01*
X160549996Y-79605565D01*
X160550000Y-79605565D01*
X160550004Y-79605565D01*
X160729249Y-79585369D01*
X160729252Y-79585368D01*
X160729255Y-79585368D01*
X160899522Y-79525789D01*
X161052262Y-79429816D01*
X161179816Y-79302262D01*
X161275789Y-79149522D01*
X161335368Y-78979255D01*
X161335523Y-78977883D01*
X161355565Y-78800003D01*
X161355565Y-78799996D01*
X161335369Y-78620750D01*
X161335368Y-78620745D01*
X161275788Y-78450476D01*
X161194506Y-78321117D01*
X161175500Y-78255145D01*
X161175500Y-73117741D01*
X161175501Y-73117720D01*
X161175501Y-72988391D01*
X161151464Y-72867555D01*
X161151463Y-72867549D01*
X161104312Y-72753715D01*
X161035858Y-72651267D01*
X161035855Y-72651263D01*
X160636726Y-72252135D01*
X164489500Y-72252135D01*
X164489500Y-74047870D01*
X164489501Y-74047876D01*
X164495908Y-74107483D01*
X164546202Y-74242328D01*
X164546206Y-74242335D01*
X164632452Y-74357544D01*
X164632455Y-74357547D01*
X164747664Y-74443793D01*
X164747671Y-74443797D01*
X164882517Y-74494091D01*
X164882516Y-74494091D01*
X164889444Y-74494835D01*
X164942127Y-74500500D01*
X166737872Y-74500499D01*
X166797483Y-74494091D01*
X166932331Y-74443796D01*
X167047546Y-74357546D01*
X167133796Y-74242331D01*
X167184091Y-74107483D01*
X167190500Y-74047873D01*
X167190499Y-72252128D01*
X167184091Y-72192517D01*
X167180442Y-72182734D01*
X167133797Y-72057671D01*
X167133793Y-72057664D01*
X167047547Y-71942455D01*
X167047544Y-71942452D01*
X166932335Y-71856206D01*
X166932328Y-71856202D01*
X166797482Y-71805908D01*
X166797483Y-71805908D01*
X166737883Y-71799501D01*
X166737881Y-71799500D01*
X166737873Y-71799500D01*
X166737864Y-71799500D01*
X164942129Y-71799500D01*
X164942123Y-71799501D01*
X164882516Y-71805908D01*
X164747671Y-71856202D01*
X164747664Y-71856206D01*
X164632455Y-71942452D01*
X164632452Y-71942455D01*
X164546206Y-72057664D01*
X164546202Y-72057671D01*
X164495908Y-72192517D01*
X164490209Y-72245530D01*
X164489501Y-72252123D01*
X164489500Y-72252135D01*
X160636726Y-72252135D01*
X159776211Y-71391621D01*
X159742726Y-71330298D01*
X159740673Y-71317838D01*
X159735368Y-71270745D01*
X159675789Y-71100478D01*
X159579816Y-70947738D01*
X159452262Y-70820184D01*
X159299523Y-70724211D01*
X159129254Y-70664631D01*
X159129249Y-70664630D01*
X158950004Y-70644435D01*
X158949996Y-70644435D01*
X158770750Y-70664630D01*
X158770745Y-70664631D01*
X158600476Y-70724211D01*
X158447737Y-70820184D01*
X158320184Y-70947737D01*
X158224211Y-71100476D01*
X158164631Y-71270745D01*
X158164630Y-71270750D01*
X158144435Y-71449996D01*
X141635500Y-71449996D01*
X141635500Y-69626114D01*
X141655185Y-69559075D01*
X141688575Y-69526398D01*
X141687668Y-69525150D01*
X141691605Y-69522289D01*
X141691610Y-69522287D01*
X141857219Y-69401966D01*
X142001966Y-69257219D01*
X142001968Y-69257215D01*
X142001971Y-69257213D01*
X142054732Y-69184590D01*
X142122287Y-69091610D01*
X142215220Y-68909219D01*
X142278477Y-68714534D01*
X142310500Y-68512352D01*
X142310500Y-67407648D01*
X142278477Y-67205466D01*
X142215220Y-67010781D01*
X142215218Y-67010778D01*
X142215218Y-67010776D01*
X142159879Y-66902169D01*
X142122287Y-66828390D01*
X142114556Y-66817749D01*
X142001971Y-66662786D01*
X141857213Y-66518028D01*
X141691613Y-66397715D01*
X141691612Y-66397714D01*
X141691610Y-66397713D01*
X141634653Y-66368691D01*
X141509223Y-66304781D01*
X141314534Y-66241522D01*
X141139995Y-66213878D01*
X141112352Y-66209500D01*
X140907648Y-66209500D01*
X140883329Y-66213351D01*
X140705465Y-66241522D01*
X140510776Y-66304781D01*
X140328386Y-66397715D01*
X140162786Y-66518028D01*
X140018028Y-66662786D01*
X139897715Y-66828386D01*
X139804781Y-67010776D01*
X139741522Y-67205465D01*
X139709500Y-67407648D01*
X139709500Y-68512351D01*
X139741522Y-68714534D01*
X139804781Y-68909223D01*
X139897715Y-69091613D01*
X140018028Y-69257213D01*
X140018034Y-69257219D01*
X140162781Y-69401966D01*
X140328390Y-69522287D01*
X140328394Y-69522289D01*
X140332332Y-69525150D01*
X140331111Y-69526829D01*
X140372155Y-69572177D01*
X140384500Y-69626114D01*
X140384500Y-74599547D01*
X140364815Y-74666586D01*
X140348181Y-74687228D01*
X139947229Y-75088181D01*
X139885906Y-75121666D01*
X139859548Y-75124500D01*
X132663393Y-75124500D01*
X132596354Y-75104815D01*
X132550599Y-75052011D01*
X132540173Y-74986617D01*
X132555565Y-74850003D01*
X132555565Y-74849996D01*
X132535369Y-74670750D01*
X132535368Y-74670745D01*
X132510455Y-74599547D01*
X132475789Y-74500478D01*
X132379816Y-74347738D01*
X132252262Y-74220184D01*
X132099521Y-74124210D01*
X131929249Y-74064630D01*
X131882174Y-74059326D01*
X131817760Y-74032259D01*
X131808378Y-74023787D01*
X131542928Y-73758338D01*
X131542925Y-73758334D01*
X131542925Y-73758335D01*
X131535858Y-73751268D01*
X131535858Y-73751267D01*
X131448733Y-73664142D01*
X131448732Y-73664141D01*
X131448731Y-73664140D01*
X131388528Y-73623914D01*
X131346286Y-73595688D01*
X131265792Y-73562347D01*
X131232452Y-73548537D01*
X131232448Y-73548536D01*
X131232444Y-73548535D01*
X131168707Y-73535857D01*
X131168706Y-73535857D01*
X131111611Y-73524500D01*
X131111607Y-73524500D01*
X131111606Y-73524500D01*
X124010452Y-73524500D01*
X123943413Y-73504815D01*
X123922771Y-73488181D01*
X123751819Y-73317229D01*
X123718334Y-73255906D01*
X123715500Y-73229548D01*
X123715500Y-72744188D01*
X123735185Y-72677149D01*
X123768377Y-72642613D01*
X123868745Y-72572335D01*
X123929139Y-72530047D01*
X124090047Y-72369139D01*
X124220568Y-72182734D01*
X124247618Y-72124724D01*
X124293790Y-72072285D01*
X124360983Y-72053133D01*
X124427865Y-72073348D01*
X124472382Y-72124725D01*
X124499429Y-72182728D01*
X124499432Y-72182734D01*
X124629954Y-72369141D01*
X124790858Y-72530045D01*
X124790861Y-72530047D01*
X124977266Y-72660568D01*
X125183504Y-72756739D01*
X125403308Y-72815635D01*
X125565230Y-72829801D01*
X125629998Y-72835468D01*
X125630000Y-72835468D01*
X125630002Y-72835468D01*
X125686807Y-72830498D01*
X125856692Y-72815635D01*
X126076496Y-72756739D01*
X126282734Y-72660568D01*
X126469139Y-72530047D01*
X126630047Y-72369139D01*
X126760568Y-72182734D01*
X126787618Y-72124724D01*
X126833790Y-72072285D01*
X126900983Y-72053133D01*
X126967865Y-72073348D01*
X127012382Y-72124725D01*
X127039429Y-72182728D01*
X127039432Y-72182734D01*
X127169954Y-72369141D01*
X127330858Y-72530045D01*
X127330861Y-72530047D01*
X127517266Y-72660568D01*
X127723504Y-72756739D01*
X127943308Y-72815635D01*
X128105230Y-72829801D01*
X128169998Y-72835468D01*
X128170000Y-72835468D01*
X128170002Y-72835468D01*
X128226807Y-72830498D01*
X128396692Y-72815635D01*
X128616496Y-72756739D01*
X128822734Y-72660568D01*
X129009139Y-72530047D01*
X129170047Y-72369139D01*
X129300568Y-72182734D01*
X129396739Y-71976496D01*
X129455635Y-71756692D01*
X129475468Y-71530000D01*
X129455635Y-71303308D01*
X129396739Y-71083504D01*
X129300568Y-70877266D01*
X129235307Y-70784063D01*
X129170048Y-70690862D01*
X129101702Y-70622516D01*
X129009139Y-70529953D01*
X129009135Y-70529950D01*
X129009134Y-70529949D01*
X128978374Y-70508410D01*
X128934751Y-70453833D01*
X128925500Y-70406837D01*
X128925500Y-70338393D01*
X128925499Y-70338389D01*
X128915119Y-70286204D01*
X128901463Y-70217548D01*
X128854311Y-70103714D01*
X128854310Y-70103713D01*
X128854307Y-70103707D01*
X128785858Y-70001267D01*
X128785855Y-70001263D01*
X128695637Y-69911045D01*
X128695606Y-69911016D01*
X127890198Y-69105608D01*
X127890178Y-69105586D01*
X127798733Y-69014141D01*
X127747509Y-68979915D01*
X127696286Y-68945688D01*
X127672073Y-68935659D01*
X127599262Y-68905500D01*
X127599259Y-68905498D01*
X127599258Y-68905498D01*
X127582455Y-68898538D01*
X127582453Y-68898537D01*
X127582452Y-68898537D01*
X127522029Y-68886518D01*
X127461610Y-68874500D01*
X127461607Y-68874500D01*
X127461606Y-68874500D01*
X114160452Y-68874500D01*
X114093413Y-68854815D01*
X114072771Y-68838181D01*
X113534456Y-68299866D01*
X113500971Y-68238543D01*
X113505955Y-68168851D01*
X113509743Y-68159806D01*
X113563903Y-68043663D01*
X113625063Y-67815408D01*
X113645659Y-67580000D01*
X113625063Y-67344592D01*
X113563903Y-67116337D01*
X113464035Y-66902171D01*
X113412374Y-66828390D01*
X113328494Y-66708597D01*
X113161402Y-66541506D01*
X113161401Y-66541505D01*
X113127872Y-66518028D01*
X112975839Y-66411573D01*
X112932216Y-66356997D01*
X112925023Y-66287498D01*
X112956545Y-66225144D01*
X112975831Y-66208432D01*
X113161401Y-66078495D01*
X113328495Y-65911401D01*
X113464035Y-65717830D01*
X113563903Y-65503663D01*
X113625063Y-65275408D01*
X113645659Y-65040000D01*
X113625063Y-64804592D01*
X113563903Y-64576337D01*
X113464035Y-64362171D01*
X113460061Y-64356496D01*
X113328496Y-64168600D01*
X113296582Y-64136686D01*
X113206567Y-64046671D01*
X113173084Y-63985351D01*
X113178068Y-63915659D01*
X113219939Y-63859725D01*
X113250915Y-63842810D01*
X113382331Y-63793796D01*
X113497546Y-63707546D01*
X113583796Y-63592331D01*
X113634091Y-63457483D01*
X113640500Y-63397873D01*
X113640499Y-61602128D01*
X113634091Y-61542517D01*
X113583796Y-61407669D01*
X113583795Y-61407668D01*
X113583793Y-61407664D01*
X113497547Y-61292455D01*
X113497544Y-61292452D01*
X113382335Y-61206206D01*
X113382328Y-61206202D01*
X113247482Y-61155908D01*
X113247483Y-61155908D01*
X113187883Y-61149501D01*
X113187881Y-61149500D01*
X113187873Y-61149500D01*
X113187864Y-61149500D01*
X111392129Y-61149500D01*
X111392123Y-61149501D01*
X111332516Y-61155908D01*
X111197671Y-61206202D01*
X111197664Y-61206206D01*
X111082455Y-61292452D01*
X111082452Y-61292455D01*
X110996206Y-61407664D01*
X110996202Y-61407671D01*
X110945908Y-61542517D01*
X110941830Y-61580452D01*
X110939501Y-61602123D01*
X110939500Y-61602135D01*
X110939500Y-61785879D01*
X110919815Y-61852918D01*
X110867011Y-61898673D01*
X110862953Y-61900440D01*
X110753716Y-61945687D01*
X110654397Y-62012051D01*
X110654390Y-62012055D01*
X110651271Y-62014138D01*
X110651266Y-62014142D01*
X109755456Y-62909953D01*
X109001269Y-63664140D01*
X109001267Y-63664142D01*
X108957865Y-63707544D01*
X108914142Y-63751266D01*
X108899886Y-63772602D01*
X108885725Y-63793796D01*
X108865706Y-63823755D01*
X108845688Y-63853713D01*
X108840615Y-63865962D01*
X108840614Y-63865964D01*
X108798538Y-63967544D01*
X108798535Y-63967556D01*
X108791782Y-64001504D01*
X108791783Y-64001505D01*
X108776579Y-64077944D01*
X108774500Y-64088396D01*
X107240500Y-64088396D01*
X107240500Y-55654500D01*
X107260185Y-55587461D01*
X107312989Y-55541706D01*
X107364500Y-55530500D01*
X171115500Y-55530500D01*
X171182539Y-55550185D01*
G37*
%TD.AperFunction*%
M02*
